<svg width="375" height="80" viewBox="0 0 375 80" fill="none" xmlns="http://www.w3.org/2000/svg">
<rect width="375" height="80" fill="#808080"/>
<rect x="290" y="19" width="70" height="30" rx="8" fill="#EAEAEA"/>
<path d="M306.999 40V29.8182H309.46V38.0014H313.696V40H306.999ZM317.123 40.1293C316.635 40.1293 316.203 40.0481 315.825 39.8857C315.45 39.7199 315.154 39.4714 314.935 39.1399C314.72 38.8052 314.612 38.3859 314.612 37.8821C314.612 37.4579 314.686 37.0999 314.836 36.8082C314.985 36.5166 315.19 36.2796 315.452 36.0973C315.714 35.915 316.016 35.7775 316.357 35.6847C316.698 35.5885 317.063 35.5239 317.451 35.4908C317.885 35.451 318.234 35.4096 318.5 35.3665C318.765 35.3201 318.957 35.2554 319.076 35.1726C319.199 35.0864 319.26 34.9654 319.26 34.8097V34.7848C319.26 34.5296 319.172 34.3324 318.997 34.1932C318.821 34.054 318.584 33.9844 318.286 33.9844C317.964 33.9844 317.706 34.054 317.51 34.1932C317.315 34.3324 317.19 34.5246 317.137 34.7699L314.895 34.6903C314.962 34.2263 315.132 33.812 315.407 33.4474C315.686 33.0795 316.067 32.7912 316.551 32.5824C317.038 32.3703 317.623 32.2642 318.306 32.2642C318.793 32.2642 319.242 32.3222 319.653 32.4382C320.064 32.5509 320.422 32.7166 320.727 32.9354C321.032 33.1508 321.267 33.416 321.433 33.7308C321.602 34.0457 321.686 34.4053 321.686 34.8097V40H319.4V38.9361H319.34C319.204 39.1946 319.03 39.4134 318.818 39.5923C318.609 39.7713 318.362 39.9055 318.077 39.995C317.795 40.0845 317.477 40.1293 317.123 40.1293ZM317.873 38.5384C318.135 38.5384 318.37 38.4853 318.579 38.3793C318.791 38.2732 318.96 38.1274 319.086 37.9418C319.212 37.7528 319.275 37.5341 319.275 37.2855V36.5597C319.206 36.5961 319.121 36.6293 319.022 36.6591C318.926 36.6889 318.819 36.7171 318.703 36.7436C318.587 36.7701 318.468 36.7933 318.346 36.8132C318.223 36.8331 318.105 36.8513 317.993 36.8679C317.764 36.9044 317.568 36.9607 317.406 37.0369C317.247 37.1132 317.124 37.2126 317.038 37.3352C316.955 37.4545 316.914 37.5971 316.914 37.7628C316.914 38.0147 317.003 38.2069 317.182 38.3395C317.364 38.4721 317.595 38.5384 317.873 38.5384ZM323.173 40V29.8182H325.604V33.6712H325.654C325.753 33.4392 325.894 33.2154 326.076 33C326.262 32.7846 326.497 32.6089 326.782 32.473C327.071 32.3338 327.415 32.2642 327.816 32.2642C328.347 32.2642 328.842 32.4034 329.303 32.6818C329.767 32.9602 330.141 33.3894 330.426 33.9695C330.712 34.5495 330.854 35.2886 330.854 36.1868C330.854 37.0518 330.717 37.776 330.441 38.3594C330.17 38.9427 329.802 39.3802 329.338 39.6719C328.877 39.9635 328.365 40.1094 327.801 40.1094C327.417 40.1094 327.084 40.0464 326.802 39.9205C326.52 39.7945 326.283 39.6288 326.091 39.4233C325.902 39.2178 325.757 38.9974 325.654 38.7621H325.579V40H323.173ZM325.554 36.1818C325.554 36.5928 325.609 36.9508 325.718 37.2557C325.831 37.5606 325.992 37.7976 326.201 37.9666C326.413 38.1323 326.666 38.2152 326.961 38.2152C327.26 38.2152 327.513 38.1323 327.722 37.9666C327.931 37.7976 328.088 37.5606 328.194 37.2557C328.304 36.9508 328.358 36.5928 328.358 36.1818C328.358 35.7708 328.304 35.4145 328.194 35.1129C328.088 34.8113 327.931 34.5777 327.722 34.4119C327.516 34.2462 327.263 34.1634 326.961 34.1634C326.663 34.1634 326.409 34.2446 326.201 34.407C325.992 34.5694 325.831 34.8014 325.718 35.103C325.609 35.4046 325.554 35.7642 325.554 36.1818ZM335.698 40.1442C334.899 40.1442 334.209 39.9867 333.629 39.6719C333.053 39.3537 332.609 38.9013 332.297 38.3146C331.989 37.7247 331.835 37.0237 331.835 36.2116C331.835 35.4228 331.99 34.7334 332.302 34.1435C332.614 33.5502 333.053 33.0895 333.619 32.7614C334.186 32.4299 334.854 32.2642 335.623 32.2642C336.167 32.2642 336.664 32.3487 337.115 32.5178C337.565 32.6868 337.955 32.937 338.283 33.2685C338.611 33.5999 338.866 34.0092 339.048 34.4964C339.231 34.9804 339.322 35.5355 339.322 36.1619V36.7685H332.685V35.3565H337.06C337.057 35.098 336.995 34.8677 336.876 34.6655C336.757 34.4633 336.593 34.3059 336.384 34.1932C336.178 34.0772 335.941 34.0192 335.673 34.0192C335.401 34.0192 335.157 34.0805 334.942 34.2031C334.727 34.3224 334.556 34.4865 334.43 34.6953C334.304 34.9008 334.238 35.1345 334.231 35.3963V36.8331C334.231 37.1446 334.292 37.4181 334.415 37.6534C334.538 37.8854 334.712 38.0661 334.937 38.1953C335.162 38.3246 335.431 38.3892 335.742 38.3892C335.958 38.3892 336.153 38.3594 336.329 38.2997C336.505 38.2401 336.655 38.1522 336.781 38.0362C336.907 37.9202 337.002 37.7777 337.065 37.6087L339.297 37.6733C339.204 38.1738 339 38.6096 338.686 38.9808C338.374 39.3487 337.965 39.6354 337.458 39.8409C336.95 40.0431 336.364 40.1442 335.698 40.1442ZM342.995 29.8182V40H340.564V29.8182H342.995Z" fill="#808080"/>
<rect x="210" y="20" width="70" height="30" rx="8" fill="#EAEAEA"/>
<path d="M226.999 41V30.8182H229.46V39.0014H233.696V41H226.999ZM237.123 41.1293C236.635 41.1293 236.203 41.0481 235.825 40.8857C235.45 40.7199 235.154 40.4714 234.935 40.1399C234.72 39.8052 234.612 39.3859 234.612 38.8821C234.612 38.4579 234.686 38.0999 234.836 37.8082C234.985 37.5166 235.19 37.2796 235.452 37.0973C235.714 36.915 236.016 36.7775 236.357 36.6847C236.698 36.5885 237.063 36.5239 237.451 36.4908C237.885 36.451 238.234 36.4096 238.5 36.3665C238.765 36.3201 238.957 36.2554 239.076 36.1726C239.199 36.0864 239.26 35.9654 239.26 35.8097V35.7848C239.26 35.5296 239.172 35.3324 238.997 35.1932C238.821 35.054 238.584 34.9844 238.286 34.9844C237.964 34.9844 237.706 35.054 237.51 35.1932C237.315 35.3324 237.19 35.5246 237.137 35.7699L234.895 35.6903C234.962 35.2263 235.132 34.812 235.407 34.4474C235.686 34.0795 236.067 33.7912 236.551 33.5824C237.038 33.3703 237.623 33.2642 238.306 33.2642C238.793 33.2642 239.242 33.3222 239.653 33.4382C240.064 33.5509 240.422 33.7166 240.727 33.9354C241.032 34.1508 241.267 34.416 241.433 34.7308C241.602 35.0457 241.686 35.4053 241.686 35.8097V41H239.4V39.9361H239.34C239.204 40.1946 239.03 40.4134 238.818 40.5923C238.609 40.7713 238.362 40.9055 238.077 40.995C237.795 41.0845 237.477 41.1293 237.123 41.1293ZM237.873 39.5384C238.135 39.5384 238.37 39.4853 238.579 39.3793C238.791 39.2732 238.96 39.1274 239.086 38.9418C239.212 38.7528 239.275 38.5341 239.275 38.2855V37.5597C239.206 37.5961 239.121 37.6293 239.022 37.6591C238.926 37.6889 238.819 37.7171 238.703 37.7436C238.587 37.7701 238.468 37.7933 238.346 37.8132C238.223 37.8331 238.105 37.8513 237.993 37.8679C237.764 37.9044 237.568 37.9607 237.406 38.0369C237.247 38.1132 237.124 38.2126 237.038 38.3352C236.955 38.4545 236.914 38.5971 236.914 38.7628C236.914 39.0147 237.003 39.2069 237.182 39.3395C237.364 39.4721 237.595 39.5384 237.873 39.5384ZM243.173 41V30.8182H245.604V34.6712H245.654C245.753 34.4392 245.894 34.2154 246.076 34C246.262 33.7846 246.497 33.6089 246.782 33.473C247.071 33.3338 247.415 33.2642 247.816 33.2642C248.347 33.2642 248.842 33.4034 249.303 33.6818C249.767 33.9602 250.141 34.3894 250.426 34.9695C250.712 35.5495 250.854 36.2886 250.854 37.1868C250.854 38.0518 250.717 38.776 250.441 39.3594C250.17 39.9427 249.802 40.3802 249.338 40.6719C248.877 40.9635 248.365 41.1094 247.801 41.1094C247.417 41.1094 247.084 41.0464 246.802 40.9205C246.52 40.7945 246.283 40.6288 246.091 40.4233C245.902 40.2178 245.757 39.9974 245.654 39.7621H245.579V41H243.173ZM245.554 37.1818C245.554 37.5928 245.609 37.9508 245.718 38.2557C245.831 38.5606 245.992 38.7976 246.201 38.9666C246.413 39.1323 246.666 39.2152 246.961 39.2152C247.26 39.2152 247.513 39.1323 247.722 38.9666C247.931 38.7976 248.088 38.5606 248.194 38.2557C248.304 37.9508 248.358 37.5928 248.358 37.1818C248.358 36.7708 248.304 36.4145 248.194 36.1129C248.088 35.8113 247.931 35.5777 247.722 35.4119C247.516 35.2462 247.263 35.1634 246.961 35.1634C246.663 35.1634 246.409 35.2446 246.201 35.407C245.992 35.5694 245.831 35.8014 245.718 36.103C245.609 36.4046 245.554 36.7642 245.554 37.1818ZM255.698 41.1442C254.899 41.1442 254.209 40.9867 253.629 40.6719C253.053 40.3537 252.609 39.9013 252.297 39.3146C251.989 38.7247 251.835 38.0237 251.835 37.2116C251.835 36.4228 251.99 35.7334 252.302 35.1435C252.614 34.5502 253.053 34.0895 253.619 33.7614C254.186 33.4299 254.854 33.2642 255.623 33.2642C256.167 33.2642 256.664 33.3487 257.115 33.5178C257.565 33.6868 257.955 33.937 258.283 34.2685C258.611 34.5999 258.866 35.0092 259.048 35.4964C259.231 35.9804 259.322 36.5355 259.322 37.1619V37.7685H252.685V36.3565H257.06C257.057 36.098 256.995 35.8677 256.876 35.6655C256.757 35.4633 256.593 35.3059 256.384 35.1932C256.178 35.0772 255.941 35.0192 255.673 35.0192C255.401 35.0192 255.157 35.0805 254.942 35.2031C254.727 35.3224 254.556 35.4865 254.43 35.6953C254.304 35.9008 254.238 36.1345 254.231 36.3963V37.8331C254.231 38.1446 254.292 38.4181 254.415 38.6534C254.538 38.8854 254.712 39.0661 254.937 39.1953C255.162 39.3246 255.431 39.3892 255.742 39.3892C255.958 39.3892 256.153 39.3594 256.329 39.2997C256.505 39.2401 256.655 39.1522 256.781 39.0362C256.907 38.9202 257.002 38.7777 257.065 38.6087L259.297 38.6733C259.204 39.1738 259 39.6096 258.686 39.9808C258.374 40.3487 257.965 40.6354 257.458 40.8409C256.95 41.0431 256.364 41.1442 255.698 41.1442ZM262.995 30.8182V41H260.564V30.8182H262.995Z" fill="#808080"/>
<path d="M43.8496 29H41.3271V16.0449H45.2646L47.6201 26.2314L49.958 16.0449H53.8516V29H51.3291V20.2373C51.3291 19.9854 51.332 19.6338 51.3379 19.1826C51.3438 18.7256 51.3467 18.374 51.3467 18.1279L48.8945 29H46.2666L43.832 18.1279C43.832 18.374 43.835 18.7256 43.8408 19.1826C43.8467 19.6338 43.8496 19.9854 43.8496 20.2373V29ZM58.7383 19.4199V29H56.1982V19.4199H58.7383ZM58.7383 15.9658V18.2773H56.1982V15.9658H58.7383ZM67.7734 19.8594C68.5234 20.3398 68.9541 21.166 69.0654 22.3379H66.5605C66.5254 22.0156 66.4346 21.7607 66.2881 21.5732C66.0127 21.2334 65.5439 21.0635 64.8818 21.0635C64.3369 21.0635 63.9473 21.1484 63.7129 21.3184C63.4844 21.4883 63.3701 21.6875 63.3701 21.916C63.3701 22.2031 63.4932 22.4111 63.7393 22.54C63.9854 22.6748 64.8555 22.9062 66.3496 23.2344C67.3457 23.4688 68.0928 23.8232 68.5908 24.2979C69.083 24.7783 69.3291 25.3789 69.3291 26.0996C69.3291 27.0488 68.9746 27.8252 68.2656 28.4287C67.5625 29.0264 66.4727 29.3252 64.9961 29.3252C63.4902 29.3252 62.377 29.0088 61.6562 28.376C60.9414 27.7373 60.584 26.9258 60.584 25.9414H63.124C63.1768 26.3867 63.291 26.7031 63.4668 26.8906C63.7773 27.2246 64.3516 27.3916 65.1895 27.3916C65.6816 27.3916 66.0713 27.3184 66.3584 27.1719C66.6514 27.0254 66.7979 26.8057 66.7979 26.5127C66.7979 26.2314 66.6807 26.0176 66.4463 25.8711C66.2119 25.7246 65.3418 25.4727 63.8359 25.1152C62.752 24.8457 61.9873 24.5088 61.542 24.1045C61.0967 23.7061 60.874 23.1318 60.874 22.3818C60.874 21.4971 61.2197 20.7383 61.9111 20.1055C62.6084 19.4668 63.5869 19.1475 64.8467 19.1475C66.042 19.1475 67.0176 19.3848 67.7734 19.8594ZM79.1816 20.6328C79.9902 21.6465 80.3945 22.8447 80.3945 24.2275C80.3945 25.6338 79.9902 26.8379 79.1816 27.8398C78.373 28.8359 77.1455 29.334 75.499 29.334C73.8525 29.334 72.625 28.8359 71.8164 27.8398C71.0078 26.8379 70.6035 25.6338 70.6035 24.2275C70.6035 22.8447 71.0078 21.6465 71.8164 20.6328C72.625 19.6191 73.8525 19.1123 75.499 19.1123C77.1455 19.1123 78.373 19.6191 79.1816 20.6328ZM75.4902 21.2305C74.7578 21.2305 74.1924 21.4912 73.7939 22.0127C73.4014 22.5283 73.2051 23.2666 73.2051 24.2275C73.2051 25.1885 73.4014 25.9297 73.7939 26.4512C74.1924 26.9727 74.7578 27.2334 75.4902 27.2334C76.2227 27.2334 76.7852 26.9727 77.1777 26.4512C77.5703 25.9297 77.7666 25.1885 77.7666 24.2275C77.7666 23.2666 77.5703 22.5283 77.1777 22.0127C76.7852 21.4912 76.2227 21.2305 75.4902 21.2305ZM86.582 27.2158V29.0879L85.3955 29.1318C84.2119 29.1729 83.4033 28.9678 82.9697 28.5166C82.6885 28.2295 82.5479 27.7871 82.5479 27.1895V21.292H81.2119V19.5078H82.5479V16.8359H85.0264V19.5078H86.582V21.292H85.0264V26.3545C85.0264 26.7471 85.0762 26.9932 85.1758 27.0928C85.2754 27.1865 85.5801 27.2334 86.0898 27.2334C86.166 27.2334 86.2451 27.2334 86.3271 27.2334C86.415 27.2275 86.5 27.2217 86.582 27.2158ZM96.1797 20.6328C96.9883 21.6465 97.3926 22.8447 97.3926 24.2275C97.3926 25.6338 96.9883 26.8379 96.1797 27.8398C95.3711 28.8359 94.1436 29.334 92.4971 29.334C90.8506 29.334 89.623 28.8359 88.8145 27.8398C88.0059 26.8379 87.6016 25.6338 87.6016 24.2275C87.6016 22.8447 88.0059 21.6465 88.8145 20.6328C89.623 19.6191 90.8506 19.1123 92.4971 19.1123C94.1436 19.1123 95.3711 19.6191 96.1797 20.6328ZM92.4883 21.2305C91.7559 21.2305 91.1904 21.4912 90.792 22.0127C90.3994 22.5283 90.2031 23.2666 90.2031 24.2275C90.2031 25.1885 90.3994 25.9297 90.792 26.4512C91.1904 26.9727 91.7559 27.2334 92.4883 27.2334C93.2207 27.2334 93.7832 26.9727 94.1758 26.4512C94.5684 25.9297 94.7646 25.1885 94.7646 24.2275C94.7646 23.2666 94.5684 22.5283 94.1758 22.0127C93.7832 21.4912 93.2207 21.2305 92.4883 21.2305ZM103.58 27.2158V29.0879L102.394 29.1318C101.21 29.1729 100.401 28.9678 99.9678 28.5166C99.6865 28.2295 99.5459 27.7871 99.5459 27.1895V21.292H98.21V19.5078H99.5459V16.8359H102.024V19.5078H103.58V21.292H102.024V26.3545C102.024 26.7471 102.074 26.9932 102.174 27.0928C102.273 27.1865 102.578 27.2334 103.088 27.2334C103.164 27.2334 103.243 27.2334 103.325 27.2334C103.413 27.2275 103.498 27.2217 103.58 27.2158ZM105.549 20.457C106.211 19.6133 107.348 19.1914 108.959 19.1914C110.008 19.1914 110.939 19.3994 111.754 19.8154C112.568 20.2314 112.976 21.0166 112.976 22.1709V26.5654C112.976 26.8701 112.981 27.2393 112.993 27.6729C113.011 28.001 113.061 28.2236 113.143 28.3408C113.225 28.458 113.348 28.5547 113.512 28.6309V29H110.787C110.711 28.8066 110.658 28.625 110.629 28.4551C110.6 28.2852 110.576 28.0918 110.559 27.875C110.213 28.25 109.814 28.5693 109.363 28.833C108.824 29.1436 108.215 29.2988 107.535 29.2988C106.668 29.2988 105.95 29.0527 105.382 28.5605C104.819 28.0625 104.538 27.3594 104.538 26.4512C104.538 25.2734 104.992 24.4209 105.9 23.8936C106.398 23.6064 107.131 23.4014 108.098 23.2783L108.95 23.1729C109.413 23.1143 109.744 23.041 109.943 22.9531C110.301 22.8008 110.479 22.5635 110.479 22.2412C110.479 21.8486 110.342 21.5791 110.066 21.4326C109.797 21.2803 109.398 21.2041 108.871 21.2041C108.279 21.2041 107.86 21.3506 107.614 21.6436C107.438 21.8604 107.321 22.1533 107.263 22.5225H104.846C104.898 21.6846 105.133 20.9961 105.549 20.457ZM107.412 27.1895C107.646 27.3828 107.934 27.4795 108.273 27.4795C108.812 27.4795 109.308 27.3213 109.759 27.0049C110.216 26.6885 110.453 26.1113 110.471 25.2734V24.3418C110.312 24.4414 110.151 24.5234 109.987 24.5879C109.829 24.6465 109.609 24.7021 109.328 24.7549L108.766 24.8604C108.238 24.9541 107.86 25.0684 107.632 25.2031C107.245 25.4316 107.052 25.7861 107.052 26.2666C107.052 26.6943 107.172 27.002 107.412 27.1895ZM115.261 16.0449H117.766V29H115.261V16.0449Z" fill="#808080"/>
<path d="M41.134 45V34.92H42.086V44.188H47.49V45H41.134ZM51.6713 45.196C51.2046 45.1867 50.766 45.1027 50.3553 44.944C49.954 44.7853 49.5993 44.5473 49.2913 44.23C48.9926 43.9127 48.7546 43.516 48.5773 43.04C48.4 42.564 48.3113 42.0087 48.3113 41.374C48.3113 40.842 48.3813 40.3473 48.5213 39.89C48.6613 39.4233 48.8713 39.0173 49.1513 38.672C49.4313 38.3267 49.7813 38.056 50.2013 37.86C50.6213 37.6547 51.1113 37.552 51.6713 37.552C52.2406 37.552 52.7353 37.6547 53.1553 37.86C53.5753 38.056 53.9253 38.3267 54.2053 38.672C54.4853 39.008 54.6906 39.4093 54.8213 39.876C54.9613 40.3427 55.0313 40.842 55.0313 41.374C55.0313 41.9527 54.952 42.4753 54.7933 42.942C54.6346 43.4087 54.406 43.81 54.1073 44.146C53.818 44.482 53.4633 44.7433 53.0433 44.93C52.6326 45.1073 52.1753 45.196 51.6713 45.196ZM54.1353 41.374C54.1353 40.9447 54.0886 40.5433 53.9953 40.17C53.902 39.7967 53.7573 39.4747 53.5613 39.204C53.3653 38.924 53.1133 38.7047 52.8053 38.546C52.4973 38.3873 52.1193 38.308 51.6713 38.308C51.2326 38.308 50.8546 38.3967 50.5373 38.574C50.2293 38.742 49.9773 38.9707 49.7813 39.26C49.5853 39.54 49.4406 39.8667 49.3473 40.24C49.254 40.604 49.2073 40.982 49.2073 41.374C49.2073 41.822 49.2586 42.2373 49.3613 42.62C49.4733 42.9933 49.632 43.3153 49.8373 43.586C50.0426 43.8567 50.2993 44.0667 50.6073 44.216C50.9153 44.3653 51.27 44.44 51.6713 44.44C52.11 44.44 52.4833 44.356 52.7913 44.188C53.1086 44.0107 53.3653 43.7773 53.5613 43.488C53.7573 43.1987 53.902 42.872 53.9953 42.508C54.0886 42.144 54.1353 41.766 54.1353 41.374ZM50.1873 35.396H51.0973V36.824H50.1873V35.396ZM52.4133 35.396H53.3233V36.824H52.4133V35.396ZM57.4486 45H56.6086V37.748H57.4486V39.106H57.4766C57.7099 38.5273 58.0086 38.126 58.3726 37.902C58.7459 37.6687 59.2359 37.552 59.8426 37.552V38.462C59.3666 38.4527 58.9746 38.5273 58.6666 38.686C58.3586 38.8447 58.1113 39.0593 57.9246 39.33C57.7473 39.6007 57.6213 39.9227 57.5466 40.296C57.4813 40.66 57.4486 41.0427 57.4486 41.444V45ZM66.2326 40.87C66.2326 40.5153 66.1813 40.184 66.0786 39.876C65.9853 39.5587 65.8406 39.288 65.6446 39.064C65.4579 38.8307 65.2199 38.6487 64.9306 38.518C64.6413 38.378 64.3099 38.308 63.9366 38.308C63.5633 38.308 63.2319 38.378 62.9426 38.518C62.6626 38.658 62.4199 38.8447 62.2146 39.078C62.0186 39.3113 61.8599 39.582 61.7386 39.89C61.6173 40.198 61.5379 40.5247 61.5006 40.87H66.2326ZM61.5006 41.57C61.5006 41.962 61.5519 42.3353 61.6546 42.69C61.7573 43.0353 61.9066 43.3387 62.1026 43.6C62.3079 43.852 62.5646 44.0573 62.8726 44.216C63.1806 44.3653 63.5353 44.44 63.9366 44.44C64.4873 44.44 64.9586 44.2953 65.3506 44.006C65.7426 43.7167 66.0039 43.306 66.1346 42.774H67.0726C66.9699 43.1193 66.8346 43.4413 66.6666 43.74C66.4986 44.0293 66.2886 44.286 66.0366 44.51C65.7846 44.7247 65.4859 44.8927 65.1406 45.014C64.7953 45.1353 64.3939 45.196 63.9366 45.196C63.3579 45.196 62.8586 45.098 62.4386 44.902C62.0186 44.706 61.6733 44.44 61.4026 44.104C61.1319 43.7587 60.9313 43.3573 60.8006 42.9C60.6699 42.4333 60.6046 41.934 60.6046 41.402C60.6046 40.87 60.6793 40.3707 60.8286 39.904C60.9873 39.4373 61.2066 39.0313 61.4866 38.686C61.7759 38.3313 62.1259 38.056 62.5366 37.86C62.9473 37.6547 63.4139 37.552 63.9366 37.552C64.9353 37.552 65.7193 37.8973 66.2886 38.588C66.8579 39.2693 67.1379 40.2633 67.1286 41.57H61.5006ZM69.4899 45H68.6499V37.748H69.4899V38.84H69.5179C69.7326 38.42 70.0406 38.1027 70.4419 37.888C70.8432 37.664 71.2819 37.552 71.7579 37.552C72.0939 37.552 72.3786 37.5893 72.6119 37.664C72.8452 37.7387 73.0412 37.8413 73.1999 37.972C73.3679 38.0933 73.5032 38.238 73.6059 38.406C73.7179 38.574 73.8112 38.756 73.8859 38.952C74.1286 38.476 74.4506 38.126 74.8519 37.902C75.2626 37.6687 75.7292 37.552 76.2519 37.552C76.7466 37.552 77.1386 37.636 77.4279 37.804C77.7266 37.9627 77.9552 38.1773 78.1139 38.448C78.2726 38.7093 78.3752 39.0127 78.4219 39.358C78.4779 39.7033 78.5059 40.058 78.5059 40.422V45H77.6659V39.988C77.6659 39.4653 77.5539 39.0547 77.3299 38.756C77.1152 38.4573 76.7092 38.308 76.1119 38.308C75.8039 38.308 75.5052 38.378 75.2159 38.518C74.9359 38.6487 74.6886 38.854 74.4739 39.134C74.3806 39.2553 74.3012 39.4 74.2359 39.568C74.1799 39.7267 74.1332 39.8947 74.0959 40.072C74.0586 40.2493 74.0306 40.4267 74.0119 40.604C74.0026 40.7813 73.9979 40.9447 73.9979 41.094V45H73.1579V39.988C73.1579 39.4653 73.0459 39.0547 72.8219 38.756C72.6072 38.4573 72.2012 38.308 71.6039 38.308C71.2959 38.308 70.9972 38.378 70.7079 38.518C70.4279 38.6487 70.1806 38.854 69.9659 39.134C69.8726 39.2553 69.7932 39.4 69.7279 39.568C69.6719 39.7267 69.6252 39.8947 69.5879 40.072C69.5506 40.2493 69.5226 40.4267 69.5039 40.604C69.4946 40.7813 69.4899 40.9447 69.4899 41.094V45ZM84.2004 45V37.748H85.0404V45H84.2004ZM84.1584 36.166V34.92H85.0824V36.166H84.1584ZM88.1159 41.402C88.1159 41.8127 88.1719 42.2047 88.2839 42.578C88.3959 42.942 88.5546 43.264 88.7599 43.544C88.9746 43.8147 89.2313 44.034 89.5299 44.202C89.8379 44.3607 90.1833 44.44 90.5659 44.44C90.9953 44.44 91.3686 44.356 91.6859 44.188C92.0126 44.0107 92.2786 43.7727 92.4839 43.474C92.6893 43.1753 92.8386 42.83 92.9319 42.438C93.0253 42.0367 93.0626 41.6073 93.0439 41.15C93.0439 40.6927 92.9786 40.2913 92.8479 39.946C92.7266 39.5913 92.5539 39.2927 92.3299 39.05C92.1059 38.8073 91.8446 38.6253 91.5459 38.504C91.2473 38.3733 90.9206 38.308 90.5659 38.308C90.1739 38.308 89.8239 38.3873 89.5159 38.546C89.2079 38.7047 88.9513 38.924 88.7459 39.204C88.5406 39.4747 88.3819 39.8013 88.2699 40.184C88.1673 40.5573 88.1159 40.9633 88.1159 41.402ZM88.1159 47.856H87.2759V37.748H88.1159V39.022H88.1439C88.2653 38.7887 88.4193 38.5787 88.6059 38.392C88.8019 38.2053 89.0119 38.0513 89.2359 37.93C89.4693 37.8087 89.7073 37.7153 89.9499 37.65C90.1926 37.5847 90.4306 37.552 90.6639 37.552C91.2519 37.552 91.7513 37.65 92.1619 37.846C92.5726 38.042 92.9086 38.3127 93.1699 38.658C93.4406 38.994 93.6366 39.3953 93.7579 39.862C93.8793 40.3287 93.9399 40.828 93.9399 41.36C93.9399 41.864 93.8746 42.3493 93.7439 42.816C93.6133 43.2827 93.4126 43.6933 93.1419 44.048C92.8806 44.3933 92.5446 44.6733 92.1339 44.888C91.7326 45.0933 91.2566 45.196 90.7059 45.196C90.1926 45.196 89.6979 45.084 89.2219 44.86C88.7553 44.6267 88.3866 44.286 88.1159 43.838V47.856ZM96.2265 42.732C96.3572 43.3573 96.5905 43.8007 96.9265 44.062C97.2718 44.314 97.7618 44.44 98.3965 44.44C98.7045 44.44 98.9705 44.4027 99.1945 44.328C99.4185 44.2533 99.6005 44.1553 99.7405 44.034C99.8898 43.9033 100.002 43.7587 100.077 43.6C100.151 43.4413 100.189 43.2733 100.189 43.096C100.189 42.7413 100.072 42.48 99.8385 42.312C99.6145 42.1347 99.3298 41.9993 98.9845 41.906C98.6392 41.8033 98.2658 41.7193 97.8645 41.654C97.4632 41.5793 97.0898 41.472 96.7445 41.332C96.3992 41.192 96.1098 40.9913 95.8765 40.73C95.6525 40.4687 95.5405 40.1 95.5405 39.624C95.5405 39.0173 95.7598 38.5227 96.1985 38.14C96.6465 37.748 97.2765 37.552 98.0885 37.552C98.8725 37.552 99.5072 37.7293 99.9925 38.084C100.487 38.4293 100.786 39.0127 100.889 39.834H100.035C99.9598 39.274 99.7452 38.882 99.3905 38.658C99.0452 38.4247 98.6065 38.308 98.0745 38.308C97.5425 38.308 97.1365 38.4247 96.8565 38.658C96.5765 38.882 96.4365 39.1807 96.4365 39.554C96.4365 39.8807 96.5485 40.1327 96.7725 40.31C97.0058 40.478 97.2952 40.618 97.6405 40.73C97.9858 40.8327 98.3592 40.926 98.7605 41.01C99.1618 41.094 99.5352 41.2153 99.8805 41.374C100.226 41.5233 100.511 41.7287 100.735 41.99C100.968 42.2513 101.085 42.6153 101.085 43.082C101.085 43.4273 101.01 43.7353 100.861 44.006C100.711 44.2673 100.506 44.4867 100.245 44.664C99.9832 44.8413 99.6705 44.972 99.3065 45.056C98.9518 45.1493 98.5598 45.196 98.1305 45.196C97.7012 45.196 97.3185 45.1307 96.9825 45C96.6558 44.8787 96.3758 44.706 96.1425 44.482C95.9092 44.258 95.7272 43.9967 95.5965 43.698C95.4658 43.3993 95.3912 43.0773 95.3725 42.732H96.2265ZM107.651 37.748H108.491V45H107.651V43.992C107.539 44.1227 107.413 44.258 107.273 44.398C107.133 44.538 106.969 44.6687 106.783 44.79C106.605 44.902 106.395 44.9953 106.153 45.07C105.91 45.154 105.63 45.196 105.313 45.196C104.827 45.196 104.421 45.1307 104.095 45C103.768 44.86 103.502 44.6687 103.297 44.426C103.101 44.1833 102.956 43.9033 102.863 43.586C102.779 43.2593 102.737 42.9047 102.737 42.522V37.748H103.577V42.508C103.577 43.1333 103.721 43.614 104.011 43.95C104.3 44.2767 104.776 44.44 105.439 44.44C105.784 44.44 106.092 44.3747 106.363 44.244C106.643 44.104 106.876 43.9127 107.063 43.67C107.249 43.4273 107.394 43.138 107.497 42.802C107.599 42.466 107.651 42.0973 107.651 41.696V37.748ZM111.244 45H110.404V37.748H111.244V38.84H111.272C111.486 38.42 111.794 38.1027 112.196 37.888C112.597 37.664 113.036 37.552 113.512 37.552C113.848 37.552 114.132 37.5893 114.366 37.664C114.599 37.7387 114.795 37.8413 114.954 37.972C115.122 38.0933 115.257 38.238 115.36 38.406C115.472 38.574 115.565 38.756 115.64 38.952C115.882 38.476 116.204 38.126 116.606 37.902C117.016 37.6687 117.483 37.552 118.006 37.552C118.5 37.552 118.892 37.636 119.182 37.804C119.48 37.9627 119.709 38.1773 119.868 38.448C120.026 38.7093 120.129 39.0127 120.176 39.358C120.232 39.7033 120.26 40.058 120.26 40.422V45H119.42V39.988C119.42 39.4653 119.308 39.0547 119.084 38.756C118.869 38.4573 118.463 38.308 117.866 38.308C117.558 38.308 117.259 38.378 116.97 38.518C116.69 38.6487 116.442 38.854 116.228 39.134C116.134 39.2553 116.055 39.4 115.99 39.568C115.934 39.7267 115.887 39.8947 115.85 40.072C115.812 40.2493 115.784 40.4267 115.766 40.604C115.756 40.7813 115.752 40.9447 115.752 41.094V45H114.912V39.988C114.912 39.4653 114.8 39.0547 114.576 38.756C114.361 38.4573 113.955 38.308 113.358 38.308C113.05 38.308 112.751 38.378 112.462 38.518C112.182 38.6487 111.934 38.854 111.72 39.134C111.626 39.2553 111.547 39.4 111.482 39.568C111.426 39.7267 111.379 39.8947 111.342 40.072C111.304 40.2493 111.276 40.4267 111.258 40.604C111.248 40.7813 111.244 40.9447 111.244 41.094V45ZM126.018 45V34.92H126.858V41.192L130.414 37.748H131.562L128.846 40.366L131.884 45H130.946L128.23 40.954L126.858 42.256V45H126.018ZM135.958 45.196C135.492 45.1867 135.053 45.1027 134.642 44.944C134.241 44.7853 133.886 44.5473 133.578 44.23C133.28 43.9127 133.042 43.516 132.864 43.04C132.687 42.564 132.598 42.0087 132.598 41.374C132.598 40.842 132.668 40.3473 132.808 39.89C132.948 39.4233 133.158 39.0173 133.438 38.672C133.718 38.3267 134.068 38.056 134.488 37.86C134.908 37.6547 135.398 37.552 135.958 37.552C136.528 37.552 137.022 37.6547 137.442 37.86C137.862 38.056 138.212 38.3267 138.492 38.672C138.772 39.008 138.978 39.4093 139.108 39.876C139.248 40.3427 139.318 40.842 139.318 41.374C139.318 41.9527 139.239 42.4753 139.08 42.942C138.922 43.4087 138.693 43.81 138.394 44.146C138.105 44.482 137.75 44.7433 137.33 44.93C136.92 45.1073 136.462 45.196 135.958 45.196ZM138.422 41.374C138.422 40.9447 138.376 40.5433 138.282 40.17C138.189 39.7967 138.044 39.4747 137.848 39.204C137.652 38.924 137.4 38.7047 137.092 38.546C136.784 38.3873 136.406 38.308 135.958 38.308C135.52 38.308 135.142 38.3967 134.824 38.574C134.516 38.742 134.264 38.9707 134.068 39.26C133.872 39.54 133.728 39.8667 133.634 40.24C133.541 40.604 133.494 40.982 133.494 41.374C133.494 41.822 133.546 42.2373 133.648 42.62C133.76 42.9933 133.919 43.3153 134.124 43.586C134.33 43.8567 134.586 44.0667 134.894 44.216C135.202 44.3653 135.557 44.44 135.958 44.44C136.397 44.44 136.77 44.356 137.078 44.188C137.396 44.0107 137.652 43.7773 137.848 43.488C138.044 43.1987 138.189 42.872 138.282 42.508C138.376 42.144 138.422 41.766 138.422 41.374ZM141.792 41.346C141.792 41.7847 141.843 42.1953 141.946 42.578C142.058 42.9513 142.216 43.278 142.422 43.558C142.627 43.8287 142.884 44.0433 143.192 44.202C143.5 44.3607 143.85 44.44 144.242 44.44C144.596 44.44 144.923 44.3793 145.222 44.258C145.52 44.1273 145.782 43.9407 146.006 43.698C146.23 43.4553 146.402 43.1613 146.524 42.816C146.654 42.4613 146.72 42.0553 146.72 41.598C146.738 41.1407 146.701 40.716 146.608 40.324C146.514 39.9227 146.365 39.5727 146.16 39.274C145.954 38.9753 145.688 38.742 145.362 38.574C145.044 38.3967 144.671 38.308 144.242 38.308C143.859 38.308 143.514 38.392 143.206 38.56C142.907 38.7187 142.65 38.938 142.436 39.218C142.23 39.4887 142.072 39.8107 141.96 40.184C141.848 40.548 141.792 40.9353 141.792 41.346ZM141.792 45H140.952V34.92H141.792V38.91C142.062 38.462 142.431 38.126 142.898 37.902C143.374 37.6687 143.868 37.552 144.382 37.552C144.932 37.552 145.408 37.6593 145.81 37.874C146.22 38.0793 146.556 38.3593 146.818 38.714C147.088 39.0593 147.289 39.4653 147.42 39.932C147.55 40.3987 147.616 40.884 147.616 41.388C147.616 41.92 147.555 42.4193 147.434 42.886C147.312 43.3527 147.116 43.7587 146.846 44.104C146.584 44.44 146.248 44.706 145.838 44.902C145.427 45.098 144.928 45.196 144.34 45.196C144.106 45.196 143.868 45.1633 143.626 45.098C143.383 45.0327 143.145 44.9393 142.912 44.818C142.688 44.6967 142.478 44.5473 142.282 44.37C142.095 44.1833 141.941 43.9687 141.82 43.726H141.792V45ZM154.662 40.87C154.662 40.5153 154.611 40.184 154.508 39.876C154.415 39.5587 154.27 39.288 154.074 39.064C153.888 38.8307 153.65 38.6487 153.36 38.518C153.071 38.378 152.74 38.308 152.366 38.308C151.993 38.308 151.662 38.378 151.372 38.518C151.092 38.658 150.85 38.8447 150.644 39.078C150.448 39.3113 150.29 39.582 150.168 39.89C150.047 40.198 149.968 40.5247 149.93 40.87H154.662ZM149.93 41.57C149.93 41.962 149.982 42.3353 150.084 42.69C150.187 43.0353 150.336 43.3387 150.532 43.6C150.738 43.852 150.994 44.0573 151.302 44.216C151.61 44.3653 151.965 44.44 152.366 44.44C152.917 44.44 153.388 44.2953 153.78 44.006C154.172 43.7167 154.434 43.306 154.564 42.774H155.502C155.4 43.1193 155.264 43.4413 155.096 43.74C154.928 44.0293 154.718 44.286 154.466 44.51C154.214 44.7247 153.916 44.8927 153.57 45.014C153.225 45.1353 152.824 45.196 152.366 45.196C151.788 45.196 151.288 45.098 150.868 44.902C150.448 44.706 150.103 44.44 149.832 44.104C149.562 43.7587 149.361 43.3573 149.23 42.9C149.1 42.4333 149.034 41.934 149.034 41.402C149.034 40.87 149.109 40.3707 149.258 39.904C149.417 39.4373 149.636 39.0313 149.916 38.686C150.206 38.3313 150.556 38.056 150.966 37.86C151.377 37.6547 151.844 37.552 152.366 37.552C153.365 37.552 154.149 37.8973 154.718 38.588C155.288 39.2693 155.568 40.2633 155.558 41.57H149.93ZM157.318 45V34.92H158.158V45H157.318ZM160.715 45V43.768H161.737V45H160.715Z" fill="#808080"/>
<rect width="375" height="80" fill="#EAEAEA"/>
<path fill-rule="evenodd" clip-rule="evenodd" d="M38.6871 17.73C39.007 17.73 39.2663 17.9893 39.2663 18.3091V20.6257H46.216V18.3091C46.216 17.9893 46.4753 17.73 46.7951 17.73C47.115 17.73 47.3743 17.9893 47.3743 18.3091V20.6257H53.1657C54.4451 20.6257 55.4823 21.6629 55.4823 22.9423V35.6834C55.4823 36.9628 54.4451 38 53.1657 38H32.3166C31.0372 38 30 36.9628 30 35.6834V22.9423C30 21.6629 31.0372 20.6257 32.3166 20.6257H38.108V18.3091C38.108 17.9893 38.3673 17.73 38.6871 17.73ZM33.4749 25.2589C33.4749 24.6191 33.9934 24.1006 34.6331 24.1006H36.9497C37.5894 24.1006 38.108 24.6191 38.108 25.2589V27.5754C38.108 28.2151 37.5894 28.7337 36.9497 28.7337H34.6331C33.9934 28.7337 33.4749 28.2151 33.4749 27.5754V25.2589ZM41.5829 24.1006C40.9432 24.1006 40.4246 24.6191 40.4246 25.2589V27.5754C40.4246 28.2151 40.9432 28.7337 41.5829 28.7337H43.8994C44.5391 28.7337 45.0577 28.2151 45.0577 27.5754V25.2589C45.0577 24.6191 44.5391 24.1006 43.8994 24.1006H41.5829ZM33.4749 31.6294C33.4749 30.9897 33.9934 30.4711 34.6331 30.4711H36.9497C37.5894 30.4711 38.108 30.9897 38.108 31.6294V33.946C38.108 34.5857 37.5894 35.1043 36.9497 35.1043H34.6331C33.9934 35.1043 33.4749 34.5857 33.4749 33.946V31.6294ZM41.5829 30.4711C40.9432 30.4711 40.4246 30.9897 40.4246 31.6294V33.946C40.4246 34.5857 40.9432 35.1043 41.5829 35.1043H43.8994C44.5391 35.1043 45.0577 34.5857 45.0577 33.946V31.6294C45.0577 30.9897 44.5391 30.4711 43.8994 30.4711H41.5829ZM47.3743 31.6294C47.3743 30.9897 47.8929 30.4711 48.5326 30.4711H50.8491C51.4888 30.4711 52.0074 30.9897 52.0074 31.6294V33.946C52.0074 34.5857 51.4888 35.1043 50.8491 35.1043H48.5326C47.8929 35.1043 47.3743 34.5857 47.3743 33.946V31.6294ZM53.0322 25.0496C53.2365 24.8035 53.2026 24.4384 52.9565 24.2341C52.7104 24.0298 52.3453 24.0637 52.141 24.3098L49.6571 27.3017L48.3629 26.0076C48.1368 25.7815 47.7701 25.7815 47.5439 26.0076C47.3177 26.2338 47.3177 26.6005 47.5439 26.8267L49.2143 28.4971C49.2437 28.5395 49.2793 28.5787 49.3209 28.6133C49.567 28.8176 49.9321 28.7837 50.1364 28.5376L53.0322 25.0496Z" fill="#C780EB"/>
<path d="M31.712 60H32.72V52.98H35.108V52.128H29.336V52.98H31.712V60ZM37.8887 60.144C39.3167 60.144 40.6007 59.028 40.6007 57.096C40.6007 55.14 39.3167 54.024 37.8887 54.024C36.4607 54.024 35.1887 55.14 35.1887 57.096C35.1887 59.028 36.4607 60.144 37.8887 60.144ZM37.8887 59.316C36.8927 59.316 36.2207 58.428 36.2207 57.096C36.2207 55.752 36.8927 54.852 37.8887 54.852C38.8967 54.852 39.5687 55.752 39.5687 57.096C39.5687 58.428 38.8967 59.316 37.8887 59.316ZM44.1166 60.144C44.8006 60.144 45.4246 59.76 45.8806 59.316H45.9166L46.0006 60H46.8166V51.456H45.8206V53.7L45.8686 54.696C45.3526 54.276 44.9086 54.024 44.2366 54.024C42.9046 54.024 41.7046 55.2 41.7046 57.096C41.7046 59.04 42.6526 60.144 44.1166 60.144ZM44.3326 59.304C43.3126 59.304 42.7366 58.476 42.7366 57.084C42.7366 55.752 43.4806 54.864 44.4046 54.864C44.8846 54.864 45.3286 55.02 45.8206 55.464V58.512C45.3406 59.04 44.8726 59.304 44.3326 59.304ZM50.1249 60.144C50.8569 60.144 51.4929 59.772 52.0449 59.304H52.0809L52.1769 60H52.9929V56.412C52.9929 54.972 52.3809 54.024 50.9649 54.024C50.0289 54.024 49.2129 54.42 48.6729 54.78L49.0569 55.452C49.5129 55.152 50.1249 54.852 50.7969 54.852C51.7449 54.852 51.9849 55.56 51.9969 56.292C49.5009 56.568 48.4209 57.192 48.4209 58.488C48.4209 59.544 49.1529 60.144 50.1249 60.144ZM50.4009 59.328C49.8369 59.328 49.3929 59.076 49.3929 58.428C49.3929 57.672 50.0289 57.228 51.9969 57V58.584C51.4329 59.076 50.9649 59.328 50.4009 59.328ZM54.9358 62.508C56.0998 62.508 56.7118 61.632 57.1198 60.48L59.3158 54.168H58.3438L57.2998 57.384C57.1438 57.9 56.9758 58.5 56.8198 59.028H56.7718C56.5798 58.488 56.3878 57.888 56.1958 57.384L55.0198 54.168H53.9878L56.3278 60.012L56.1958 60.444C55.9558 61.164 55.5358 61.68 54.8878 61.68C54.7438 61.68 54.5998 61.656 54.4558 61.608L54.2397 62.388C54.4318 62.46 54.6598 62.508 54.9358 62.508Z" fill="#C780EB"/>
<path d="M241.984 60.144C243.964 60.144 245.356 58.56 245.356 56.028C245.356 53.52 243.964 51.984 241.984 51.984C240.004 51.984 238.624 53.508 238.624 56.028C238.624 58.56 240.004 60.144 241.984 60.144ZM241.984 59.256C240.58 59.256 239.668 57.996 239.668 56.028C239.668 54.072 240.58 52.872 241.984 52.872C243.388 52.872 244.312 54.072 244.312 56.028C244.312 57.996 243.388 59.256 241.984 59.256ZM248.657 60.144C249.461 60.144 250.037 59.724 250.577 59.088H250.613L250.697 60H251.513V54.168H250.517V58.296C249.977 58.98 249.557 59.28 248.969 59.28C248.201 59.28 247.865 58.812 247.865 57.732V54.168H246.869V57.864C246.869 59.352 247.421 60.144 248.657 60.144ZM255.316 60.144C255.712 60.144 256.108 60.036 256.42 59.892L256.216 59.184C255.976 59.292 255.76 59.328 255.544 59.328C254.884 59.328 254.644 58.92 254.644 58.212V54.972H256.228V54.168H254.644V52.296H253.816L253.696 54.168L252.784 54.228V54.972H253.648V58.188C253.648 59.352 254.068 60.144 255.316 60.144ZM259.686 60.144C260.382 60.144 261.042 59.88 261.57 59.4L261.138 58.764C260.79 59.076 260.31 59.316 259.77 59.316C258.702 59.316 257.982 58.428 257.982 57.096C257.982 55.752 258.75 54.852 259.806 54.852C260.274 54.852 260.646 55.032 260.97 55.332L261.462 54.708C261.054 54.324 260.526 54.024 259.758 54.024C258.258 54.024 256.95 55.14 256.95 57.096C256.95 59.028 258.138 60.144 259.686 60.144ZM264.865 60.144C266.293 60.144 267.577 59.028 267.577 57.096C267.577 55.14 266.293 54.024 264.865 54.024C263.437 54.024 262.165 55.14 262.165 57.096C262.165 59.028 263.437 60.144 264.865 60.144ZM264.865 59.316C263.869 59.316 263.197 58.428 263.197 57.096C263.197 55.752 263.869 54.852 264.865 54.852C265.873 54.852 266.545 55.752 266.545 57.096C266.545 58.428 265.873 59.316 264.865 59.316ZM269.101 60H270.097V55.776C270.637 55.176 271.117 54.888 271.549 54.888C272.293 54.888 272.629 55.344 272.629 56.436V60H273.625V55.776C274.165 55.176 274.633 54.888 275.089 54.888C275.821 54.888 276.169 55.344 276.169 56.436V60H277.165V56.304C277.165 54.816 276.589 54.024 275.389 54.024C274.681 54.024 274.069 54.48 273.469 55.128C273.229 54.444 272.749 54.024 271.849 54.024C271.153 54.024 270.553 54.456 270.037 55.008H270.001L269.917 54.168H269.101V60ZM281.402 60.144C282.206 60.144 282.83 59.904 283.334 59.544L282.986 58.908C282.578 59.184 282.086 59.34 281.522 59.34C280.418 59.34 279.686 58.548 279.602 57.348H283.526C283.562 57.156 283.574 56.976 283.574 56.76C283.574 55.08 282.722 54.024 281.234 54.024C279.902 54.024 278.618 55.188 278.618 57.084C278.618 59.016 279.842 60.144 281.402 60.144ZM279.602 56.58C279.722 55.464 280.442 54.816 281.258 54.816C282.146 54.816 282.686 55.428 282.686 56.58H279.602ZM286.528 60.144C287.908 60.144 288.664 59.352 288.664 58.404C288.664 57.348 287.788 56.952 286.876 56.628C286.144 56.376 285.64 56.16 285.64 55.632C285.64 55.2 285.964 54.792 286.708 54.792C287.224 54.792 287.644 54.96 288.052 55.26L288.508 54.684C288.052 54.3 287.428 54.024 286.696 54.024C285.424 54.024 284.68 54.744 284.68 55.68C284.68 56.64 285.52 57.06 286.396 57.372C287.056 57.612 287.704 57.864 287.704 58.464C287.704 58.968 287.332 59.364 286.564 59.364C285.844 59.364 285.316 59.148 284.812 58.728L284.356 59.304C284.896 59.832 285.676 60.144 286.528 60.144Z" fill="#808080"/>
<path fill-rule="evenodd" clip-rule="evenodd" d="M259.413 24.9155C261.847 24.4173 263.417 22.0397 262.919 19.6049C262.421 17.17 260.044 15.6 257.609 16.0981C255.174 16.5962 253.604 18.9738 254.102 21.4087C254.6 23.8435 256.978 25.4136 259.413 24.9155ZM257.122 20.1346C257.47 20.0635 257.694 19.7238 257.623 19.376C257.552 19.0282 257.212 18.8039 256.864 18.875C256.517 18.9462 256.292 19.2858 256.363 19.6337C256.435 19.9815 256.774 20.2058 257.122 20.1346ZM260.142 18.8606C260.214 19.2084 259.989 19.5481 259.641 19.6193C259.294 19.6904 258.954 19.4661 258.883 19.1183C258.812 18.7705 259.036 18.4308 259.384 18.3596C259.732 18.2885 260.071 18.5128 260.142 18.8606ZM260.326 21.6298C260.393 21.4653 260.313 21.2778 260.149 21.211C259.985 21.1441 259.797 21.2232 259.73 21.3876C259.67 21.5347 259.586 21.6757 259.454 21.7941C259.324 21.9113 259.131 22.0203 258.833 22.0813C258.535 22.1423 258.315 22.1177 258.148 22.0612C257.981 22.0041 257.848 21.9076 257.735 21.7958C257.609 21.6708 257.405 21.6717 257.28 21.7978C257.155 21.9239 257.156 22.1274 257.282 22.2524C257.444 22.4125 257.657 22.5732 257.941 22.6698C258.227 22.7669 258.564 22.7925 258.962 22.7111C259.359 22.6298 259.659 22.474 259.884 22.2725C260.107 22.0722 260.24 21.8405 260.326 21.6298Z" fill="#808080"/>
<path d="M248 34C247.448 34 247 34.4477 247 35V38C247 38.5523 247.448 39 248 39H263C263.552 39 264 38.5523 264 38V35C264 34.4477 263.552 34 263 34H248Z" fill="#808080"/>
<path d="M256 29C256 28.4477 256.448 28 257 28H269C269.552 28 270 28.4477 270 29V32C270 32.5523 269.552 33 269 33H257C256.448 33 256 32.5523 256 32V29Z" fill="#808080"/>
<path d="M265 22C264.448 22 264 22.4477 264 23V26C264 26.5523 264.448 27 265 27H279C279.552 27 280 26.5523 280 26V23C280 22.4477 279.552 22 279 22H265Z" fill="#808080"/>
<path d="M96.712 60H97.72V52.98H100.108V52.128H94.336V52.98H96.712V60ZM102.889 60.144C104.317 60.144 105.601 59.028 105.601 57.096C105.601 55.14 104.317 54.024 102.889 54.024C101.461 54.024 100.189 55.14 100.189 57.096C100.189 59.028 101.461 60.144 102.889 60.144ZM102.889 59.316C101.893 59.316 101.221 58.428 101.221 57.096C101.221 55.752 101.893 54.852 102.889 54.852C103.897 54.852 104.569 55.752 104.569 57.096C104.569 58.428 103.897 59.316 102.889 59.316ZM106.703 57.372H109.463V56.604H106.703V57.372ZM111.018 60H113.034C115.41 60 116.706 58.536 116.706 56.028C116.706 53.532 115.41 52.128 112.986 52.128H111.018V60ZM112.026 59.172V52.956H112.914C114.75 52.956 115.662 54.048 115.662 56.028C115.662 58.02 114.75 59.172 112.914 59.172H112.026ZM120.584 60.144C122.012 60.144 123.296 59.028 123.296 57.096C123.296 55.14 122.012 54.024 120.584 54.024C119.156 54.024 117.884 55.14 117.884 57.096C117.884 59.028 119.156 60.144 120.584 60.144ZM120.584 59.316C119.588 59.316 118.916 58.428 118.916 57.096C118.916 55.752 119.588 54.852 120.584 54.852C121.592 54.852 122.264 55.752 122.264 57.096C122.264 58.428 121.592 59.316 120.584 59.316Z" fill="#808080"/>
<path d="M98.8236 21.64L97.3878 20.0692C97.1083 19.7635 96.62 19.726 96.2972 19.9855C95.9743 20.245 95.9392 20.7032 96.2186 21.0089L98.1566 23.1291C98.1895 23.1755 98.2287 23.219 98.2742 23.2586C98.4156 23.3818 98.5934 23.4454 98.7727 23.4509C98.9617 23.4594 99.1537 23.4032 99.308 23.2792C99.3547 23.2416 99.3954 23.1999 99.43 23.155L104.319 18.2182C104.61 17.9238 104.593 17.4647 104.281 17.1927C103.969 16.9207 103.479 16.9388 103.188 17.2331L98.8236 21.64Z" fill="#808080"/>
<path d="M106.773 18.4656C106.221 18.4656 105.773 18.9134 105.773 19.4656V22.4656C105.773 23.0179 106.221 23.4656 106.773 23.4656H121.773C122.325 23.4656 122.773 23.0179 122.773 22.4656V19.4656C122.773 18.9134 122.325 18.4656 121.773 18.4656H106.773Z" fill="#808080"/>
<path d="M105.773 28.4656C105.773 27.9134 106.221 27.4656 106.773 27.4656H121.773C122.325 27.4656 122.773 27.9134 122.773 28.4656V31.4656C122.773 32.0179 122.325 32.4656 121.773 32.4656H106.773C106.221 32.4656 105.773 32.0179 105.773 31.4656V28.4656Z" fill="#808080"/>
<path d="M105.773 37.4656C105.773 36.9134 106.221 36.4656 106.773 36.4656H121.773C122.325 36.4656 122.773 36.9134 122.773 37.4656V40.4656C122.773 41.0179 122.325 41.4656 121.773 41.4656H106.773C106.221 41.4656 105.773 41.0179 105.773 40.4656V37.4656Z" fill="#808080"/>
<path d="M98.7936 30.65L97.3578 29.0792C97.0783 28.7735 96.59 28.736 96.2672 28.9955C95.9443 29.255 95.9091 29.7132 96.1886 30.0189L98.1266 32.1391C98.1595 32.1855 98.1987 32.229 98.2441 32.2686C98.3856 32.3918 98.5634 32.4554 98.7427 32.4609C98.9316 32.4694 99.1237 32.4132 99.2779 32.2892C99.3247 32.2516 99.3654 32.2099 99.4 32.165L104.289 27.2282C104.58 26.9338 104.563 26.4747 104.251 26.2027C103.939 25.9307 103.449 25.9488 103.158 26.2432L98.7936 30.65Z" fill="#808080"/>
<path d="M98.7936 39.66L97.3578 38.0892C97.0783 37.7835 96.59 37.746 96.2672 38.0055C95.9443 38.265 95.9091 38.7232 96.1886 39.0289L98.1266 41.1491C98.1595 41.1955 98.1987 41.239 98.2441 41.2786C98.3856 41.4018 98.5634 41.4654 98.7427 41.4709C98.9316 41.4794 99.1237 41.4232 99.2779 41.2992C99.3247 41.2617 99.3654 41.2199 99.4 41.175L104.289 36.2382C104.58 35.9439 104.563 35.4848 104.251 35.2128C103.939 34.9407 103.449 34.9588 103.158 35.2532L98.7936 39.66Z" fill="#808080"/>
<path fill-rule="evenodd" clip-rule="evenodd" d="M340.15 26.4078C341.439 32.7082 337.376 38.8606 331.076 40.1495C324.775 41.4384 318.623 37.3758 317.334 31.0754C316.045 24.775 320.107 18.6226 326.408 17.3337C332.708 16.0447 338.861 20.1074 340.15 26.4078ZM326.445 25.8156C326.629 26.7156 326.049 27.5946 325.149 27.7787C324.249 27.9628 323.37 27.3824 323.186 26.4824C323.002 25.5823 323.582 24.7034 324.482 24.5193C325.382 24.3352 326.261 24.9155 326.445 25.8156ZM331.668 26.4451C332.568 26.261 333.148 25.382 332.964 24.482C332.78 23.5819 331.901 23.0015 331.001 23.1857C330.101 23.3698 329.52 24.2487 329.705 25.1488C329.889 26.0488 330.768 26.6292 331.668 26.4451ZM332.981 30.5637C333.407 30.7368 333.611 31.222 333.438 31.6475C333.217 32.1928 332.872 32.7922 332.294 33.3106C331.713 33.8319 330.937 34.2351 329.909 34.4455C328.88 34.656 328.008 34.59 327.269 34.3387C326.534 34.0887 325.982 33.6729 325.564 33.2585C325.237 32.9351 325.235 32.4085 325.558 32.0823C325.882 31.756 326.408 31.7537 326.735 32.0771C327.026 32.3664 327.37 32.6161 327.805 32.7638C328.235 32.9101 328.804 32.9736 329.575 32.8158C330.346 32.6581 330.845 32.376 331.183 32.0726C331.524 31.7663 331.743 31.4015 331.897 31.0209C332.07 30.5954 332.556 30.3907 332.981 30.5637Z" fill="#808080"/>
<path d="M314.08 59.9999H315.088V56.8799H316.372C318.1 56.8799 319.288 56.1119 319.288 54.4439C319.288 52.7159 318.088 52.1279 316.324 52.1279H314.08V59.9999ZM315.088 56.0639V52.9439H316.204C317.584 52.9439 318.28 53.3159 318.28 54.4439C318.28 55.5599 317.62 56.0639 316.252 56.0639H315.088ZM320.793 59.9999H321.789V56.2559C322.185 55.2719 322.773 54.9239 323.265 54.9239C323.493 54.9239 323.625 54.9479 323.793 54.9959L324.009 54.1439C323.829 54.0599 323.649 54.0239 323.385 54.0239C322.737 54.0239 322.137 54.4919 321.729 55.2239H321.693L321.609 54.1679H320.793V59.9999ZM327.115 60.1439C328.543 60.1439 329.827 59.0279 329.827 57.0959C329.827 55.1399 328.543 54.0239 327.115 54.0239C325.687 54.0239 324.415 55.1399 324.415 57.0959C324.415 59.0279 325.687 60.1439 327.115 60.1439ZM327.115 59.3159C326.119 59.3159 325.447 58.4279 325.447 57.0959C325.447 55.7519 326.119 54.8519 327.115 54.8519C328.123 54.8519 328.795 55.7519 328.795 57.0959C328.795 58.4279 328.123 59.3159 327.115 59.3159ZM331.519 59.9999H332.515V54.9719H333.739V54.1679H332.515V53.2559C332.515 52.5119 332.779 52.1159 333.331 52.1159C333.535 52.1159 333.751 52.1639 333.979 52.2359L334.195 51.5039C333.955 51.3959 333.583 51.3119 333.223 51.3119C332.059 51.3119 331.519 52.0679 331.519 53.2559V54.1679L330.727 54.2279V54.9719H331.519V59.9999ZM334.855 59.9999H335.851V54.1679H334.855V59.9999ZM335.359 52.9679C335.743 52.9679 336.019 52.7159 336.019 52.3199C336.019 51.9359 335.743 51.6719 335.359 51.6719C334.975 51.6719 334.699 51.9359 334.699 52.3199C334.699 52.7159 334.975 52.9679 335.359 52.9679ZM338.864 60.1439C339.116 60.1439 339.296 60.1079 339.44 60.0359L339.308 59.2919C339.212 59.3159 339.164 59.3159 339.104 59.3159C338.948 59.3159 338.816 59.2079 338.816 58.8959V51.4559H337.82V58.8239C337.82 59.6639 338.12 60.1439 338.864 60.1439ZM343.231 60.1439C344.035 60.1439 344.659 59.9039 345.163 59.5439L344.815 58.9079C344.407 59.1839 343.915 59.3399 343.351 59.3399C342.247 59.3399 341.515 58.5479 341.431 57.3479H345.355C345.391 57.1559 345.403 56.9759 345.403 56.7599C345.403 55.0799 344.551 54.0239 343.063 54.0239C341.731 54.0239 340.447 55.1879 340.447 57.0839C340.447 59.0159 341.671 60.1439 343.231 60.1439ZM341.431 56.5799C341.551 55.4639 342.271 54.8159 343.087 54.8159C343.975 54.8159 344.515 55.4279 344.515 56.5799H341.431Z" fill="#808080"/>
<g filter="url(#filter0_d_628_7860)">
<circle cx="186" cy="31" r="28" fill="#C780EB"/>
</g>
<rect x="184" y="21" width="3" height="20" rx="1.5" fill="white"/>
<rect x="176" y="33" width="3" height="19" rx="1.5" transform="rotate(-90 176 33)" fill="white"/>
<defs>
<filter id="filter0_d_628_7860" x="154" y="3" width="64" height="64" filterUnits="userSpaceOnUse" color-interpolation-filters="sRGB">
<feFlood flood-opacity="0" result="BackgroundImageFix"/>
<feColorMatrix in="SourceAlpha" type="matrix" values="0 0 0 0 0 0 0 0 0 0 0 0 0 0 0 0 0 0 127 0" result="hardAlpha"/>
<feOffset dy="4"/>
<feGaussianBlur stdDeviation="2"/>
<feComposite in2="hardAlpha" operator="out"/>
<feColorMatrix type="matrix" values="0 0 0 0 0.780392 0 0 0 0 0.501961 0 0 0 0 0.921569 0 0 0 0.4 0"/>
<feBlend mode="normal" in2="BackgroundImageFix" result="effect1_dropShadow_628_7860"/>
<feBlend mode="normal" in="SourceGraphic" in2="effect1_dropShadow_628_7860" result="shape"/>
</filter>
</defs>
</svg>
