<svg width="375" height="80" viewBox="0 0 375 80" fill="none" xmlns="http://www.w3.org/2000/svg">
<rect width="375" height="80" fill="white"/>
<rect x="290" y="19" width="70" height="30" rx="8" fill="#CECCCC"/>
<path d="M306.999 40V29.8182H309.46V38.0014H313.696V40H306.999ZM317.123 40.1293C316.635 40.1293 316.203 40.0481 315.825 39.8857C315.45 39.7199 315.154 39.4714 314.935 39.1399C314.72 38.8052 314.612 38.3859 314.612 37.8821C314.612 37.4579 314.686 37.0999 314.836 36.8082C314.985 36.5166 315.19 36.2796 315.452 36.0973C315.714 35.915 316.016 35.7775 316.357 35.6847C316.698 35.5885 317.063 35.5239 317.451 35.4908C317.885 35.451 318.234 35.4096 318.5 35.3665C318.765 35.3201 318.957 35.2554 319.076 35.1726C319.199 35.0864 319.26 34.9654 319.26 34.8097V34.7848C319.26 34.5296 319.172 34.3324 318.997 34.1932C318.821 34.054 318.584 33.9844 318.286 33.9844C317.964 33.9844 317.706 34.054 317.51 34.1932C317.315 34.3324 317.19 34.5246 317.137 34.7699L314.895 34.6903C314.962 34.2263 315.132 33.812 315.407 33.4474C315.686 33.0795 316.067 32.7912 316.551 32.5824C317.038 32.3703 317.623 32.2642 318.306 32.2642C318.793 32.2642 319.242 32.3222 319.653 32.4382C320.064 32.5509 320.422 32.7166 320.727 32.9354C321.032 33.1508 321.267 33.416 321.433 33.7308C321.602 34.0457 321.686 34.4053 321.686 34.8097V40H319.4V38.9361H319.34C319.204 39.1946 319.03 39.4134 318.818 39.5923C318.609 39.7713 318.362 39.9055 318.077 39.995C317.795 40.0845 317.477 40.1293 317.123 40.1293ZM317.873 38.5384C318.135 38.5384 318.37 38.4853 318.579 38.3793C318.791 38.2732 318.96 38.1274 319.086 37.9418C319.212 37.7528 319.275 37.5341 319.275 37.2855V36.5597C319.206 36.5961 319.121 36.6293 319.022 36.6591C318.926 36.6889 318.819 36.7171 318.703 36.7436C318.587 36.7701 318.468 36.7933 318.346 36.8132C318.223 36.8331 318.105 36.8513 317.993 36.8679C317.764 36.9044 317.568 36.9607 317.406 37.0369C317.247 37.1132 317.124 37.2126 317.038 37.3352C316.955 37.4545 316.914 37.5971 316.914 37.7628C316.914 38.0147 317.003 38.2069 317.182 38.3395C317.364 38.4721 317.595 38.5384 317.873 38.5384ZM323.173 40V29.8182H325.604V33.6712H325.654C325.753 33.4392 325.894 33.2154 326.076 33C326.262 32.7846 326.497 32.6089 326.782 32.473C327.071 32.3338 327.415 32.2642 327.816 32.2642C328.347 32.2642 328.842 32.4034 329.303 32.6818C329.767 32.9602 330.141 33.3894 330.426 33.9695C330.712 34.5495 330.854 35.2886 330.854 36.1868C330.854 37.0518 330.717 37.776 330.441 38.3594C330.17 38.9427 329.802 39.3802 329.338 39.6719C328.877 39.9635 328.365 40.1094 327.801 40.1094C327.417 40.1094 327.084 40.0464 326.802 39.9205C326.52 39.7945 326.283 39.6288 326.091 39.4233C325.902 39.2178 325.757 38.9974 325.654 38.7621H325.579V40H323.173ZM325.554 36.1818C325.554 36.5928 325.609 36.9508 325.718 37.2557C325.831 37.5606 325.992 37.7976 326.201 37.9666C326.413 38.1323 326.666 38.2152 326.961 38.2152C327.26 38.2152 327.513 38.1323 327.722 37.9666C327.931 37.7976 328.088 37.5606 328.194 37.2557C328.304 36.9508 328.358 36.5928 328.358 36.1818C328.358 35.7708 328.304 35.4145 328.194 35.1129C328.088 34.8113 327.931 34.5777 327.722 34.4119C327.516 34.2462 327.263 34.1634 326.961 34.1634C326.663 34.1634 326.409 34.2446 326.201 34.407C325.992 34.5694 325.831 34.8014 325.718 35.103C325.609 35.4046 325.554 35.7642 325.554 36.1818ZM335.698 40.1442C334.899 40.1442 334.209 39.9867 333.629 39.6719C333.053 39.3537 332.609 38.9013 332.297 38.3146C331.989 37.7247 331.835 37.0237 331.835 36.2116C331.835 35.4228 331.99 34.7334 332.302 34.1435C332.614 33.5502 333.053 33.0895 333.619 32.7614C334.186 32.4299 334.854 32.2642 335.623 32.2642C336.167 32.2642 336.664 32.3487 337.115 32.5178C337.565 32.6868 337.955 32.937 338.283 33.2685C338.611 33.5999 338.866 34.0092 339.048 34.4964C339.231 34.9804 339.322 35.5355 339.322 36.1619V36.7685H332.685V35.3565H337.06C337.057 35.098 336.995 34.8677 336.876 34.6655C336.757 34.4633 336.593 34.3059 336.384 34.1932C336.178 34.0772 335.941 34.0192 335.673 34.0192C335.401 34.0192 335.157 34.0805 334.942 34.2031C334.727 34.3224 334.556 34.4865 334.43 34.6953C334.304 34.9008 334.238 35.1345 334.231 35.3963V36.8331C334.231 37.1446 334.292 37.4181 334.415 37.6534C334.538 37.8854 334.712 38.0661 334.937 38.1953C335.162 38.3246 335.431 38.3892 335.742 38.3892C335.958 38.3892 336.153 38.3594 336.329 38.2997C336.505 38.2401 336.655 38.1522 336.781 38.0362C336.907 37.9202 337.002 37.7777 337.065 37.6087L339.297 37.6733C339.204 38.1738 339 38.6096 338.686 38.9808C338.374 39.3487 337.965 39.6354 337.458 39.8409C336.95 40.0431 336.364 40.1442 335.698 40.1442ZM342.995 29.8182V40H340.564V29.8182H342.995Z" fill="white"/>
<rect x="210" y="20" width="70" height="30" rx="8" fill="#CECCCC"/>
<path d="M226.999 41V30.8182H229.46V39.0014H233.696V41H226.999ZM237.123 41.1293C236.635 41.1293 236.203 41.0481 235.825 40.8857C235.45 40.7199 235.154 40.4714 234.935 40.1399C234.72 39.8052 234.612 39.3859 234.612 38.8821C234.612 38.4579 234.686 38.0999 234.836 37.8082C234.985 37.5166 235.19 37.2796 235.452 37.0973C235.714 36.915 236.016 36.7775 236.357 36.6847C236.698 36.5885 237.063 36.5239 237.451 36.4908C237.885 36.451 238.234 36.4096 238.5 36.3665C238.765 36.3201 238.957 36.2554 239.076 36.1726C239.199 36.0864 239.26 35.9654 239.26 35.8097V35.7848C239.26 35.5296 239.172 35.3324 238.997 35.1932C238.821 35.054 238.584 34.9844 238.286 34.9844C237.964 34.9844 237.706 35.054 237.51 35.1932C237.315 35.3324 237.19 35.5246 237.137 35.7699L234.895 35.6903C234.962 35.2263 235.132 34.812 235.407 34.4474C235.686 34.0795 236.067 33.7912 236.551 33.5824C237.038 33.3703 237.623 33.2642 238.306 33.2642C238.793 33.2642 239.242 33.3222 239.653 33.4382C240.064 33.5509 240.422 33.7166 240.727 33.9354C241.032 34.1508 241.267 34.416 241.433 34.7308C241.602 35.0457 241.686 35.4053 241.686 35.8097V41H239.4V39.9361H239.34C239.204 40.1946 239.03 40.4134 238.818 40.5923C238.609 40.7713 238.362 40.9055 238.077 40.995C237.795 41.0845 237.477 41.1293 237.123 41.1293ZM237.873 39.5384C238.135 39.5384 238.37 39.4853 238.579 39.3793C238.791 39.2732 238.96 39.1274 239.086 38.9418C239.212 38.7528 239.275 38.5341 239.275 38.2855V37.5597C239.206 37.5961 239.121 37.6293 239.022 37.6591C238.926 37.6889 238.819 37.7171 238.703 37.7436C238.587 37.7701 238.468 37.7933 238.346 37.8132C238.223 37.8331 238.105 37.8513 237.993 37.8679C237.764 37.9044 237.568 37.9607 237.406 38.0369C237.247 38.1132 237.124 38.2126 237.038 38.3352C236.955 38.4545 236.914 38.5971 236.914 38.7628C236.914 39.0147 237.003 39.2069 237.182 39.3395C237.364 39.4721 237.595 39.5384 237.873 39.5384ZM243.173 41V30.8182H245.604V34.6712H245.654C245.753 34.4392 245.894 34.2154 246.076 34C246.262 33.7846 246.497 33.6089 246.782 33.473C247.071 33.3338 247.415 33.2642 247.816 33.2642C248.347 33.2642 248.842 33.4034 249.303 33.6818C249.767 33.9602 250.141 34.3894 250.426 34.9695C250.712 35.5495 250.854 36.2886 250.854 37.1868C250.854 38.0518 250.717 38.776 250.441 39.3594C250.17 39.9427 249.802 40.3802 249.338 40.6719C248.877 40.9635 248.365 41.1094 247.801 41.1094C247.417 41.1094 247.084 41.0464 246.802 40.9205C246.52 40.7945 246.283 40.6288 246.091 40.4233C245.902 40.2178 245.757 39.9974 245.654 39.7621H245.579V41H243.173ZM245.554 37.1818C245.554 37.5928 245.609 37.9508 245.718 38.2557C245.831 38.5606 245.992 38.7976 246.201 38.9666C246.413 39.1323 246.666 39.2152 246.961 39.2152C247.26 39.2152 247.513 39.1323 247.722 38.9666C247.931 38.7976 248.088 38.5606 248.194 38.2557C248.304 37.9508 248.358 37.5928 248.358 37.1818C248.358 36.7708 248.304 36.4145 248.194 36.1129C248.088 35.8113 247.931 35.5777 247.722 35.4119C247.516 35.2462 247.263 35.1634 246.961 35.1634C246.663 35.1634 246.409 35.2446 246.201 35.407C245.992 35.5694 245.831 35.8014 245.718 36.103C245.609 36.4046 245.554 36.7642 245.554 37.1818ZM255.698 41.1442C254.899 41.1442 254.209 40.9867 253.629 40.6719C253.053 40.3537 252.609 39.9013 252.297 39.3146C251.989 38.7247 251.835 38.0237 251.835 37.2116C251.835 36.4228 251.99 35.7334 252.302 35.1435C252.614 34.5502 253.053 34.0895 253.619 33.7614C254.186 33.4299 254.854 33.2642 255.623 33.2642C256.167 33.2642 256.664 33.3487 257.115 33.5178C257.565 33.6868 257.955 33.937 258.283 34.2685C258.611 34.5999 258.866 35.0092 259.048 35.4964C259.231 35.9804 259.322 36.5355 259.322 37.1619V37.7685H252.685V36.3565H257.06C257.057 36.098 256.995 35.8677 256.876 35.6655C256.757 35.4633 256.593 35.3059 256.384 35.1932C256.178 35.0772 255.941 35.0192 255.673 35.0192C255.401 35.0192 255.157 35.0805 254.942 35.2031C254.727 35.3224 254.556 35.4865 254.43 35.6953C254.304 35.9008 254.238 36.1345 254.231 36.3963V37.8331C254.231 38.1446 254.292 38.4181 254.415 38.6534C254.538 38.8854 254.712 39.0661 254.937 39.1953C255.162 39.3246 255.431 39.3892 255.742 39.3892C255.958 39.3892 256.153 39.3594 256.329 39.2997C256.505 39.2401 256.655 39.1522 256.781 39.0362C256.907 38.9202 257.002 38.7777 257.065 38.6087L259.297 38.6733C259.204 39.1738 259 39.6096 258.686 39.9808C258.374 40.3487 257.965 40.6354 257.458 40.8409C256.95 41.0431 256.364 41.1442 255.698 41.1442ZM262.995 30.8182V41H260.564V30.8182H262.995Z" fill="white"/>
<path d="M43.8496 29H41.3271V16.0449H45.2646L47.6201 26.2314L49.958 16.0449H53.8516V29H51.3291V20.2373C51.3291 19.9854 51.332 19.6338 51.3379 19.1826C51.3438 18.7256 51.3467 18.374 51.3467 18.1279L48.8945 29H46.2666L43.832 18.1279C43.832 18.374 43.835 18.7256 43.8408 19.1826C43.8467 19.6338 43.8496 19.9854 43.8496 20.2373V29ZM58.7383 19.4199V29H56.1982V19.4199H58.7383ZM58.7383 15.9658V18.2773H56.1982V15.9658H58.7383ZM67.7734 19.8594C68.5234 20.3398 68.9541 21.166 69.0654 22.3379H66.5605C66.5254 22.0156 66.4346 21.7607 66.2881 21.5732C66.0127 21.2334 65.5439 21.0635 64.8818 21.0635C64.3369 21.0635 63.9473 21.1484 63.7129 21.3184C63.4844 21.4883 63.3701 21.6875 63.3701 21.916C63.3701 22.2031 63.4932 22.4111 63.7393 22.54C63.9854 22.6748 64.8555 22.9062 66.3496 23.2344C67.3457 23.4688 68.0928 23.8232 68.5908 24.2979C69.083 24.7783 69.3291 25.3789 69.3291 26.0996C69.3291 27.0488 68.9746 27.8252 68.2656 28.4287C67.5625 29.0264 66.4727 29.3252 64.9961 29.3252C63.4902 29.3252 62.377 29.0088 61.6562 28.376C60.9414 27.7373 60.584 26.9258 60.584 25.9414H63.124C63.1768 26.3867 63.291 26.7031 63.4668 26.8906C63.7773 27.2246 64.3516 27.3916 65.1895 27.3916C65.6816 27.3916 66.0713 27.3184 66.3584 27.1719C66.6514 27.0254 66.7979 26.8057 66.7979 26.5127C66.7979 26.2314 66.6807 26.0176 66.4463 25.8711C66.2119 25.7246 65.3418 25.4727 63.8359 25.1152C62.752 24.8457 61.9873 24.5088 61.542 24.1045C61.0967 23.7061 60.874 23.1318 60.874 22.3818C60.874 21.4971 61.2197 20.7383 61.9111 20.1055C62.6084 19.4668 63.5869 19.1475 64.8467 19.1475C66.042 19.1475 67.0176 19.3848 67.7734 19.8594ZM79.1816 20.6328C79.9902 21.6465 80.3945 22.8447 80.3945 24.2275C80.3945 25.6338 79.9902 26.8379 79.1816 27.8398C78.373 28.8359 77.1455 29.334 75.499 29.334C73.8525 29.334 72.625 28.8359 71.8164 27.8398C71.0078 26.8379 70.6035 25.6338 70.6035 24.2275C70.6035 22.8447 71.0078 21.6465 71.8164 20.6328C72.625 19.6191 73.8525 19.1123 75.499 19.1123C77.1455 19.1123 78.373 19.6191 79.1816 20.6328ZM75.4902 21.2305C74.7578 21.2305 74.1924 21.4912 73.7939 22.0127C73.4014 22.5283 73.2051 23.2666 73.2051 24.2275C73.2051 25.1885 73.4014 25.9297 73.7939 26.4512C74.1924 26.9727 74.7578 27.2334 75.4902 27.2334C76.2227 27.2334 76.7852 26.9727 77.1777 26.4512C77.5703 25.9297 77.7666 25.1885 77.7666 24.2275C77.7666 23.2666 77.5703 22.5283 77.1777 22.0127C76.7852 21.4912 76.2227 21.2305 75.4902 21.2305ZM86.582 27.2158V29.0879L85.3955 29.1318C84.2119 29.1729 83.4033 28.9678 82.9697 28.5166C82.6885 28.2295 82.5479 27.7871 82.5479 27.1895V21.292H81.2119V19.5078H82.5479V16.8359H85.0264V19.5078H86.582V21.292H85.0264V26.3545C85.0264 26.7471 85.0762 26.9932 85.1758 27.0928C85.2754 27.1865 85.5801 27.2334 86.0898 27.2334C86.166 27.2334 86.2451 27.2334 86.3271 27.2334C86.415 27.2275 86.5 27.2217 86.582 27.2158ZM96.1797 20.6328C96.9883 21.6465 97.3926 22.8447 97.3926 24.2275C97.3926 25.6338 96.9883 26.8379 96.1797 27.8398C95.3711 28.8359 94.1436 29.334 92.4971 29.334C90.8506 29.334 89.623 28.8359 88.8145 27.8398C88.0059 26.8379 87.6016 25.6338 87.6016 24.2275C87.6016 22.8447 88.0059 21.6465 88.8145 20.6328C89.623 19.6191 90.8506 19.1123 92.4971 19.1123C94.1436 19.1123 95.3711 19.6191 96.1797 20.6328ZM92.4883 21.2305C91.7559 21.2305 91.1904 21.4912 90.792 22.0127C90.3994 22.5283 90.2031 23.2666 90.2031 24.2275C90.2031 25.1885 90.3994 25.9297 90.792 26.4512C91.1904 26.9727 91.7559 27.2334 92.4883 27.2334C93.2207 27.2334 93.7832 26.9727 94.1758 26.4512C94.5684 25.9297 94.7646 25.1885 94.7646 24.2275C94.7646 23.2666 94.5684 22.5283 94.1758 22.0127C93.7832 21.4912 93.2207 21.2305 92.4883 21.2305ZM103.58 27.2158V29.0879L102.394 29.1318C101.21 29.1729 100.401 28.9678 99.9678 28.5166C99.6865 28.2295 99.5459 27.7871 99.5459 27.1895V21.292H98.21V19.5078H99.5459V16.8359H102.024V19.5078H103.58V21.292H102.024V26.3545C102.024 26.7471 102.074 26.9932 102.174 27.0928C102.273 27.1865 102.578 27.2334 103.088 27.2334C103.164 27.2334 103.243 27.2334 103.325 27.2334C103.413 27.2275 103.498 27.2217 103.58 27.2158ZM105.549 20.457C106.211 19.6133 107.348 19.1914 108.959 19.1914C110.008 19.1914 110.939 19.3994 111.754 19.8154C112.568 20.2314 112.976 21.0166 112.976 22.1709V26.5654C112.976 26.8701 112.981 27.2393 112.993 27.6729C113.011 28.001 113.061 28.2236 113.143 28.3408C113.225 28.458 113.348 28.5547 113.512 28.6309V29H110.787C110.711 28.8066 110.658 28.625 110.629 28.4551C110.6 28.2852 110.576 28.0918 110.559 27.875C110.213 28.25 109.814 28.5693 109.363 28.833C108.824 29.1436 108.215 29.2988 107.535 29.2988C106.668 29.2988 105.95 29.0527 105.382 28.5605C104.819 28.0625 104.538 27.3594 104.538 26.4512C104.538 25.2734 104.992 24.4209 105.9 23.8936C106.398 23.6064 107.131 23.4014 108.098 23.2783L108.95 23.1729C109.413 23.1143 109.744 23.041 109.943 22.9531C110.301 22.8008 110.479 22.5635 110.479 22.2412C110.479 21.8486 110.342 21.5791 110.066 21.4326C109.797 21.2803 109.398 21.2041 108.871 21.2041C108.279 21.2041 107.86 21.3506 107.614 21.6436C107.438 21.8604 107.321 22.1533 107.263 22.5225H104.846C104.898 21.6846 105.133 20.9961 105.549 20.457ZM107.412 27.1895C107.646 27.3828 107.934 27.4795 108.273 27.4795C108.812 27.4795 109.308 27.3213 109.759 27.0049C110.216 26.6885 110.453 26.1113 110.471 25.2734V24.3418C110.312 24.4414 110.151 24.5234 109.987 24.5879C109.829 24.6465 109.609 24.7021 109.328 24.7549L108.766 24.8604C108.238 24.9541 107.86 25.0684 107.632 25.2031C107.245 25.4316 107.052 25.7861 107.052 26.2666C107.052 26.6943 107.172 27.002 107.412 27.1895ZM115.261 16.0449H117.766V29H115.261V16.0449Z" fill="white"/>
<path d="M41.134 45V34.92H42.086V44.188H47.49V45H41.134ZM51.6713 45.196C51.2046 45.1867 50.766 45.1027 50.3553 44.944C49.954 44.7853 49.5993 44.5473 49.2913 44.23C48.9926 43.9127 48.7546 43.516 48.5773 43.04C48.4 42.564 48.3113 42.0087 48.3113 41.374C48.3113 40.842 48.3813 40.3473 48.5213 39.89C48.6613 39.4233 48.8713 39.0173 49.1513 38.672C49.4313 38.3267 49.7813 38.056 50.2013 37.86C50.6213 37.6547 51.1113 37.552 51.6713 37.552C52.2406 37.552 52.7353 37.6547 53.1553 37.86C53.5753 38.056 53.9253 38.3267 54.2053 38.672C54.4853 39.008 54.6906 39.4093 54.8213 39.876C54.9613 40.3427 55.0313 40.842 55.0313 41.374C55.0313 41.9527 54.952 42.4753 54.7933 42.942C54.6346 43.4087 54.406 43.81 54.1073 44.146C53.818 44.482 53.4633 44.7433 53.0433 44.93C52.6326 45.1073 52.1753 45.196 51.6713 45.196ZM54.1353 41.374C54.1353 40.9447 54.0886 40.5433 53.9953 40.17C53.902 39.7967 53.7573 39.4747 53.5613 39.204C53.3653 38.924 53.1133 38.7047 52.8053 38.546C52.4973 38.3873 52.1193 38.308 51.6713 38.308C51.2326 38.308 50.8546 38.3967 50.5373 38.574C50.2293 38.742 49.9773 38.9707 49.7813 39.26C49.5853 39.54 49.4406 39.8667 49.3473 40.24C49.254 40.604 49.2073 40.982 49.2073 41.374C49.2073 41.822 49.2586 42.2373 49.3613 42.62C49.4733 42.9933 49.632 43.3153 49.8373 43.586C50.0426 43.8567 50.2993 44.0667 50.6073 44.216C50.9153 44.3653 51.27 44.44 51.6713 44.44C52.11 44.44 52.4833 44.356 52.7913 44.188C53.1086 44.0107 53.3653 43.7773 53.5613 43.488C53.7573 43.1987 53.902 42.872 53.9953 42.508C54.0886 42.144 54.1353 41.766 54.1353 41.374ZM50.1873 35.396H51.0973V36.824H50.1873V35.396ZM52.4133 35.396H53.3233V36.824H52.4133V35.396ZM57.4486 45H56.6086V37.748H57.4486V39.106H57.4766C57.7099 38.5273 58.0086 38.126 58.3726 37.902C58.7459 37.6687 59.2359 37.552 59.8426 37.552V38.462C59.3666 38.4527 58.9746 38.5273 58.6666 38.686C58.3586 38.8447 58.1113 39.0593 57.9246 39.33C57.7473 39.6007 57.6213 39.9227 57.5466 40.296C57.4813 40.66 57.4486 41.0427 57.4486 41.444V45ZM66.2326 40.87C66.2326 40.5153 66.1813 40.184 66.0786 39.876C65.9853 39.5587 65.8406 39.288 65.6446 39.064C65.4579 38.8307 65.2199 38.6487 64.9306 38.518C64.6413 38.378 64.3099 38.308 63.9366 38.308C63.5633 38.308 63.2319 38.378 62.9426 38.518C62.6626 38.658 62.4199 38.8447 62.2146 39.078C62.0186 39.3113 61.8599 39.582 61.7386 39.89C61.6173 40.198 61.5379 40.5247 61.5006 40.87H66.2326ZM61.5006 41.57C61.5006 41.962 61.5519 42.3353 61.6546 42.69C61.7573 43.0353 61.9066 43.3387 62.1026 43.6C62.3079 43.852 62.5646 44.0573 62.8726 44.216C63.1806 44.3653 63.5353 44.44 63.9366 44.44C64.4873 44.44 64.9586 44.2953 65.3506 44.006C65.7426 43.7167 66.0039 43.306 66.1346 42.774H67.0726C66.9699 43.1193 66.8346 43.4413 66.6666 43.74C66.4986 44.0293 66.2886 44.286 66.0366 44.51C65.7846 44.7247 65.4859 44.8927 65.1406 45.014C64.7953 45.1353 64.3939 45.196 63.9366 45.196C63.3579 45.196 62.8586 45.098 62.4386 44.902C62.0186 44.706 61.6733 44.44 61.4026 44.104C61.1319 43.7587 60.9313 43.3573 60.8006 42.9C60.6699 42.4333 60.6046 41.934 60.6046 41.402C60.6046 40.87 60.6793 40.3707 60.8286 39.904C60.9873 39.4373 61.2066 39.0313 61.4866 38.686C61.7759 38.3313 62.1259 38.056 62.5366 37.86C62.9473 37.6547 63.4139 37.552 63.9366 37.552C64.9353 37.552 65.7193 37.8973 66.2886 38.588C66.8579 39.2693 67.1379 40.2633 67.1286 41.57H61.5006ZM69.4899 45H68.6499V37.748H69.4899V38.84H69.5179C69.7326 38.42 70.0406 38.1027 70.4419 37.888C70.8432 37.664 71.2819 37.552 71.7579 37.552C72.0939 37.552 72.3786 37.5893 72.6119 37.664C72.8452 37.7387 73.0412 37.8413 73.1999 37.972C73.3679 38.0933 73.5032 38.238 73.6059 38.406C73.7179 38.574 73.8112 38.756 73.8859 38.952C74.1286 38.476 74.4506 38.126 74.8519 37.902C75.2626 37.6687 75.7292 37.552 76.2519 37.552C76.7466 37.552 77.1386 37.636 77.4279 37.804C77.7266 37.9627 77.9552 38.1773 78.1139 38.448C78.2726 38.7093 78.3752 39.0127 78.4219 39.358C78.4779 39.7033 78.5059 40.058 78.5059 40.422V45H77.6659V39.988C77.6659 39.4653 77.5539 39.0547 77.3299 38.756C77.1152 38.4573 76.7092 38.308 76.1119 38.308C75.8039 38.308 75.5052 38.378 75.2159 38.518C74.9359 38.6487 74.6886 38.854 74.4739 39.134C74.3806 39.2553 74.3012 39.4 74.2359 39.568C74.1799 39.7267 74.1332 39.8947 74.0959 40.072C74.0586 40.2493 74.0306 40.4267 74.0119 40.604C74.0026 40.7813 73.9979 40.9447 73.9979 41.094V45H73.1579V39.988C73.1579 39.4653 73.0459 39.0547 72.8219 38.756C72.6072 38.4573 72.2012 38.308 71.6039 38.308C71.2959 38.308 70.9972 38.378 70.7079 38.518C70.4279 38.6487 70.1806 38.854 69.9659 39.134C69.8726 39.2553 69.7932 39.4 69.7279 39.568C69.6719 39.7267 69.6252 39.8947 69.5879 40.072C69.5506 40.2493 69.5226 40.4267 69.5039 40.604C69.4946 40.7813 69.4899 40.9447 69.4899 41.094V45ZM84.2004 45V37.748H85.0404V45H84.2004ZM84.1584 36.166V34.92H85.0824V36.166H84.1584ZM88.1159 41.402C88.1159 41.8127 88.1719 42.2047 88.2839 42.578C88.3959 42.942 88.5546 43.264 88.7599 43.544C88.9746 43.8147 89.2313 44.034 89.5299 44.202C89.8379 44.3607 90.1833 44.44 90.5659 44.44C90.9953 44.44 91.3686 44.356 91.6859 44.188C92.0126 44.0107 92.2786 43.7727 92.4839 43.474C92.6893 43.1753 92.8386 42.83 92.9319 42.438C93.0253 42.0367 93.0626 41.6073 93.0439 41.15C93.0439 40.6927 92.9786 40.2913 92.8479 39.946C92.7266 39.5913 92.5539 39.2927 92.3299 39.05C92.1059 38.8073 91.8446 38.6253 91.5459 38.504C91.2473 38.3733 90.9206 38.308 90.5659 38.308C90.1739 38.308 89.8239 38.3873 89.5159 38.546C89.2079 38.7047 88.9513 38.924 88.7459 39.204C88.5406 39.4747 88.3819 39.8013 88.2699 40.184C88.1673 40.5573 88.1159 40.9633 88.1159 41.402ZM88.1159 47.856H87.2759V37.748H88.1159V39.022H88.1439C88.2653 38.7887 88.4193 38.5787 88.6059 38.392C88.8019 38.2053 89.0119 38.0513 89.2359 37.93C89.4693 37.8087 89.7073 37.7153 89.9499 37.65C90.1926 37.5847 90.4306 37.552 90.6639 37.552C91.2519 37.552 91.7513 37.65 92.1619 37.846C92.5726 38.042 92.9086 38.3127 93.1699 38.658C93.4406 38.994 93.6366 39.3953 93.7579 39.862C93.8793 40.3287 93.9399 40.828 93.9399 41.36C93.9399 41.864 93.8746 42.3493 93.7439 42.816C93.6133 43.2827 93.4126 43.6933 93.1419 44.048C92.8806 44.3933 92.5446 44.6733 92.1339 44.888C91.7326 45.0933 91.2566 45.196 90.7059 45.196C90.1926 45.196 89.6979 45.084 89.2219 44.86C88.7553 44.6267 88.3866 44.286 88.1159 43.838V47.856ZM96.2265 42.732C96.3572 43.3573 96.5905 43.8007 96.9265 44.062C97.2718 44.314 97.7618 44.44 98.3965 44.44C98.7045 44.44 98.9705 44.4027 99.1945 44.328C99.4185 44.2533 99.6005 44.1553 99.7405 44.034C99.8898 43.9033 100.002 43.7587 100.077 43.6C100.151 43.4413 100.189 43.2733 100.189 43.096C100.189 42.7413 100.072 42.48 99.8385 42.312C99.6145 42.1347 99.3298 41.9993 98.9845 41.906C98.6392 41.8033 98.2658 41.7193 97.8645 41.654C97.4632 41.5793 97.0898 41.472 96.7445 41.332C96.3992 41.192 96.1098 40.9913 95.8765 40.73C95.6525 40.4687 95.5405 40.1 95.5405 39.624C95.5405 39.0173 95.7598 38.5227 96.1985 38.14C96.6465 37.748 97.2765 37.552 98.0885 37.552C98.8725 37.552 99.5072 37.7293 99.9925 38.084C100.487 38.4293 100.786 39.0127 100.889 39.834H100.035C99.9598 39.274 99.7452 38.882 99.3905 38.658C99.0452 38.4247 98.6065 38.308 98.0745 38.308C97.5425 38.308 97.1365 38.4247 96.8565 38.658C96.5765 38.882 96.4365 39.1807 96.4365 39.554C96.4365 39.8807 96.5485 40.1327 96.7725 40.31C97.0058 40.478 97.2952 40.618 97.6405 40.73C97.9858 40.8327 98.3592 40.926 98.7605 41.01C99.1618 41.094 99.5352 41.2153 99.8805 41.374C100.226 41.5233 100.511 41.7287 100.735 41.99C100.968 42.2513 101.085 42.6153 101.085 43.082C101.085 43.4273 101.01 43.7353 100.861 44.006C100.711 44.2673 100.506 44.4867 100.245 44.664C99.9832 44.8413 99.6705 44.972 99.3065 45.056C98.9518 45.1493 98.5598 45.196 98.1305 45.196C97.7012 45.196 97.3185 45.1307 96.9825 45C96.6558 44.8787 96.3758 44.706 96.1425 44.482C95.9092 44.258 95.7272 43.9967 95.5965 43.698C95.4658 43.3993 95.3912 43.0773 95.3725 42.732H96.2265ZM107.651 37.748H108.491V45H107.651V43.992C107.539 44.1227 107.413 44.258 107.273 44.398C107.133 44.538 106.969 44.6687 106.783 44.79C106.605 44.902 106.395 44.9953 106.153 45.07C105.91 45.154 105.63 45.196 105.313 45.196C104.827 45.196 104.421 45.1307 104.095 45C103.768 44.86 103.502 44.6687 103.297 44.426C103.101 44.1833 102.956 43.9033 102.863 43.586C102.779 43.2593 102.737 42.9047 102.737 42.522V37.748H103.577V42.508C103.577 43.1333 103.721 43.614 104.011 43.95C104.3 44.2767 104.776 44.44 105.439 44.44C105.784 44.44 106.092 44.3747 106.363 44.244C106.643 44.104 106.876 43.9127 107.063 43.67C107.249 43.4273 107.394 43.138 107.497 42.802C107.599 42.466 107.651 42.0973 107.651 41.696V37.748ZM111.244 45H110.404V37.748H111.244V38.84H111.272C111.486 38.42 111.794 38.1027 112.196 37.888C112.597 37.664 113.036 37.552 113.512 37.552C113.848 37.552 114.132 37.5893 114.366 37.664C114.599 37.7387 114.795 37.8413 114.954 37.972C115.122 38.0933 115.257 38.238 115.36 38.406C115.472 38.574 115.565 38.756 115.64 38.952C115.882 38.476 116.204 38.126 116.606 37.902C117.016 37.6687 117.483 37.552 118.006 37.552C118.5 37.552 118.892 37.636 119.182 37.804C119.48 37.9627 119.709 38.1773 119.868 38.448C120.026 38.7093 120.129 39.0127 120.176 39.358C120.232 39.7033 120.26 40.058 120.26 40.422V45H119.42V39.988C119.42 39.4653 119.308 39.0547 119.084 38.756C118.869 38.4573 118.463 38.308 117.866 38.308C117.558 38.308 117.259 38.378 116.97 38.518C116.69 38.6487 116.442 38.854 116.228 39.134C116.134 39.2553 116.055 39.4 115.99 39.568C115.934 39.7267 115.887 39.8947 115.85 40.072C115.812 40.2493 115.784 40.4267 115.766 40.604C115.756 40.7813 115.752 40.9447 115.752 41.094V45H114.912V39.988C114.912 39.4653 114.8 39.0547 114.576 38.756C114.361 38.4573 113.955 38.308 113.358 38.308C113.05 38.308 112.751 38.378 112.462 38.518C112.182 38.6487 111.934 38.854 111.72 39.134C111.626 39.2553 111.547 39.4 111.482 39.568C111.426 39.7267 111.379 39.8947 111.342 40.072C111.304 40.2493 111.276 40.4267 111.258 40.604C111.248 40.7813 111.244 40.9447 111.244 41.094V45ZM126.018 45V34.92H126.858V41.192L130.414 37.748H131.562L128.846 40.366L131.884 45H130.946L128.23 40.954L126.858 42.256V45H126.018ZM135.958 45.196C135.492 45.1867 135.053 45.1027 134.642 44.944C134.241 44.7853 133.886 44.5473 133.578 44.23C133.28 43.9127 133.042 43.516 132.864 43.04C132.687 42.564 132.598 42.0087 132.598 41.374C132.598 40.842 132.668 40.3473 132.808 39.89C132.948 39.4233 133.158 39.0173 133.438 38.672C133.718 38.3267 134.068 38.056 134.488 37.86C134.908 37.6547 135.398 37.552 135.958 37.552C136.528 37.552 137.022 37.6547 137.442 37.86C137.862 38.056 138.212 38.3267 138.492 38.672C138.772 39.008 138.978 39.4093 139.108 39.876C139.248 40.3427 139.318 40.842 139.318 41.374C139.318 41.9527 139.239 42.4753 139.08 42.942C138.922 43.4087 138.693 43.81 138.394 44.146C138.105 44.482 137.75 44.7433 137.33 44.93C136.92 45.1073 136.462 45.196 135.958 45.196ZM138.422 41.374C138.422 40.9447 138.376 40.5433 138.282 40.17C138.189 39.7967 138.044 39.4747 137.848 39.204C137.652 38.924 137.4 38.7047 137.092 38.546C136.784 38.3873 136.406 38.308 135.958 38.308C135.52 38.308 135.142 38.3967 134.824 38.574C134.516 38.742 134.264 38.9707 134.068 39.26C133.872 39.54 133.728 39.8667 133.634 40.24C133.541 40.604 133.494 40.982 133.494 41.374C133.494 41.822 133.546 42.2373 133.648 42.62C133.76 42.9933 133.919 43.3153 134.124 43.586C134.33 43.8567 134.586 44.0667 134.894 44.216C135.202 44.3653 135.557 44.44 135.958 44.44C136.397 44.44 136.77 44.356 137.078 44.188C137.396 44.0107 137.652 43.7773 137.848 43.488C138.044 43.1987 138.189 42.872 138.282 42.508C138.376 42.144 138.422 41.766 138.422 41.374ZM141.792 41.346C141.792 41.7847 141.843 42.1953 141.946 42.578C142.058 42.9513 142.216 43.278 142.422 43.558C142.627 43.8287 142.884 44.0433 143.192 44.202C143.5 44.3607 143.85 44.44 144.242 44.44C144.596 44.44 144.923 44.3793 145.222 44.258C145.52 44.1273 145.782 43.9407 146.006 43.698C146.23 43.4553 146.402 43.1613 146.524 42.816C146.654 42.4613 146.72 42.0553 146.72 41.598C146.738 41.1407 146.701 40.716 146.608 40.324C146.514 39.9227 146.365 39.5727 146.16 39.274C145.954 38.9753 145.688 38.742 145.362 38.574C145.044 38.3967 144.671 38.308 144.242 38.308C143.859 38.308 143.514 38.392 143.206 38.56C142.907 38.7187 142.65 38.938 142.436 39.218C142.23 39.4887 142.072 39.8107 141.96 40.184C141.848 40.548 141.792 40.9353 141.792 41.346ZM141.792 45H140.952V34.92H141.792V38.91C142.062 38.462 142.431 38.126 142.898 37.902C143.374 37.6687 143.868 37.552 144.382 37.552C144.932 37.552 145.408 37.6593 145.81 37.874C146.22 38.0793 146.556 38.3593 146.818 38.714C147.088 39.0593 147.289 39.4653 147.42 39.932C147.55 40.3987 147.616 40.884 147.616 41.388C147.616 41.92 147.555 42.4193 147.434 42.886C147.312 43.3527 147.116 43.7587 146.846 44.104C146.584 44.44 146.248 44.706 145.838 44.902C145.427 45.098 144.928 45.196 144.34 45.196C144.106 45.196 143.868 45.1633 143.626 45.098C143.383 45.0327 143.145 44.9393 142.912 44.818C142.688 44.6967 142.478 44.5473 142.282 44.37C142.095 44.1833 141.941 43.9687 141.82 43.726H141.792V45ZM154.662 40.87C154.662 40.5153 154.611 40.184 154.508 39.876C154.415 39.5587 154.27 39.288 154.074 39.064C153.888 38.8307 153.65 38.6487 153.36 38.518C153.071 38.378 152.74 38.308 152.366 38.308C151.993 38.308 151.662 38.378 151.372 38.518C151.092 38.658 150.85 38.8447 150.644 39.078C150.448 39.3113 150.29 39.582 150.168 39.89C150.047 40.198 149.968 40.5247 149.93 40.87H154.662ZM149.93 41.57C149.93 41.962 149.982 42.3353 150.084 42.69C150.187 43.0353 150.336 43.3387 150.532 43.6C150.738 43.852 150.994 44.0573 151.302 44.216C151.61 44.3653 151.965 44.44 152.366 44.44C152.917 44.44 153.388 44.2953 153.78 44.006C154.172 43.7167 154.434 43.306 154.564 42.774H155.502C155.4 43.1193 155.264 43.4413 155.096 43.74C154.928 44.0293 154.718 44.286 154.466 44.51C154.214 44.7247 153.916 44.8927 153.57 45.014C153.225 45.1353 152.824 45.196 152.366 45.196C151.788 45.196 151.288 45.098 150.868 44.902C150.448 44.706 150.103 44.44 149.832 44.104C149.562 43.7587 149.361 43.3573 149.23 42.9C149.1 42.4333 149.034 41.934 149.034 41.402C149.034 40.87 149.109 40.3707 149.258 39.904C149.417 39.4373 149.636 39.0313 149.916 38.686C150.206 38.3313 150.556 38.056 150.966 37.86C151.377 37.6547 151.844 37.552 152.366 37.552C153.365 37.552 154.149 37.8973 154.718 38.588C155.288 39.2693 155.568 40.2633 155.558 41.57H149.93ZM157.318 45V34.92H158.158V45H157.318ZM160.715 45V43.768H161.737V45H160.715Z" fill="white"/>
<rect width="375" height="80" fill="#CECCCC"/>
<path fill-rule="evenodd" clip-rule="evenodd" d="M39.6871 17.73C40.007 17.73 40.2663 17.9893 40.2663 18.3091V20.6257H47.216V18.3091C47.216 17.9893 47.4753 17.73 47.7951 17.73C48.115 17.73 48.3743 17.9893 48.3743 18.3091V20.6257H54.1657C55.4451 20.6257 56.4823 21.6629 56.4823 22.9423V35.6834C56.4823 36.9628 55.4451 38 54.1657 38H33.3166C32.0372 38 31 36.9628 31 35.6834V22.9423C31 21.6629 32.0372 20.6257 33.3166 20.6257H39.108V18.3091C39.108 17.9893 39.3673 17.73 39.6871 17.73ZM34.4749 25.2588C34.4749 24.6191 34.9934 24.1006 35.6331 24.1006H37.9497C38.5894 24.1006 39.108 24.6191 39.108 25.2588V27.5754C39.108 28.2151 38.5894 28.7337 37.9497 28.7337H35.6331C34.9934 28.7337 34.4749 28.2151 34.4749 27.5754V25.2588ZM42.5829 24.1006C41.9432 24.1006 41.4246 24.6191 41.4246 25.2588V27.5754C41.4246 28.2151 41.9432 28.7337 42.5829 28.7337H44.8994C45.5391 28.7337 46.0577 28.2151 46.0577 27.5754V25.2588C46.0577 24.6191 45.5391 24.1006 44.8994 24.1006H42.5829ZM34.4749 31.6294C34.4749 30.9897 34.9934 30.4711 35.6331 30.4711H37.9497C38.5894 30.4711 39.108 30.9897 39.108 31.6294V33.946C39.108 34.5857 38.5894 35.1043 37.9497 35.1043H35.6331C34.9934 35.1043 34.4749 34.5857 34.4749 33.946V31.6294ZM42.5829 30.4711C41.9432 30.4711 41.4246 30.9897 41.4246 31.6294V33.946C41.4246 34.5857 41.9432 35.1043 42.5829 35.1043H44.8994C45.5391 35.1043 46.0577 34.5857 46.0577 33.946V31.6294C46.0577 30.9897 45.5391 30.4711 44.8994 30.4711H42.5829ZM48.3743 31.6294C48.3743 30.9897 48.8929 30.4711 49.5326 30.4711H51.8491C52.4888 30.4711 53.0074 30.9897 53.0074 31.6294V33.946C53.0074 34.5857 52.4888 35.1043 51.8491 35.1043H49.5326C48.8929 35.1043 48.3743 34.5857 48.3743 33.946V31.6294ZM54.0322 25.0496C54.2365 24.8035 54.2026 24.4384 53.9565 24.2341C53.7104 24.0298 53.3453 24.0637 53.141 24.3098L50.6571 27.3017L49.3629 26.0076C49.1368 25.7814 48.7701 25.7814 48.5439 26.0076C48.3177 26.2338 48.3177 26.6005 48.5439 26.8266L50.2143 28.4971C50.2437 28.5395 50.2793 28.5787 50.3209 28.6133C50.567 28.8176 50.9321 28.7837 51.1364 28.5376L54.0322 25.0496Z" fill="white"/>
<path d="M33.3182 53.0653V52.1818H37.9602V53.0653H36.1619V58H35.1165V53.0653H33.3182ZM40.0803 58.0852C39.6541 58.0852 39.2848 57.9915 38.9723 57.804C38.6598 57.6165 38.4174 57.3542 38.245 57.017C38.0746 56.6799 37.9893 56.286 37.9893 55.8352C37.9893 55.3845 38.0746 54.9896 38.245 54.6506C38.4174 54.3116 38.6598 54.0483 38.9723 53.8608C39.2848 53.6733 39.6541 53.5795 40.0803 53.5795C40.5064 53.5795 40.8757 53.6733 41.1882 53.8608C41.5007 54.0483 41.7422 54.3116 41.9126 54.6506C42.085 54.9896 42.1712 55.3845 42.1712 55.8352C42.1712 56.286 42.085 56.6799 41.9126 57.017C41.7422 57.3542 41.5007 57.6165 41.1882 57.804C40.8757 57.9915 40.5064 58.0852 40.0803 58.0852ZM40.0859 57.2614C40.317 57.2614 40.5102 57.1979 40.6655 57.071C40.8208 56.9422 40.9363 56.7699 41.0121 56.554C41.0897 56.3381 41.1286 56.0975 41.1286 55.8324C41.1286 55.5653 41.0897 55.3239 41.0121 55.108C40.9363 54.8902 40.8208 54.7169 40.6655 54.5881C40.5102 54.4593 40.317 54.3949 40.0859 54.3949C39.8492 54.3949 39.6522 54.4593 39.495 54.5881C39.3397 54.7169 39.2232 54.8902 39.1456 55.108C39.0698 55.3239 39.032 55.5653 39.032 55.8324C39.032 56.0975 39.0698 56.3381 39.1456 56.554C39.2232 56.7699 39.3397 56.9422 39.495 57.071C39.6522 57.1979 39.8492 57.2614 40.0859 57.2614ZM44.6634 58.0767C44.3205 58.0767 44.0137 57.9886 43.7429 57.8125C43.4721 57.6364 43.258 57.3807 43.1009 57.0455C42.9437 56.7102 42.8651 56.303 42.8651 55.8239C42.8651 55.339 42.9446 54.9299 43.1037 54.5966C43.2647 54.2614 43.4815 54.0085 43.7543 53.8381C44.027 53.6657 44.331 53.5795 44.6662 53.5795C44.9219 53.5795 45.1321 53.6231 45.2969 53.7102C45.4616 53.7955 45.5923 53.8987 45.6889 54.0199C45.7855 54.1392 45.8603 54.2519 45.9134 54.358H45.956V52.1818H46.9872V58H45.9759V57.3125H45.9134C45.8603 57.4186 45.7836 57.5312 45.6832 57.6506C45.5829 57.768 45.4503 57.8684 45.2855 57.9517C45.1207 58.035 44.9134 58.0767 44.6634 58.0767ZM44.9503 57.233C45.1681 57.233 45.3537 57.1742 45.5071 57.0568C45.6605 56.9375 45.777 56.7718 45.8565 56.5597C45.9361 56.3475 45.9759 56.1004 45.9759 55.8182C45.9759 55.536 45.9361 55.2907 45.8565 55.0824C45.7789 54.8741 45.6634 54.7121 45.5099 54.5966C45.3584 54.4811 45.1719 54.4233 44.9503 54.4233C44.7211 54.4233 44.5298 54.483 44.3764 54.6023C44.223 54.7216 44.1075 54.8864 44.0298 55.0966C43.9522 55.3068 43.9134 55.5473 43.9134 55.8182C43.9134 56.0909 43.9522 56.3343 44.0298 56.5483C44.1094 56.7604 44.2259 56.928 44.3793 57.0511C44.5346 57.1723 44.7249 57.233 44.9503 57.233ZM49.3388 58.0881C49.0623 58.0881 48.8132 58.0388 48.5916 57.9403C48.3719 57.84 48.1977 57.6922 48.0689 57.4972C47.942 57.3021 47.8786 57.0616 47.8786 56.7756C47.8786 56.5294 47.924 56.3258 48.0149 56.1648C48.1058 56.0038 48.2299 55.875 48.3871 55.7784C48.5443 55.6818 48.7214 55.6089 48.9183 55.5597C49.1172 55.5085 49.3227 55.4716 49.5348 55.4489C49.7905 55.4223 49.9979 55.3987 50.157 55.3778C50.3161 55.3551 50.4316 55.321 50.5036 55.2756C50.5774 55.2282 50.6143 55.1553 50.6143 55.0568V55.0398C50.6143 54.8258 50.5509 54.66 50.424 54.5426C50.2971 54.4252 50.1143 54.3665 49.8757 54.3665C49.6238 54.3665 49.424 54.4214 49.2763 54.5312C49.1304 54.6411 49.032 54.7708 48.9808 54.9205L48.0206 54.7841C48.0964 54.5189 48.2214 54.2973 48.3956 54.1193C48.5698 53.9394 48.7829 53.8049 49.0348 53.7159C49.2867 53.625 49.5651 53.5795 49.87 53.5795C50.0803 53.5795 50.2895 53.6042 50.4979 53.6534C50.7062 53.7027 50.8965 53.7841 51.0689 53.8977C51.2412 54.0095 51.3795 54.1619 51.4837 54.3551C51.5897 54.5483 51.6428 54.7898 51.6428 55.0795V58H50.6541V57.4006H50.62C50.5575 57.5218 50.4695 57.6354 50.3558 57.7415C50.2441 57.8456 50.103 57.9299 49.9325 57.9943C49.764 58.0568 49.5661 58.0881 49.3388 58.0881ZM49.6058 57.3324C49.8123 57.3324 49.9912 57.2917 50.1428 57.2102C50.2943 57.1269 50.4107 57.017 50.4922 56.8807C50.5755 56.7443 50.6172 56.5956 50.6172 56.4347V55.9205C50.585 55.947 50.5301 55.9716 50.4524 55.9943C50.3767 56.017 50.2914 56.0369 50.1967 56.054C50.102 56.071 50.0083 56.0862 49.9155 56.0994C49.8227 56.1127 49.7422 56.1241 49.674 56.1335C49.5206 56.1544 49.3833 56.1884 49.2621 56.2358C49.1409 56.2831 49.0452 56.3494 48.9751 56.4347C48.9051 56.518 48.87 56.6259 48.87 56.7585C48.87 56.9479 48.9392 57.0909 49.0774 57.1875C49.2157 57.2841 49.3918 57.3324 49.6058 57.3324ZM53.1598 59.6364C53.0196 59.6364 52.8899 59.625 52.7706 59.6023C52.6532 59.5814 52.5594 59.5568 52.4893 59.5284L52.728 58.7273C52.8776 58.7708 53.0111 58.7917 53.1286 58.7898C53.246 58.7879 53.3492 58.7509 53.4382 58.679C53.5291 58.6089 53.6058 58.4915 53.6683 58.3267L53.7564 58.0909L52.174 53.6364H53.2649L54.2706 56.9318H54.3161L55.3246 53.6364H56.4183L54.6712 58.5284C54.5897 58.7595 54.4818 58.9574 54.3473 59.1222C54.2128 59.2888 54.0481 59.4157 53.853 59.5028C53.6598 59.5919 53.4287 59.6364 53.1598 59.6364Z" fill="white"/>
<path d="M317.574 58V52.1818H319.756C320.203 52.1818 320.578 52.2652 320.881 52.4318C321.186 52.5985 321.416 52.8277 321.571 53.1193C321.728 53.4091 321.807 53.7386 321.807 54.108C321.807 54.4811 321.728 54.8125 321.571 55.1023C321.414 55.392 321.182 55.6203 320.875 55.7869C320.568 55.9517 320.19 56.0341 319.741 56.0341H318.295V55.1676H319.599C319.861 55.1676 320.075 55.1222 320.241 55.0312C320.408 54.9403 320.531 54.8153 320.611 54.6562C320.692 54.4972 320.733 54.3144 320.733 54.108C320.733 53.9015 320.692 53.7197 320.611 53.5625C320.531 53.4053 320.407 53.2831 320.239 53.196C320.072 53.107 319.857 53.0625 319.594 53.0625H318.628V58H317.574ZM322.677 58V53.6364H323.674V54.3636H323.719C323.799 54.1117 323.935 53.9176 324.129 53.7812C324.324 53.643 324.546 53.5739 324.796 53.5739C324.853 53.5739 324.916 53.5767 324.987 53.5824C325.058 53.5862 325.118 53.5928 325.165 53.6023V54.5483C325.122 54.5331 325.053 54.5199 324.958 54.5085C324.865 54.4953 324.775 54.4886 324.688 54.4886C324.501 54.4886 324.332 54.5294 324.183 54.6108C324.035 54.6903 323.918 54.8011 323.833 54.9432C323.748 55.0852 323.705 55.2491 323.705 55.4347V58H322.677ZM327.572 58.0852C327.146 58.0852 326.777 57.9915 326.464 57.804C326.152 57.6165 325.91 57.3542 325.737 57.017C325.567 56.6799 325.482 56.286 325.482 55.8352C325.482 55.3845 325.567 54.9896 325.737 54.6506C325.91 54.3116 326.152 54.0483 326.464 53.8608C326.777 53.6733 327.146 53.5795 327.572 53.5795C327.999 53.5795 328.368 53.6733 328.68 53.8608C328.993 54.0483 329.234 54.3116 329.405 54.6506C329.577 54.9896 329.663 55.3845 329.663 55.8352C329.663 56.286 329.577 56.6799 329.405 57.017C329.234 57.3542 328.993 57.6165 328.68 57.804C328.368 57.9915 327.999 58.0852 327.572 58.0852ZM327.578 57.2614C327.809 57.2614 328.002 57.1979 328.158 57.071C328.313 56.9422 328.429 56.7699 328.504 56.554C328.582 56.3381 328.621 56.0975 328.621 55.8324C328.621 55.5653 328.582 55.3239 328.504 55.108C328.429 54.8902 328.313 54.7169 328.158 54.5881C328.002 54.4593 327.809 54.3949 327.578 54.3949C327.341 54.3949 327.144 54.4593 326.987 54.5881C326.832 54.7169 326.715 54.8902 326.638 55.108C326.562 55.3239 326.524 55.5653 326.524 55.8324C326.524 56.0975 326.562 56.3381 326.638 56.554C326.715 56.7699 326.832 56.9422 326.987 57.071C327.144 57.1979 327.341 57.2614 327.578 57.2614ZM332.746 53.6364V54.4318H330.167V53.6364H332.746ZM330.812 58V53.2244C330.812 52.9309 330.872 52.6866 330.994 52.4915C331.117 52.2964 331.281 52.1506 331.488 52.054C331.694 51.9574 331.924 51.9091 332.175 51.9091C332.353 51.9091 332.512 51.9233 332.65 51.9517C332.788 51.9801 332.89 52.0057 332.957 52.0284L332.752 52.8239C332.709 52.8106 332.654 52.7973 332.587 52.7841C332.521 52.7689 332.447 52.7614 332.366 52.7614C332.174 52.7614 332.039 52.8078 331.96 52.9006C331.882 52.9915 331.843 53.1222 331.843 53.2926V58H330.812ZM333.552 58V53.6364H334.58V58H333.552ZM334.069 53.017C333.906 53.017 333.766 52.9631 333.648 52.8551C333.531 52.7453 333.472 52.6136 333.472 52.4602C333.472 52.3049 333.531 52.1733 333.648 52.0653C333.766 51.9555 333.906 51.9006 334.069 51.9006C334.234 51.9006 334.374 51.9555 334.489 52.0653C334.607 52.1733 334.665 52.3049 334.665 52.4602C334.665 52.6136 334.607 52.7453 334.489 52.8551C334.374 52.9631 334.234 53.017 334.069 53.017ZM336.666 52.1818V58H335.638V52.1818H336.666ZM339.656 58.0852C339.218 58.0852 338.84 57.9943 338.522 57.8125C338.206 57.6288 337.962 57.3693 337.792 57.0341C337.621 56.697 337.536 56.3002 337.536 55.8438C337.536 55.3949 337.621 55.0009 337.792 54.6619C337.964 54.321 338.205 54.0559 338.513 53.8665C338.822 53.6752 339.185 53.5795 339.602 53.5795C339.871 53.5795 340.124 53.6231 340.363 53.7102C340.603 53.7955 340.816 53.928 340.999 54.108C341.185 54.2879 341.331 54.517 341.437 54.7955C341.543 55.072 341.596 55.4015 341.596 55.7841V56.0994H338.019V55.4062H340.61C340.608 55.2093 340.566 55.0341 340.482 54.8807C340.399 54.7254 340.282 54.6032 340.133 54.5142C339.985 54.4252 339.813 54.3807 339.616 54.3807C339.406 54.3807 339.221 54.4318 339.062 54.5341C338.903 54.6345 338.779 54.767 338.69 54.9318C338.603 55.0947 338.558 55.2737 338.556 55.4688V56.0739C338.556 56.3277 338.603 56.5455 338.695 56.7273C338.788 56.9072 338.918 57.0455 339.085 57.142C339.251 57.2367 339.446 57.2841 339.67 57.2841C339.819 57.2841 339.955 57.2633 340.076 57.2216C340.197 57.178 340.302 57.1146 340.391 57.0312C340.48 56.9479 340.548 56.8447 340.593 56.7216L341.553 56.8295C341.493 57.0833 341.377 57.3049 341.207 57.4943C341.038 57.6818 340.822 57.8277 340.559 57.9318C340.296 58.0341 339.995 58.0852 339.656 58.0852Z" fill="white"/>
<path fill-rule="evenodd" clip-rule="evenodd" d="M328.662 22.475C331.23 21.4605 332.489 18.556 331.475 15.9877C330.46 13.4194 327.556 12.1598 324.988 13.1743C322.419 14.1888 321.16 17.0933 322.174 19.6616C323.189 22.2299 326.093 23.4895 328.662 22.475ZM325.234 17.6851C325.6 17.5402 325.78 17.1253 325.635 16.7584C325.491 16.3915 325.076 16.2116 324.709 16.3565C324.342 16.5014 324.162 16.9163 324.307 17.2832C324.452 17.6501 324.867 17.8301 325.234 17.6851ZM328.293 15.7087C328.438 16.0756 328.258 16.4905 327.891 16.6355C327.524 16.7804 327.109 16.6005 326.964 16.2336C326.819 15.8666 326.999 15.4517 327.366 15.3068C327.733 15.1619 328.148 15.3418 328.293 15.7087ZM329.027 18.7035C329.069 18.5107 328.946 18.3208 328.753 18.2793C328.56 18.2378 328.37 18.3605 328.329 18.5534C328.292 18.7259 328.227 18.8964 328.105 19.0514C327.985 19.2048 327.795 19.3613 327.481 19.4855C327.166 19.6097 326.921 19.6252 326.728 19.5954C326.533 19.5653 326.369 19.4853 326.224 19.3847C326.062 19.2723 325.84 19.3125 325.727 19.4746C325.615 19.6366 325.655 19.8591 325.817 19.9716C326.025 20.1157 326.289 20.2504 326.619 20.3013C326.95 20.3525 327.324 20.3155 327.743 20.1498C328.163 19.9841 328.461 19.7558 328.667 19.4921C328.873 19.2298 328.974 18.9507 329.027 18.7035Z" fill="white"/>
<path d="M318 40C318 40.5523 318.448 41 319 41H322C322.552 41 323 40.5523 323 40V31C323 30.4477 322.552 30 322 30H319C318.448 30 318 30.4477 318 31V40Z" fill="white"/>
<path d="M328 41C327.448 41 327 40.5523 327 40V26C327 25.4477 327.448 25 328 25H331C331.552 25 332 25.4477 332 26V40C332 40.5523 331.552 41 331 41H328Z" fill="white"/>
<path d="M336 40C336 40.5523 336.448 41 337 41H340C340.552 41 341 40.5523 341 40V18C341 17.4477 340.552 17 340 17H337C336.448 17 336 17.4477 336 18L336 40Z" fill="white"/>
<path d="M167.574 52.1818H168.864L170.591 56.3977H170.659L172.386 52.1818H173.676V58H172.665V54.0028H172.611L171.003 57.983H170.247L168.639 53.9943H168.585V58H167.574V52.1818ZM174.778 58V53.6364H175.807V58H174.778ZM175.295 53.017C175.133 53.017 174.992 52.9631 174.875 52.8551C174.758 52.7453 174.699 52.6136 174.699 52.4602C174.699 52.3049 174.758 52.1733 174.875 52.0653C174.992 51.9555 175.133 51.9006 175.295 51.9006C175.46 51.9006 175.6 51.9555 175.716 52.0653C175.833 52.1733 175.892 52.3049 175.892 52.4602C175.892 52.6136 175.833 52.7453 175.716 52.8551C175.6 52.9631 175.46 53.017 175.295 53.017ZM177.893 52.1818V58H176.864V52.1818H177.893ZM180.882 58.0852C180.445 58.0852 180.067 57.9943 179.749 57.8125C179.432 57.6288 179.189 57.3693 179.018 57.0341C178.848 56.697 178.763 56.3002 178.763 55.8438C178.763 55.3949 178.848 55.0009 179.018 54.6619C179.191 54.321 179.431 54.0559 179.74 53.8665C180.049 53.6752 180.411 53.5795 180.828 53.5795C181.097 53.5795 181.351 53.6231 181.589 53.7102C181.83 53.7955 182.042 53.928 182.226 54.108C182.411 54.2879 182.557 54.517 182.663 54.7955C182.769 55.072 182.822 55.4015 182.822 55.7841V56.0994H179.246V55.4062H181.837C181.835 55.2093 181.792 55.0341 181.709 54.8807C181.625 54.7254 181.509 54.6032 181.359 54.5142C181.212 54.4252 181.039 54.3807 180.842 54.3807C180.632 54.3807 180.447 54.4318 180.288 54.5341C180.129 54.6345 180.005 54.767 179.916 54.9318C179.829 55.0947 179.785 55.2737 179.783 55.4688V56.0739C179.783 56.3277 179.829 56.5455 179.922 56.7273C180.015 56.9072 180.144 57.0455 180.311 57.142C180.478 57.2367 180.673 57.2841 180.896 57.2841C181.046 57.2841 181.181 57.2633 181.303 57.2216C181.424 57.178 181.529 57.1146 181.618 57.0312C181.707 56.9479 181.774 56.8447 181.82 56.7216L182.78 56.8295C182.719 57.0833 182.604 57.3049 182.433 57.4943C182.265 57.6818 182.049 57.8277 181.786 57.9318C181.522 58.0341 181.221 58.0852 180.882 58.0852ZM187.141 54.7898L186.204 54.892C186.177 54.7973 186.131 54.7083 186.065 54.625C186 54.5417 185.913 54.4744 185.803 54.4233C185.693 54.3722 185.559 54.3466 185.4 54.3466C185.186 54.3466 185.006 54.393 184.86 54.4858C184.716 54.5786 184.645 54.6989 184.647 54.8466C184.645 54.9735 184.692 55.0767 184.786 55.1562C184.883 55.2358 185.042 55.3011 185.263 55.3523L186.008 55.5114C186.421 55.6004 186.728 55.7415 186.928 55.9347C187.131 56.1278 187.233 56.3807 187.235 56.6932C187.233 56.9678 187.153 57.2102 186.994 57.4205C186.836 57.6288 186.618 57.7917 186.337 57.9091C186.057 58.0265 185.735 58.0852 185.371 58.0852C184.837 58.0852 184.407 57.9735 184.082 57.75C183.756 57.5246 183.562 57.2112 183.499 56.8097L184.502 56.7131C184.548 56.91 184.644 57.0587 184.792 57.1591C184.94 57.2595 185.132 57.3097 185.369 57.3097C185.613 57.3097 185.809 57.2595 185.957 57.1591C186.106 57.0587 186.181 56.9347 186.181 56.7869C186.181 56.6619 186.133 56.5587 186.036 56.4773C185.942 56.3958 185.794 56.3333 185.593 56.2898L184.849 56.1335C184.43 56.0464 184.121 55.8996 183.92 55.6932C183.719 55.4848 183.62 55.2216 183.621 54.9034C183.62 54.6345 183.692 54.4015 183.84 54.2045C183.99 54.0057 184.197 53.8523 184.462 53.7443C184.729 53.6345 185.037 53.5795 185.386 53.5795C185.897 53.5795 186.299 53.6884 186.593 53.9062C186.888 54.1241 187.071 54.4186 187.141 54.7898ZM190.262 53.6364V54.4318H187.754V53.6364H190.262ZM188.373 52.5909H189.401V56.6875C189.401 56.8258 189.422 56.9318 189.464 57.0057C189.507 57.0777 189.564 57.1269 189.634 57.1534C189.704 57.1799 189.782 57.1932 189.867 57.1932C189.932 57.1932 189.99 57.1884 190.043 57.179C190.098 57.1695 190.14 57.161 190.168 57.1534L190.342 57.9574C190.287 57.9763 190.208 57.9972 190.106 58.0199C190.005 58.0426 189.882 58.0559 189.737 58.0597C189.479 58.0672 189.247 58.0284 189.04 57.9432C188.834 57.8561 188.67 57.7216 188.549 57.5398C188.43 57.358 188.371 57.1307 188.373 56.858V52.5909ZM192.979 58.0852C192.553 58.0852 192.183 57.9915 191.871 57.804C191.558 57.6165 191.316 57.3542 191.143 57.017C190.973 56.6799 190.888 56.286 190.888 55.8352C190.888 55.3845 190.973 54.9896 191.143 54.6506C191.316 54.3116 191.558 54.0483 191.871 53.8608C192.183 53.6733 192.553 53.5795 192.979 53.5795C193.405 53.5795 193.774 53.6733 194.087 53.8608C194.399 54.0483 194.641 54.3116 194.811 54.6506C194.983 54.9896 195.07 55.3845 195.07 55.8352C195.07 56.286 194.983 56.6799 194.811 57.017C194.641 57.3542 194.399 57.6165 194.087 57.804C193.774 57.9915 193.405 58.0852 192.979 58.0852ZM192.984 57.2614C193.215 57.2614 193.409 57.1979 193.564 57.071C193.719 56.9422 193.835 56.7699 193.911 56.554C193.988 56.3381 194.027 56.0975 194.027 55.8324C194.027 55.5653 193.988 55.3239 193.911 55.108C193.835 54.8902 193.719 54.7169 193.564 54.5881C193.409 54.4593 193.215 54.3949 192.984 54.3949C192.748 54.3949 192.551 54.4593 192.393 54.5881C192.238 54.7169 192.122 54.8902 192.044 55.108C191.968 55.3239 191.93 55.5653 191.93 55.8324C191.93 56.0975 191.968 56.3381 192.044 56.554C192.122 56.7699 192.238 56.9422 192.393 57.071C192.551 57.1979 192.748 57.2614 192.984 57.2614ZM196.971 55.4432V58H195.942V53.6364H196.925V54.3778H196.977C197.077 54.1335 197.237 53.9394 197.457 53.7955C197.678 53.6515 197.952 53.5795 198.278 53.5795C198.579 53.5795 198.841 53.6439 199.065 53.7727C199.29 53.9015 199.464 54.0881 199.587 54.3324C199.712 54.5767 199.774 54.8731 199.772 55.2216V58H198.744V55.3807C198.744 55.089 198.668 54.8608 198.516 54.696C198.367 54.5312 198.159 54.4489 197.894 54.4489C197.714 54.4489 197.554 54.4886 197.414 54.5682C197.276 54.6458 197.167 54.7585 197.087 54.9062C197.01 55.054 196.971 55.233 196.971 55.4432ZM202.749 58.0852C202.312 58.0852 201.934 57.9943 201.616 57.8125C201.299 57.6288 201.056 57.3693 200.886 57.0341C200.715 56.697 200.63 56.3002 200.63 55.8438C200.63 55.3949 200.715 55.0009 200.886 54.6619C201.058 54.321 201.299 54.0559 201.607 53.8665C201.916 53.6752 202.279 53.5795 202.695 53.5795C202.964 53.5795 203.218 53.6231 203.457 53.7102C203.697 53.7955 203.909 53.928 204.093 54.108C204.279 54.2879 204.424 54.517 204.531 54.7955C204.637 55.072 204.69 55.4015 204.69 55.7841V56.0994H201.113V55.4062H203.704C203.702 55.2093 203.659 55.0341 203.576 54.8807C203.493 54.7254 203.376 54.6032 203.227 54.5142C203.079 54.4252 202.906 54.3807 202.71 54.3807C202.499 54.3807 202.315 54.4318 202.156 54.5341C201.996 54.6345 201.872 54.767 201.783 54.9318C201.696 55.0947 201.652 55.2737 201.65 55.4688V56.0739C201.65 56.3277 201.696 56.5455 201.789 56.7273C201.882 56.9072 202.012 57.0455 202.178 57.142C202.345 57.2367 202.54 57.2841 202.763 57.2841C202.913 57.2841 203.049 57.2633 203.17 57.2216C203.291 57.178 203.396 57.1146 203.485 57.0312C203.574 56.9479 203.641 56.8447 203.687 56.7216L204.647 56.8295C204.586 57.0833 204.471 57.3049 204.3 57.4943C204.132 57.6818 203.916 57.8277 203.653 57.9318C203.389 58.0341 203.088 58.0852 202.749 58.0852ZM209.009 54.7898L208.071 54.892C208.045 54.7973 207.998 54.7083 207.932 54.625C207.867 54.5417 207.78 54.4744 207.67 54.4233C207.561 54.3722 207.426 54.3466 207.267 54.3466C207.053 54.3466 206.873 54.393 206.727 54.4858C206.583 54.5786 206.512 54.6989 206.514 54.8466C206.512 54.9735 206.559 55.0767 206.653 55.1562C206.75 55.2358 206.909 55.3011 207.131 55.3523L207.875 55.5114C208.288 55.6004 208.595 55.7415 208.795 55.9347C208.998 56.1278 209.1 56.3807 209.102 56.6932C209.1 56.9678 209.02 57.2102 208.861 57.4205C208.704 57.6288 208.485 57.7917 208.205 57.9091C207.924 58.0265 207.602 58.0852 207.239 58.0852C206.705 58.0852 206.275 57.9735 205.949 57.75C205.623 57.5246 205.429 57.2112 205.366 56.8097L206.369 56.7131C206.415 56.91 206.511 57.0587 206.659 57.1591C206.807 57.2595 206.999 57.3097 207.236 57.3097C207.48 57.3097 207.676 57.2595 207.824 57.1591C207.973 57.0587 208.048 56.9347 208.048 56.7869C208.048 56.6619 208 56.5587 207.903 56.4773C207.809 56.3958 207.661 56.3333 207.46 56.2898L206.716 56.1335C206.297 56.0464 205.988 55.8996 205.787 55.6932C205.586 55.4848 205.487 55.2216 205.489 54.9034C205.487 54.6345 205.56 54.4015 205.707 54.2045C205.857 54.0057 206.064 53.8523 206.33 53.7443C206.597 53.6345 206.904 53.5795 207.253 53.5795C207.764 53.5795 208.167 53.6884 208.46 53.9062C208.756 54.1241 208.938 54.4186 209.009 54.7898Z" fill="white"/>
<path fill-rule="evenodd" clip-rule="evenodd" d="M182.413 27.9154C184.847 27.4173 186.417 25.0397 185.919 22.6048C185.421 20.17 183.044 18.5999 180.609 19.0981C178.174 19.5962 176.604 21.9738 177.102 24.4087C177.6 26.8435 179.978 28.4136 182.413 27.9154ZM180.122 23.1346C180.47 23.0635 180.694 22.7238 180.623 22.376C180.552 22.0281 180.212 21.8038 179.864 21.875C179.517 21.9462 179.292 22.2858 179.363 22.6337C179.435 22.9815 179.774 23.2058 180.122 23.1346ZM183.142 21.8606C183.214 22.2084 182.989 22.5481 182.641 22.6192C182.294 22.6904 181.954 22.4661 181.883 22.1183C181.812 21.7704 182.036 21.4308 182.384 21.3596C182.732 21.2885 183.071 21.5127 183.142 21.8606ZM183.326 24.6298C183.393 24.4653 183.313 24.2778 183.149 24.2109C182.985 24.1441 182.797 24.2232 182.73 24.3876C182.67 24.5347 182.586 24.6757 182.454 24.7941C182.324 24.9113 182.131 25.0203 181.833 25.0813C181.535 25.1423 181.315 25.1177 181.148 25.0612C180.981 25.0041 180.848 24.9076 180.735 24.7958C180.609 24.6708 180.405 24.6717 180.28 24.7978C180.155 24.9239 180.156 25.1274 180.282 25.2523C180.444 25.4125 180.657 25.5732 180.941 25.6698C181.227 25.7669 181.564 25.7924 181.962 25.7111C182.359 25.6297 182.659 25.4739 182.884 25.2725C183.107 25.0721 183.24 24.8405 183.326 24.6298Z" fill="white"/>
<path d="M171 37C170.448 37 170 37.4477 170 38V41C170 41.5523 170.448 42 171 42H186C186.552 42 187 41.5523 187 41V38C187 37.4477 186.552 37 186 37H171Z" fill="white"/>
<path d="M179 32C179 31.4477 179.448 31 180 31H192C192.552 31 193 31.4477 193 32V35C193 35.5523 192.552 36 192 36H180C179.448 36 179 35.5523 179 35V32Z" fill="white"/>
<path d="M188 25C187.448 25 187 25.4477 187 26V29C187 29.5523 187.448 30 188 30H202C202.552 30 203 29.5523 203 29V26C203 25.4477 202.552 25 202 25H188Z" fill="white"/>
<path d="M243.355 52.1818V58H242.418L239.676 54.0369H239.628V58H238.574V52.1818H239.517L242.256 56.1477H242.307V52.1818H243.355ZM246.362 58.0852C245.935 58.0852 245.566 57.9915 245.254 57.804C244.941 57.6165 244.699 57.3542 244.526 57.017C244.356 56.6799 244.271 56.286 244.271 55.8352C244.271 55.3845 244.356 54.9896 244.526 54.6506C244.699 54.3116 244.941 54.0483 245.254 53.8608C245.566 53.6733 245.935 53.5795 246.362 53.5795C246.788 53.5795 247.157 53.6733 247.469 53.8608C247.782 54.0483 248.023 54.3116 248.194 54.6506C248.366 54.9896 248.452 55.3845 248.452 55.8352C248.452 56.286 248.366 56.6799 248.194 57.017C248.023 57.3542 247.782 57.6165 247.469 57.804C247.157 57.9915 246.788 58.0852 246.362 58.0852ZM246.367 57.2614C246.598 57.2614 246.791 57.1979 246.947 57.071C247.102 56.9422 247.218 56.7699 247.293 56.554C247.371 56.3381 247.41 56.0975 247.41 55.8324C247.41 55.5653 247.371 55.3239 247.293 55.108C247.218 54.8902 247.102 54.7169 246.947 54.5881C246.791 54.4593 246.598 54.3949 246.367 54.3949C246.13 54.3949 245.933 54.4593 245.776 54.5881C245.621 54.7169 245.504 54.8902 245.427 55.108C245.351 55.3239 245.313 55.5653 245.313 55.8324C245.313 56.0975 245.351 56.3381 245.427 56.554C245.504 56.7699 245.621 56.9422 245.776 57.071C245.933 57.1979 246.13 57.2614 246.367 57.2614ZM251.504 53.6364V54.4318H248.996V53.6364H251.504ZM249.615 52.5909H250.643V56.6875C250.643 56.8258 250.664 56.9318 250.706 57.0057C250.75 57.0777 250.806 57.1269 250.876 57.1534C250.946 57.1799 251.024 57.1932 251.109 57.1932C251.174 57.1932 251.232 57.1884 251.286 57.179C251.34 57.1695 251.382 57.161 251.411 57.1534L251.584 57.9574C251.529 57.9763 251.45 57.9972 251.348 58.0199C251.248 58.0426 251.125 58.0559 250.979 58.0597C250.721 58.0672 250.489 58.0284 250.283 57.9432C250.076 57.8561 249.912 57.7216 249.791 57.5398C249.672 57.358 249.613 57.1307 249.615 56.858V52.5909ZM252.364 58V53.6364H253.393V58H252.364ZM252.881 53.017C252.719 53.017 252.578 52.9631 252.461 52.8551C252.344 52.7453 252.285 52.6136 252.285 52.4602C252.285 52.3049 252.344 52.1733 252.461 52.0653C252.578 51.9555 252.719 51.9006 252.881 51.9006C253.046 51.9006 253.186 51.9555 253.302 52.0653C253.419 52.1733 253.478 52.3049 253.478 52.4602C253.478 52.6136 253.419 52.7453 253.302 52.8551C253.186 52.9631 253.046 53.017 252.881 53.017ZM256.661 53.6364V54.4318H254.081V53.6364H256.661ZM254.726 58V53.2244C254.726 52.9309 254.786 52.6866 254.908 52.4915C255.031 52.2964 255.196 52.1506 255.402 52.054C255.608 51.9574 255.838 51.9091 256.089 51.9091C256.268 51.9091 256.426 51.9233 256.564 51.9517C256.702 51.9801 256.804 52.0057 256.871 52.0284L256.666 52.8239C256.623 52.8106 256.568 52.7973 256.501 52.7841C256.435 52.7689 256.361 52.7614 256.28 52.7614C256.089 52.7614 255.953 52.8078 255.874 52.9006C255.796 52.9915 255.757 53.1222 255.757 53.2926V58H254.726ZM257.466 58V53.6364H258.494V58H257.466ZM257.983 53.017C257.82 53.017 257.68 52.9631 257.562 52.8551C257.445 52.7453 257.386 52.6136 257.386 52.4602C257.386 52.3049 257.445 52.1733 257.562 52.0653C257.68 51.9555 257.82 51.9006 257.983 51.9006C258.148 51.9006 258.288 51.9555 258.403 52.0653C258.521 52.1733 258.58 52.3049 258.58 52.4602C258.58 52.6136 258.521 52.7453 258.403 52.8551C258.288 52.9631 258.148 53.017 257.983 53.017ZM261.455 58.0852C261.02 58.0852 260.646 57.9896 260.333 57.7983C260.022 57.607 259.783 57.3428 259.614 57.0057C259.448 56.6667 259.364 56.2765 259.364 55.8352C259.364 55.392 259.45 55.0009 259.62 54.6619C259.79 54.321 260.031 54.0559 260.342 53.8665C260.654 53.6752 261.023 53.5795 261.45 53.5795C261.804 53.5795 262.117 53.6449 262.39 53.7756C262.665 53.9044 262.883 54.0871 263.046 54.3239C263.209 54.5587 263.302 54.8333 263.325 55.1477H262.342C262.302 54.9375 262.207 54.7623 262.058 54.6222C261.91 54.4801 261.712 54.4091 261.464 54.4091C261.254 54.4091 261.069 54.4659 260.91 54.5795C260.751 54.6913 260.627 54.8523 260.538 55.0625C260.451 55.2727 260.407 55.5246 260.407 55.8182C260.407 56.1155 260.451 56.3712 260.538 56.5852C260.625 56.7973 260.747 56.9612 260.904 57.0767C261.063 57.1903 261.25 57.2472 261.464 57.2472C261.615 57.2472 261.751 57.2187 261.87 57.1619C261.991 57.1032 262.093 57.0189 262.174 56.9091C262.255 56.7992 262.311 56.6657 262.342 56.5085H263.325C263.3 56.8172 263.209 57.0909 263.052 57.3295C262.895 57.5663 262.681 57.7519 262.41 57.8864C262.139 58.0189 261.821 58.0852 261.455 58.0852ZM265.425 58.0881C265.148 58.0881 264.899 58.0388 264.678 57.9403C264.458 57.84 264.284 57.6922 264.155 57.4972C264.028 57.3021 263.964 57.0616 263.964 56.7756C263.964 56.5294 264.01 56.3258 264.101 56.1648C264.192 56.0038 264.316 55.875 264.473 55.7784C264.63 55.6818 264.807 55.6089 265.004 55.5597C265.203 55.5085 265.409 55.4716 265.621 55.4489C265.876 55.4223 266.084 55.3987 266.243 55.3778C266.402 55.3551 266.518 55.321 266.589 55.2756C266.663 55.2282 266.7 55.1553 266.7 55.0568V55.0398C266.7 54.8258 266.637 54.66 266.51 54.5426C266.383 54.4252 266.2 54.3665 265.962 54.3665C265.71 54.3665 265.51 54.4214 265.362 54.5312C265.216 54.6411 265.118 54.7708 265.067 54.9205L264.107 54.7841C264.182 54.5189 264.307 54.2973 264.482 54.1193C264.656 53.9394 264.869 53.8049 265.121 53.7159C265.373 53.625 265.651 53.5795 265.956 53.5795C266.166 53.5795 266.375 53.6042 266.584 53.6534C266.792 53.7027 266.982 53.7841 267.155 53.8977C267.327 54.0095 267.465 54.1619 267.57 54.3551C267.676 54.5483 267.729 54.7898 267.729 55.0795V58H266.74V57.4006H266.706C266.643 57.5218 266.555 57.6354 266.442 57.7415C266.33 57.8456 266.189 57.9299 266.018 57.9943C265.85 58.0568 265.652 58.0881 265.425 58.0881ZM265.692 57.3324C265.898 57.3324 266.077 57.2917 266.229 57.2102C266.38 57.1269 266.497 57.017 266.578 56.8807C266.661 56.7443 266.703 56.5956 266.703 56.4347V55.9205C266.671 55.947 266.616 55.9716 266.538 55.9943C266.463 56.017 266.377 56.0369 266.283 56.054C266.188 56.071 266.094 56.0862 266.001 56.0994C265.909 56.1127 265.828 56.1241 265.76 56.1335C265.607 56.1544 265.469 56.1884 265.348 56.2358C265.227 56.2831 265.131 56.3494 265.061 56.4347C264.991 56.518 264.956 56.6259 264.956 56.7585C264.956 56.9479 265.025 57.0909 265.163 57.1875C265.302 57.2841 265.478 57.3324 265.692 57.3324ZM270.942 53.6364V54.4318H268.433V53.6364H270.942ZM269.053 52.5909H270.081V56.6875C270.081 56.8258 270.102 56.9318 270.143 57.0057C270.187 57.0777 270.244 57.1269 270.314 57.1534C270.384 57.1799 270.462 57.1932 270.547 57.1932C270.611 57.1932 270.67 57.1884 270.723 57.179C270.778 57.1695 270.82 57.161 270.848 57.1534L271.021 57.9574C270.966 57.9763 270.888 57.9972 270.786 58.0199C270.685 58.0426 270.562 58.0559 270.416 58.0597C270.159 58.0672 269.927 58.0284 269.72 57.9432C269.514 57.8561 269.35 57.7216 269.229 57.5398C269.109 57.358 269.051 57.1307 269.053 56.858V52.5909ZM271.802 58V53.6364H272.83V58H271.802ZM272.319 53.017C272.156 53.017 272.016 52.9631 271.898 52.8551C271.781 52.7453 271.722 52.6136 271.722 52.4602C271.722 52.3049 271.781 52.1733 271.898 52.0653C272.016 51.9555 272.156 51.9006 272.319 51.9006C272.484 51.9006 272.624 51.9555 272.739 52.0653C272.857 52.1733 272.915 52.3049 272.915 52.4602C272.915 52.6136 272.857 52.7453 272.739 52.8551C272.624 52.9631 272.484 53.017 272.319 53.017ZM275.791 58.0852C275.365 58.0852 274.996 57.9915 274.683 57.804C274.371 57.6165 274.128 57.3542 273.956 57.017C273.786 56.6799 273.7 56.286 273.7 55.8352C273.7 55.3845 273.786 54.9896 273.956 54.6506C274.128 54.3116 274.371 54.0483 274.683 53.8608C274.996 53.6733 275.365 53.5795 275.791 53.5795C276.217 53.5795 276.587 53.6733 276.899 53.8608C277.212 54.0483 277.453 54.3116 277.624 54.6506C277.796 54.9896 277.882 55.3845 277.882 55.8352C277.882 56.286 277.796 56.6799 277.624 57.017C277.453 57.3542 277.212 57.6165 276.899 57.804C276.587 57.9915 276.217 58.0852 275.791 58.0852ZM275.797 57.2614C276.028 57.2614 276.221 57.1979 276.376 57.071C276.532 56.9422 276.647 56.7699 276.723 56.554C276.801 56.3381 276.839 56.0975 276.839 55.8324C276.839 55.5653 276.801 55.3239 276.723 55.108C276.647 54.8902 276.532 54.7169 276.376 54.5881C276.221 54.4593 276.028 54.3949 275.797 54.3949C275.56 54.3949 275.363 54.4593 275.206 54.5881C275.051 54.7169 274.934 54.8902 274.857 55.108C274.781 55.3239 274.743 55.5653 274.743 55.8324C274.743 56.0975 274.781 56.3381 274.857 56.554C274.934 56.7699 275.051 56.9422 275.206 57.071C275.363 57.1979 275.56 57.2614 275.797 57.2614ZM279.783 55.4432V58H278.755V53.6364H279.738V54.3778H279.789C279.889 54.1335 280.049 53.9394 280.269 53.7955C280.491 53.6515 280.764 53.5795 281.09 53.5795C281.391 53.5795 281.654 53.6439 281.877 53.7727C282.103 53.9015 282.277 54.0881 282.4 54.3324C282.525 54.5767 282.586 54.8731 282.585 55.2216V58H281.556V55.3807C281.556 55.089 281.48 54.8608 281.329 54.696C281.179 54.5312 280.972 54.4489 280.707 54.4489C280.527 54.4489 280.367 54.4886 280.227 54.5682C280.088 54.6458 279.979 54.7585 279.9 54.9062C279.822 55.054 279.783 55.233 279.783 55.4432ZM287.079 54.7898L286.141 54.892C286.115 54.7973 286.068 54.7083 286.002 54.625C285.938 54.5417 285.851 54.4744 285.741 54.4233C285.631 54.3722 285.496 54.3466 285.337 54.3466C285.123 54.3466 284.943 54.393 284.798 54.4858C284.654 54.5786 284.583 54.6989 284.585 54.8466C284.583 54.9735 284.629 55.0767 284.724 55.1562C284.82 55.2358 284.979 55.3011 285.201 55.3523L285.945 55.5114C286.358 55.6004 286.665 55.7415 286.866 55.9347C287.068 56.1278 287.171 56.3807 287.173 56.6932C287.171 56.9678 287.09 57.2102 286.931 57.4205C286.774 57.6288 286.555 57.7917 286.275 57.9091C285.995 58.0265 285.673 58.0852 285.309 58.0852C284.775 58.0852 284.345 57.9735 284.019 57.75C283.693 57.5246 283.499 57.2112 283.437 56.8097L284.44 56.7131C284.485 56.91 284.582 57.0587 284.729 57.1591C284.877 57.2595 285.069 57.3097 285.306 57.3097C285.55 57.3097 285.746 57.2595 285.894 57.1591C286.044 57.0587 286.119 56.9347 286.119 56.7869C286.119 56.6619 286.07 56.5587 285.974 56.4773C285.879 56.3958 285.731 56.3333 285.531 56.2898L284.786 56.1335C284.368 56.0464 284.058 55.8996 283.857 55.6932C283.656 55.4848 283.557 55.2216 283.559 54.9034C283.557 54.6345 283.63 54.4015 283.778 54.2045C283.927 54.0057 284.135 53.8523 284.4 53.7443C284.667 53.6345 284.975 53.5795 285.323 53.5795C285.835 53.5795 286.237 53.6884 286.531 53.9062C286.826 54.1241 287.009 54.4186 287.079 54.7898Z" fill="white"/>
<path d="M266.909 33.0357V25C266.909 20.0294 262.92 16 258 16C253.08 16 249.091 20.0294 249.091 25V33.0357C249.091 34.2784 248.094 35.2857 246.864 35.2857H246.545C245.14 35.2857 244 36.437 244 37.8571C244 39.2773 245.14 40.4286 246.545 40.4286H255.455C255.455 41.8487 256.594 43 258 43C259.406 43 260.545 41.8487 260.545 40.4286H269.455C270.86 40.4286 272 39.2773 272 37.8571C272 36.437 270.86 35.2857 269.455 35.2857H269.136C267.906 35.2857 266.909 34.2784 266.909 33.0357Z" fill="white"/>
<path d="M268.182 20.5C268.182 22.6302 266.472 24.3571 264.364 24.3571C262.255 24.3571 260.545 22.6302 260.545 20.5C260.545 18.3698 262.255 16.6429 264.364 16.6429C266.472 16.6429 268.182 18.3698 268.182 20.5Z" fill="#C4C4C4"/>
<path d="M265.002 18.6883V22.4286H264.219V19.4389H264.197L263.349 19.9759V19.2746L264.266 18.6883H265.002Z" fill="white"/>
<rect x="123" y="63" width="141" height="6" rx="3" fill="#808080"/>
<path d="M104.318 53.0653V52.1818H108.96V53.0653H107.162V58H106.116V53.0653H104.318ZM111.08 58.0852C110.654 58.0852 110.285 57.9915 109.972 57.804C109.66 57.6165 109.417 57.3542 109.245 57.017C109.075 56.6799 108.989 56.286 108.989 55.8352C108.989 55.3845 109.075 54.9896 109.245 54.6506C109.417 54.3116 109.66 54.0483 109.972 53.8608C110.285 53.6733 110.654 53.5795 111.08 53.5795C111.506 53.5795 111.876 53.6733 112.188 53.8608C112.501 54.0483 112.742 54.3116 112.913 54.6506C113.085 54.9896 113.171 55.3845 113.171 55.8352C113.171 56.286 113.085 56.6799 112.913 57.017C112.742 57.3542 112.501 57.6165 112.188 57.804C111.876 57.9915 111.506 58.0852 111.08 58.0852ZM111.086 57.2614C111.317 57.2614 111.51 57.1979 111.665 57.071C111.821 56.9422 111.936 56.7699 112.012 56.554C112.09 56.3381 112.129 56.0975 112.129 55.8324C112.129 55.5653 112.09 55.3239 112.012 55.108C111.936 54.8902 111.821 54.7169 111.665 54.5881C111.51 54.4593 111.317 54.3949 111.086 54.3949C110.849 54.3949 110.652 54.4593 110.495 54.5881C110.34 54.7169 110.223 54.8902 110.146 55.108C110.07 55.3239 110.032 55.5653 110.032 55.8324C110.032 56.0975 110.07 56.3381 110.146 56.554C110.223 56.7699 110.34 56.9422 110.495 57.071C110.652 57.1979 110.849 57.2614 111.086 57.2614ZM116.689 55.1534V56H114.07V55.1534H116.689ZM119.788 58H117.816V52.1818H119.827C120.405 52.1818 120.901 52.2983 121.316 52.5312C121.733 52.7623 122.053 53.0947 122.276 53.5284C122.5 53.9621 122.612 54.4811 122.612 55.0852C122.612 55.6913 122.499 56.2121 122.273 56.6477C122.05 57.0833 121.727 57.4176 121.305 57.6506C120.884 57.8835 120.379 58 119.788 58ZM118.87 57.0881H119.737C120.142 57.0881 120.48 57.0142 120.751 56.8665C121.022 56.7169 121.225 56.4943 121.362 56.1989C121.498 55.9015 121.566 55.5303 121.566 55.0852C121.566 54.6402 121.498 54.2708 121.362 53.9773C121.225 53.6818 121.023 53.4612 120.756 53.3153C120.491 53.1676 120.162 53.0938 119.768 53.0938H118.87V57.0881ZM125.471 58.0852C125.045 58.0852 124.675 57.9915 124.363 57.804C124.05 57.6165 123.808 57.3542 123.636 57.017C123.465 56.6799 123.38 56.286 123.38 55.8352C123.38 55.3845 123.465 54.9896 123.636 54.6506C123.808 54.3116 124.05 54.0483 124.363 53.8608C124.675 53.6733 125.045 53.5795 125.471 53.5795C125.897 53.5795 126.266 53.6733 126.579 53.8608C126.891 54.0483 127.133 54.3116 127.303 54.6506C127.476 54.9896 127.562 55.3845 127.562 55.8352C127.562 56.286 127.476 56.6799 127.303 57.017C127.133 57.3542 126.891 57.6165 126.579 57.804C126.266 57.9915 125.897 58.0852 125.471 58.0852ZM125.477 57.2614C125.708 57.2614 125.901 57.1979 126.056 57.071C126.211 56.9422 126.327 56.7699 126.403 56.554C126.48 56.3381 126.519 56.0975 126.519 55.8324C126.519 55.5653 126.48 55.3239 126.403 55.108C126.327 54.8902 126.211 54.7169 126.056 54.5881C125.901 54.4593 125.708 54.3949 125.477 54.3949C125.24 54.3949 125.043 54.4593 124.886 54.5881C124.73 54.7169 124.614 54.8902 124.536 55.108C124.46 55.3239 124.423 55.5653 124.423 55.8324C124.423 56.0975 124.46 56.3381 124.536 56.554C124.614 56.7699 124.73 56.9422 124.886 57.071C125.043 57.1979 125.24 57.2614 125.477 57.2614Z" fill="white"/>
<path d="M105.824 21.64L104.388 20.0692C104.108 19.7635 103.62 19.726 103.297 19.9855C102.974 20.245 102.939 20.7032 103.219 21.0089L105.157 23.1291C105.19 23.1755 105.229 23.219 105.274 23.2586C105.416 23.3818 105.593 23.4454 105.773 23.4509C105.962 23.4594 106.154 23.4032 106.308 23.2792C106.355 23.2416 106.395 23.1999 106.43 23.155L111.319 18.2182C111.61 17.9238 111.593 17.4647 111.281 17.1927C110.969 16.9207 110.479 16.9388 110.188 17.2331L105.824 21.64Z" fill="white"/>
<path d="M113.773 18.4656C113.221 18.4656 112.773 18.9134 112.773 19.4656V22.4656C112.773 23.0179 113.221 23.4656 113.773 23.4656H128.773C129.325 23.4656 129.773 23.0179 129.773 22.4656V19.4656C129.773 18.9134 129.325 18.4656 128.773 18.4656H113.773Z" fill="white"/>
<path d="M112.773 28.4656C112.773 27.9134 113.221 27.4656 113.773 27.4656H128.773C129.325 27.4656 129.773 27.9134 129.773 28.4656V31.4656C129.773 32.0179 129.325 32.4656 128.773 32.4656H113.773C113.221 32.4656 112.773 32.0179 112.773 31.4656V28.4656Z" fill="white"/>
<path d="M112.773 37.4656C112.773 36.9134 113.221 36.4656 113.773 36.4656H128.773C129.325 36.4656 129.773 36.9134 129.773 37.4656V40.4656C129.773 41.0179 129.325 41.4656 128.773 41.4656H113.773C113.221 41.4656 112.773 41.0179 112.773 40.4656V37.4656Z" fill="white"/>
<path d="M105.794 30.65L104.358 29.0792C104.078 28.7735 103.59 28.736 103.267 28.9955C102.944 29.255 102.909 29.7132 103.189 30.0189L105.127 32.1391C105.16 32.1855 105.199 32.229 105.244 32.2686C105.386 32.3918 105.563 32.4554 105.743 32.4609C105.932 32.4694 106.124 32.4132 106.278 32.2892C106.325 32.2516 106.365 32.2099 106.4 32.165L111.289 27.2282C111.58 26.9338 111.563 26.4747 111.251 26.2027C110.939 25.9307 110.449 25.9488 110.158 26.2432L105.794 30.65Z" fill="white"/>
<path d="M105.794 39.66L104.358 38.0892C104.078 37.7835 103.59 37.746 103.267 38.0055C102.944 38.265 102.909 38.7232 103.189 39.0289L105.127 41.1491C105.16 41.1955 105.199 41.239 105.244 41.2786C105.386 41.4018 105.563 41.4654 105.743 41.4709C105.932 41.4794 106.124 41.4232 106.278 41.2992C106.325 41.2617 106.365 41.2199 106.4 41.175L111.289 36.2382C111.58 35.9439 111.563 35.4848 111.251 35.2128C110.939 34.9407 110.449 34.9588 110.158 35.2532L105.794 39.66Z" fill="white"/>
</svg>
