<svg xmlns="http://www.w3.org/2000/svg" viewBox="0 0 1589.68 764.87"><defs><style>.cls-1,.cls-2{fill:#fff;}.cls-2,.cls-3{stroke:#000;stroke-miterlimit:10;stroke-width:9.21px;}.cls-3{fill:none;}</style></defs><g id="Layer_2" data-name="Layer 2"><g id="Layer_1-2" data-name="Layer 1"><rect class="cls-1" width="1589.68" height="764.87"/><rect class="cls-1" x="11.15" y="1.56" width="1578.53" height="763.31"/><path class="cls-2" d="M631,605.44c-116.5,0-131.49-88.39-131.49-140.3,0-80.75,106-234.86,127.55-311.16,10.11-35.88,2.63-36.15,12.54.3C660.69,231.83,753.29,384.19,753.29,464,753.29,510.63,739.7,605.44,631,605.44Z"/><path class="cls-2" d="M575.8,565.11c-31.94,0,79.4,29.51,115.34-11.39,52.71-60,17.8-145.64,19.23-122.33,1.7,27.54-14.6,76.92-40.39,102.71C642,562.05,593.28,565.11,575.8,565.11Z"/><path class="cls-3" d="M860.62,153.78c24.44-1.85,109.91,118.57,159.62,118.57,34.25,0,75.2-52.8,102.11-67.31"/><path class="cls-3" d="M860.62,303.45c56.84-27,184.11,93.14,257.9,58.06"/><path class="cls-3" d="M857.77,451.77c15.3-15.3,63.42-63.12,107-61.68,47.69,1.58,126.49,95.77,151.72,115.84"/><path class="cls-3" d="M857.91,554.12c17.35,1.11,40.4-24.45,92.91-26.2,59.3-2,126,58.92,169.57,60.9"/><circle cx="871.57" cy="390.06" r="12.66"/><circle cx="917.76" cy="582.72" r="12.66"/><circle cx="942.59" cy="414.63" r="12.66"/><circle cx="948.86" cy="290.03" r="11.36"/><circle cx="1050.33" cy="212.56" r="11.36"/><circle cx="948.86" cy="361.67" r="11.36"/><circle cx="1074.57" cy="594.08" r="11.36"/><circle cx="979.36" cy="306.36" r="5.34"/><circle cx="1096.54" cy="207.22" r="5.34"/><circle cx="925.88" cy="161.03" r="5.34"/><circle cx="895.48" cy="562.72" r="5.34"/><circle cx="974.02" cy="443.65" r="5.34"/><circle cx="1068.55" cy="492.75" r="5.34"/><circle cx="1000.23" cy="327.23" r="5.34"/><circle cx="1068.17" cy="382.36" r="5.34"/><circle cx="905.91" cy="149.67" r="11.36"/><circle cx="1027.6" cy="384.39" r="11.36"/><circle cx="887.57" cy="508.89" r="11.36"/><circle cx="1033.93" cy="465.89" r="11.36"/><circle cx="1049.25" cy="517.77" r="11.36"/><circle cx="942.59" cy="554.81" r="11.36"/><circle cx="903.12" cy="373.03" r="7.91"/><circle cx="895.48" cy="456.23" r="7.91"/><circle cx="1118.52" cy="339.89" r="7.91"/><circle cx="950.5" cy="508.89" r="7.91"/><circle cx="1088.63" cy="554.81" r="7.91"/><circle cx="997.48" cy="560.81" r="7.91"/><circle cx="879.48" cy="192.49" r="7.91"/><circle cx="1027.6" cy="249.53" r="7.91"/><circle cx="997.48" cy="425.81" r="7.91"/><circle cx="1027.6" cy="592.41" r="7.91"/><circle cx="953.95" cy="182.1" r="7.91"/><circle cx="1099.25" cy="456.23" r="12.66"/><circle cx="1092.23" cy="277.37" r="12.66"/><circle cx="994.89" cy="508.89" r="12.66"/><circle cx="1061.91" cy="339.89" r="12.66"/><circle cx="887.57" cy="324.88" r="12.66"/><circle cx="918.57" cy="236.88" r="12.66"/><circle cx="969.57" cy="219.88" r="12.66"/><circle cx="1315.21" cy="316.39" r="5.63"/><circle cx="1329.97" cy="284.62" r="5.63"/><circle cx="1391.88" cy="416.81" r="5.63"/><circle cx="1434.92" cy="254.88" r="5.63"/><circle cx="1284.48" cy="477.6" r="5.63"/><circle cx="1339.45" cy="599.81" r="5.63"/><circle cx="1331.39" cy="377.28" r="34.21"/><circle cx="1346.01" cy="465.84" r="30.93"/><circle cx="1397.47" cy="458.3" r="21.1"/><circle cx="1398.51" cy="223" r="21.1"/><circle cx="1267.21" cy="582.89" r="21.1"/><circle cx="1389.17" cy="517.99" r="30.93"/><circle cx="1386.23" cy="353.75" r="25.59"/><circle cx="1441.64" cy="334.8" r="25.59"/><circle cx="1420.1" cy="295.71" r="17.99"/><circle cx="1411.3" cy="259.74" r="17.99"/><circle cx="1335.63" cy="233.73" r="17.99"/><circle cx="1293.56" cy="291.74" r="17.99"/><circle cx="1257.36" cy="376.37" r="17.99"/><circle cx="1286.15" cy="372.32" r="11.78"/><circle cx="1350.86" cy="418.58" r="11.78"/><circle cx="1409.25" cy="398.02" r="11.78"/><circle cx="1406.25" cy="322.29" r="11.78"/><circle cx="1438.82" cy="271.89" r="11.78"/><circle cx="1382.05" cy="251.72" r="11.78"/><circle cx="1322.15" cy="300.83" r="11.78"/><circle cx="1263.22" cy="548.1" r="11.78"/><circle cx="1280.46" cy="499.29" r="11.78"/><circle cx="1304.03" cy="487.06" r="11.78"/><circle cx="1266.87" cy="470.09" r="11.78"/><circle cx="1377.39" cy="587.09" r="11.78"/><circle cx="1352.39" cy="580.92" r="11.78"/><circle cx="1431.88" cy="512.8" r="11.78"/><circle cx="1292.06" cy="264.87" r="9.1"/><circle cx="1361.16" cy="252.72" r="9.1"/><circle cx="1343.95" cy="259.74" r="9.1"/><circle cx="1370.26" cy="234.52" r="9.1"/><circle cx="1324.83" cy="208.41" r="9.1"/><circle cx="1355.74" cy="337.26" r="9.1"/><circle cx="1417.18" cy="438.21" r="9.1"/><circle cx="1329.97" cy="587.09" r="9.1"/><circle cx="1266.47" cy="447.53" r="9.1"/><circle cx="1257.36" cy="525.87" r="7.59"/><circle cx="1271.64" cy="515.41" r="7.59"/><circle cx="1397.47" cy="429.11" r="7.59"/><circle cx="1406.25" cy="416.81" r="7.59"/><circle cx="1419.61" cy="358.38" r="7.59"/><circle cx="1393.83" cy="559.54" r="7.59"/><circle cx="1396.76" cy="575.3" r="7.59"/><circle cx="1426.28" cy="533.45" r="7.59"/><circle cx="1272.54" cy="306.13" r="7.59"/><circle cx="1430.67" cy="242.94" r="7.59"/><circle cx="1379.37" cy="398.02" r="17.99"/><circle cx="1298.4" cy="452.9" r="17.99"/><circle cx="1325.6" cy="425.8" r="14.62"/><circle cx="1375.5" cy="429.11" r="14.62"/><circle cx="1431.88" cy="458.3" r="14.62"/><circle cx="1423.08" cy="486.59" r="14.62"/><circle cx="1331.39" cy="328.34" r="14.62"/><circle cx="1320.85" cy="266.34" r="14.62"/><circle cx="1268.68" cy="270.39" r="14.62"/><circle cx="1370.36" cy="558.57" r="14.62"/><circle cx="1248.89" cy="497.43" r="17.99"/><circle cx="1420.1" cy="559.54" r="17.99"/><circle cx="1441.07" cy="427.09" r="17.99"/><circle cx="1433.87" cy="380.04" r="17.99"/><circle cx="1304.03" cy="186.61" r="17.99"/><circle cx="1289.63" cy="334.8" r="25.59"/><circle cx="1282.95" cy="411.49" r="25.59"/><circle cx="1292.06" cy="230.18" r="25.59"/><circle cx="1358.24" cy="192.67" r="27.36"/><circle cx="1368.14" cy="295.71" r="34.21"/><circle cx="1317.64" cy="538.03" r="40.6"/><path class="cls-2" d="M330.66,321.7c2.73,30.07,31.48-67.86,28.64-25.32-1.21,18.09-7.36,127.88,11.94,111.55,18.72-15.83,22.17-40.31,22.17-15.07,0,49.55,25.67,212.58-127.52,212.58C87.57,604.05,125.71,337.08,137.7,372.84c11.54,34.45,34.71,46.54,30.94,35.41-8.37-24.75-5.24-146.19,1.05-127.62,8.94,26.42,36.77,51.36,35.47,32.34-2.87-41.83,67.6-117.7,61.19-159.13C265,145.17,329.78,312,330.66,321.7Z"/><path class="cls-2" d="M266.64,575.42c-43,.17-69.72-117.92-62.2-160.22,2.65-14.92,31.91,43.66,30.61,32.56-3.14-26.7,28.64-69.21,30-93.78,1-18,31.7,69.7,28.66,94.11s33.56-55.16,31.58-27.36C322.68,456.86,308,575.25,266.64,575.42Z"/></g></g></svg>