<?xml version="1.0" encoding="UTF-8" standalone="no"?>
<!DOCTYPE svg PUBLIC "-//W3C//DTD SVG 1.1//EN" "http://www.w3.org/Graphics/SVG/1.1/DTD/svg11.dtd">
<svg width="100%" height="100%" viewBox="0 0 3719 3298" version="1.1" xmlns="http://www.w3.org/2000/svg" xmlns:xlink="http://www.w3.org/1999/xlink" xml:space="preserve" xmlns:serif="http://www.serif.com/" style="fill-rule:evenodd;clip-rule:evenodd;stroke-linecap:round;stroke-miterlimit:10;">
    <g transform="matrix(1,0,0,1,-16493.6,-22255.6)">
        <g transform="matrix(5.55556,0,0,5.55556,15655,21370)">
            <g transform="matrix(1,0,0,1,57.42,-73.8017)">
                <g transform="matrix(0,1,1,0,301.582,314.755)">
                    <path d="M3.94,-3.94C1.764,-3.94 0.001,-2.176 0.001,-0.001C0.001,2.175 1.764,3.94 3.94,3.94C6.116,3.94 7.879,2.175 7.879,-0.001C7.879,-2.176 6.116,-3.94 3.94,-3.94" style="fill:rgb(0,98,87);fill-rule:nonzero;"/>
                </g>
                <g transform="matrix(0,1,1,0,389.066,572.559)">
                    <path d="M3.94,-3.94C1.764,-3.94 0.001,-2.176 0.001,-0.001C0.001,2.175 1.764,3.94 3.94,3.94C6.116,3.94 7.879,2.175 7.879,-0.001C7.879,-2.176 6.116,-3.94 3.94,-3.94" style="fill:rgb(0,98,87);fill-rule:nonzero;"/>
                </g>
                <g transform="matrix(0,1,1,0,619.75,342.566)">
                    <path d="M3.94,-3.94C1.764,-3.94 0.001,-2.176 0.001,-0.001C0.001,2.175 1.764,3.94 3.94,3.94C6.116,3.94 7.879,2.175 7.879,-0.001C7.879,-2.176 6.116,-3.94 3.94,-3.94" style="fill:rgb(0,98,87);fill-rule:nonzero;"/>
                </g>
                <g transform="matrix(0,1,1,0,597.93,427.776)">
                    <path d="M3.94,-3.94C1.764,-3.94 0.001,-2.176 0.001,-0.001C0.001,2.175 1.764,3.94 3.94,3.94C6.116,3.94 7.879,2.175 7.879,-0.001C7.879,-2.176 6.116,-3.94 3.94,-3.94" style="fill:rgb(0,98,87);fill-rule:nonzero;"/>
                </g>
                <g transform="matrix(0,1,1,0,278.93,423.943)">
                    <path d="M3.94,-3.94C1.764,-3.94 0.001,-2.176 0.001,-0.001C0.001,2.175 1.764,3.94 3.94,3.94C6.116,3.94 7.879,2.175 7.879,-0.001C7.879,-2.176 6.116,-3.94 3.94,-3.94" style="fill:rgb(0,98,87);fill-rule:nonzero;"/>
                </g>
                <g transform="matrix(0,1,1,0,229.592,321.524)">
                    <path d="M3.94,-3.94C1.764,-3.94 0.001,-2.176 0.001,-0.001C0.001,2.175 1.764,3.94 3.94,3.94C6.116,3.94 7.879,2.175 7.879,-0.001C7.879,-2.176 6.116,-3.94 3.94,-3.94" style="fill:rgb(0,98,87);fill-rule:nonzero;"/>
                </g>
                <g transform="matrix(0,1,1,0,460.292,353.05)">
                    <path d="M23.933,-23.933C10.715,-23.933 0,-13.218 0,0C0,13.218 10.715,23.933 23.933,23.933C37.151,23.933 47.866,13.218 47.866,0C47.866,-13.218 37.151,-23.933 23.933,-23.933" style="fill:rgb(0,98,87);fill-rule:nonzero;"/>
                </g>
                <g transform="matrix(0,1,1,0,592.166,327.067)">
                    <path d="M21.639,-21.639C9.688,-21.639 -0.001,-11.951 -0.001,0.001C-0.001,11.95 9.688,21.639 21.639,21.639C33.59,21.639 43.278,11.95 43.278,0.001C43.278,-11.951 33.59,-21.639 21.639,-21.639" style="fill:rgb(0,98,87);fill-rule:nonzero;"/>
                </g>
                <g transform="matrix(0,1,1,0,575.456,427.882)">
                    <path d="M14.761,-14.761C6.609,-14.761 0,-8.152 0,0C0,8.152 6.609,14.761 14.761,14.761C22.913,14.761 29.522,8.152 29.522,0C29.522,-8.152 22.913,-14.761 14.761,-14.761" style="fill:rgb(0,98,87);fill-rule:nonzero;"/>
                </g>
                <g transform="matrix(0,1,1,0,415.577,310.703)">
                    <path d="M14.761,-14.761C6.609,-14.761 0,-8.152 0,0C0,8.152 6.609,14.761 14.761,14.761C22.913,14.761 29.522,8.152 29.522,0C29.522,-8.152 22.913,-14.761 14.761,-14.761" style="fill:rgb(0,98,87);fill-rule:nonzero;"/>
                </g>
                <g transform="matrix(0,1,1,0,202.039,309.198)">
                    <path d="M14.761,-14.761C6.609,-14.761 0,-8.152 0,0C0,8.152 6.609,14.761 14.761,14.761C22.913,14.761 29.522,8.152 29.522,0C29.522,-8.152 22.913,-14.761 14.761,-14.761" style="fill:rgb(0,98,87);fill-rule:nonzero;"/>
                </g>
                <g transform="matrix(0,1,1,0,367.949,584.212)">
                    <path d="M21.639,-21.639C9.688,-21.639 -0.001,-11.951 -0.001,0.001C-0.001,11.95 9.688,21.639 21.639,21.639C33.59,21.639 43.278,11.95 43.278,0.001C43.278,-11.951 33.59,-21.639 21.639,-21.639" style="fill:rgb(0,98,87);fill-rule:nonzero;"/>
                </g>
                <g transform="matrix(0,1,1,0,585.199,387.654)">
                    <path d="M17.901,-17.901C8.014,-17.901 0,-9.886 0,0C0,9.887 8.014,17.901 17.901,17.901C27.788,17.901 35.802,9.887 35.802,0C35.802,-9.886 27.788,-17.901 17.901,-17.901" style="fill:rgb(0,98,87);fill-rule:nonzero;"/>
                </g>
                <g transform="matrix(0,1,1,0,290.014,325.464)">
                    <path d="M17.901,-17.901C8.014,-17.901 0,-9.886 0,0C0,9.887 8.014,17.901 17.901,17.901C27.788,17.901 35.802,9.887 35.802,0C35.802,-9.886 27.788,-17.901 17.901,-17.901" style="fill:rgb(0,98,87);fill-rule:nonzero;"/>
                </g>
                <g transform="matrix(0,1,1,0,472.143,618.391)">
                    <path d="M12.583,-12.583C5.634,-12.583 0,-6.95 0,0C0,6.949 5.634,12.583 12.583,12.583C19.532,12.583 25.166,6.949 25.166,0C25.166,-6.95 19.532,-12.583 12.583,-12.583" style="fill:rgb(0,98,87);fill-rule:nonzero;"/>
                </g>
                <g transform="matrix(0,1,1,0,254.967,312.881)">
                    <path d="M12.583,-12.583C5.634,-12.583 0,-6.95 0,0C0,6.949 5.634,12.583 12.583,12.583C19.532,12.583 25.166,6.949 25.166,0C25.166,-6.95 19.532,-12.583 12.583,-12.583" style="fill:rgb(0,98,87);fill-rule:nonzero;"/>
                </g>
                <g transform="matrix(0,1,1,0,445.381,325.463)">
                    <path d="M12.583,-12.583C5.634,-12.583 0,-6.95 0,0C0,6.949 5.634,12.583 12.583,12.583C19.532,12.583 25.166,6.949 25.166,0C25.166,-6.95 19.532,-12.583 12.583,-12.583" style="fill:rgb(0,98,87);fill-rule:nonzero;"/>
                </g>
                <g transform="matrix(0,1,1,0,428.16,686.742)">
                    <path d="M12.583,-12.583C5.634,-12.583 0,-6.949 0,0C0,6.949 5.634,12.583 12.583,12.583C19.532,12.583 25.166,6.949 25.166,0C25.166,-6.949 19.532,-12.583 12.583,-12.583" style="fill:rgb(0,98,87);fill-rule:nonzero;"/>
                </g>
                <g transform="matrix(0,1,1,0,389.588,625.321)">
                    <path d="M12.583,-12.583C5.634,-12.583 0,-6.95 0,0C0,6.949 5.634,12.583 12.583,12.583C19.532,12.583 25.166,6.949 25.166,0C25.166,-6.95 19.532,-12.583 12.583,-12.583" style="fill:rgb(0,98,87);fill-rule:nonzero;"/>
                </g>
                <g transform="matrix(0,1,1,0,498.813,379.41)">
                    <path d="M8.244,-8.244C3.691,-8.244 -0.001,-4.553 -0.001,0.001C-0.001,4.554 3.691,8.244 8.244,8.244C12.798,8.244 16.49,4.554 16.49,0.001C16.49,-4.553 12.798,-8.244 8.244,-8.244" style="fill:rgb(0,98,87);fill-rule:nonzero;"/>
                </g>
                <g transform="matrix(0,1,1,0,316.16,521.73)">
                    <path d="M8.244,-8.244C3.691,-8.244 -0.001,-4.553 -0.001,0.001C-0.001,4.554 3.691,8.244 8.244,8.244C12.798,8.244 16.49,4.554 16.49,0.001C16.49,-4.553 12.798,-8.244 8.244,-8.244" style="fill:rgb(0,98,87);fill-rule:nonzero;"/>
                </g>
                <g transform="matrix(0,1,1,0,421.348,715.814)">
                    <path d="M8.244,-8.244C3.691,-8.244 -0.001,-4.553 -0.001,0.001C-0.001,4.554 3.691,8.244 8.244,8.244C12.798,8.244 16.49,4.554 16.49,0.001C16.49,-4.553 12.798,-8.244 8.244,-8.244" style="fill:rgb(0,98,87);fill-rule:nonzero;"/>
                </g>
                <g transform="matrix(0,1,1,0,505.082,348.705)">
                    <path d="M8.244,-8.244C3.691,-8.244 -0.001,-4.553 -0.001,0.001C-0.001,4.554 3.691,8.244 8.244,8.244C12.798,8.244 16.49,4.554 16.49,0.001C16.49,-4.553 12.798,-8.244 8.244,-8.244" style="fill:rgb(0,98,87);fill-rule:nonzero;"/>
                </g>
                <g transform="matrix(0,1,1,0,575.456,310.45)">
                    <path d="M8.244,-8.244C3.691,-8.244 -0.001,-4.553 -0.001,0.001C-0.001,4.554 3.691,8.244 8.244,8.244C12.798,8.244 16.49,4.554 16.49,0.001C16.49,-4.553 12.798,-8.244 8.244,-8.244" style="fill:rgb(0,98,87);fill-rule:nonzero;"/>
                </g>
                <g transform="matrix(0,1,1,0,316.16,426.154)">
                    <path d="M8.244,-8.244C3.691,-8.244 -0.001,-4.553 -0.001,0.001C-0.001,4.554 3.691,8.244 8.244,8.244C12.798,8.244 16.49,4.554 16.49,0.001C16.49,-4.553 12.798,-8.244 8.244,-8.244" style="fill:rgb(0,98,87);fill-rule:nonzero;"/>
                </g>
                <g transform="matrix(0,1,1,0,663.938,310.45)">
                    <path d="M8.244,-8.244C3.691,-8.244 -0.001,-4.553 -0.001,0.001C-0.001,4.554 3.691,8.244 8.244,8.244C12.798,8.244 16.49,4.554 16.49,0.001C16.49,-4.553 12.798,-8.244 8.244,-8.244" style="fill:rgb(0,98,87);fill-rule:nonzero;"/>
                </g>
                <g transform="matrix(0,1,1,0,363.356,564.737)">
                    <path d="M8.244,-8.244C3.691,-8.244 -0.001,-4.553 -0.001,0.001C-0.001,4.554 3.691,8.244 8.244,8.244C12.798,8.244 16.49,4.554 16.49,0.001C16.49,-4.553 12.798,-8.244 8.244,-8.244" style="fill:rgb(0,98,87);fill-rule:nonzero;"/>
                </g>
                <g transform="matrix(0,1,1,0,570.528,368.739)">
                    <path d="M8.244,-8.244C3.691,-8.244 -0.001,-4.553 -0.001,0.001C-0.001,4.554 3.691,8.244 8.244,8.244C12.798,8.244 16.49,4.554 16.49,0.001C16.49,-4.553 12.798,-8.244 8.244,-8.244" style="fill:rgb(0,98,87);fill-rule:nonzero;"/>
                </g>
                <g transform="matrix(0,1,1,0,472.143,326.192)">
                    <path d="M8.244,-8.244C3.691,-8.244 -0.001,-4.553 -0.001,0.001C-0.001,4.554 3.691,8.244 8.244,8.244C12.798,8.244 16.49,4.554 16.49,0.001C16.49,-4.553 12.798,-8.244 8.244,-8.244" style="fill:rgb(0,98,87);fill-rule:nonzero;"/>
                </g>
                <g transform="matrix(0,1,1,0,404.765,605.85)">
                    <path d="M8.244,-8.244C3.691,-8.244 -0.001,-4.553 -0.001,0.001C-0.001,4.554 3.691,8.244 8.244,8.244C12.798,8.244 16.49,4.554 16.49,0.001C16.49,-4.553 12.798,-8.244 8.244,-8.244" style="fill:rgb(0,98,87);fill-rule:nonzero;"/>
                </g>
                <g transform="matrix(0,1,1,0,638.277,347.769)">
                    <path d="M8.244,-8.244C3.691,-8.244 -0.001,-4.553 -0.001,0.001C-0.001,4.554 3.691,8.244 8.244,8.244C12.798,8.244 16.49,4.554 16.49,0.001C16.49,-4.553 12.798,-8.244 8.244,-8.244" style="fill:rgb(0,98,87);fill-rule:nonzero;"/>
                </g>
                <g transform="matrix(0,1,1,0,278.93,310.45)">
                    <path d="M8.244,-8.244C3.691,-8.244 -0.001,-4.553 -0.001,0.001C-0.001,4.554 3.691,8.244 8.244,8.244C12.798,8.244 16.49,4.554 16.49,0.001C16.49,-4.553 12.798,-8.244 8.244,-8.244" style="fill:rgb(0,98,87);fill-rule:nonzero;"/>
                </g>
                <g transform="matrix(0,1,1,0,570.528,461.831)">
                    <path d="M8.244,-8.244C3.691,-8.244 -0.001,-4.553 -0.001,0.001C-0.001,4.554 3.691,8.244 8.244,8.244C12.798,8.244 16.49,4.554 16.49,0.001C16.49,-4.553 12.798,-8.244 8.244,-8.244" style="fill:rgb(0,98,87);fill-rule:nonzero;"/>
                </g>
                <g transform="matrix(0,1,1,0,553.832,412.753)">
                    <path d="M6.369,-6.369C2.851,-6.369 -0,-3.517 -0,0C-0,3.518 2.851,6.369 6.369,6.369C9.887,6.369 12.738,3.518 12.738,0C12.738,-3.517 9.887,-6.369 6.369,-6.369" style="fill:rgb(0,98,87);fill-rule:nonzero;"/>
                </g>
                <g transform="matrix(0,1,1,0,316.16,445.659)">
                    <path d="M6.369,-6.369C2.851,-6.369 -0,-3.517 -0,0C-0,3.518 2.851,6.369 6.369,6.369C9.887,6.369 12.738,3.518 12.738,0C12.738,-3.517 9.887,-6.369 6.369,-6.369" style="fill:rgb(0,98,87);fill-rule:nonzero;"/>
                </g>
                <g transform="matrix(0,1,1,0,340.173,375.004)">
                    <path d="M6.369,-6.369C2.851,-6.369 -0,-3.517 -0,0C-0,3.518 2.851,6.369 6.369,6.369C9.887,6.369 12.738,3.518 12.738,0C12.738,-3.517 9.887,-6.369 6.369,-6.369" style="fill:rgb(0,98,87);fill-rule:nonzero;"/>
                </g>
                <g transform="matrix(0,1,1,0,230.616,378.859)">
                    <path d="M6.369,-6.369C2.851,-6.369 -0,-3.517 -0,0C-0,3.518 2.851,6.369 6.369,6.369C9.887,6.369 12.738,3.518 12.738,0C12.738,-3.517 9.887,-6.369 6.369,-6.369" style="fill:rgb(0,98,87);fill-rule:nonzero;"/>
                </g>
                <g transform="matrix(0,1,1,0,609.337,312.325)">
                    <path d="M6.369,-6.369C2.851,-6.369 -0,-3.518 -0,0C-0,3.518 2.851,6.369 6.369,6.369C9.887,6.369 12.738,3.518 12.738,0C12.738,-3.518 9.887,-6.369 6.369,-6.369" style="fill:rgb(0,98,87);fill-rule:nonzero;"/>
                </g>
                <g transform="matrix(0,1,1,0,498.813,590.678)">
                    <path d="M6.369,-6.369C2.851,-6.369 -0,-3.517 -0,0C-0,3.518 2.851,6.369 6.369,6.369C9.887,6.369 12.738,3.518 12.738,0C12.738,-3.517 9.887,-6.369 6.369,-6.369" style="fill:rgb(0,98,87);fill-rule:nonzero;"/>
                </g>
                <g transform="matrix(0,1,1,0,484.218,344.87)">
                    <path d="M6.369,-6.369C2.851,-6.369 -0,-3.518 -0,0C-0,3.518 2.851,6.369 6.369,6.369C9.887,6.369 12.738,3.518 12.738,0C12.738,-3.518 9.887,-6.369 6.369,-6.369" style="fill:rgb(0,98,87);fill-rule:nonzero;"/>
                </g>
                <g transform="matrix(0,1,1,0,389.066,655.257)">
                    <path d="M6.369,-6.369C2.851,-6.369 -0,-3.517 -0,0C-0,3.518 2.851,6.369 6.369,6.369C9.887,6.369 12.738,3.518 12.738,0C12.738,-3.517 9.887,-6.369 6.369,-6.369" style="fill:rgb(0,98,87);fill-rule:nonzero;"/>
                </g>
                <g transform="matrix(0,1,1,0,342.528,577.173)">
                    <path d="M6.369,-6.369C2.851,-6.369 -0,-3.517 -0,0C-0,3.518 2.851,6.369 6.369,6.369C9.887,6.369 12.738,3.518 12.738,0C12.738,-3.517 9.887,-6.369 6.369,-6.369" style="fill:rgb(0,98,87);fill-rule:nonzero;"/>
                </g>
                <g transform="matrix(0,1,1,0,277.058,367.407)">
                    <path d="M5.309,-5.309C2.377,-5.309 -0,-2.932 -0,0C-0,2.932 2.377,5.309 5.309,5.309C8.241,5.309 10.618,2.932 10.618,0C10.618,-2.932 8.241,-5.309 5.309,-5.309" style="fill:rgb(0,98,87);fill-rule:nonzero;"/>
                </g>
                <g transform="matrix(0,1,1,0,309.791,504.872)">
                    <path d="M5.309,-5.309C2.377,-5.309 -0,-2.932 -0,0C-0,2.932 2.377,5.309 5.309,5.309C8.241,5.309 10.618,2.932 10.618,0C10.618,-2.932 8.241,-5.309 5.309,-5.309" style="fill:rgb(0,98,87);fill-rule:nonzero;"/>
                </g>
                <g transform="matrix(0,1,1,0,241.909,406.553)">
                    <path d="M5.309,-5.309C2.377,-5.309 -0,-2.932 -0,0C-0,2.932 2.377,5.309 5.309,5.309C8.241,5.309 10.618,2.932 10.618,0C10.618,-2.932 8.241,-5.309 5.309,-5.309" style="fill:rgb(0,98,87);fill-rule:nonzero;"/>
                </g>
                <g transform="matrix(0,1,1,0,445.381,608.786)">
                    <path d="M5.309,-5.309C2.377,-5.309 -0,-2.932 -0,0C-0,2.932 2.377,5.309 5.309,5.309C8.241,5.309 10.618,2.932 10.618,0C10.618,-2.932 8.241,-5.309 5.309,-5.309" style="fill:rgb(0,98,87);fill-rule:nonzero;"/>
                </g>
                <g transform="matrix(0,1,1,0,277.058,473.784)">
                    <path d="M5.309,-5.309C2.377,-5.309 -0,-2.932 -0,0C-0,2.932 2.377,5.309 5.309,5.309C8.241,5.309 10.618,2.932 10.618,0C10.618,-2.932 8.241,-5.309 5.309,-5.309" style="fill:rgb(0,98,87);fill-rule:nonzero;"/>
                </g>
                <g transform="matrix(0,1,1,0,526.507,362.098)">
                    <path d="M5.309,-5.309C2.377,-5.309 -0,-2.932 -0,0C-0,2.932 2.377,5.309 5.309,5.309C8.241,5.309 10.618,2.932 10.618,0C10.618,-2.932 8.241,-5.309 5.309,-5.309" style="fill:rgb(0,98,87);fill-rule:nonzero;"/>
                </g>
                <g transform="matrix(0,1,1,0,597.93,372.716)">
                    <path d="M5.309,-5.309C2.377,-5.309 -0,-2.932 -0,0C-0,2.932 2.377,5.309 5.309,5.309C8.241,5.309 10.618,2.932 10.618,0C10.618,-2.932 8.241,-5.309 5.309,-5.309" style="fill:rgb(0,98,87);fill-rule:nonzero;"/>
                </g>
                <g transform="matrix(0,1,1,0,424.981,347.741)">
                    <path d="M5.309,-5.309C2.377,-5.309 -0,-2.932 -0,0C-0,2.932 2.377,5.309 5.309,5.309C8.241,5.309 10.618,2.932 10.618,0C10.618,-2.932 8.241,-5.309 5.309,-5.309" style="fill:rgb(0,98,87);fill-rule:nonzero;"/>
                </g>
                <g transform="matrix(0,1,1,0,396.52,589.42)">
                    <path d="M5.309,-5.309C2.377,-5.309 -0,-2.932 -0,0C-0,2.932 2.377,5.309 5.309,5.309C8.241,5.309 10.618,2.932 10.618,0C10.618,-2.932 8.241,-5.309 5.309,-5.309" style="fill:rgb(0,98,87);fill-rule:nonzero;"/>
                </g>
                <g transform="matrix(0,1,1,0,461.571,313.385)">
                    <path d="M5.309,-5.309C2.377,-5.309 -0,-2.932 -0,0C-0,2.932 2.377,5.309 5.309,5.309C8.241,5.309 10.618,2.932 10.618,0C10.618,-2.932 8.241,-5.309 5.309,-5.309" style="fill:rgb(0,98,87);fill-rule:nonzero;"/>
                </g>
                <g transform="matrix(0,1,1,0,621.92,362.488)">
                    <path d="M12.583,-12.583C5.634,-12.583 0,-6.949 0,0C0,6.949 5.634,12.583 12.583,12.583C19.532,12.583 25.166,6.949 25.166,0C25.166,-6.949 19.532,-12.583 12.583,-12.583" style="fill:rgb(0,98,87);fill-rule:nonzero;"/>
                </g>
                <g transform="matrix(0,1,1,0,256.67,382.045)">
                    <path d="M12.583,-12.583C5.634,-12.583 0,-6.95 0,0C0,6.949 5.634,12.583 12.583,12.583C19.532,12.583 25.166,6.949 25.166,0C25.166,-6.95 19.532,-12.583 12.583,-12.583" style="fill:rgb(0,98,87);fill-rule:nonzero;"/>
                </g>
                <g transform="matrix(0,1,1,0,505.605,567.02)">
                    <path d="M10.227,-10.227C4.578,-10.227 -0,-5.648 -0,0C-0,5.649 4.578,10.227 10.227,10.227C15.877,10.227 20.455,5.649 20.455,0C20.455,-5.648 15.877,-10.227 10.227,-10.227" style="fill:rgb(0,98,87);fill-rule:nonzero;"/>
                </g>
                <g transform="matrix(0,1,1,0,550.467,356.013)">
                    <path d="M10.227,-10.227C4.578,-10.227 -0,-5.648 -0,0C-0,5.649 4.578,10.227 10.227,10.227C15.877,10.227 20.455,5.649 20.455,0C20.455,-5.648 15.877,-10.227 10.227,-10.227" style="fill:rgb(0,98,87);fill-rule:nonzero;"/>
                </g>
                <g transform="matrix(0,1,1,0,494.854,312.133)">
                    <path d="M10.227,-10.227C4.578,-10.227 -0,-5.648 -0,0C-0,5.649 4.578,10.227 10.227,10.227C15.877,10.227 20.455,5.649 20.455,0C20.455,-5.648 15.877,-10.227 10.227,-10.227" style="fill:rgb(0,98,87);fill-rule:nonzero;"/>
                </g>
                <g transform="matrix(0,1,1,0,322.436,352.261)">
                    <path d="M10.227,-10.227C4.578,-10.227 -0,-5.648 -0,0C-0,5.649 4.578,10.227 10.227,10.227C15.877,10.227 20.455,5.649 20.455,0C20.455,-5.648 15.877,-10.227 10.227,-10.227" style="fill:rgb(0,98,87);fill-rule:nonzero;"/>
                </g>
                <g transform="matrix(0,1,1,0,402.17,672.765)">
                    <path d="M10.227,-10.227C4.578,-10.227 -0,-5.648 -0,0C-0,5.649 4.578,10.227 10.227,10.227C15.877,10.227 20.455,5.649 20.455,0C20.455,-5.648 15.877,-10.227 10.227,-10.227" style="fill:rgb(0,98,87);fill-rule:nonzero;"/>
                </g>
                <g transform="matrix(0,1,1,0,613.805,391.407)">
                    <path d="M10.227,-10.227C4.578,-10.227 -0,-5.648 -0,0C-0,5.649 4.578,10.227 10.227,10.227C15.877,10.227 20.455,5.649 20.455,0C20.455,-5.648 15.877,-10.227 10.227,-10.227" style="fill:rgb(0,98,87);fill-rule:nonzero;"/>
                </g>
                <g transform="matrix(0,1,1,0,340.173,552.526)">
                    <path d="M10.227,-10.227C4.578,-10.227 -0,-5.648 -0,0C-0,5.649 4.578,10.227 10.227,10.227C15.877,10.227 20.455,5.649 20.455,0C20.455,-5.648 15.877,-10.227 10.227,-10.227" style="fill:rgb(0,98,87);fill-rule:nonzero;"/>
                </g>
                <g transform="matrix(0,1,1,0,260.926,413.229)">
                    <path d="M10.227,-10.227C4.578,-10.227 -0,-5.648 -0,0C-0,5.649 4.578,10.227 10.227,10.227C15.877,10.227 20.455,5.649 20.455,0C20.455,-5.648 15.877,-10.227 10.227,-10.227" style="fill:rgb(0,98,87);fill-rule:nonzero;"/>
                </g>
                <g transform="matrix(0,1,1,0,299.625,478.552)">
                    <path d="M12.583,-12.583C5.634,-12.583 0,-6.949 0,0C0,6.949 5.634,12.583 12.583,12.583C19.532,12.583 25.166,6.949 25.166,0C25.166,-6.949 19.532,-12.583 12.583,-12.583" style="fill:rgb(0,98,87);fill-rule:nonzero;"/>
                </g>
                <g transform="matrix(0,1,1,0,342.529,393.956)">
                    <path d="M12.583,-12.583C5.634,-12.583 0,-6.95 0,0C0,6.949 5.634,12.583 12.583,12.583C19.532,12.583 25.166,6.949 25.166,0C25.166,-6.95 19.532,-12.583 12.583,-12.583" style="fill:rgb(0,98,87);fill-rule:nonzero;"/>
                </g>
                <g transform="matrix(0,1,1,0,534.88,381.373)">
                    <path d="M12.583,-12.583C5.634,-12.583 0,-6.949 0,0C0,6.949 5.634,12.583 12.583,12.583C19.532,12.583 25.166,6.949 25.166,0C25.166,-6.949 19.532,-12.583 12.583,-12.583" style="fill:rgb(0,98,87);fill-rule:nonzero;"/>
                </g>
                <g transform="matrix(0,1,1,0,428.16,582.146)">
                    <path d="M12.583,-12.583C5.634,-12.583 0,-6.949 0,0C0,6.949 5.634,12.583 12.583,12.583C19.532,12.583 25.166,6.949 25.166,0C25.166,-6.949 19.532,-12.583 12.583,-12.583" style="fill:rgb(0,98,87);fill-rule:nonzero;"/>
                </g>
                <g transform="matrix(0,1,1,0,638.277,318.694)">
                    <path d="M12.583,-12.583C5.634,-12.583 0,-6.949 0,0C0,6.949 5.634,12.583 12.583,12.583C19.532,12.583 25.166,6.949 25.166,0C25.166,-6.949 19.532,-12.583 12.583,-12.583" style="fill:rgb(0,98,87);fill-rule:nonzero;"/>
                </g>
                <g transform="matrix(0,1,1,0,287.042,434.127)">
                    <path d="M17.901,-17.901C8.014,-17.901 0,-9.886 0,0C0,9.887 8.014,17.901 17.901,17.901C27.788,17.901 35.802,9.887 35.802,0C35.802,-9.886 27.788,-17.901 17.901,-17.901" style="fill:rgb(0,98,87);fill-rule:nonzero;"/>
                </g>
                <g transform="matrix(0,1,1,0,471.307,578.292)">
                    <path d="M17.901,-17.901C8.014,-17.901 0,-9.886 0,0C0,9.887 8.014,17.901 17.901,17.901C27.788,17.901 35.802,9.887 35.802,0C35.802,-9.886 27.788,-17.901 17.901,-17.901" style="fill:rgb(0,98,87);fill-rule:nonzero;"/>
                </g>
                <g transform="matrix(0,1,1,0,224.007,335.149)">
                    <path d="M17.901,-17.901C8.014,-17.901 0,-9.886 0,0C0,9.887 8.014,17.901 17.901,17.901C27.788,17.901 35.802,9.887 35.802,0C35.802,-9.886 27.788,-17.901 17.901,-17.901" style="fill:rgb(0,98,87);fill-rule:nonzero;"/>
                </g>
                <g transform="matrix(0,1,1,0,539.773,312.133)">
                    <path d="M19.144,-19.144C8.571,-19.144 0,-10.573 0,0C0,10.573 8.571,19.144 19.144,19.144C29.717,19.144 38.288,10.573 38.288,0C38.288,-10.573 29.717,-19.144 19.144,-19.144" style="fill:rgb(0,98,87);fill-rule:nonzero;"/>
                </g>
                <g transform="matrix(0,1,1,0,301.581,372.419)">
                    <path d="M23.933,-23.933C10.715,-23.933 0,-13.218 0,0C0,13.218 10.715,23.933 23.933,23.933C37.151,23.933 47.866,13.218 47.866,0C47.866,-13.218 37.151,-23.933 23.933,-23.933" style="fill:rgb(0,98,87);fill-rule:nonzero;"/>
                </g>
                <g transform="matrix(0,1,1,0,433.168,624.08)">
                    <path d="M28.403,-28.403C12.716,-28.403 0,-15.686 0,-0C0,15.687 12.716,28.403 28.403,28.403C44.091,28.403 56.807,15.687 56.807,-0C56.807,-15.686 44.091,-28.403 28.403,-28.403" style="fill:rgb(0,98,87);fill-rule:nonzero;"/>
                </g>
                <g transform="matrix(1,0,0,1,311.313,758.979)">
                    <path d="M67.947,-340.657L0,-458.009L-154.353,-462.337L108.912,4.328L388.046,-460.894L56.259,-459.452L119.967,-351.768" style="fill:none;fill-rule:nonzero;stroke:rgb(0,97,86);stroke-width:12.62px;"/>
                </g>
                <g transform="matrix(0,1,1,0,452.513,483.41)">
                    <path d="M44.267,-44.267C24.894,-44.267 9.19,-24.447 9.19,-0C9.19,24.448 24.894,44.267 44.267,44.267C63.64,44.267 79.344,24.448 79.344,-0C79.344,-24.447 63.64,-44.267 44.267,-44.267" style="fill:rgb(0,98,87);fill-rule:nonzero;"/>
                </g>
                <g transform="matrix(0,1,1,0,452.513,483.41)">
                    <ellipse cx="44.267" cy="0" rx="35.077" ry="44.267" style="fill:white;stroke:rgb(0,97,86);stroke-width:6.89px;stroke-linecap:butt;"/>
                </g>
                <g transform="matrix(-0.365327,0.930879,0.930879,0.365327,402.898,500.541)">
                    <path d="M17.983,-26.375C11.526,-26.375 6.29,-17.726 6.291,-7.057C6.291,3.612 11.525,12.261 17.983,12.261C24.441,12.261 29.676,3.612 29.676,-7.057C29.676,-17.726 24.441,-26.375 17.983,-26.375" style="fill:rgb(0,98,87);fill-rule:nonzero;"/>
                </g>
                <g transform="matrix(-0.365327,0.930879,0.930879,0.365327,402.898,500.541)">
                    <ellipse cx="17.983" cy="-7.057" rx="11.693" ry="19.318" style="fill:white;stroke:rgb(0,97,86);stroke-width:6.69px;stroke-linecap:butt;"/>
                </g>
                <g transform="matrix(0,1,1,0,485.455,456.803)">
                    <path d="M29.485,-29.485C16.289,-29.485 5.592,-16.285 5.592,-0.001C5.592,16.285 16.289,29.485 29.485,29.485C42.682,29.485 53.379,16.285 53.379,-0.001C53.379,-16.285 42.682,-29.485 29.485,-29.485" style="fill:rgb(0,98,87);fill-rule:nonzero;"/>
                </g>
                <g transform="matrix(0,1,1,0,485.455,456.803)">
                    <ellipse cx="29.485" cy="0" rx="23.893" ry="29.485" style="fill:white;stroke:rgb(0,83,74);stroke-width:6.9px;stroke-linecap:butt;"/>
                </g>
                <g transform="matrix(-0.400507,0.916294,0.916294,0.400507,491.616,438.769)">
                    <path d="M10.778,-16.474C1.794,-16.474 -5.49,-11.207 -5.49,-4.711C-5.49,1.786 1.794,7.051 10.778,7.052C19.762,7.052 27.046,1.785 27.046,-4.711C27.046,-11.208 19.762,-16.473 10.778,-16.474" style="fill:rgb(0,98,87);fill-rule:nonzero;"/>
                </g>
                <g transform="matrix(-0.400507,0.916294,0.916294,0.400507,491.616,438.769)">
                    <ellipse cx="10.778" cy="-4.711" rx="16.268" ry="11.763" style="fill:white;stroke:rgb(0,83,74);stroke-width:6.89px;stroke-linecap:butt;"/>
                </g>
                <g transform="matrix(1,0,0,1,442.361,560.94)">
                    <path d="M0,-36.76C6.261,-38.574 26.708,-35.125 28.652,-24.362C30.75,-12.739 21.299,-4.435 10.152,1.814" style="fill:white;fill-rule:nonzero;stroke:rgb(0,83,74);stroke-width:6.89px;stroke-linecap:butt;"/>
                </g>
                <g transform="matrix(0,1,1,0,494.855,480.417)">
                    <path d="M3.959,-3.959C1.773,-3.959 0.001,-2.186 0.001,-0.001C0.001,2.185 1.773,3.959 3.959,3.959C6.145,3.959 7.916,2.185 7.916,-0.001C7.916,-2.186 6.145,-3.959 3.959,-3.959" style="fill:rgb(0,97,86);fill-rule:nonzero;"/>
                </g>
                <g transform="matrix(0,1,1,0,494.855,480.417)">
                    <ellipse cx="3.958" cy="0" rx="3.958" ry="3.959" style="fill:rgb(0,97,86);stroke:rgb(0,98,87);stroke-width:2.03px;stroke-linecap:butt;"/>
                </g>
            </g>
            <g transform="matrix(0.206571,0,0,0.243349,-3047.11,-5615.23)">
                <path d="M17117.5,24445.7C17130,24445.2 17142.7,24445 17155.5,24445C17462.1,24445 17711,24587.9 17711,24764C17711,24940.1 17462.1,25083 17155.5,25083C16848.9,25083 16600,24940.1 16600,24764C16600,24647 16701.1,24546 16864.9,24490.5" style="fill:none;stroke:rgb(0,97,86);stroke-width:55.82px;stroke-linejoin:round;stroke-miterlimit:1.5;"/>
            </g>
        </g>
    </g>
</svg>
