<svg xmlns="http://www.w3.org/2000/svg" viewBox="0 0 1811.88 745.18"><defs><style>.cls-1,.cls-3{fill:#fff;}.cls-2,.cls-9{fill:#29abe2;}.cls-2,.cls-3{stroke:#0071bc;}.cls-17,.cls-18,.cls-2,.cls-3,.cls-4{stroke-miterlimit:10;stroke-width:9.21px;}.cls-4{fill:none;stroke:#29abe2;}.cls-5{fill:#7af5f5;}.cls-6{fill:aqua;}.cls-7{fill:#9da3fc;}.cls-8{fill:#0071bc;}.cls-10{fill:#a18d77;}.cls-11{fill:#056e5e;}.cls-12{fill:#6e481e;}.cls-13{fill:#00a99d;}.cls-14{fill:#f08660;}.cls-15{fill:#565657;}.cls-16{fill:#858483;}.cls-17{fill:#f15a24;}.cls-17,.cls-18{stroke:#c1272d;}.cls-18{fill:#fd0;}</style></defs><g id="Layer_2" data-name="Layer 2"><g id="Layer_1-2" data-name="Layer 1"><rect class="cls-1" width="1811.88" height="745.18"/><rect class="cls-1" y="8.66" width="1811.88" height="736.52"/><path class="cls-2" d="M697.61,606.27c-116.49,0-131.48-88.39-131.48-140.31,0-80.74,106-234.86,127.54-311.16,10.12-35.88,2.64-36.15,12.54.3C727.3,232.65,819.9,385,819.9,464.81,819.9,511.45,806.31,606.27,697.61,606.27Z"/><path class="cls-3" d="M642.42,565.93c-31.94,0,79.4,29.51,115.33-11.38,52.72-60,17.8-145.65,19.24-122.34,1.69,27.54-14.61,76.93-40.4,102.72C708.65,562.87,659.89,565.93,642.42,565.93Z"/><path class="cls-4" d="M994.28,147.37c24.44-1.85,109.91,118.57,159.62,118.57,34.25,0,75.19-52.79,102.1-67.3"/><path class="cls-4" d="M994.28,297c56.84-27,184.11,93.14,257.89,58.07"/><path class="cls-4" d="M991.42,445.36c15.3-15.3,63.43-63.11,107-61.67,47.7,1.58,126.49,95.77,151.73,115.84"/><path class="cls-4" d="M991.57,547.72c17.34,1.1,40.4-24.45,92.91-26.2,59.29-2,126,58.92,169.57,60.9"/><circle class="cls-5" cx="1005.22" cy="383.66" r="12.66"/><circle class="cls-6" cx="1051.42" cy="576.31" r="12.66"/><circle class="cls-6" cx="1076.25" cy="408.23" r="12.66"/><circle class="cls-7" cx="1082.52" cy="283.63" r="11.36"/><circle class="cls-7" cx="1183.99" cy="206.15" r="11.36"/><circle class="cls-7" cx="1082.52" cy="355.26" r="11.36"/><circle class="cls-7" cx="1208.22" cy="587.67" r="11.36"/><circle class="cls-8" cx="1113.02" cy="299.96" r="5.34"/><circle class="cls-8" cx="1230.2" cy="200.81" r="5.34"/><circle class="cls-8" cx="1059.54" cy="154.62" r="5.34"/><circle class="cls-8" cx="1029.13" cy="556.31" r="5.34"/><circle class="cls-8" cx="1107.67" cy="437.24" r="5.34"/><circle class="cls-8" cx="1202.2" cy="486.35" r="5.34"/><circle class="cls-8" cx="1133.88" cy="320.83" r="5.34"/><circle class="cls-8" cx="1201.83" cy="375.95" r="5.34"/><circle class="cls-7" cx="1039.57" cy="143.26" r="11.36"/><circle class="cls-7" cx="1161.26" cy="377.99" r="11.36"/><circle class="cls-7" cx="1021.22" cy="502.48" r="11.36"/><circle class="cls-7" cx="1167.59" cy="459.49" r="11.36"/><circle class="cls-7" cx="1182.91" cy="511.36" r="11.36"/><circle class="cls-7" cx="1076.25" cy="548.41" r="11.36"/><circle class="cls-9" cx="1036.78" cy="366.62" r="7.91"/><circle class="cls-9" cx="1029.13" cy="449.83" r="7.91"/><circle class="cls-9" cx="1252.17" cy="333.48" r="7.91"/><circle class="cls-9" cx="1084.15" cy="502.48" r="7.91"/><circle class="cls-9" cx="1222.29" cy="548.41" r="7.91"/><circle class="cls-9" cx="1131.13" cy="554.41" r="7.91"/><circle class="cls-9" cx="1013.13" cy="186.08" r="7.91"/><circle class="cls-9" cx="1161.26" cy="243.13" r="7.91"/><circle class="cls-9" cx="1131.13" cy="419.4" r="7.91"/><circle class="cls-9" cx="1161.26" cy="586" r="7.91"/><circle class="cls-9" cx="1087.61" cy="175.69" r="7.91"/><circle class="cls-6" cx="1232.91" cy="449.83" r="12.66"/><circle class="cls-6" cx="1225.88" cy="270.97" r="12.66"/><circle class="cls-6" cx="1128.54" cy="502.48" r="12.66"/><circle class="cls-6" cx="1195.57" cy="333.48" r="12.66"/><circle class="cls-6" cx="1021.22" cy="318.47" r="12.66"/><circle class="cls-6" cx="1052.22" cy="230.47" r="12.66"/><circle class="cls-6" cx="1103.22" cy="213.47" r="12.66"/><circle class="cls-9" cx="1519.7" cy="302.15" r="5.63"/><circle class="cls-9" cx="1534.45" cy="270.38" r="5.63"/><circle class="cls-9" cx="1596.36" cy="402.57" r="5.63"/><circle class="cls-9" cx="1639.4" cy="240.64" r="5.63"/><circle class="cls-9" cx="1488.96" cy="463.36" r="5.63"/><circle class="cls-9" cx="1543.93" cy="585.57" r="5.63"/><circle class="cls-10" cx="1535.88" cy="363.04" r="34.21"/><circle class="cls-10" cx="1550.5" cy="451.6" r="30.93"/><circle class="cls-10" cx="1601.95" cy="444.06" r="21.1"/><circle class="cls-10" cx="1603" cy="208.76" r="21.1"/><circle class="cls-10" cx="1471.7" cy="568.65" r="21.1"/><circle class="cls-10" cx="1593.66" cy="503.75" r="30.93"/><circle class="cls-11" cx="1590.72" cy="339.5" r="25.59"/><circle class="cls-11" cx="1646.13" cy="320.56" r="25.59"/><circle class="cls-12" cx="1624.58" cy="281.47" r="17.99"/><circle class="cls-12" cx="1615.79" cy="245.5" r="17.99"/><circle class="cls-12" cx="1540.11" cy="219.49" r="17.99"/><circle class="cls-12" cx="1498.04" cy="277.5" r="17.99"/><circle class="cls-12" cx="1461.85" cy="362.13" r="17.99"/><circle class="cls-13" cx="1490.63" cy="358.08" r="11.78"/><circle class="cls-13" cx="1555.34" cy="404.34" r="11.78"/><circle class="cls-13" cx="1613.74" cy="383.78" r="11.78"/><circle class="cls-13" cx="1610.74" cy="308.05" r="11.78"/><circle class="cls-13" cx="1643.31" cy="257.65" r="11.78"/><circle class="cls-13" cx="1586.53" cy="237.48" r="11.78"/><circle class="cls-13" cx="1526.63" cy="286.59" r="11.78"/><circle class="cls-13" cx="1467.71" cy="533.86" r="11.78"/><circle class="cls-13" cx="1484.95" cy="485.05" r="11.78"/><circle class="cls-13" cx="1508.51" cy="472.82" r="11.78"/><circle class="cls-13" cx="1471.36" cy="455.85" r="11.78"/><circle class="cls-13" cx="1581.87" cy="572.85" r="11.78"/><circle class="cls-13" cx="1556.88" cy="566.67" r="11.78"/><circle class="cls-13" cx="1636.37" cy="498.56" r="11.78"/><circle class="cls-14" cx="1496.54" cy="250.63" r="9.1"/><circle class="cls-14" cx="1565.64" cy="238.48" r="9.1"/><circle class="cls-14" cx="1548.44" cy="245.5" r="9.1"/><circle class="cls-14" cx="1574.75" cy="220.27" r="9.1"/><circle class="cls-14" cx="1529.32" cy="194.17" r="9.1"/><circle class="cls-14" cx="1560.22" cy="323.02" r="9.1"/><circle class="cls-14" cx="1621.66" cy="423.97" r="9.1"/><circle class="cls-14" cx="1534.45" cy="572.85" r="9.1"/><circle class="cls-14" cx="1470.95" cy="433.29" r="9.1"/><circle class="cls-15" cx="1461.85" cy="511.62" r="7.59"/><circle class="cls-15" cx="1476.13" cy="501.17" r="7.59"/><circle class="cls-15" cx="1601.95" cy="414.87" r="7.59"/><circle class="cls-15" cx="1610.74" cy="402.57" r="7.59"/><circle class="cls-15" cx="1624.1" cy="344.14" r="7.59"/><circle class="cls-15" cx="1598.32" cy="545.3" r="7.59"/><circle class="cls-15" cx="1601.24" cy="561.06" r="7.59"/><circle class="cls-15" cx="1630.77" cy="519.21" r="7.59"/><circle class="cls-15" cx="1477.03" cy="291.89" r="7.59"/><circle class="cls-15" cx="1635.16" cy="228.7" r="7.59"/><circle class="cls-12" cx="1583.85" cy="383.78" r="17.99"/><circle class="cls-12" cx="1502.88" cy="438.66" r="17.99"/><circle class="cls-15" cx="1530.08" cy="411.56" r="14.62"/><circle class="cls-15" cx="1579.99" cy="414.87" r="14.62"/><circle class="cls-15" cx="1636.37" cy="444.06" r="14.62"/><circle class="cls-15" cx="1627.57" cy="472.35" r="14.62"/><circle class="cls-15" cx="1535.88" cy="314.1" r="14.62"/><circle class="cls-15" cx="1525.33" cy="252.09" r="14.62"/><circle class="cls-15" cx="1473.16" cy="256.14" r="14.62"/><circle class="cls-15" cx="1574.84" cy="544.33" r="14.62"/><circle class="cls-12" cx="1453.37" cy="483.19" r="17.99"/><circle class="cls-12" cx="1624.58" cy="545.3" r="17.99"/><circle class="cls-12" cx="1645.56" cy="412.84" r="17.99"/><circle class="cls-12" cx="1638.36" cy="365.8" r="17.99"/><circle class="cls-12" cx="1508.51" cy="172.37" r="17.99"/><circle class="cls-11" cx="1494.11" cy="320.56" r="25.59"/><circle class="cls-11" cx="1487.44" cy="397.25" r="25.59"/><circle class="cls-11" cx="1496.54" cy="215.94" r="25.59"/><circle class="cls-11" cx="1562.73" cy="178.43" r="27.36"/><circle class="cls-10" cx="1572.63" cy="281.47" r="34.21"/><circle class="cls-16" cx="1522.13" cy="523.79" r="40.6"/><path class="cls-17" d="M330.23,302c2.73,30.06,31.48-67.87,28.64-25.32-1.2,18.08-7.36,127.87,11.94,111.55C389.53,372.37,393,347.89,393,373.13c0,49.56,25.66,212.59-127.53,212.59-178.32-1.4-140.18-268.37-128.19-232.61,11.55,34.45,34.72,46.55,30.95,35.41-8.38-24.75-5.24-146.18,1-127.62,8.94,26.43,36.77,51.36,35.47,32.34-2.87-41.82,67.61-117.69,61.2-159.13C264.59,125.44,329.35,292.29,330.23,302Z"/><path class="cls-18" d="M266.21,555.69c-43,.17-69.72-117.91-62.2-160.22,2.65-14.91,31.92,43.66,30.61,32.57-3.14-26.7,28.65-69.21,30-93.79,1-18,31.7,69.71,28.66,94.11S326.81,373.2,324.83,401C322.26,437.13,307.56,555.52,266.21,555.69Z"/></g></g></svg>