<?xml version="1.0" encoding="UTF-8" standalone="no"?>
<!DOCTYPE svg PUBLIC "-//W3C//DTD SVG 1.1//EN" "http://www.w3.org/Graphics/SVG/1.1/DTD/svg11.dtd">
<svg width="100%" height="100%" viewBox="0 0 3616 3312" version="1.1" xmlns="http://www.w3.org/2000/svg" xmlns:xlink="http://www.w3.org/1999/xlink" xml:space="preserve" xmlns:serif="http://www.serif.com/" style="fill-rule:evenodd;clip-rule:evenodd;stroke-miterlimit:10;">
    <g transform="matrix(1,0,0,1,-20025.6,-22294.4)">
        <g transform="matrix(5.55556,0,0,5.55556,15655,21370)">
            <g transform="matrix(1,0,0,1,-82.08,-79.3707)">
                <g transform="matrix(1,0,0,1,1121.12,545.289)">
                    <path d="M0,-69.03C14.455,-70.125 65.004,1.095 94.404,1.095C114.658,1.095 138.877,-30.13 154.793,-38.712" style="fill:none;fill-rule:nonzero;stroke:rgb(0,137,184);stroke-width:5.45px;"/>
                </g>
                <g transform="matrix(0.975576,0.219662,0.219662,-0.975576,1204.68,570.186)">
                    <path d="M-2.433,-17.23C26.852,5.743 115.894,-47.053 153.912,-17.23" style="fill:none;fill-rule:nonzero;stroke:rgb(0,137,184);stroke-width:5.45px;"/>
                </g>
                <g transform="matrix(1,0,0,1,993.44,718.105)">
                    <path d="M0,5.291C9.048,-3.757 37.509,-32.036 63.264,-31.185C91.473,-30.252 138.074,25.456 152.998,37.327" style="fill:none;fill-rule:nonzero;stroke:rgb(0,137,184);stroke-width:5.45px;"/>
                </g>
                <g transform="matrix(1,0,0,1,1238.05,732.863)">
                    <path d="M0,-3.855C10.26,-3.201 23.897,-18.315 54.951,-19.351C90.019,-20.522 129.45,15.498 155.24,16.667" style="fill:none;fill-rule:nonzero;stroke:rgb(0,137,184);stroke-width:5.45px;"/>
                </g>
                <g transform="matrix(0,1,1,0,1159.21,719.82)">
                    <path d="M7.487,-7.487C3.352,-7.487 -0,-4.135 -0,0C-0,4.135 3.352,7.487 7.487,7.487C11.622,7.487 14.974,4.135 14.974,0C14.974,-4.135 11.622,-7.487 7.487,-7.487" style="fill:rgb(0,137,184);fill-rule:nonzero;"/>
                </g>
                <g transform="matrix(0,1,1,0,1159.21,441.218)">
                    <path d="M7.487,-7.487C3.352,-7.487 -0,-4.135 -0,0C-0,4.135 3.352,7.487 7.487,7.487C11.622,7.487 14.974,4.135 14.974,0C14.974,-4.135 11.622,-7.487 7.487,-7.487" style="fill:rgb(0,137,184);fill-rule:nonzero;"/>
                </g>
                <g transform="matrix(0,1,1,0,1022.49,727.307)">
                    <path d="M7.487,-7.487C3.352,-7.487 -0,-4.135 -0,0C-0,4.135 3.352,7.487 7.487,7.487C11.622,7.487 14.974,4.135 14.974,0C14.974,-4.135 11.622,-7.487 7.487,-7.487" style="fill:rgb(0,137,184);fill-rule:nonzero;"/>
                </g>
                <g transform="matrix(0,1,1,0,1358.05,697.217)">
                    <path d="M7.487,-7.487C3.352,-7.487 0,-4.135 0,0C0,4.135 3.352,7.487 7.487,7.487C11.622,7.487 14.974,4.135 14.974,0C14.974,-4.135 11.622,-7.487 7.487,-7.487" style="fill:rgb(0,137,184);fill-rule:nonzero;"/>
                </g>
                <g transform="matrix(0,1,1,0,1057.21,697.218)">
                    <path d="M6.72,-6.72C3.008,-6.72 -0.001,-3.711 -0.001,0.001C-0.001,3.712 3.008,6.72 6.72,6.72C10.432,6.72 13.442,3.712 13.442,0.001C13.442,-3.711 10.432,-6.72 6.72,-6.72" style="fill:rgb(0,137,184);fill-rule:nonzero;"/>
                </g>
                <g transform="matrix(0,1,1,0,1157.07,537.221)">
                    <path d="M6.72,-6.72C3.008,-6.72 -0.001,-3.711 -0.001,0.001C-0.001,3.712 3.008,6.72 6.72,6.72C10.432,6.72 13.442,3.712 13.442,0.001C13.442,-3.711 10.432,-6.72 6.72,-6.72" style="fill:rgb(0,137,184);fill-rule:nonzero;"/>
                </g>
                <g transform="matrix(0,1,1,0,1022.49,652.331)">
                    <path d="M6.72,-6.72C3.008,-6.72 -0.001,-3.711 -0.001,0.001C-0.001,3.712 3.008,6.72 6.72,6.72C10.432,6.72 13.442,3.712 13.442,0.001C13.442,-3.711 10.432,-6.72 6.72,-6.72" style="fill:rgb(0,137,184);fill-rule:nonzero;"/>
                </g>
                <g transform="matrix(0,1,1,0,1179.1,415.511)">
                    <path d="M6.72,-6.72C3.008,-6.72 -0.001,-3.711 -0.001,0.001C-0.001,3.712 3.008,6.72 6.72,6.72C10.432,6.72 13.442,3.712 13.442,0.001C13.442,-3.711 10.432,-6.72 6.72,-6.72" style="fill:rgb(0,137,184);fill-rule:nonzero;"/>
                </g>
                <g transform="matrix(0,1,1,0,1123.04,697.984)">
                    <path d="M6.72,-6.72C3.008,-6.72 -0.001,-3.711 -0.001,0.001C-0.001,3.712 3.008,6.72 6.72,6.72C10.432,6.72 13.442,3.712 13.442,0.001C13.442,-3.711 10.432,-6.72 6.72,-6.72" style="fill:rgb(0,137,184);fill-rule:nonzero;"/>
                </g>
                <g transform="matrix(0,1,1,0,1231.49,549.527)">
                    <path d="M3.16,-3.16C1.415,-3.16 0.001,-1.745 0.001,-0.001C0.001,1.745 1.415,3.16 3.16,3.16C4.904,3.16 6.319,1.745 6.319,-0.001C6.319,-1.745 4.904,-3.16 3.16,-3.16" style="fill:rgb(0,137,184);fill-rule:nonzero;"/>
                </g>
                <g transform="matrix(0,1,1,0,1151.73,517.286)">
                    <path d="M3.16,-3.16C1.415,-3.16 0.001,-1.745 0.001,-0.001C0.001,1.745 1.415,3.16 3.16,3.16C4.904,3.16 6.319,1.745 6.319,-0.001C6.319,-1.745 4.904,-3.16 3.16,-3.16" style="fill:rgb(0,137,184);fill-rule:nonzero;"/>
                </g>
                <g transform="matrix(0,1,1,0,1074.61,580.03)">
                    <path d="M3.16,-3.16C1.415,-3.16 0.001,-1.745 0.001,-0.001C0.001,1.745 1.415,3.16 3.16,3.16C4.904,3.16 6.319,1.745 6.319,-0.001C6.319,-1.745 4.904,-3.16 3.16,-3.16" style="fill:rgb(0,137,184);fill-rule:nonzero;"/>
                </g>
                <g transform="matrix(0,1,1,0,1122.54,671.783)">
                    <path d="M3.16,-3.16C1.415,-3.16 0.001,-1.745 0.001,-0.001C0.001,1.745 1.415,3.16 3.16,3.16C4.904,3.16 6.319,1.745 6.319,-0.001C6.319,-1.745 4.904,-3.16 3.16,-3.16" style="fill:rgb(0,137,184);fill-rule:nonzero;"/>
                </g>
                <g transform="matrix(0,1,1,0,1004.06,735.069)">
                    <path d="M3.16,-3.16C1.415,-3.16 0.001,-1.745 0.001,-0.001C0.001,1.745 1.415,3.16 3.16,3.16C4.904,3.16 6.319,1.745 6.319,-0.001C6.319,-1.745 4.904,-3.16 3.16,-3.16" style="fill:rgb(0,137,184);fill-rule:nonzero;"/>
                </g>
                <g transform="matrix(0,1,1,0,1087.43,637.17)">
                    <path d="M3.16,-3.16C1.415,-3.16 0.001,-1.745 0.001,-0.001C0.001,1.745 1.415,3.16 3.16,3.16C4.904,3.16 6.319,1.745 6.319,-0.001C6.319,-1.745 4.904,-3.16 3.16,-3.16" style="fill:rgb(0,137,184);fill-rule:nonzero;"/>
                </g>
                <g transform="matrix(0,1,1,0,1320.12,606.469)">
                    <path d="M3.16,-3.16C1.415,-3.16 0.001,-1.745 0.001,-0.001C0.001,1.745 1.415,3.16 3.16,3.16C4.904,3.16 6.319,1.745 6.319,-0.001C6.319,-1.745 4.904,-3.16 3.16,-3.16" style="fill:rgb(0,137,184);fill-rule:nonzero;"/>
                </g>
                <g transform="matrix(0,1,1,0,1182.15,473.087)">
                    <path d="M3.16,-3.16C1.415,-3.16 0.001,-1.745 0.001,-0.001C0.001,1.745 1.415,3.16 3.16,3.16C4.904,3.16 6.319,1.745 6.319,-0.001C6.319,-1.745 4.904,-3.16 3.16,-3.16" style="fill:rgb(0,137,184);fill-rule:nonzero;"/>
                </g>
                <g transform="matrix(0,1,1,0,1213.53,390.72)">
                    <path d="M3.16,-3.16C1.415,-3.16 0.001,-1.745 0.001,-0.001C0.001,1.745 1.415,3.16 3.16,3.16C4.904,3.16 6.319,1.745 6.319,-0.001C6.319,-1.745 4.904,-3.16 3.16,-3.16" style="fill:rgb(0,137,184);fill-rule:nonzero;"/>
                </g>
                <g transform="matrix(0,1,1,0,1188.87,685.821)">
                    <path d="M6.72,-6.72C3.008,-6.72 -0.001,-3.711 -0.001,0.001C-0.001,3.712 3.008,6.72 6.72,6.72C10.432,6.72 13.442,3.712 13.442,0.001C13.442,-3.711 10.432,-6.72 6.72,-6.72" style="fill:rgb(0,137,184);fill-rule:nonzero;"/>
                </g>
                <g transform="matrix(0,1,1,0,1274.78,519.078)">
                    <path d="M6.72,-6.72C3.008,-6.72 -0.001,-3.711 -0.001,0.001C-0.001,3.712 3.008,6.72 6.72,6.72C10.432,6.72 13.442,3.712 13.442,0.001C13.442,-3.711 10.432,-6.72 6.72,-6.72" style="fill:rgb(0,137,184);fill-rule:nonzero;"/>
                </g>
                <g transform="matrix(0,1,1,0,1208.09,735.09)">
                    <path d="M6.72,-6.72C3.008,-6.72 -0.001,-3.711 -0.001,0.001C-0.001,3.712 3.008,6.72 6.72,6.72C10.432,6.72 13.442,3.712 13.442,0.001C13.442,-3.711 10.432,-6.72 6.72,-6.72" style="fill:rgb(0,137,184);fill-rule:nonzero;"/>
                </g>
                <g transform="matrix(0,1,1,0,1378.26,724.787)">
                    <path d="M6.72,-6.72C3.008,-6.72 -0.001,-3.711 -0.001,0.001C-0.001,3.712 3.008,6.72 6.72,6.72C10.432,6.72 13.442,3.712 13.442,0.001C13.442,-3.711 10.432,-6.72 6.72,-6.72" style="fill:rgb(0,137,184);fill-rule:nonzero;"/>
                </g>
                <g transform="matrix(0,1,1,0,1268.06,724.787)">
                    <path d="M6.72,-6.72C3.008,-6.72 -0.001,-3.711 -0.001,0.001C-0.001,3.712 3.008,6.72 6.72,6.72C10.432,6.72 13.442,3.712 13.442,0.001C13.442,-3.711 10.432,-6.72 6.72,-6.72" style="fill:rgb(0,137,184);fill-rule:nonzero;"/>
                </g>
                <g transform="matrix(0,1,1,0,1274.78,623.213)">
                    <path d="M6.72,-6.72C3.008,-6.72 -0.001,-3.711 -0.001,0.001C-0.001,3.712 3.008,6.72 6.72,6.72C10.432,6.72 13.442,3.712 13.442,0.001C13.442,-3.711 10.432,-6.72 6.72,-6.72" style="fill:rgb(0,137,184);fill-rule:nonzero;"/>
                </g>
                <g transform="matrix(0,1,1,0,1134.38,509.776)">
                    <path d="M4.677,-4.677C2.094,-4.677 -0,-2.583 -0,0C-0,2.582 2.094,4.677 4.677,4.677C7.26,4.677 9.354,2.582 9.354,0C9.354,-2.583 7.26,-4.677 4.677,-4.677" style="fill:rgb(0,137,184);fill-rule:nonzero;"/>
                </g>
                <g transform="matrix(0,1,1,0,1106.99,512.61)">
                    <path d="M4.677,-4.677C2.094,-4.677 -0,-2.583 -0,0C-0,2.582 2.094,4.677 4.677,4.677C7.26,4.677 9.354,2.582 9.354,0C9.354,-2.583 7.26,-4.677 4.677,-4.677" style="fill:rgb(0,137,184);fill-rule:nonzero;"/>
                </g>
                <g transform="matrix(0,1,1,0,1292.73,564.278)">
                    <path d="M4.677,-4.677C2.094,-4.677 -0,-2.583 -0,0C-0,2.582 2.094,4.677 4.677,4.677C7.26,4.677 9.354,2.582 9.354,0C9.354,-2.583 7.26,-4.677 4.677,-4.677" style="fill:rgb(0,137,184);fill-rule:nonzero;"/>
                </g>
                <g transform="matrix(0,1,1,0,1234.74,667.107)">
                    <path d="M4.677,-4.677C2.094,-4.677 -0,-2.583 -0,0C-0,2.582 2.094,4.677 4.677,4.677C7.26,4.677 9.354,2.582 9.354,0C9.354,-2.583 7.26,-4.677 4.677,-4.677" style="fill:rgb(0,137,184);fill-rule:nonzero;"/>
                </g>
                <g transform="matrix(0,1,1,0,1102.31,733.552)">
                    <path d="M4.677,-4.677C2.094,-4.677 -0,-2.583 -0,0C-0,2.582 2.094,4.677 4.677,4.677C7.26,4.677 9.354,2.582 9.354,0C9.354,-2.583 7.26,-4.677 4.677,-4.677" style="fill:rgb(0,137,184);fill-rule:nonzero;"/>
                </g>
                <g transform="matrix(0,1,1,0,999.384,692.541)">
                    <path d="M4.677,-4.677C2.094,-4.677 -0,-2.583 -0,0C-0,2.582 2.094,4.677 4.677,4.677C7.26,4.677 9.354,2.582 9.354,0C9.354,-2.583 7.26,-4.677 4.677,-4.677" style="fill:rgb(0,137,184);fill-rule:nonzero;"/>
                </g>
                <g transform="matrix(0,1,1,0,1292.73,598.339)">
                    <path d="M4.677,-4.677C2.094,-4.677 -0,-2.583 -0,0C-0,2.582 2.094,4.677 4.677,4.677C7.26,4.677 9.354,2.582 9.354,0C9.354,-2.583 7.26,-4.677 4.677,-4.677" style="fill:rgb(0,137,184);fill-rule:nonzero;"/>
                </g>
                <g transform="matrix(0,1,1,0,1281.5,672.066)">
                    <path d="M4.677,-4.677C2.094,-4.677 -0,-2.583 -0,0C-0,2.582 2.094,4.677 4.677,4.677C7.26,4.677 9.354,2.582 9.354,0C9.354,-2.583 7.26,-4.677 4.677,-4.677" style="fill:rgb(0,137,184);fill-rule:nonzero;"/>
                </g>
                <g transform="matrix(0,1,1,0,1185.31,371.249)">
                    <path d="M4.677,-4.677C2.094,-4.677 -0,-2.583 -0,0C-0,2.582 2.094,4.677 4.677,4.677C7.26,4.677 9.354,2.582 9.354,0C9.354,-2.583 7.26,-4.677 4.677,-4.677" style="fill:rgb(0,137,184);fill-rule:nonzero;"/>
                </g>
                <g transform="matrix(0,1,1,0,1218.2,479.903)">
                    <path d="M4.677,-4.677C2.094,-4.677 -0,-2.583 -0,0C-0,2.582 2.094,4.677 4.677,4.677C7.26,4.677 9.354,2.582 9.354,0C9.354,-2.583 7.26,-4.677 4.677,-4.677" style="fill:rgb(0,137,184);fill-rule:nonzero;"/>
                </g>
                <g transform="matrix(0,1,1,0,1222.88,441.386)">
                    <path d="M4.677,-4.677C2.094,-4.677 -0,-2.583 -0,0C-0,2.582 2.094,4.677 4.677,4.677C7.26,4.677 9.354,2.582 9.354,0C9.354,-2.583 7.26,-4.677 4.677,-4.677" style="fill:rgb(0,137,184);fill-rule:nonzero;"/>
                </g>
                <g transform="matrix(0,1,1,0,1218.2,593.662)">
                    <path d="M4.677,-4.677C2.094,-4.677 -0,-2.583 -0,0C-0,2.582 2.094,4.677 4.677,4.677C7.26,4.677 9.354,2.582 9.354,0C9.354,-2.583 7.26,-4.677 4.677,-4.677" style="fill:rgb(0,137,184);fill-rule:nonzero;"/>
                </g>
                <g transform="matrix(0,1,1,0,1331.68,700.028)">
                    <path d="M4.677,-4.677C2.094,-4.677 -0,-2.583 -0,0C-0,2.582 2.094,4.677 4.677,4.677C7.26,4.677 9.354,2.582 9.354,0C9.354,-2.583 7.26,-4.677 4.677,-4.677" style="fill:rgb(0,137,184);fill-rule:nonzero;"/>
                </g>
                <g transform="matrix(0,1,1,0,1074.61,704.704)">
                    <path d="M4.677,-4.677C2.094,-4.677 -0,-2.583 -0,0C-0,2.582 2.094,4.677 4.677,4.677C7.26,4.677 9.354,2.582 9.354,0C9.354,-2.583 7.26,-4.677 4.677,-4.677" style="fill:rgb(0,137,184);fill-rule:nonzero;"/>
                </g>
                <g transform="matrix(0,1,1,0,1050.49,647.654)">
                    <path d="M4.677,-4.677C2.094,-4.677 -0,-2.583 -0,0C-0,2.582 2.094,4.677 4.677,4.677C7.26,4.677 9.354,2.582 9.354,0C9.354,-2.583 7.26,-4.677 4.677,-4.677" style="fill:rgb(0,137,184);fill-rule:nonzero;"/>
                </g>
                <g transform="matrix(0,1,1,0,1336.36,753.634)">
                    <path d="M4.677,-4.677C2.094,-4.677 -0,-2.583 -0,0C-0,2.582 2.094,4.677 4.677,4.677C7.26,4.677 9.354,2.582 9.354,0C9.354,-2.583 7.26,-4.677 4.677,-4.677" style="fill:rgb(0,137,184);fill-rule:nonzero;"/>
                </g>
                <g transform="matrix(0,1,1,0,1222.88,525.798)">
                    <path d="M4.677,-4.677C2.094,-4.677 -0,-2.583 -0,0C-0,2.582 2.094,4.677 4.677,4.677C7.26,4.677 9.354,2.582 9.354,0C9.354,-2.583 7.26,-4.677 4.677,-4.677" style="fill:rgb(0,137,184);fill-rule:nonzero;"/>
                </g>
                <g transform="matrix(0,1,1,0,1255.37,542.903)">
                    <path d="M7.487,-7.487C3.352,-7.487 -0,-4.135 -0,0C-0,4.135 3.352,7.487 7.487,7.487C11.622,7.487 14.974,4.135 14.974,0C14.974,-4.135 11.622,-7.487 7.487,-7.487" style="fill:rgb(0,137,184);fill-rule:nonzero;"/>
                </g>
                <g transform="matrix(0,1,1,0,1194.19,515.501)">
                    <path d="M7.487,-7.487C3.352,-7.487 0,-4.135 0,0C0,4.135 3.352,7.487 7.487,7.487C11.622,7.487 14.974,4.135 14.974,0C14.974,-4.135 11.622,-7.487 7.487,-7.487" style="fill:rgb(0,137,184);fill-rule:nonzero;"/>
                </g>
                <g transform="matrix(0,1,1,0,1351.27,651.564)">
                    <path d="M7.487,-7.487C3.352,-7.487 0,-4.135 0,0C0,4.135 3.352,7.487 7.487,7.487C11.622,7.487 14.974,4.135 14.974,0C14.974,-4.135 11.622,-7.487 7.487,-7.487" style="fill:rgb(0,137,184);fill-rule:nonzero;"/>
                </g>
                <g transform="matrix(0,1,1,0,1253.85,468.76)">
                    <path d="M7.487,-7.487C3.352,-7.487 -0,-4.135 -0,0C-0,4.135 3.352,7.487 7.487,7.487C11.622,7.487 14.974,4.135 14.974,0C14.974,-4.135 11.622,-7.487 7.487,-7.487" style="fill:rgb(0,137,184);fill-rule:nonzero;"/>
                </g>
                <g transform="matrix(0,1,1,0,1300.22,721.172)">
                    <path d="M7.487,-7.487C3.352,-7.487 -0,-4.135 -0,0C-0,4.135 3.352,7.487 7.487,7.487C11.622,7.487 14.974,4.135 14.974,0C14.974,-4.135 11.622,-7.487 7.487,-7.487" style="fill:rgb(0,137,184);fill-rule:nonzero;"/>
                </g>
                <g transform="matrix(0,1,1,0,1114.47,533.462)">
                    <path d="M7.487,-7.487C3.352,-7.487 0,-4.135 0,0C0,4.135 3.352,7.487 7.487,7.487C11.622,7.487 14.974,4.135 14.974,0C14.974,-4.135 11.622,-7.487 7.487,-7.487" style="fill:rgb(0,137,184);fill-rule:nonzero;"/>
                </g>
                <g transform="matrix(0,1,1,0,1087.43,542.903)">
                    <path d="M7.487,-7.487C3.352,-7.487 -0,-4.135 -0,0C-0,4.135 3.352,7.487 7.487,7.487C11.622,7.487 14.974,4.135 14.974,0C14.974,-4.135 11.622,-7.487 7.487,-7.487" style="fill:rgb(0,137,184);fill-rule:nonzero;"/>
                </g>
                <g transform="matrix(0,1,1,0,1057.21,595.529)">
                    <path d="M7.487,-7.487C3.352,-7.487 -0,-4.135 -0,0C-0,4.135 3.352,7.487 7.487,7.487C11.622,7.487 14.974,4.135 14.974,0C14.974,-4.135 11.622,-7.487 7.487,-7.487" style="fill:rgb(0,137,184);fill-rule:nonzero;"/>
                </g>
                <g transform="matrix(0,1,1,0,1175.66,749.307)">
                    <path d="M7.487,-7.487C3.352,-7.487 0,-4.135 0,0C0,4.135 3.352,7.487 7.487,7.487C11.622,7.487 14.974,4.135 14.974,0C14.974,-4.135 11.622,-7.487 7.487,-7.487" style="fill:rgb(0,137,184);fill-rule:nonzero;"/>
                </g>
                <g transform="matrix(1,0,0,1,932.22,314.313)">
                    <path d="M0,458.899L260.871,-5.115L523.934,464.014L0,458.899Z" style="fill:none;fill-rule:nonzero;stroke:rgb(0,137,184);stroke-width:12.62px;"/>
                </g>
                <g transform="matrix(1,0,0,1,1139.26,576.825)">
                    <path d="M0,25.041C0,25.041 41.067,-18.915 52.324,-12.183C62.455,-6.124 39.136,43.956 39.136,43.956L0,25.041Z" style="fill:white;fill-rule:nonzero;stroke:rgb(0,137,184);stroke-width:5.45px;"/>
                </g>
                <g transform="matrix(1,0,0,1,1077.18,630.612)">
                    <path d="M0,-28.35C4.725,-31.12 20.535,-32.083 22.09,-39.51C23.583,-46.64 29.123,-58.721 43.78,-58.721C62.631,-58.721 66.722,-27.565 78.485,-26.806C82.647,-26.537 161.275,-13.683 161.275,-13.683C161.275,-13.683 143.563,30.371 73.951,30.371C34.051,26.214 37.858,-2.341 24.535,-18.181C20.837,-22.578 -3.923,-26.05 0,-28.35" style="fill:rgb(0,137,184);fill-rule:nonzero;"/>
                </g>
                <g transform="matrix(1,0,0,1,1077.18,630.612)">
                    <path d="M0,-28.35C4.725,-31.12 20.535,-32.083 22.09,-39.51C23.583,-46.64 29.123,-58.721 43.78,-58.721C62.631,-58.721 66.722,-27.565 78.485,-26.806C82.647,-26.537 161.275,-13.683 161.275,-13.683C161.275,-13.683 143.563,30.371 73.951,30.371C34.051,26.214 37.858,-2.341 24.535,-18.181C20.837,-22.578 -3.923,-26.05 0,-28.35Z" style="fill:white;fill-rule:nonzero;stroke:rgb(0,137,184);stroke-width:5.45px;"/>
                </g>
                <g transform="matrix(1,0,0,1,1136.61,684.746)">
                    <path d="M0,-54.297C0,-54.297 23.284,0 36.216,-1.462C47.231,-2.707 40.409,-46.854 40.409,-46.854" style="fill:white;fill-rule:nonzero;stroke:rgb(0,137,184);stroke-width:5.45px;"/>
                </g>
                <g transform="matrix(0,1,1,0,1116.32,589.393)">
                    <path d="M2.969,-2.969C1.33,-2.969 0.001,-1.64 0.001,-0.001C0.001,1.639 1.33,2.969 2.969,2.969C4.608,2.969 5.937,1.639 5.937,-0.001C5.937,-1.64 4.608,-2.969 2.969,-2.969" style="fill:rgb(0,137,184);fill-rule:nonzero;"/>
                </g>
            </g>
        </g>
    </g>
</svg>
