<?xml version="1.0" encoding="UTF-8" standalone="no"?>
<!DOCTYPE svg PUBLIC "-//W3C//DTD SVG 1.1//EN" "http://www.w3.org/Graphics/SVG/1.1/DTD/svg11.dtd">
<svg width="100%" height="100%" viewBox="0 0 10668 3566" version="1.1" xmlns="http://www.w3.org/2000/svg" xmlns:xlink="http://www.w3.org/1999/xlink" xml:space="preserve" xmlns:serif="http://www.serif.com/" style="fill-rule:evenodd;clip-rule:evenodd;stroke-miterlimit:10;">
    <g transform="matrix(1,0,0,1,-16493.6,-22172.5)">
        <g transform="matrix(5.55556,0,0,5.55556,15655,21370)">
            <g>
                <g transform="matrix(1,0,0,1,1723.46,200.379)">
                    <path d="M0,522.463C0,522.463 -221.047,121.021 -277.419,18.345C-285.986,2.741 -232.764,57.534 -209.919,57.534C-184.263,57.534 -170.583,36.444 -164.487,21.285C-158.435,6.234 -163.323,0 -155.962,20.916C-150.96,35.131 -132.242,55.958 -109.79,55.958C-91.383,55.958 -72.181,36.426 -65.695,28.001C-52.365,10.688 -58.506,10.333 -48.714,27.929C-42.923,38.336 -23.802,58.406 -5.636,58.984C16.764,59.696 39.538,33.63 45.407,25.098C57.429,7.619 53.18,10.859 66.329,25.232C75.448,35.201 89.932,57.322 112.375,57.322C136.26,57.322 146.84,37.226 155.387,27.12C166.541,13.931 170.703,9.63 179.3,23.876C185.776,34.608 201.087,58.791 222.564,57.483C244.581,56.143 298.543,1.568 280.521,31.35C260.647,64.191 0,522.463 0,522.463Z" style="fill:none;fill-rule:nonzero;stroke:rgb(0,84,163);stroke-width:12.62px;"/>
                </g>
                <g transform="matrix(0,1,1,0,1682.31,341.368)">
                    <path d="M64.055,-64.054C43.84,-64.054 27.452,-35.376 27.452,0C27.452,35.377 43.84,64.055 64.055,64.055C84.27,64.055 100.657,35.377 100.657,0C100.657,-35.376 84.27,-64.054 64.055,-64.054" style="fill:white;fill-rule:nonzero;stroke:rgb(0,84,163);stroke-width:0.18px;stroke-linejoin:round;stroke-miterlimit:2;"/>
                </g>
                <g transform="matrix(0,1,1,0,1682.31,341.368)">
                    <ellipse cx="64.054" cy="0.001" rx="36.603" ry="64.054" style="fill:none;stroke:rgb(0,84,163);stroke-width:9.65px;"/>
                </g>
                <g transform="matrix(1,0,0,1,1751.68,409.26)">
                    <path d="M0,-0.278C0,23.663 48.83,50.183 44.736,36.324C36.394,8.081 33.787,-6.773 44.736,-36.881C49.675,-50.461 0,-20.193 0,-0.278" style="fill:white;fill-rule:nonzero;stroke:rgb(0,84,163);stroke-width:0.18px;stroke-linejoin:round;stroke-miterlimit:2;"/>
                </g>
                <g transform="matrix(1,0,0,1,1751.68,409.26)">
                    <path d="M0,-0.278C0,23.663 48.83,50.183 44.736,36.324C36.394,8.081 33.787,-6.773 44.736,-36.881C49.675,-50.461 0,-20.193 0,-0.278Z" style="fill:none;fill-rule:nonzero;stroke:rgb(0,84,163);stroke-width:9.25px;"/>
                </g>
                <g transform="matrix(0,1,1,0,1652.73,393.222)">
                    <path d="M6.1,-6.1C2.731,-6.1 0,-3.369 0,-0C0,3.37 2.731,6.1 6.1,6.1C9.47,6.1 12.2,3.37 12.2,-0C12.2,-3.369 9.47,-6.1 6.1,-6.1" style="fill:rgb(0,84,163);fill-rule:nonzero;stroke:rgb(0,84,163);stroke-width:0.18px;stroke-linejoin:round;stroke-miterlimit:2;"/>
                </g>
                <g transform="matrix(0,1,1,0,1603.97,333.443)">
                    <path d="M17.772,-17.773C7.957,-17.773 0,-9.816 0,0C0,9.815 7.957,17.772 17.772,17.772C27.588,17.772 35.545,9.815 35.545,0C35.545,-9.816 27.588,-17.773 17.772,-17.773" style="fill:rgb(254,254,254);fill-rule:nonzero;stroke:rgb(0,84,163);stroke-width:7px;stroke-linejoin:round;stroke-miterlimit:2;"/>
                </g>
                <g transform="matrix(0,1,1,0,1586.2,291.065)">
                    <path d="M11.347,-11.347C5.081,-11.347 -0,-6.267 -0,0C-0,6.267 5.081,11.347 11.347,11.347C17.614,11.347 22.694,6.267 22.694,0C22.694,-6.267 17.614,-11.347 11.347,-11.347" style="fill:white;fill-rule:nonzero;stroke:rgb(0,84,163);stroke-width:7px;stroke-linejoin:round;stroke-miterlimit:2;"/>
                </g>
                <g transform="matrix(0,1,1,0,1557.64,261.243)">
                    <path d="M7.186,-7.186C3.218,-7.186 0.001,-3.969 0.001,-0.001C0.001,3.968 3.218,7.186 7.186,7.186C11.154,7.186 14.371,3.968 14.371,-0.001C14.371,-3.969 11.154,-7.186 7.186,-7.186" style="fill:rgb(0,84,163);fill-rule:nonzero;stroke:rgb(0,84,163);stroke-width:0.18px;stroke-linejoin:round;stroke-miterlimit:2;"/>
                </g>
            </g>
            <g transform="matrix(1,0,0,1,-1.81899e-12,9.1888)">
                <g transform="matrix(1,0,0,1,57.42,-73.8017)">
                    <g transform="matrix(0,1,1,0,301.582,314.755)">
                        <path d="M3.94,-3.94C1.764,-3.94 0.001,-2.176 0.001,-0.001C0.001,2.175 1.764,3.94 3.94,3.94C6.116,3.94 7.879,2.175 7.879,-0.001C7.879,-2.176 6.116,-3.94 3.94,-3.94" style="fill:rgb(0,98,87);fill-rule:nonzero;"/>
                    </g>
                    <g transform="matrix(0,1,1,0,389.066,572.559)">
                        <path d="M3.94,-3.94C1.764,-3.94 0.001,-2.176 0.001,-0.001C0.001,2.175 1.764,3.94 3.94,3.94C6.116,3.94 7.879,2.175 7.879,-0.001C7.879,-2.176 6.116,-3.94 3.94,-3.94" style="fill:rgb(0,98,87);fill-rule:nonzero;"/>
                    </g>
                    <g transform="matrix(0,1,1,0,619.75,342.566)">
                        <path d="M3.94,-3.94C1.764,-3.94 0.001,-2.176 0.001,-0.001C0.001,2.175 1.764,3.94 3.94,3.94C6.116,3.94 7.879,2.175 7.879,-0.001C7.879,-2.176 6.116,-3.94 3.94,-3.94" style="fill:rgb(0,98,87);fill-rule:nonzero;"/>
                    </g>
                    <g transform="matrix(0,1,1,0,597.93,427.776)">
                        <path d="M3.94,-3.94C1.764,-3.94 0.001,-2.176 0.001,-0.001C0.001,2.175 1.764,3.94 3.94,3.94C6.116,3.94 7.879,2.175 7.879,-0.001C7.879,-2.176 6.116,-3.94 3.94,-3.94" style="fill:rgb(0,98,87);fill-rule:nonzero;"/>
                    </g>
                    <g transform="matrix(0,1,1,0,278.93,423.943)">
                        <path d="M3.94,-3.94C1.764,-3.94 0.001,-2.176 0.001,-0.001C0.001,2.175 1.764,3.94 3.94,3.94C6.116,3.94 7.879,2.175 7.879,-0.001C7.879,-2.176 6.116,-3.94 3.94,-3.94" style="fill:rgb(0,98,87);fill-rule:nonzero;"/>
                    </g>
                    <g transform="matrix(0,1,1,0,229.592,321.524)">
                        <path d="M3.94,-3.94C1.764,-3.94 0.001,-2.176 0.001,-0.001C0.001,2.175 1.764,3.94 3.94,3.94C6.116,3.94 7.879,2.175 7.879,-0.001C7.879,-2.176 6.116,-3.94 3.94,-3.94" style="fill:rgb(0,98,87);fill-rule:nonzero;"/>
                    </g>
                    <g transform="matrix(0,1,1,0,460.292,353.05)">
                        <path d="M23.933,-23.933C10.715,-23.933 0,-13.218 0,0C0,13.218 10.715,23.933 23.933,23.933C37.151,23.933 47.866,13.218 47.866,0C47.866,-13.218 37.151,-23.933 23.933,-23.933" style="fill:rgb(0,98,87);fill-rule:nonzero;"/>
                    </g>
                    <g transform="matrix(0,1,1,0,592.166,327.067)">
                        <path d="M21.639,-21.639C9.688,-21.639 -0.001,-11.951 -0.001,0.001C-0.001,11.95 9.688,21.639 21.639,21.639C33.59,21.639 43.278,11.95 43.278,0.001C43.278,-11.951 33.59,-21.639 21.639,-21.639" style="fill:rgb(0,98,87);fill-rule:nonzero;"/>
                    </g>
                    <g transform="matrix(0,1,1,0,575.456,427.882)">
                        <path d="M14.761,-14.761C6.609,-14.761 0,-8.152 0,0C0,8.152 6.609,14.761 14.761,14.761C22.913,14.761 29.522,8.152 29.522,0C29.522,-8.152 22.913,-14.761 14.761,-14.761" style="fill:rgb(0,98,87);fill-rule:nonzero;"/>
                    </g>
                    <g transform="matrix(0,1,1,0,415.577,310.703)">
                        <path d="M14.761,-14.761C6.609,-14.761 0,-8.152 0,0C0,8.152 6.609,14.761 14.761,14.761C22.913,14.761 29.522,8.152 29.522,0C29.522,-8.152 22.913,-14.761 14.761,-14.761" style="fill:rgb(0,98,87);fill-rule:nonzero;"/>
                    </g>
                    <g transform="matrix(0,1,1,0,202.039,309.198)">
                        <path d="M14.761,-14.761C6.609,-14.761 0,-8.152 0,0C0,8.152 6.609,14.761 14.761,14.761C22.913,14.761 29.522,8.152 29.522,0C29.522,-8.152 22.913,-14.761 14.761,-14.761" style="fill:rgb(0,98,87);fill-rule:nonzero;"/>
                    </g>
                    <g transform="matrix(0,1,1,0,367.949,584.212)">
                        <path d="M21.639,-21.639C9.688,-21.639 -0.001,-11.951 -0.001,0.001C-0.001,11.95 9.688,21.639 21.639,21.639C33.59,21.639 43.278,11.95 43.278,0.001C43.278,-11.951 33.59,-21.639 21.639,-21.639" style="fill:rgb(0,98,87);fill-rule:nonzero;"/>
                    </g>
                    <g transform="matrix(0,1,1,0,585.199,387.654)">
                        <path d="M17.901,-17.901C8.014,-17.901 0,-9.886 0,0C0,9.887 8.014,17.901 17.901,17.901C27.788,17.901 35.802,9.887 35.802,0C35.802,-9.886 27.788,-17.901 17.901,-17.901" style="fill:rgb(0,98,87);fill-rule:nonzero;"/>
                    </g>
                    <g transform="matrix(0,1,1,0,290.014,325.464)">
                        <path d="M17.901,-17.901C8.014,-17.901 0,-9.886 0,0C0,9.887 8.014,17.901 17.901,17.901C27.788,17.901 35.802,9.887 35.802,0C35.802,-9.886 27.788,-17.901 17.901,-17.901" style="fill:rgb(0,98,87);fill-rule:nonzero;"/>
                    </g>
                    <g transform="matrix(0,1,1,0,472.143,618.391)">
                        <path d="M12.583,-12.583C5.634,-12.583 0,-6.95 0,0C0,6.949 5.634,12.583 12.583,12.583C19.532,12.583 25.166,6.949 25.166,0C25.166,-6.95 19.532,-12.583 12.583,-12.583" style="fill:rgb(0,98,87);fill-rule:nonzero;"/>
                    </g>
                    <g transform="matrix(0,1,1,0,254.967,312.881)">
                        <path d="M12.583,-12.583C5.634,-12.583 0,-6.95 0,0C0,6.949 5.634,12.583 12.583,12.583C19.532,12.583 25.166,6.949 25.166,0C25.166,-6.95 19.532,-12.583 12.583,-12.583" style="fill:rgb(0,98,87);fill-rule:nonzero;"/>
                    </g>
                    <g transform="matrix(0,1,1,0,445.381,325.463)">
                        <path d="M12.583,-12.583C5.634,-12.583 0,-6.95 0,0C0,6.949 5.634,12.583 12.583,12.583C19.532,12.583 25.166,6.949 25.166,0C25.166,-6.95 19.532,-12.583 12.583,-12.583" style="fill:rgb(0,98,87);fill-rule:nonzero;"/>
                    </g>
                    <g transform="matrix(0,1,1,0,428.16,686.742)">
                        <path d="M12.583,-12.583C5.634,-12.583 0,-6.949 0,0C0,6.949 5.634,12.583 12.583,12.583C19.532,12.583 25.166,6.949 25.166,0C25.166,-6.949 19.532,-12.583 12.583,-12.583" style="fill:rgb(0,98,87);fill-rule:nonzero;"/>
                    </g>
                    <g transform="matrix(0,1,1,0,389.588,625.321)">
                        <path d="M12.583,-12.583C5.634,-12.583 0,-6.95 0,0C0,6.949 5.634,12.583 12.583,12.583C19.532,12.583 25.166,6.949 25.166,0C25.166,-6.95 19.532,-12.583 12.583,-12.583" style="fill:rgb(0,98,87);fill-rule:nonzero;"/>
                    </g>
                    <g transform="matrix(0,1,1,0,498.813,379.41)">
                        <path d="M8.244,-8.244C3.691,-8.244 -0.001,-4.553 -0.001,0.001C-0.001,4.554 3.691,8.244 8.244,8.244C12.798,8.244 16.49,4.554 16.49,0.001C16.49,-4.553 12.798,-8.244 8.244,-8.244" style="fill:rgb(0,98,87);fill-rule:nonzero;"/>
                    </g>
                    <g transform="matrix(0,1,1,0,316.16,521.73)">
                        <path d="M8.244,-8.244C3.691,-8.244 -0.001,-4.553 -0.001,0.001C-0.001,4.554 3.691,8.244 8.244,8.244C12.798,8.244 16.49,4.554 16.49,0.001C16.49,-4.553 12.798,-8.244 8.244,-8.244" style="fill:rgb(0,98,87);fill-rule:nonzero;"/>
                    </g>
                    <g transform="matrix(0,1,1,0,421.348,715.814)">
                        <path d="M8.244,-8.244C3.691,-8.244 -0.001,-4.553 -0.001,0.001C-0.001,4.554 3.691,8.244 8.244,8.244C12.798,8.244 16.49,4.554 16.49,0.001C16.49,-4.553 12.798,-8.244 8.244,-8.244" style="fill:rgb(0,98,87);fill-rule:nonzero;"/>
                    </g>
                    <g transform="matrix(0,1,1,0,505.082,348.705)">
                        <path d="M8.244,-8.244C3.691,-8.244 -0.001,-4.553 -0.001,0.001C-0.001,4.554 3.691,8.244 8.244,8.244C12.798,8.244 16.49,4.554 16.49,0.001C16.49,-4.553 12.798,-8.244 8.244,-8.244" style="fill:rgb(0,98,87);fill-rule:nonzero;"/>
                    </g>
                    <g transform="matrix(0,1,1,0,575.456,310.45)">
                        <path d="M8.244,-8.244C3.691,-8.244 -0.001,-4.553 -0.001,0.001C-0.001,4.554 3.691,8.244 8.244,8.244C12.798,8.244 16.49,4.554 16.49,0.001C16.49,-4.553 12.798,-8.244 8.244,-8.244" style="fill:rgb(0,98,87);fill-rule:nonzero;"/>
                    </g>
                    <g transform="matrix(0,1,1,0,316.16,426.154)">
                        <path d="M8.244,-8.244C3.691,-8.244 -0.001,-4.553 -0.001,0.001C-0.001,4.554 3.691,8.244 8.244,8.244C12.798,8.244 16.49,4.554 16.49,0.001C16.49,-4.553 12.798,-8.244 8.244,-8.244" style="fill:rgb(0,98,87);fill-rule:nonzero;"/>
                    </g>
                    <g transform="matrix(0,1,1,0,663.938,310.45)">
                        <path d="M8.244,-8.244C3.691,-8.244 -0.001,-4.553 -0.001,0.001C-0.001,4.554 3.691,8.244 8.244,8.244C12.798,8.244 16.49,4.554 16.49,0.001C16.49,-4.553 12.798,-8.244 8.244,-8.244" style="fill:rgb(0,98,87);fill-rule:nonzero;"/>
                    </g>
                    <g transform="matrix(0,1,1,0,363.356,564.737)">
                        <path d="M8.244,-8.244C3.691,-8.244 -0.001,-4.553 -0.001,0.001C-0.001,4.554 3.691,8.244 8.244,8.244C12.798,8.244 16.49,4.554 16.49,0.001C16.49,-4.553 12.798,-8.244 8.244,-8.244" style="fill:rgb(0,98,87);fill-rule:nonzero;"/>
                    </g>
                    <g transform="matrix(0,1,1,0,570.528,368.739)">
                        <path d="M8.244,-8.244C3.691,-8.244 -0.001,-4.553 -0.001,0.001C-0.001,4.554 3.691,8.244 8.244,8.244C12.798,8.244 16.49,4.554 16.49,0.001C16.49,-4.553 12.798,-8.244 8.244,-8.244" style="fill:rgb(0,98,87);fill-rule:nonzero;"/>
                    </g>
                    <g transform="matrix(0,1,1,0,472.143,326.192)">
                        <path d="M8.244,-8.244C3.691,-8.244 -0.001,-4.553 -0.001,0.001C-0.001,4.554 3.691,8.244 8.244,8.244C12.798,8.244 16.49,4.554 16.49,0.001C16.49,-4.553 12.798,-8.244 8.244,-8.244" style="fill:rgb(0,98,87);fill-rule:nonzero;"/>
                    </g>
                    <g transform="matrix(0,1,1,0,404.765,605.85)">
                        <path d="M8.244,-8.244C3.691,-8.244 -0.001,-4.553 -0.001,0.001C-0.001,4.554 3.691,8.244 8.244,8.244C12.798,8.244 16.49,4.554 16.49,0.001C16.49,-4.553 12.798,-8.244 8.244,-8.244" style="fill:rgb(0,98,87);fill-rule:nonzero;"/>
                    </g>
                    <g transform="matrix(0,1,1,0,638.277,347.769)">
                        <path d="M8.244,-8.244C3.691,-8.244 -0.001,-4.553 -0.001,0.001C-0.001,4.554 3.691,8.244 8.244,8.244C12.798,8.244 16.49,4.554 16.49,0.001C16.49,-4.553 12.798,-8.244 8.244,-8.244" style="fill:rgb(0,98,87);fill-rule:nonzero;"/>
                    </g>
                    <g transform="matrix(0,1,1,0,278.93,310.45)">
                        <path d="M8.244,-8.244C3.691,-8.244 -0.001,-4.553 -0.001,0.001C-0.001,4.554 3.691,8.244 8.244,8.244C12.798,8.244 16.49,4.554 16.49,0.001C16.49,-4.553 12.798,-8.244 8.244,-8.244" style="fill:rgb(0,98,87);fill-rule:nonzero;"/>
                    </g>
                    <g transform="matrix(0,1,1,0,570.528,461.831)">
                        <path d="M8.244,-8.244C3.691,-8.244 -0.001,-4.553 -0.001,0.001C-0.001,4.554 3.691,8.244 8.244,8.244C12.798,8.244 16.49,4.554 16.49,0.001C16.49,-4.553 12.798,-8.244 8.244,-8.244" style="fill:rgb(0,98,87);fill-rule:nonzero;"/>
                    </g>
                    <g transform="matrix(0,1,1,0,553.832,412.753)">
                        <path d="M6.369,-6.369C2.851,-6.369 -0,-3.517 -0,0C-0,3.518 2.851,6.369 6.369,6.369C9.887,6.369 12.738,3.518 12.738,0C12.738,-3.517 9.887,-6.369 6.369,-6.369" style="fill:rgb(0,98,87);fill-rule:nonzero;"/>
                    </g>
                    <g transform="matrix(0,1,1,0,316.16,445.659)">
                        <path d="M6.369,-6.369C2.851,-6.369 -0,-3.517 -0,0C-0,3.518 2.851,6.369 6.369,6.369C9.887,6.369 12.738,3.518 12.738,0C12.738,-3.517 9.887,-6.369 6.369,-6.369" style="fill:rgb(0,98,87);fill-rule:nonzero;"/>
                    </g>
                    <g transform="matrix(0,1,1,0,340.173,375.004)">
                        <path d="M6.369,-6.369C2.851,-6.369 -0,-3.517 -0,0C-0,3.518 2.851,6.369 6.369,6.369C9.887,6.369 12.738,3.518 12.738,0C12.738,-3.517 9.887,-6.369 6.369,-6.369" style="fill:rgb(0,98,87);fill-rule:nonzero;"/>
                    </g>
                    <g transform="matrix(0,1,1,0,230.616,378.859)">
                        <path d="M6.369,-6.369C2.851,-6.369 -0,-3.517 -0,0C-0,3.518 2.851,6.369 6.369,6.369C9.887,6.369 12.738,3.518 12.738,0C12.738,-3.517 9.887,-6.369 6.369,-6.369" style="fill:rgb(0,98,87);fill-rule:nonzero;"/>
                    </g>
                    <g transform="matrix(0,1,1,0,609.337,312.325)">
                        <path d="M6.369,-6.369C2.851,-6.369 -0,-3.518 -0,0C-0,3.518 2.851,6.369 6.369,6.369C9.887,6.369 12.738,3.518 12.738,0C12.738,-3.518 9.887,-6.369 6.369,-6.369" style="fill:rgb(0,98,87);fill-rule:nonzero;"/>
                    </g>
                    <g transform="matrix(0,1,1,0,498.813,590.678)">
                        <path d="M6.369,-6.369C2.851,-6.369 -0,-3.517 -0,0C-0,3.518 2.851,6.369 6.369,6.369C9.887,6.369 12.738,3.518 12.738,0C12.738,-3.517 9.887,-6.369 6.369,-6.369" style="fill:rgb(0,98,87);fill-rule:nonzero;"/>
                    </g>
                    <g transform="matrix(0,1,1,0,484.218,344.87)">
                        <path d="M6.369,-6.369C2.851,-6.369 -0,-3.518 -0,0C-0,3.518 2.851,6.369 6.369,6.369C9.887,6.369 12.738,3.518 12.738,0C12.738,-3.518 9.887,-6.369 6.369,-6.369" style="fill:rgb(0,98,87);fill-rule:nonzero;"/>
                    </g>
                    <g transform="matrix(0,1,1,0,389.066,655.257)">
                        <path d="M6.369,-6.369C2.851,-6.369 -0,-3.517 -0,0C-0,3.518 2.851,6.369 6.369,6.369C9.887,6.369 12.738,3.518 12.738,0C12.738,-3.517 9.887,-6.369 6.369,-6.369" style="fill:rgb(0,98,87);fill-rule:nonzero;"/>
                    </g>
                    <g transform="matrix(0,1,1,0,342.528,577.173)">
                        <path d="M6.369,-6.369C2.851,-6.369 -0,-3.517 -0,0C-0,3.518 2.851,6.369 6.369,6.369C9.887,6.369 12.738,3.518 12.738,0C12.738,-3.517 9.887,-6.369 6.369,-6.369" style="fill:rgb(0,98,87);fill-rule:nonzero;"/>
                    </g>
                    <g transform="matrix(0,1,1,0,277.058,367.407)">
                        <path d="M5.309,-5.309C2.377,-5.309 -0,-2.932 -0,0C-0,2.932 2.377,5.309 5.309,5.309C8.241,5.309 10.618,2.932 10.618,0C10.618,-2.932 8.241,-5.309 5.309,-5.309" style="fill:rgb(0,98,87);fill-rule:nonzero;"/>
                    </g>
                    <g transform="matrix(0,1,1,0,309.791,504.872)">
                        <path d="M5.309,-5.309C2.377,-5.309 -0,-2.932 -0,0C-0,2.932 2.377,5.309 5.309,5.309C8.241,5.309 10.618,2.932 10.618,0C10.618,-2.932 8.241,-5.309 5.309,-5.309" style="fill:rgb(0,98,87);fill-rule:nonzero;"/>
                    </g>
                    <g transform="matrix(0,1,1,0,241.909,406.553)">
                        <path d="M5.309,-5.309C2.377,-5.309 -0,-2.932 -0,0C-0,2.932 2.377,5.309 5.309,5.309C8.241,5.309 10.618,2.932 10.618,0C10.618,-2.932 8.241,-5.309 5.309,-5.309" style="fill:rgb(0,98,87);fill-rule:nonzero;"/>
                    </g>
                    <g transform="matrix(0,1,1,0,445.381,608.786)">
                        <path d="M5.309,-5.309C2.377,-5.309 -0,-2.932 -0,0C-0,2.932 2.377,5.309 5.309,5.309C8.241,5.309 10.618,2.932 10.618,0C10.618,-2.932 8.241,-5.309 5.309,-5.309" style="fill:rgb(0,98,87);fill-rule:nonzero;"/>
                    </g>
                    <g transform="matrix(0,1,1,0,277.058,473.784)">
                        <path d="M5.309,-5.309C2.377,-5.309 -0,-2.932 -0,0C-0,2.932 2.377,5.309 5.309,5.309C8.241,5.309 10.618,2.932 10.618,0C10.618,-2.932 8.241,-5.309 5.309,-5.309" style="fill:rgb(0,98,87);fill-rule:nonzero;"/>
                    </g>
                    <g transform="matrix(0,1,1,0,526.507,362.098)">
                        <path d="M5.309,-5.309C2.377,-5.309 -0,-2.932 -0,0C-0,2.932 2.377,5.309 5.309,5.309C8.241,5.309 10.618,2.932 10.618,0C10.618,-2.932 8.241,-5.309 5.309,-5.309" style="fill:rgb(0,98,87);fill-rule:nonzero;"/>
                    </g>
                    <g transform="matrix(0,1,1,0,597.93,372.716)">
                        <path d="M5.309,-5.309C2.377,-5.309 -0,-2.932 -0,0C-0,2.932 2.377,5.309 5.309,5.309C8.241,5.309 10.618,2.932 10.618,0C10.618,-2.932 8.241,-5.309 5.309,-5.309" style="fill:rgb(0,98,87);fill-rule:nonzero;"/>
                    </g>
                    <g transform="matrix(0,1,1,0,424.981,347.741)">
                        <path d="M5.309,-5.309C2.377,-5.309 -0,-2.932 -0,0C-0,2.932 2.377,5.309 5.309,5.309C8.241,5.309 10.618,2.932 10.618,0C10.618,-2.932 8.241,-5.309 5.309,-5.309" style="fill:rgb(0,98,87);fill-rule:nonzero;"/>
                    </g>
                    <g transform="matrix(0,1,1,0,396.52,589.42)">
                        <path d="M5.309,-5.309C2.377,-5.309 -0,-2.932 -0,0C-0,2.932 2.377,5.309 5.309,5.309C8.241,5.309 10.618,2.932 10.618,0C10.618,-2.932 8.241,-5.309 5.309,-5.309" style="fill:rgb(0,98,87);fill-rule:nonzero;"/>
                    </g>
                    <g transform="matrix(0,1,1,0,461.571,313.385)">
                        <path d="M5.309,-5.309C2.377,-5.309 -0,-2.932 -0,0C-0,2.932 2.377,5.309 5.309,5.309C8.241,5.309 10.618,2.932 10.618,0C10.618,-2.932 8.241,-5.309 5.309,-5.309" style="fill:rgb(0,98,87);fill-rule:nonzero;"/>
                    </g>
                    <g transform="matrix(0,1,1,0,621.92,362.488)">
                        <path d="M12.583,-12.583C5.634,-12.583 0,-6.949 0,0C0,6.949 5.634,12.583 12.583,12.583C19.532,12.583 25.166,6.949 25.166,0C25.166,-6.949 19.532,-12.583 12.583,-12.583" style="fill:rgb(0,98,87);fill-rule:nonzero;"/>
                    </g>
                    <g transform="matrix(0,1,1,0,256.67,382.045)">
                        <path d="M12.583,-12.583C5.634,-12.583 0,-6.95 0,0C0,6.949 5.634,12.583 12.583,12.583C19.532,12.583 25.166,6.949 25.166,0C25.166,-6.95 19.532,-12.583 12.583,-12.583" style="fill:rgb(0,98,87);fill-rule:nonzero;"/>
                    </g>
                    <g transform="matrix(0,1,1,0,505.605,567.02)">
                        <path d="M10.227,-10.227C4.578,-10.227 -0,-5.648 -0,0C-0,5.649 4.578,10.227 10.227,10.227C15.877,10.227 20.455,5.649 20.455,0C20.455,-5.648 15.877,-10.227 10.227,-10.227" style="fill:rgb(0,98,87);fill-rule:nonzero;"/>
                    </g>
                    <g transform="matrix(0,1,1,0,550.467,356.013)">
                        <path d="M10.227,-10.227C4.578,-10.227 -0,-5.648 -0,0C-0,5.649 4.578,10.227 10.227,10.227C15.877,10.227 20.455,5.649 20.455,0C20.455,-5.648 15.877,-10.227 10.227,-10.227" style="fill:rgb(0,98,87);fill-rule:nonzero;"/>
                    </g>
                    <g transform="matrix(0,1,1,0,494.854,312.133)">
                        <path d="M10.227,-10.227C4.578,-10.227 -0,-5.648 -0,0C-0,5.649 4.578,10.227 10.227,10.227C15.877,10.227 20.455,5.649 20.455,0C20.455,-5.648 15.877,-10.227 10.227,-10.227" style="fill:rgb(0,98,87);fill-rule:nonzero;"/>
                    </g>
                    <g transform="matrix(0,1,1,0,322.436,352.261)">
                        <path d="M10.227,-10.227C4.578,-10.227 -0,-5.648 -0,0C-0,5.649 4.578,10.227 10.227,10.227C15.877,10.227 20.455,5.649 20.455,0C20.455,-5.648 15.877,-10.227 10.227,-10.227" style="fill:rgb(0,98,87);fill-rule:nonzero;"/>
                    </g>
                    <g transform="matrix(0,1,1,0,402.17,672.765)">
                        <path d="M10.227,-10.227C4.578,-10.227 -0,-5.648 -0,0C-0,5.649 4.578,10.227 10.227,10.227C15.877,10.227 20.455,5.649 20.455,0C20.455,-5.648 15.877,-10.227 10.227,-10.227" style="fill:rgb(0,98,87);fill-rule:nonzero;"/>
                    </g>
                    <g transform="matrix(0,1,1,0,613.805,391.407)">
                        <path d="M10.227,-10.227C4.578,-10.227 -0,-5.648 -0,0C-0,5.649 4.578,10.227 10.227,10.227C15.877,10.227 20.455,5.649 20.455,0C20.455,-5.648 15.877,-10.227 10.227,-10.227" style="fill:rgb(0,98,87);fill-rule:nonzero;"/>
                    </g>
                    <g transform="matrix(0,1,1,0,340.173,552.526)">
                        <path d="M10.227,-10.227C4.578,-10.227 -0,-5.648 -0,0C-0,5.649 4.578,10.227 10.227,10.227C15.877,10.227 20.455,5.649 20.455,0C20.455,-5.648 15.877,-10.227 10.227,-10.227" style="fill:rgb(0,98,87);fill-rule:nonzero;"/>
                    </g>
                    <g transform="matrix(0,1,1,0,260.926,413.229)">
                        <path d="M10.227,-10.227C4.578,-10.227 -0,-5.648 -0,0C-0,5.649 4.578,10.227 10.227,10.227C15.877,10.227 20.455,5.649 20.455,0C20.455,-5.648 15.877,-10.227 10.227,-10.227" style="fill:rgb(0,98,87);fill-rule:nonzero;"/>
                    </g>
                    <g transform="matrix(0,1,1,0,299.625,478.552)">
                        <path d="M12.583,-12.583C5.634,-12.583 0,-6.949 0,0C0,6.949 5.634,12.583 12.583,12.583C19.532,12.583 25.166,6.949 25.166,0C25.166,-6.949 19.532,-12.583 12.583,-12.583" style="fill:rgb(0,98,87);fill-rule:nonzero;"/>
                    </g>
                    <g transform="matrix(0,1,1,0,342.529,393.956)">
                        <path d="M12.583,-12.583C5.634,-12.583 0,-6.95 0,0C0,6.949 5.634,12.583 12.583,12.583C19.532,12.583 25.166,6.949 25.166,0C25.166,-6.95 19.532,-12.583 12.583,-12.583" style="fill:rgb(0,98,87);fill-rule:nonzero;"/>
                    </g>
                    <g transform="matrix(0,1,1,0,534.88,381.373)">
                        <path d="M12.583,-12.583C5.634,-12.583 0,-6.949 0,0C0,6.949 5.634,12.583 12.583,12.583C19.532,12.583 25.166,6.949 25.166,0C25.166,-6.949 19.532,-12.583 12.583,-12.583" style="fill:rgb(0,98,87);fill-rule:nonzero;"/>
                    </g>
                    <g transform="matrix(0,1,1,0,428.16,582.146)">
                        <path d="M12.583,-12.583C5.634,-12.583 0,-6.949 0,0C0,6.949 5.634,12.583 12.583,12.583C19.532,12.583 25.166,6.949 25.166,0C25.166,-6.949 19.532,-12.583 12.583,-12.583" style="fill:rgb(0,98,87);fill-rule:nonzero;"/>
                    </g>
                    <g transform="matrix(0,1,1,0,638.277,318.694)">
                        <path d="M12.583,-12.583C5.634,-12.583 0,-6.949 0,0C0,6.949 5.634,12.583 12.583,12.583C19.532,12.583 25.166,6.949 25.166,0C25.166,-6.949 19.532,-12.583 12.583,-12.583" style="fill:rgb(0,98,87);fill-rule:nonzero;"/>
                    </g>
                    <g transform="matrix(0,1,1,0,287.042,434.127)">
                        <path d="M17.901,-17.901C8.014,-17.901 0,-9.886 0,0C0,9.887 8.014,17.901 17.901,17.901C27.788,17.901 35.802,9.887 35.802,0C35.802,-9.886 27.788,-17.901 17.901,-17.901" style="fill:rgb(0,98,87);fill-rule:nonzero;"/>
                    </g>
                    <g transform="matrix(0,1,1,0,471.307,578.292)">
                        <path d="M17.901,-17.901C8.014,-17.901 0,-9.886 0,0C0,9.887 8.014,17.901 17.901,17.901C27.788,17.901 35.802,9.887 35.802,0C35.802,-9.886 27.788,-17.901 17.901,-17.901" style="fill:rgb(0,98,87);fill-rule:nonzero;"/>
                    </g>
                    <g transform="matrix(0,1,1,0,224.007,335.149)">
                        <path d="M17.901,-17.901C8.014,-17.901 0,-9.886 0,0C0,9.887 8.014,17.901 17.901,17.901C27.788,17.901 35.802,9.887 35.802,0C35.802,-9.886 27.788,-17.901 17.901,-17.901" style="fill:rgb(0,98,87);fill-rule:nonzero;"/>
                    </g>
                    <g transform="matrix(0,1,1,0,539.773,312.133)">
                        <path d="M19.144,-19.144C8.571,-19.144 0,-10.573 0,0C0,10.573 8.571,19.144 19.144,19.144C29.717,19.144 38.288,10.573 38.288,0C38.288,-10.573 29.717,-19.144 19.144,-19.144" style="fill:rgb(0,98,87);fill-rule:nonzero;"/>
                    </g>
                    <g transform="matrix(0,1,1,0,301.581,372.419)">
                        <path d="M23.933,-23.933C10.715,-23.933 0,-13.218 0,0C0,13.218 10.715,23.933 23.933,23.933C37.151,23.933 47.866,13.218 47.866,0C47.866,-13.218 37.151,-23.933 23.933,-23.933" style="fill:rgb(0,98,87);fill-rule:nonzero;"/>
                    </g>
                    <g transform="matrix(0,1,1,0,433.168,624.08)">
                        <path d="M28.403,-28.403C12.716,-28.403 0,-15.686 0,-0C0,15.687 12.716,28.403 28.403,28.403C44.091,28.403 56.807,15.687 56.807,-0C56.807,-15.686 44.091,-28.403 28.403,-28.403" style="fill:rgb(0,98,87);fill-rule:nonzero;"/>
                    </g>
                    <g transform="matrix(1,0,0,1,311.313,758.979)">
                        <path d="M67.947,-340.657L0,-458.009L-154.353,-462.337L108.912,4.328L388.046,-460.894L56.259,-459.452L119.967,-351.768" style="fill:none;fill-rule:nonzero;stroke:rgb(0,97,86);stroke-width:12.62px;stroke-linecap:round;"/>
                    </g>
                    <g transform="matrix(0,1,1,0,452.513,483.41)">
                        <path d="M44.267,-44.267C24.894,-44.267 9.19,-24.447 9.19,-0C9.19,24.448 24.894,44.267 44.267,44.267C63.64,44.267 79.344,24.448 79.344,-0C79.344,-24.447 63.64,-44.267 44.267,-44.267" style="fill:rgb(0,98,87);fill-rule:nonzero;"/>
                    </g>
                    <g transform="matrix(0,1,1,0,452.513,483.41)">
                        <ellipse cx="44.267" cy="0" rx="35.077" ry="44.267" style="fill:white;stroke:rgb(0,97,86);stroke-width:6.89px;"/>
                    </g>
                    <g transform="matrix(-0.365327,0.930879,0.930879,0.365327,402.898,500.541)">
                        <path d="M17.983,-26.375C11.526,-26.375 6.29,-17.726 6.291,-7.057C6.291,3.612 11.525,12.261 17.983,12.261C24.441,12.261 29.676,3.612 29.676,-7.057C29.676,-17.726 24.441,-26.375 17.983,-26.375" style="fill:rgb(0,98,87);fill-rule:nonzero;"/>
                    </g>
                    <g transform="matrix(-0.365327,0.930879,0.930879,0.365327,402.898,500.541)">
                        <ellipse cx="17.983" cy="-7.057" rx="11.693" ry="19.318" style="fill:white;stroke:rgb(0,97,86);stroke-width:6.69px;"/>
                    </g>
                    <g transform="matrix(0,1,1,0,485.455,456.803)">
                        <path d="M29.485,-29.485C16.289,-29.485 5.592,-16.285 5.592,-0.001C5.592,16.285 16.289,29.485 29.485,29.485C42.682,29.485 53.379,16.285 53.379,-0.001C53.379,-16.285 42.682,-29.485 29.485,-29.485" style="fill:rgb(0,98,87);fill-rule:nonzero;"/>
                    </g>
                    <g transform="matrix(0,1,1,0,485.455,456.803)">
                        <ellipse cx="29.485" cy="0" rx="23.893" ry="29.485" style="fill:white;stroke:rgb(0,83,74);stroke-width:6.9px;"/>
                    </g>
                    <g transform="matrix(-0.400507,0.916294,0.916294,0.400507,491.616,438.769)">
                        <path d="M10.778,-16.474C1.794,-16.474 -5.49,-11.207 -5.49,-4.711C-5.49,1.786 1.794,7.051 10.778,7.052C19.762,7.052 27.046,1.785 27.046,-4.711C27.046,-11.208 19.762,-16.473 10.778,-16.474" style="fill:rgb(0,98,87);fill-rule:nonzero;"/>
                    </g>
                    <g transform="matrix(-0.400507,0.916294,0.916294,0.400507,491.616,438.769)">
                        <ellipse cx="10.778" cy="-4.711" rx="16.268" ry="11.763" style="fill:white;stroke:rgb(0,83,74);stroke-width:6.89px;"/>
                    </g>
                    <g transform="matrix(1,0,0,1,442.361,560.94)">
                        <path d="M0,-36.76C6.261,-38.574 26.708,-35.125 28.652,-24.362C30.75,-12.739 21.299,-4.435 10.152,1.814" style="fill:white;fill-rule:nonzero;stroke:rgb(0,83,74);stroke-width:6.89px;"/>
                    </g>
                    <g transform="matrix(0,1,1,0,494.855,480.417)">
                        <path d="M3.959,-3.959C1.773,-3.959 0.001,-2.186 0.001,-0.001C0.001,2.185 1.773,3.959 3.959,3.959C6.145,3.959 7.916,2.185 7.916,-0.001C7.916,-2.186 6.145,-3.959 3.959,-3.959" style="fill:rgb(0,97,86);fill-rule:nonzero;"/>
                    </g>
                    <g transform="matrix(0,1,1,0,494.855,480.417)">
                        <ellipse cx="3.958" cy="0" rx="3.958" ry="3.959" style="fill:rgb(0,97,86);stroke:rgb(0,98,87);stroke-width:2.03px;"/>
                    </g>
                </g>
                <g transform="matrix(0.206571,0,0,0.243349,-3047.11,-5615.23)">
                    <path d="M17117.5,24445.7C17130,24445.2 17142.7,24445 17155.5,24445C17462.1,24445 17711,24587.9 17711,24764C17711,24940.1 17462.1,25083 17155.5,25083C16848.9,25083 16600,24940.1 16600,24764C16600,24647 16701.1,24546 16864.9,24490.5" style="fill:none;stroke:rgb(0,97,86);stroke-width:55.82px;stroke-linecap:round;stroke-linejoin:round;stroke-miterlimit:1.5;"/>
                </g>
            </g>
            <g transform="matrix(1,0,0,1,-82.08,-78.4011)">
                <g transform="matrix(1,0,0,1,1121.12,545.289)">
                    <path d="M0,-69.03C14.455,-70.125 65.004,1.095 94.404,1.095C114.658,1.095 138.877,-30.13 154.793,-38.712" style="fill:none;fill-rule:nonzero;stroke:rgb(0,137,184);stroke-width:5.45px;"/>
                </g>
                <g transform="matrix(0.975576,0.219662,0.219662,-0.975576,1204.68,570.186)">
                    <path d="M-2.433,-17.23C26.852,5.743 115.894,-47.053 153.912,-17.23" style="fill:none;fill-rule:nonzero;stroke:rgb(0,137,184);stroke-width:5.45px;"/>
                </g>
                <g transform="matrix(1,0,0,1,993.44,718.105)">
                    <path d="M0,5.291C9.048,-3.757 37.509,-32.036 63.264,-31.185C91.473,-30.252 138.074,25.456 152.998,37.327" style="fill:none;fill-rule:nonzero;stroke:rgb(0,137,184);stroke-width:5.45px;"/>
                </g>
                <g transform="matrix(1,0,0,1,1238.05,732.863)">
                    <path d="M0,-3.855C10.26,-3.201 23.897,-18.315 54.951,-19.351C90.019,-20.522 129.45,15.498 155.24,16.667" style="fill:none;fill-rule:nonzero;stroke:rgb(0,137,184);stroke-width:5.45px;"/>
                </g>
                <g transform="matrix(0,1,1,0,1159.21,719.82)">
                    <path d="M7.487,-7.487C3.352,-7.487 -0,-4.135 -0,0C-0,4.135 3.352,7.487 7.487,7.487C11.622,7.487 14.974,4.135 14.974,0C14.974,-4.135 11.622,-7.487 7.487,-7.487" style="fill:rgb(0,137,184);fill-rule:nonzero;"/>
                </g>
                <g transform="matrix(0,1,1,0,1159.21,441.218)">
                    <path d="M7.487,-7.487C3.352,-7.487 -0,-4.135 -0,0C-0,4.135 3.352,7.487 7.487,7.487C11.622,7.487 14.974,4.135 14.974,0C14.974,-4.135 11.622,-7.487 7.487,-7.487" style="fill:rgb(0,137,184);fill-rule:nonzero;"/>
                </g>
                <g transform="matrix(0,1,1,0,1022.49,727.307)">
                    <path d="M7.487,-7.487C3.352,-7.487 -0,-4.135 -0,0C-0,4.135 3.352,7.487 7.487,7.487C11.622,7.487 14.974,4.135 14.974,0C14.974,-4.135 11.622,-7.487 7.487,-7.487" style="fill:rgb(0,137,184);fill-rule:nonzero;"/>
                </g>
                <g transform="matrix(0,1,1,0,1358.05,697.217)">
                    <path d="M7.487,-7.487C3.352,-7.487 0,-4.135 0,0C0,4.135 3.352,7.487 7.487,7.487C11.622,7.487 14.974,4.135 14.974,0C14.974,-4.135 11.622,-7.487 7.487,-7.487" style="fill:rgb(0,137,184);fill-rule:nonzero;"/>
                </g>
                <g transform="matrix(0,1,1,0,1057.21,697.218)">
                    <path d="M6.72,-6.72C3.008,-6.72 -0.001,-3.711 -0.001,0.001C-0.001,3.712 3.008,6.72 6.72,6.72C10.432,6.72 13.442,3.712 13.442,0.001C13.442,-3.711 10.432,-6.72 6.72,-6.72" style="fill:rgb(0,137,184);fill-rule:nonzero;"/>
                </g>
                <g transform="matrix(0,1,1,0,1157.07,537.221)">
                    <path d="M6.72,-6.72C3.008,-6.72 -0.001,-3.711 -0.001,0.001C-0.001,3.712 3.008,6.72 6.72,6.72C10.432,6.72 13.442,3.712 13.442,0.001C13.442,-3.711 10.432,-6.72 6.72,-6.72" style="fill:rgb(0,137,184);fill-rule:nonzero;"/>
                </g>
                <g transform="matrix(0,1,1,0,1022.49,652.331)">
                    <path d="M6.72,-6.72C3.008,-6.72 -0.001,-3.711 -0.001,0.001C-0.001,3.712 3.008,6.72 6.72,6.72C10.432,6.72 13.442,3.712 13.442,0.001C13.442,-3.711 10.432,-6.72 6.72,-6.72" style="fill:rgb(0,137,184);fill-rule:nonzero;"/>
                </g>
                <g transform="matrix(0,1,1,0,1179.1,415.511)">
                    <path d="M6.72,-6.72C3.008,-6.72 -0.001,-3.711 -0.001,0.001C-0.001,3.712 3.008,6.72 6.72,6.72C10.432,6.72 13.442,3.712 13.442,0.001C13.442,-3.711 10.432,-6.72 6.72,-6.72" style="fill:rgb(0,137,184);fill-rule:nonzero;"/>
                </g>
                <g transform="matrix(0,1,1,0,1123.04,697.984)">
                    <path d="M6.72,-6.72C3.008,-6.72 -0.001,-3.711 -0.001,0.001C-0.001,3.712 3.008,6.72 6.72,6.72C10.432,6.72 13.442,3.712 13.442,0.001C13.442,-3.711 10.432,-6.72 6.72,-6.72" style="fill:rgb(0,137,184);fill-rule:nonzero;"/>
                </g>
                <g transform="matrix(0,1,1,0,1231.49,549.527)">
                    <path d="M3.16,-3.16C1.415,-3.16 0.001,-1.745 0.001,-0.001C0.001,1.745 1.415,3.16 3.16,3.16C4.904,3.16 6.319,1.745 6.319,-0.001C6.319,-1.745 4.904,-3.16 3.16,-3.16" style="fill:rgb(0,137,184);fill-rule:nonzero;"/>
                </g>
                <g transform="matrix(0,1,1,0,1151.73,517.286)">
                    <path d="M3.16,-3.16C1.415,-3.16 0.001,-1.745 0.001,-0.001C0.001,1.745 1.415,3.16 3.16,3.16C4.904,3.16 6.319,1.745 6.319,-0.001C6.319,-1.745 4.904,-3.16 3.16,-3.16" style="fill:rgb(0,137,184);fill-rule:nonzero;"/>
                </g>
                <g transform="matrix(0,1,1,0,1074.61,580.03)">
                    <path d="M3.16,-3.16C1.415,-3.16 0.001,-1.745 0.001,-0.001C0.001,1.745 1.415,3.16 3.16,3.16C4.904,3.16 6.319,1.745 6.319,-0.001C6.319,-1.745 4.904,-3.16 3.16,-3.16" style="fill:rgb(0,137,184);fill-rule:nonzero;"/>
                </g>
                <g transform="matrix(0,1,1,0,1122.54,671.783)">
                    <path d="M3.16,-3.16C1.415,-3.16 0.001,-1.745 0.001,-0.001C0.001,1.745 1.415,3.16 3.16,3.16C4.904,3.16 6.319,1.745 6.319,-0.001C6.319,-1.745 4.904,-3.16 3.16,-3.16" style="fill:rgb(0,137,184);fill-rule:nonzero;"/>
                </g>
                <g transform="matrix(0,1,1,0,1004.06,735.069)">
                    <path d="M3.16,-3.16C1.415,-3.16 0.001,-1.745 0.001,-0.001C0.001,1.745 1.415,3.16 3.16,3.16C4.904,3.16 6.319,1.745 6.319,-0.001C6.319,-1.745 4.904,-3.16 3.16,-3.16" style="fill:rgb(0,137,184);fill-rule:nonzero;"/>
                </g>
                <g transform="matrix(0,1,1,0,1087.43,637.17)">
                    <path d="M3.16,-3.16C1.415,-3.16 0.001,-1.745 0.001,-0.001C0.001,1.745 1.415,3.16 3.16,3.16C4.904,3.16 6.319,1.745 6.319,-0.001C6.319,-1.745 4.904,-3.16 3.16,-3.16" style="fill:rgb(0,137,184);fill-rule:nonzero;"/>
                </g>
                <g transform="matrix(0,1,1,0,1320.12,606.469)">
                    <path d="M3.16,-3.16C1.415,-3.16 0.001,-1.745 0.001,-0.001C0.001,1.745 1.415,3.16 3.16,3.16C4.904,3.16 6.319,1.745 6.319,-0.001C6.319,-1.745 4.904,-3.16 3.16,-3.16" style="fill:rgb(0,137,184);fill-rule:nonzero;"/>
                </g>
                <g transform="matrix(0,1,1,0,1182.15,473.087)">
                    <path d="M3.16,-3.16C1.415,-3.16 0.001,-1.745 0.001,-0.001C0.001,1.745 1.415,3.16 3.16,3.16C4.904,3.16 6.319,1.745 6.319,-0.001C6.319,-1.745 4.904,-3.16 3.16,-3.16" style="fill:rgb(0,137,184);fill-rule:nonzero;"/>
                </g>
                <g transform="matrix(0,1,1,0,1213.53,390.72)">
                    <path d="M3.16,-3.16C1.415,-3.16 0.001,-1.745 0.001,-0.001C0.001,1.745 1.415,3.16 3.16,3.16C4.904,3.16 6.319,1.745 6.319,-0.001C6.319,-1.745 4.904,-3.16 3.16,-3.16" style="fill:rgb(0,137,184);fill-rule:nonzero;"/>
                </g>
                <g transform="matrix(0,1,1,0,1188.87,685.821)">
                    <path d="M6.72,-6.72C3.008,-6.72 -0.001,-3.711 -0.001,0.001C-0.001,3.712 3.008,6.72 6.72,6.72C10.432,6.72 13.442,3.712 13.442,0.001C13.442,-3.711 10.432,-6.72 6.72,-6.72" style="fill:rgb(0,137,184);fill-rule:nonzero;"/>
                </g>
                <g transform="matrix(0,1,1,0,1274.78,519.078)">
                    <path d="M6.72,-6.72C3.008,-6.72 -0.001,-3.711 -0.001,0.001C-0.001,3.712 3.008,6.72 6.72,6.72C10.432,6.72 13.442,3.712 13.442,0.001C13.442,-3.711 10.432,-6.72 6.72,-6.72" style="fill:rgb(0,137,184);fill-rule:nonzero;"/>
                </g>
                <g transform="matrix(0,1,1,0,1208.09,735.09)">
                    <path d="M6.72,-6.72C3.008,-6.72 -0.001,-3.711 -0.001,0.001C-0.001,3.712 3.008,6.72 6.72,6.72C10.432,6.72 13.442,3.712 13.442,0.001C13.442,-3.711 10.432,-6.72 6.72,-6.72" style="fill:rgb(0,137,184);fill-rule:nonzero;"/>
                </g>
                <g transform="matrix(0,1,1,0,1378.26,724.787)">
                    <path d="M6.72,-6.72C3.008,-6.72 -0.001,-3.711 -0.001,0.001C-0.001,3.712 3.008,6.72 6.72,6.72C10.432,6.72 13.442,3.712 13.442,0.001C13.442,-3.711 10.432,-6.72 6.72,-6.72" style="fill:rgb(0,137,184);fill-rule:nonzero;"/>
                </g>
                <g transform="matrix(0,1,1,0,1268.06,724.787)">
                    <path d="M6.72,-6.72C3.008,-6.72 -0.001,-3.711 -0.001,0.001C-0.001,3.712 3.008,6.72 6.72,6.72C10.432,6.72 13.442,3.712 13.442,0.001C13.442,-3.711 10.432,-6.72 6.72,-6.72" style="fill:rgb(0,137,184);fill-rule:nonzero;"/>
                </g>
                <g transform="matrix(0,1,1,0,1274.78,623.213)">
                    <path d="M6.72,-6.72C3.008,-6.72 -0.001,-3.711 -0.001,0.001C-0.001,3.712 3.008,6.72 6.72,6.72C10.432,6.72 13.442,3.712 13.442,0.001C13.442,-3.711 10.432,-6.72 6.72,-6.72" style="fill:rgb(0,137,184);fill-rule:nonzero;"/>
                </g>
                <g transform="matrix(0,1,1,0,1134.38,509.776)">
                    <path d="M4.677,-4.677C2.094,-4.677 -0,-2.583 -0,0C-0,2.582 2.094,4.677 4.677,4.677C7.26,4.677 9.354,2.582 9.354,0C9.354,-2.583 7.26,-4.677 4.677,-4.677" style="fill:rgb(0,137,184);fill-rule:nonzero;"/>
                </g>
                <g transform="matrix(0,1,1,0,1106.99,512.61)">
                    <path d="M4.677,-4.677C2.094,-4.677 -0,-2.583 -0,0C-0,2.582 2.094,4.677 4.677,4.677C7.26,4.677 9.354,2.582 9.354,0C9.354,-2.583 7.26,-4.677 4.677,-4.677" style="fill:rgb(0,137,184);fill-rule:nonzero;"/>
                </g>
                <g transform="matrix(0,1,1,0,1292.73,564.278)">
                    <path d="M4.677,-4.677C2.094,-4.677 -0,-2.583 -0,0C-0,2.582 2.094,4.677 4.677,4.677C7.26,4.677 9.354,2.582 9.354,0C9.354,-2.583 7.26,-4.677 4.677,-4.677" style="fill:rgb(0,137,184);fill-rule:nonzero;"/>
                </g>
                <g transform="matrix(0,1,1,0,1234.74,667.107)">
                    <path d="M4.677,-4.677C2.094,-4.677 -0,-2.583 -0,0C-0,2.582 2.094,4.677 4.677,4.677C7.26,4.677 9.354,2.582 9.354,0C9.354,-2.583 7.26,-4.677 4.677,-4.677" style="fill:rgb(0,137,184);fill-rule:nonzero;"/>
                </g>
                <g transform="matrix(0,1,1,0,1102.31,733.552)">
                    <path d="M4.677,-4.677C2.094,-4.677 -0,-2.583 -0,0C-0,2.582 2.094,4.677 4.677,4.677C7.26,4.677 9.354,2.582 9.354,0C9.354,-2.583 7.26,-4.677 4.677,-4.677" style="fill:rgb(0,137,184);fill-rule:nonzero;"/>
                </g>
                <g transform="matrix(0,1,1,0,999.384,692.541)">
                    <path d="M4.677,-4.677C2.094,-4.677 -0,-2.583 -0,0C-0,2.582 2.094,4.677 4.677,4.677C7.26,4.677 9.354,2.582 9.354,0C9.354,-2.583 7.26,-4.677 4.677,-4.677" style="fill:rgb(0,137,184);fill-rule:nonzero;"/>
                </g>
                <g transform="matrix(0,1,1,0,1292.73,598.339)">
                    <path d="M4.677,-4.677C2.094,-4.677 -0,-2.583 -0,0C-0,2.582 2.094,4.677 4.677,4.677C7.26,4.677 9.354,2.582 9.354,0C9.354,-2.583 7.26,-4.677 4.677,-4.677" style="fill:rgb(0,137,184);fill-rule:nonzero;"/>
                </g>
                <g transform="matrix(0,1,1,0,1281.5,672.066)">
                    <path d="M4.677,-4.677C2.094,-4.677 -0,-2.583 -0,0C-0,2.582 2.094,4.677 4.677,4.677C7.26,4.677 9.354,2.582 9.354,0C9.354,-2.583 7.26,-4.677 4.677,-4.677" style="fill:rgb(0,137,184);fill-rule:nonzero;"/>
                </g>
                <g transform="matrix(0,1,1,0,1185.31,371.249)">
                    <path d="M4.677,-4.677C2.094,-4.677 -0,-2.583 -0,0C-0,2.582 2.094,4.677 4.677,4.677C7.26,4.677 9.354,2.582 9.354,0C9.354,-2.583 7.26,-4.677 4.677,-4.677" style="fill:rgb(0,137,184);fill-rule:nonzero;"/>
                </g>
                <g transform="matrix(0,1,1,0,1218.2,479.903)">
                    <path d="M4.677,-4.677C2.094,-4.677 -0,-2.583 -0,0C-0,2.582 2.094,4.677 4.677,4.677C7.26,4.677 9.354,2.582 9.354,0C9.354,-2.583 7.26,-4.677 4.677,-4.677" style="fill:rgb(0,137,184);fill-rule:nonzero;"/>
                </g>
                <g transform="matrix(0,1,1,0,1222.88,441.386)">
                    <path d="M4.677,-4.677C2.094,-4.677 -0,-2.583 -0,0C-0,2.582 2.094,4.677 4.677,4.677C7.26,4.677 9.354,2.582 9.354,0C9.354,-2.583 7.26,-4.677 4.677,-4.677" style="fill:rgb(0,137,184);fill-rule:nonzero;"/>
                </g>
                <g transform="matrix(0,1,1,0,1218.2,593.662)">
                    <path d="M4.677,-4.677C2.094,-4.677 -0,-2.583 -0,0C-0,2.582 2.094,4.677 4.677,4.677C7.26,4.677 9.354,2.582 9.354,0C9.354,-2.583 7.26,-4.677 4.677,-4.677" style="fill:rgb(0,137,184);fill-rule:nonzero;"/>
                </g>
                <g transform="matrix(0,1,1,0,1331.68,700.028)">
                    <path d="M4.677,-4.677C2.094,-4.677 -0,-2.583 -0,0C-0,2.582 2.094,4.677 4.677,4.677C7.26,4.677 9.354,2.582 9.354,0C9.354,-2.583 7.26,-4.677 4.677,-4.677" style="fill:rgb(0,137,184);fill-rule:nonzero;"/>
                </g>
                <g transform="matrix(0,1,1,0,1074.61,704.704)">
                    <path d="M4.677,-4.677C2.094,-4.677 -0,-2.583 -0,0C-0,2.582 2.094,4.677 4.677,4.677C7.26,4.677 9.354,2.582 9.354,0C9.354,-2.583 7.26,-4.677 4.677,-4.677" style="fill:rgb(0,137,184);fill-rule:nonzero;"/>
                </g>
                <g transform="matrix(0,1,1,0,1050.49,647.654)">
                    <path d="M4.677,-4.677C2.094,-4.677 -0,-2.583 -0,0C-0,2.582 2.094,4.677 4.677,4.677C7.26,4.677 9.354,2.582 9.354,0C9.354,-2.583 7.26,-4.677 4.677,-4.677" style="fill:rgb(0,137,184);fill-rule:nonzero;"/>
                </g>
                <g transform="matrix(0,1,1,0,1336.36,753.634)">
                    <path d="M4.677,-4.677C2.094,-4.677 -0,-2.583 -0,0C-0,2.582 2.094,4.677 4.677,4.677C7.26,4.677 9.354,2.582 9.354,0C9.354,-2.583 7.26,-4.677 4.677,-4.677" style="fill:rgb(0,137,184);fill-rule:nonzero;"/>
                </g>
                <g transform="matrix(0,1,1,0,1222.88,525.798)">
                    <path d="M4.677,-4.677C2.094,-4.677 -0,-2.583 -0,0C-0,2.582 2.094,4.677 4.677,4.677C7.26,4.677 9.354,2.582 9.354,0C9.354,-2.583 7.26,-4.677 4.677,-4.677" style="fill:rgb(0,137,184);fill-rule:nonzero;"/>
                </g>
                <g transform="matrix(0,1,1,0,1255.37,542.903)">
                    <path d="M7.487,-7.487C3.352,-7.487 -0,-4.135 -0,0C-0,4.135 3.352,7.487 7.487,7.487C11.622,7.487 14.974,4.135 14.974,0C14.974,-4.135 11.622,-7.487 7.487,-7.487" style="fill:rgb(0,137,184);fill-rule:nonzero;"/>
                </g>
                <g transform="matrix(0,1,1,0,1194.19,515.501)">
                    <path d="M7.487,-7.487C3.352,-7.487 0,-4.135 0,0C0,4.135 3.352,7.487 7.487,7.487C11.622,7.487 14.974,4.135 14.974,0C14.974,-4.135 11.622,-7.487 7.487,-7.487" style="fill:rgb(0,137,184);fill-rule:nonzero;"/>
                </g>
                <g transform="matrix(0,1,1,0,1351.27,651.564)">
                    <path d="M7.487,-7.487C3.352,-7.487 0,-4.135 0,0C0,4.135 3.352,7.487 7.487,7.487C11.622,7.487 14.974,4.135 14.974,0C14.974,-4.135 11.622,-7.487 7.487,-7.487" style="fill:rgb(0,137,184);fill-rule:nonzero;"/>
                </g>
                <g transform="matrix(0,1,1,0,1253.85,468.76)">
                    <path d="M7.487,-7.487C3.352,-7.487 -0,-4.135 -0,0C-0,4.135 3.352,7.487 7.487,7.487C11.622,7.487 14.974,4.135 14.974,0C14.974,-4.135 11.622,-7.487 7.487,-7.487" style="fill:rgb(0,137,184);fill-rule:nonzero;"/>
                </g>
                <g transform="matrix(0,1,1,0,1300.22,721.172)">
                    <path d="M7.487,-7.487C3.352,-7.487 -0,-4.135 -0,0C-0,4.135 3.352,7.487 7.487,7.487C11.622,7.487 14.974,4.135 14.974,0C14.974,-4.135 11.622,-7.487 7.487,-7.487" style="fill:rgb(0,137,184);fill-rule:nonzero;"/>
                </g>
                <g transform="matrix(0,1,1,0,1114.47,533.462)">
                    <path d="M7.487,-7.487C3.352,-7.487 0,-4.135 0,0C0,4.135 3.352,7.487 7.487,7.487C11.622,7.487 14.974,4.135 14.974,0C14.974,-4.135 11.622,-7.487 7.487,-7.487" style="fill:rgb(0,137,184);fill-rule:nonzero;"/>
                </g>
                <g transform="matrix(0,1,1,0,1087.43,542.903)">
                    <path d="M7.487,-7.487C3.352,-7.487 -0,-4.135 -0,0C-0,4.135 3.352,7.487 7.487,7.487C11.622,7.487 14.974,4.135 14.974,0C14.974,-4.135 11.622,-7.487 7.487,-7.487" style="fill:rgb(0,137,184);fill-rule:nonzero;"/>
                </g>
                <g transform="matrix(0,1,1,0,1057.21,595.529)">
                    <path d="M7.487,-7.487C3.352,-7.487 -0,-4.135 -0,0C-0,4.135 3.352,7.487 7.487,7.487C11.622,7.487 14.974,4.135 14.974,0C14.974,-4.135 11.622,-7.487 7.487,-7.487" style="fill:rgb(0,137,184);fill-rule:nonzero;"/>
                </g>
                <g transform="matrix(0,1,1,0,1175.66,749.307)">
                    <path d="M7.487,-7.487C3.352,-7.487 0,-4.135 0,0C0,4.135 3.352,7.487 7.487,7.487C11.622,7.487 14.974,4.135 14.974,0C14.974,-4.135 11.622,-7.487 7.487,-7.487" style="fill:rgb(0,137,184);fill-rule:nonzero;"/>
                </g>
                <g transform="matrix(1,0,0,1,932.22,314.313)">
                    <path d="M0,458.899L260.871,-5.115L523.934,464.014L0,458.899Z" style="fill:none;fill-rule:nonzero;stroke:rgb(0,137,184);stroke-width:12.62px;"/>
                </g>
                <g transform="matrix(1,0,0,1,1139.26,576.825)">
                    <path d="M0,25.041C0,25.041 41.067,-18.915 52.324,-12.183C62.455,-6.124 39.136,43.956 39.136,43.956L0,25.041Z" style="fill:white;fill-rule:nonzero;stroke:rgb(0,137,184);stroke-width:5.45px;"/>
                </g>
                <g transform="matrix(1,0,0,1,1077.18,630.612)">
                    <path d="M0,-28.35C4.725,-31.12 20.535,-32.083 22.09,-39.51C23.583,-46.64 29.123,-58.721 43.78,-58.721C62.631,-58.721 66.722,-27.565 78.485,-26.806C82.647,-26.537 161.275,-13.683 161.275,-13.683C161.275,-13.683 143.563,30.371 73.951,30.371C34.051,26.214 37.858,-2.341 24.535,-18.181C20.837,-22.578 -3.923,-26.05 0,-28.35" style="fill:rgb(0,137,184);fill-rule:nonzero;"/>
                </g>
                <g transform="matrix(1,0,0,1,1077.18,630.612)">
                    <path d="M0,-28.35C4.725,-31.12 20.535,-32.083 22.09,-39.51C23.583,-46.64 29.123,-58.721 43.78,-58.721C62.631,-58.721 66.722,-27.565 78.485,-26.806C82.647,-26.537 161.275,-13.683 161.275,-13.683C161.275,-13.683 143.563,30.371 73.951,30.371C34.051,26.214 37.858,-2.341 24.535,-18.181C20.837,-22.578 -3.923,-26.05 0,-28.35Z" style="fill:white;fill-rule:nonzero;stroke:rgb(0,137,184);stroke-width:5.45px;"/>
                </g>
                <g transform="matrix(1,0,0,1,1136.61,684.746)">
                    <path d="M0,-54.297C0,-54.297 23.284,0 36.216,-1.462C47.231,-2.707 40.409,-46.854 40.409,-46.854" style="fill:white;fill-rule:nonzero;stroke:rgb(0,137,184);stroke-width:5.45px;"/>
                </g>
                <g transform="matrix(0,1,1,0,1116.32,589.393)">
                    <path d="M2.969,-2.969C1.33,-2.969 0.001,-1.64 0.001,-0.001C0.001,1.639 1.33,2.969 2.969,2.969C4.608,2.969 5.937,1.639 5.937,-0.001C5.937,-1.64 4.608,-2.969 2.969,-2.969" style="fill:rgb(0,137,184);fill-rule:nonzero;"/>
                </g>
            </g>
        </g>
    </g>
</svg>
