<svg xmlns="http://www.w3.org/2000/svg" viewBox="0 0 1509.96 1512.93"><defs><style>.cls-1,.cls-10,.cls-11,.cls-15,.cls-17,.cls-2,.cls-4,.cls-5,.cls-6,.cls-8,.cls-9{fill:#fff;}.cls-10,.cls-11,.cls-12,.cls-13,.cls-14,.cls-15,.cls-16,.cls-17,.cls-2,.cls-3,.cls-4,.cls-5,.cls-6,.cls-7,.cls-8,.cls-9{stroke:#000;stroke-miterlimit:10;}.cls-2{stroke-width:6.1px;}.cls-12,.cls-14,.cls-16,.cls-3,.cls-7{fill:none;}.cls-3{stroke-width:4.25px;}.cls-4,.cls-7{stroke-width:12.62px;}.cls-5{stroke-width:9.65px;}.cls-6{stroke-width:9.25px;}.cls-12,.cls-8{stroke-width:6.89px;}.cls-9{stroke-width:6.69px;}.cls-10{stroke-width:5.41px;}.cls-11{stroke-width:6.89px;}.cls-13{fill:#565657;stroke-width:2.03px;}.cls-14{stroke-width:7.59px;}.cls-15{stroke-width:8.04px;}.cls-16,.cls-17{stroke-width:5.45px;}</style></defs><g id="Layer_2" data-name="Layer 2"><g id="Layer_1-2" data-name="Layer 1"><rect class="cls-1" x="1.69" width="1506.58" height="1512.93"/><rect class="cls-1" y="1.56" width="1509.96" height="1509.81"/><path class="cls-2" d="M997.21,232.55c-22.07,0-24.91-16.74-24.91-26.58,0-15.29,20.08-44.48,24.16-58.93,1.92-6.8.5-6.85,2.38.06,4,14.68,21.53,43.54,21.53,58.66C1020.37,214.59,1017.8,232.55,997.21,232.55Z"/><path class="cls-3" d="M994,219.8c-3.68,0,9.13,4.46,13.26-1.73,6.06-9.07,2-22,2.21-18.49.2,4.16-1.68,11.63-4.64,15.53C1001.61,219.33,996,219.8,994,219.8Z"/><path class="cls-4" d="M1115.82,764.87s-221-401.44-277.42-504.12c-8.56-15.6,44.66,39.19,67.5,39.19,25.66,0,39.34-21.09,45.44-36.25s1.16-21.28,8.52-.36c5,14.21,23.72,35,46.17,35,18.41,0,37.61-19.53,44.1-28,13.33-17.31,7.19-17.67,17-.07,5.79,10.41,24.91,30.48,43.08,31.05,22.4.71,45.17-25.35,51-33.88,12-17.48,7.77-14.24,20.92.13,9.12,10,23.6,32.09,46,32.09,23.88,0,34.46-20.1,43-30.2,11.15-13.19,15.32-17.49,23.91-3.24,6.48,10.73,21.79,34.91,43.27,33.6,22-1.34,76-55.91,57.95-26.13C1376.47,306.6,1115.82,764.87,1115.82,764.87Z"/><ellipse class="cls-5" cx="1074.68" cy="447.45" rx="64.05" ry="36.6"/><path class="cls-6" d="M1144,451c0,23.94,48.83,50.46,44.74,36.6-8.34-28.24-11-43.09,0-73.2C1193.72,400.83,1144,431.1,1144,451Z"/><circle cx="1045.1" cy="441.35" r="6.1"/><circle class="cls-1" cx="996.34" cy="393.25" r="17.77"/><circle class="cls-1" cx="978.56" cy="344.44" r="11.35"/><circle class="cls-1" cx="950" cy="310.46" r="7.19"/><circle cx="992.14" cy="903.4" r="3.94"/><circle cx="1079.63" cy="1161.21" r="3.94"/><circle cx="1310.31" cy="931.21" r="3.94"/><circle cx="1288.49" cy="1016.43" r="3.94"/><circle cx="969.49" cy="1012.59" r="3.94"/><circle cx="920.16" cy="910.17" r="3.94"/><circle cx="1150.86" cy="961.69" r="23.93"/><circle cx="1282.73" cy="933.41" r="21.64"/><circle cx="1266.02" cy="1027.35" r="14.76"/><circle cx="1106.14" cy="910.17" r="14.76"/><circle cx="892.6" cy="908.67" r="14.76"/><circle cx="1058.51" cy="1190.56" r="21.64"/><circle cx="1275.76" cy="990.26" r="17.9"/><circle cx="980.58" cy="928.07" r="17.9"/><circle cx="1162.71" cy="1215.68" r="12.58"/><circle cx="945.53" cy="910.17" r="12.58"/><circle cx="1135.94" cy="922.76" r="12.58"/><circle cx="1118.72" cy="1284.03" r="12.58"/><circle cx="1080.15" cy="1222.61" r="12.58"/><circle cx="1189.38" cy="972.36" r="8.24"/><circle cx="1006.72" cy="1114.68" r="8.24"/><circle cx="1111.91" cy="1308.77" r="8.24"/><circle cx="1195.65" cy="941.66" r="8.24"/><circle cx="1266.02" cy="903.4" r="8.24"/><circle cx="1006.72" cy="1019.11" r="8.24"/><circle cx="1354.5" cy="903.4" r="8.24"/><circle cx="1053.92" cy="1157.69" r="8.24"/><circle cx="1261.09" cy="961.69" r="8.24"/><circle cx="1162.71" cy="919.15" r="8.24"/><circle cx="1095.33" cy="1198.8" r="8.24"/><circle cx="1328.84" cy="940.72" r="8.24"/><circle cx="969.49" cy="903.4" r="8.24"/><circle cx="1261.09" cy="1054.78" r="8.24"/><circle cx="1244.4" cy="1003.83" r="6.37"/><circle cx="1006.72" cy="1036.74" r="6.37"/><circle cx="1030.74" cy="966.08" r="6.37"/><circle cx="921.18" cy="969.94" r="6.37"/><circle cx="1299.9" cy="903.4" r="6.37"/><circle cx="1189.38" cy="1181.76" r="6.37"/><circle cx="1174.78" cy="935.95" r="6.37"/><circle cx="1079.63" cy="1246.34" r="6.37"/><circle cx="1033.09" cy="1168.25" r="6.37"/><circle cx="967.62" cy="957.43" r="5.31"/><circle cx="1000.35" cy="1094.89" r="5.31"/><circle cx="932.47" cy="996.57" r="5.31"/><circle cx="1135.94" cy="1198.8" r="5.31"/><circle cx="967.62" cy="1063.8" r="5.31"/><circle cx="1217.07" cy="952.12" r="5.31"/><circle cx="1288.49" cy="962.73" r="5.31"/><circle cx="1115.54" cy="937.76" r="5.31"/><circle cx="1087.08" cy="1179.44" r="5.31"/><circle cx="1152.13" cy="903.4" r="5.31"/><circle cx="1312.48" cy="959.78" r="12.58"/><circle cx="947.23" cy="979.34" r="12.58"/><circle cx="1196.17" cy="1161.96" r="10.23"/><circle cx="1241.03" cy="950.95" r="10.23"/><circle cx="1185.42" cy="907.07" r="10.23"/><circle cx="1013" cy="947.2" r="10.23"/><circle cx="1092.73" cy="1267.7" r="10.23"/><circle cx="1304.37" cy="986.34" r="10.23"/><circle cx="1030.74" cy="1147.46" r="10.23"/><circle cx="951.49" cy="1008.17" r="10.23"/><circle cx="990.19" cy="1075.84" r="12.58"/><circle cx="1033.09" cy="991.25" r="12.58"/><circle cx="1225.44" cy="978.67" r="12.58"/><circle cx="1118.72" cy="1179.44" r="12.58"/><circle cx="1328.84" cy="915.99" r="12.58"/><circle cx="977.61" cy="1036.74" r="17.9"/><circle cx="1161.87" cy="1180.9" r="17.9"/><circle cx="914.57" cy="937.76" r="17.9"/><circle cx="1230.34" cy="915.99" r="19.14"/><circle cx="992.14" cy="981.06" r="23.93"/><circle cx="1123.73" cy="1237.19" r="28.4"/><path class="cls-7" d="M1001.88,885.68l-154.36-4.33L1110.79,1348l279.13-465.23-331.78,1.45,68.72,116.51s107.2-20.2,114.17,51.6c7.75,79.79-61.6,94.43-115.09,94.43-69.94,0-105.24-22.58-109.64-71.41-5.35-59.38,55.54-71.4,55.54-71.4Z"/><ellipse class="cls-8" cx="1143.08" cy="1112.39" rx="44.27" ry="35.08"/><ellipse class="cls-9" cx="1080.32" cy="1099.41" rx="11.69" ry="19.32" transform="translate(-337.77 1703.43) rotate(-68.57)"/><ellipse class="cls-10" cx="1176.02" cy="1071" rx="29.49" ry="23.89"/><ellipse class="cls-11" cx="1173.55" cy="1031.47" rx="16.27" ry="11.76" transform="translate(-241.59 1693.67) rotate(-66.39)"/><path class="cls-12" d="M1132.92,1108.89c6.27-1.81,26.71,1.63,28.66,12.4,2.09,11.62-7.36,19.92-18.5,26.17"/><circle class="cls-13" cx="1185.42" cy="1069.08" r="3.96"/><circle class="cls-14" cx="376.84" cy="429.21" r="109.34"/><path class="cls-15" d="M436,290.73c2.39,26.26,27.5-59.27,25-22.11-1.05,15.79-6.43,111.69,10.43,97.43,16.35-13.84,19.36-35.21,19.36-13.17,0,43.28,22.42,185.67-111.38,185.67C233,538.55,257,304.16,267.5,335.39c10.08,30.09,30.32,40.66,27,30.93-7.32-21.62-4.58-127.68.91-111.46,7.81,23.07,32.12,44.86,31,28.24-2.51-36.53,59.05-102.8,53.45-139C378.7,136.54,435.27,282.27,436,290.73Z"/><path class="cls-15" d="M380.12,512.33c-37.53.15-60.9-103-54.33-139.94,2.31-13,27.88,38.14,26.74,28.44-2.75-23.32,25-60.44,26.16-81.91.85-15.76,27.69,60.88,25,82.2s29.32-48.18,27.59-23.89C429.07,408.78,416.23,512.18,380.12,512.33Z"/><polygon class="cls-4" points="110 760.34 272.08 496.25 321.95 534.79 346.88 499.65 393.35 534.79 413.76 498.52 459.09 534.79 487.43 501.92 641.58 764.87 110 760.34"/><path class="cls-16" d="M302.72,1046c14.46-1.1,65,70.12,94.4,70.12,20.26,0,44.48-31.22,60.39-39.8"/><path class="cls-16" d="M380.12,1156.15c33.61-16,108.88,55.09,152.52,34.34"/><path class="cls-16" d="M175,1293.09c9.05-9,37.51-37.33,63.26-36.48,28.21.93,74.81,56.64,89.74,68.51"/><path class="cls-16" d="M419.65,1298.7c10.26.65,23.89-14.46,55-15.5,35.07-1.17,74.5,34.85,100.29,36"/><circle cx="340.81" cy="1297" r="7.49"/><circle cx="340.81" cy="1018.39" r="7.49"/><circle cx="204.09" cy="1304.48" r="7.49"/><circle cx="539.65" cy="1274.39" r="7.49"/><circle cx="238.81" cy="1273.63" r="6.72"/><circle cx="338.67" cy="1113.63" r="6.72"/><circle cx="204.09" cy="1228.74" r="6.72"/><circle cx="360.7" cy="991.92" r="6.72"/><circle cx="304.64" cy="1274.39" r="6.72"/><circle cx="413.09" cy="1122.38" r="3.16"/><circle cx="333.32" cy="1090.13" r="3.16"/><circle cx="256.21" cy="1152.88" r="3.16"/><circle cx="304.14" cy="1244.63" r="3.16"/><circle cx="185.66" cy="1307.92" r="3.16"/><circle cx="269.03" cy="1210.02" r="3.16"/><circle cx="501.72" cy="1179.32" r="3.16"/><circle cx="363.75" cy="1045.94" r="3.16"/><circle cx="395.13" cy="963.57" r="3.16"/><circle cx="370.47" cy="1262.23" r="6.72"/><circle cx="456.38" cy="1095.49" r="6.72"/><circle cx="389.69" cy="1311.5" r="6.72"/><circle cx="559.86" cy="1301.2" r="6.72"/><circle cx="449.66" cy="1301.2" r="6.72"/><circle cx="456.38" cy="1199.62" r="6.72"/><circle cx="315.98" cy="1084.14" r="4.68"/><circle cx="288.59" cy="1086.98" r="4.68"/><circle cx="474.33" cy="1138.64" r="4.68"/><circle cx="416.34" cy="1241.47" r="4.68"/><circle cx="283.91" cy="1307.92" r="4.68"/><circle cx="180.98" cy="1266.91" r="4.68"/><circle cx="474.33" cy="1172.7" r="4.68"/><circle cx="463.1" cy="1246.43" r="4.68"/><circle cx="366.91" cy="945.61" r="4.68"/><circle cx="399.8" cy="1054.27" r="4.68"/><circle cx="404.48" cy="1015.75" r="4.68"/><circle cx="399.8" cy="1168.03" r="4.68"/><circle cx="513.28" cy="1274.39" r="4.68"/><circle cx="256.21" cy="1279.07" r="4.68"/><circle cx="232.09" cy="1222.02" r="4.68"/><circle cx="517.96" cy="1328" r="4.68"/><circle cx="404.48" cy="1100.16" r="4.68"/><circle cx="436.97" cy="1120.08" r="7.49"/><circle cx="375.79" cy="1092.68" r="7.49"/><circle cx="532.87" cy="1228.74" r="7.49"/><circle cx="435.45" cy="1045.94" r="7.49"/><circle cx="481.82" cy="1298.35" r="7.49"/><circle cx="296.07" cy="1110.64" r="7.49"/><circle cx="269.03" cy="1120.08" r="7.49"/><circle cx="238.81" cy="1172.7" r="7.49"/><circle cx="357.26" cy="1326.48" r="7.49"/><polygon class="cls-7" points="113.82 1342.9 374.69 878.89 637.75 1348.02 113.82 1342.9"/><path class="cls-17" d="M320.86,1171.55s41.07-44,52.32-37.22c10.14,6.06-13.18,56.14-13.18,56.14Z"/><path class="cls-17" d="M258.78,1172c4.73-2.77,20.54-3.73,22.09-11.16,1.5-7.13,7-19.21,21.69-19.21,18.85,0,22.95,31.16,34.71,31.92,4.16.26,82.79,13.12,82.79,13.12s-17.71,44.05-87.33,44.05c-39.9-4.16-36.09-32.71-49.41-48.55C279.62,1177.72,254.86,1174.25,258.78,1172Z"/><path class="cls-17" d="M318.21,1200.14s23.28,54.29,36.21,52.83c11-1.24,4.2-45.39,4.2-45.39"/><circle cx="297.92" cy="1162.05" r="2.97"/></g></g></svg>