<svg xmlns="http://www.w3.org/2000/svg" viewBox="0 0 1509.96 1512.93"><defs><style>.cls-1,.cls-11,.cls-12,.cls-13,.cls-14{fill:#fff;}.cls-2{fill:#29abe2;}.cls-3{fill:#a18d77;}.cls-4{fill:#056e5e;}.cls-5{fill:#6e481e;}.cls-6{fill:#00a99d;}.cls-7{fill:#f08660;}.cls-8{fill:#565657;}.cls-9{fill:#858483;}.cls-10,.cls-15,.cls-16{fill:none;}.cls-10{stroke:#6e481e;stroke-width:6.21px;}.cls-10,.cls-11,.cls-12,.cls-13,.cls-14,.cls-15,.cls-16{stroke-miterlimit:10;}.cls-11,.cls-12,.cls-13,.cls-14,.cls-15{stroke:#565657;}.cls-11,.cls-15{stroke-width:3.39px;}.cls-12{stroke-width:3.29px;}.cls-13{stroke-width:2.66px;}.cls-14{stroke-width:3.39px;}.cls-16{stroke:#056e5e;stroke-width:3.07px;}</style></defs><g id="Layer_2" data-name="Layer 2"><g id="Layer_1-2" data-name="Layer 1"><rect class="cls-1" x="3.39" width="1506.58" height="1512.93"/><rect class="cls-1" y="3.12" width="1509.96" height="1509.81"/><circle class="cls-2" cx="477.17" cy="373.66" r="8.86"/><circle class="cls-2" cx="673.9" cy="953.42" r="8.86"/><circle class="cls-2" cx="1192.67" cy="436.21" r="8.86"/><circle class="cls-2" cx="1143.6" cy="627.83" r="8.86"/><circle class="cls-2" cx="426.23" cy="619.21" r="8.86"/><circle class="cls-2" cx="315.28" cy="388.89" r="8.86"/><circle class="cls-3" cx="834.08" cy="504.75" r="53.82"/><circle class="cls-3" cx="1130.64" cy="441.15" r="48.66"/><circle class="cls-3" cx="1093.06" cy="652.4" r="33.19"/><circle class="cls-3" cx="733.52" cy="388.89" r="33.19"/><circle class="cls-3" cx="253.32" cy="385.5" r="33.19"/><circle class="cls-3" cx="626.42" cy="1019.42" r="48.66"/><circle class="cls-4" cx="1114.97" cy="569" r="40.26"/><circle class="cls-4" cx="451.16" cy="429.14" r="40.26"/><circle class="cls-5" cx="860.73" cy="1075.92" r="28.3"/><circle class="cls-5" cx="372.34" cy="388.89" r="28.3"/><circle class="cls-5" cx="800.55" cy="417.18" r="28.3"/><circle class="cls-5" cx="761.82" cy="1229.63" r="28.3"/><circle class="cls-5" cx="675.08" cy="1091.51" r="28.3"/><circle class="cls-6" cx="920.7" cy="528.74" r="18.54"/><circle class="cls-6" cx="509.95" cy="848.79" r="18.54"/><circle class="cls-6" cx="746.5" cy="1285.25" r="18.54"/><circle class="cls-6" cx="934.8" cy="459.69" r="18.54"/><circle class="cls-6" cx="1093.06" cy="373.66" r="18.54"/><circle class="cls-6" cx="509.95" cy="633.86" r="18.54"/><circle class="cls-6" cx="1292.04" cy="373.66" r="18.54"/><circle class="cls-6" cx="616.09" cy="945.51" r="18.54"/><circle class="cls-6" cx="1081.98" cy="504.75" r="18.54"/><circle class="cls-6" cx="860.73" cy="409.07" r="18.54"/><circle class="cls-6" cx="709.21" cy="1037.96" r="18.54"/><circle class="cls-6" cx="1234.33" cy="457.59" r="18.54"/><circle class="cls-6" cx="426.23" cy="373.66" r="18.54"/><circle class="cls-6" cx="1081.98" cy="714.09" r="18.54"/><circle class="cls-7" cx="1044.43" cy="599.51" r="14.32"/><circle class="cls-7" cx="509.95" cy="673.51" r="14.32"/><circle class="cls-7" cx="563.95" cy="514.62" r="14.32"/><circle class="cls-7" cx="317.58" cy="523.29" r="14.32"/><circle class="cls-7" cx="1169.25" cy="373.66" r="14.32"/><circle class="cls-7" cx="920.7" cy="999.63" r="14.32"/><circle class="cls-7" cx="887.88" cy="446.85" r="14.32"/><circle class="cls-7" cx="673.9" cy="1144.85" r="14.32"/><circle class="cls-7" cx="569.25" cy="969.26" r="14.32"/><circle class="cls-8" cx="422.02" cy="495.15" r="11.94"/><circle class="cls-8" cx="495.63" cy="804.28" r="11.94"/><circle class="cls-8" cx="342.98" cy="583.18" r="11.94"/><circle class="cls-8" cx="800.55" cy="1037.96" r="11.94"/><circle class="cls-8" cx="422.02" cy="734.37" r="11.94"/><circle class="cls-8" cx="982.98" cy="483.21" r="11.94"/><circle class="cls-8" cx="1143.6" cy="507.09" r="11.94"/><circle class="cls-8" cx="754.67" cy="450.92" r="11.94"/><circle class="cls-8" cx="690.67" cy="994.41" r="11.94"/><circle class="cls-8" cx="836.95" cy="373.66" r="11.94"/><circle class="cls-5" cx="1197.55" cy="500.45" r="28.3"/><circle class="cls-5" cx="376.17" cy="544.42" r="28.3"/><circle class="cls-8" cx="935.98" cy="955.1" r="23"/><circle class="cls-8" cx="1036.87" cy="480.59" r="23"/><circle class="cls-8" cx="911.8" cy="381.91" r="23"/><circle class="cls-8" cx="524.07" cy="472.15" r="23"/><circle class="cls-8" cx="703.37" cy="1192.9" r="23"/><circle class="cls-8" cx="1179.3" cy="560.18" r="23"/><circle class="cls-8" cx="563.95" cy="922.51" r="23"/><circle class="cls-8" cx="385.74" cy="609.25" r="23"/><circle class="cls-5" cx="472.77" cy="761.45" r="28.3"/><circle class="cls-5" cx="569.25" cy="571.21" r="28.3"/><circle class="cls-5" cx="1001.81" cy="542.91" r="28.3"/><circle class="cls-5" cx="761.82" cy="994.41" r="28.3"/><circle class="cls-5" cx="1234.33" cy="401.96" r="28.3"/><circle class="cls-4" cx="444.47" cy="673.51" r="40.26"/><circle class="cls-4" cx="858.85" cy="997.71" r="40.26"/><circle class="cls-4" cx="302.72" cy="450.92" r="40.26"/><circle class="cls-4" cx="1012.82" cy="401.96" r="43.05"/><circle class="cls-3" cx="477.17" cy="548.3" r="53.82"/><circle class="cls-9" cx="773.08" cy="1124.29" r="63.87"/><path class="cls-10" d="M499.05,333.81l-347.11-9.74L744,1373.51,1371.69,327.32l-746.12,3.24,154.54,262s241.08-45.42,256.76,116C1054.29,888.06,898.35,921,778,921c-157.28,0-236.65-50.77-246.55-160.58-12-133.55,124.9-160.58,124.9-160.58Z"/><ellipse class="cls-11" cx="816.58" cy="843.62" rx="99.55" ry="78.88"/><ellipse class="cls-12" cx="675.46" cy="814.45" rx="26.29" ry="43.44" transform="translate(-329.45 1145.69) rotate(-68.57)"/><ellipse class="cls-13" cx="890.66" cy="750.55" rx="66.31" ry="53.73"/><ellipse class="cls-14" cx="885.11" cy="661.65" rx="36.58" ry="26.45" transform="translate(-75.65 1207.68) rotate(-66.39)"/><path class="cls-15" d="M793.76,835.76c14.07-4.08,60.06,3.68,64.43,27.88,4.72,26.14-16.54,44.81-41.61,58.87"/><circle class="cls-8" cx="911.8" cy="746.25" r="8.9"/><line class="cls-16" x1="938.39" y1="134.24" x2="933.57" y2="314.87"/><circle class="cls-9" cx="981.95" cy="111.96" r="33.15"/><circle class="cls-9" cx="902.67" cy="175.6" r="33.15"/><circle class="cls-9" cx="968.03" cy="167.4" r="33.15"/><circle class="cls-9" cx="869.52" cy="120.72" r="33.15"/><circle class="cls-9" cx="922.5" cy="83.76" r="33.15"/><circle class="cls-8" cx="934.88" cy="134.24" r="41.35"/></g></g></svg>