<svg clip-rule="evenodd" fill-rule="evenodd" stroke-linejoin="round" stroke-miterlimit="2" viewBox="0 0 2732 2048" xmlns="http://www.w3.org/2000/svg"><path d="m0 0h2732v2048h-2732z" fill="none"/><path d="m4354.46 1795.57v.03c.37 7.7 1.8 15.68 3.81 23.37-6.25 1.81-14.09 2.48-22.31 2.52h-1.28l-2.18-.02c-1.08-5.51-2.01-11.03-2.78-16.55-4.02-28.93-3.86-53.24-3.86-53.24.02-3.11-2.27-5.76-5.35-6.18-.19-.03-.38-.05-.57-.06h-.29c-2.75 0-5.22 1.83-5.97 4.55 0 0-13.1 47.52-16.4 57.81-1.04 3.25-2.14 6.67-3.31 10.21-6.99-1.05-11.47-1.93-11.47-1.93-.09-.02-.19-.03-.28-.05-10.21-1.52-22.33-2.89-34.05-2.97h-1.67c-5.56.02-11.01.35-16.1 1.1-12.28 1.81-22.51 6.23-28.3 13.87-2.07 2.72-1.54 6.61 1.18 8.68 1.11.84 2.41 1.26 3.7 1.26h.3c1.79-.07 3.53-.91 4.69-2.44 4.08-5.38 11.59-7.83 20.24-9.1 4.72-.7 9.76-.99 14.92-1l1.55.01c10.86.11 22.09 1.42 31.57 2.84.75.14 4.32.82 9.68 1.65-1.79 5.16-3.72 10.52-5.81 16.01-9.52-5.29-22.33-7.2-34.6-6.3-14.78 1.09-28.52 6.32-34.79 13.12-5.16 4.89-8.49 12.18-8.49 20.35 0 15.06 11.26 26.95 24.66 26.95l.53-.01c5.48-.13 10.55-2.21 14.63-5.69 2.6-2.22 2.92-6.14.69-8.74-1.18-1.38-2.83-2.12-4.52-2.17l-.3-.01c-1.39.03-2.78.51-3.92 1.49-1.86 1.58-4.13 2.59-6.62 2.71l-.49.01c-6.98 0-12.26-6.7-12.26-14.54 0-4.6 1.8-8.75 4.74-11.47l.07-.07.11-.1.02-.03.02-.02.1-.11.07-.07c4.67-5.2 15.41-8.4 26.66-9.23 10.45-.77 21.54.59 29.07 5.6-14.22 34.58-35 72.83-67.05 101-2.57 2.26-2.82 6.18-.56 8.75 1.2 1.37 2.87 2.08 4.55 2.11h.3c1.39-.05 2.78-.56 3.9-1.54 32.31-28.41 53.75-66.61 68.59-101.62 12.8 12.87 31.69 35.12 48.36 55.39 19.55 23.77 36.03 44.81 36.03 44.81 1.22 1.55 3.05 2.38 4.9 2.37l.28-.01c1.02-.04 2.04-.35 2.97-.92 2.68-1.66 3.69-5.08 2.33-7.93 0 0-16.9-35.53-23.44-50.78-10.45-24.39-19.46-49.7-25.49-75.38 9.79-.05 19.2-.91 26.7-3.04 2.82 8.19 6.06 15.62 9.02 21.48 6.35 12.54 28.24 56.36 40.8 86.04 4.94 11.68 8.6 20.88 8.6 24.51 0 3.42 2.78 6.2 6.2 6.2l.32-.01c3.28-.17 5.88-2.88 5.88-6.19 0-4.32-3.71-15.46-9.58-29.34-12.67-29.94-34.75-74.15-41.16-86.81-2.84-5.62-5.99-12.84-8.68-20.77 7.35-4.07 15.58-10.02 21.94-15.97l.06-.06.07-.06.08-.09.02-.01v-.01c4.28-4.26 8.18-9.83 11.12-16.35 5.08-11.3 6.08-22.83 3.76-31.34-1.88-6.9-5.88-12-11.41-14.49-5.54-2.49-11.99-2.1-18.38 1.09-7.84 3.91-15.78 12.29-20.98 23.49-3.74 8.07-5.36 16.29-5.09 23.4zm-52.03 36.1c-2.44 7.08-5.14 14.55-8.16 22.26 14.1 13.5 37.79 41.54 57.2 65.23l-1.17-2.64c-.37-.84-.71-1.64-1.03-2.39-11.17-26.07-20.71-53.15-26.91-80.63-7-.4-13.85-1.08-19.93-1.83zm13.03-41.94c-2.69 9.49-5.17 18.11-6.37 21.86-.83 2.59-1.71 5.29-2.62 8.08 4.18.48 8.68.92 13.3 1.24-.89-4.75-1.67-9.52-2.33-14.29-.71-5.13-1.3-10.12-1.78-14.87zm75.59-31.41c-1.61.03-3.29.57-4.99 1.42-5.69 2.84-11.2 9.07-15.03 17.13l-.23.48c-2.84 6.11-4.15 12.32-3.95 17.7.3 6.14 1.35 12.48 2.85 18.66 5.81-3.47 12.02-8.12 16.97-12.74 3.31-3.3 6.3-7.63 8.58-12.69 3.74-8.3 4.81-16.73 3.11-22.99-.81-2.94-2.18-5.37-4.54-6.43-.74-.33-1.5-.5-2.3-.54z" fill="#a91039" transform="matrix(7.3277 0 0 7.3277 -30266 -12586.8)"/></svg>