<?xml version="1.0" encoding="UTF-8" standalone="no"?>
<!DOCTYPE svg PUBLIC "-//W3C//DTD SVG 1.1//EN" "http://www.w3.org/Graphics/SVG/1.1/DTD/svg11.dtd">
<svg width="100%" height="100%" viewBox="0 0 2106 1919" version="1.1" xmlns="http://www.w3.org/2000/svg" xmlns:xlink="http://www.w3.org/1999/xlink" xml:space="preserve" xmlns:serif="http://www.serif.com/" style="fill-rule:evenodd;clip-rule:evenodd;stroke-linejoin:round;stroke-miterlimit:2;">
    <g transform="matrix(1,0,0,1,-575.363,-275.363)">
        <g>
            <g transform="matrix(1,0,0,1,-119.835,-146.445)">
                <path d="M1997.9,1642.01L1997.9,1641.93L1997.89,1641.79C1996.61,1607.91 2013.66,846.215 2011.59,834.48C2007.02,808.588 1982.29,791.277 1956.4,795.846C1930.51,800.415 1913.19,825.145 1917.76,851.037C1919.69,861.948 1903.41,1531.46 1902.66,1633.81C1891.99,1654.98 1860.7,1700.66 1818.32,1736.06C1789.8,1759.89 1755.99,1779.85 1718.59,1779.13C1635.18,1777.53 1604.32,1745.5 1568.23,1695.78C1547.67,1667.45 1546.72,1633.44 1544.85,1624.6C1544.56,1623.25 1544.24,1621.97 1543.89,1620.75C1548.46,1574.42 1551.96,1502.85 1561.24,1337.42C1564.8,1273.94 1539.99,1195.53 1491.69,1134.38C1441.8,1071.21 1368,1026.72 1278.31,1031.18C1158.9,1037.12 974.655,1173.47 960.467,1425.81C944.341,1712.62 1094.35,1854.09 1238.36,1856.12C1351.91,1857.72 1436.65,1810.26 1488.52,1748.02L1491.12,1751.74C1545.04,1826.02 1592.17,1871.99 1716.76,1874.39C1777.08,1875.55 1833.39,1847.61 1879.4,1809.18C1903.81,1788.79 1925.16,1765.61 1942.7,1743.5C1944.48,1746.16 1946.32,1748.84 1948.23,1751.51C1991.16,1811.78 2065.32,1873.4 2165.68,1873.4C2272.13,1873.4 2383.27,1798.34 2466.29,1673.33C2581.86,1499.28 2644.71,1229.38 2568.41,967.437C2441.74,532.53 2111.45,440.15 1772.06,423.181C1111.94,390.175 727.801,957.569 697.597,1356.98C661.432,1835.22 1035.06,2343.9 1760.91,2340.39C2411.37,2337.25 2746.28,1788.26 2799.65,1471.68C2804.02,1445.75 2786.52,1421.15 2760.6,1416.78C2734.67,1412.41 2710.07,1429.91 2705.7,1455.84C2657.17,1743.74 2351.98,2242.26 1760.45,2245.12C1104.57,2248.29 759.921,1796.31 792.6,1364.17C819.982,1002.07 1168.86,488.414 1767.3,518.336C2067.91,533.367 2364.74,608.867 2476.94,994.08C2544.65,1226.54 2489.49,1466.16 2386.92,1620.62C2324.48,1714.64 2245.73,1778.12 2165.68,1778.12C2100.43,1778.12 2053.74,1735.41 2025.82,1696.23C2009.48,1673.3 1998.38,1652.3 1997.9,1642.01ZM1446.92,1630.73C1452.89,1585.4 1455.39,1523.25 1466.11,1332.09C1468.55,1288.57 1450.04,1235.35 1416.93,1193.43C1385.4,1153.53 1339.71,1123.52 1283.04,1126.34C1249.69,1128 1210.38,1146.07 1173.87,1176.9C1113.38,1227.98 1062.16,1314.35 1055.59,1431.16C1043.7,1642.59 1133.54,1759.36 1239.7,1760.85C1351.75,1762.43 1425.48,1698.19 1446.92,1630.73Z"/>
            </g>
            <g transform="matrix(1,0,0,1,0,-115)">
                <path d="M1592.07,1154.33C1640.14,1156.33 2049.78,1160.35 2089.84,1161.35C2115.42,1161.99 2136.71,1141.74 2137.35,1116.16C2137.99,1090.58 2117.74,1069.29 2092.16,1068.65C2052.22,1067.65 1643.86,1063.67 1595.93,1061.67C1570.36,1060.61 1548.74,1080.5 1547.67,1106.07C1546.61,1131.64 1566.5,1153.26 1592.07,1154.33Z"/>
            </g>
        </g>
    </g>
</svg>
