<?xml version="1.0" encoding="UTF-8" standalone="no"?>
<!DOCTYPE svg PUBLIC "-//W3C//DTD SVG 1.1//EN" "http://www.w3.org/Graphics/SVG/1.1/DTD/svg11.dtd">
<svg width="100%" height="100%" viewBox="0 0 1383 2028" version="1.1" xmlns="http://www.w3.org/2000/svg" xmlns:xlink="http://www.w3.org/1999/xlink" xml:space="preserve" xmlns:serif="http://www.serif.com/" style="fill-rule:evenodd;clip-rule:evenodd;stroke-linejoin:round;stroke-miterlimit:2;">
    <g transform="matrix(1,0,0,1,-548.872,-740)">
        <g transform="matrix(1.22311,0,0,1.22311,-323.209,-365.695)">
            <g transform="matrix(1.94256,0,0,1.91789,-814.999,-3762.09)">
                <path d="M1194.03,2734.39L1194.03,2653.35L1122.37,2653.35L1122.37,2580.7L1194.03,2580.7L1194.03,2432.93L1283.98,2432.93L1283.98,2580.7L1368.49,2580.7L1368.49,2653.35L1283.98,2653.35L1283.98,2998.8C1283.98,3017.25 1290.24,3029.61 1302.76,3035.87C1309.67,3039.49 1321.21,3041.3 1337.35,3041.3C1341.63,3041.3 1346.25,3041.22 1351.19,3041.06C1356.13,3040.89 1361.9,3040.48 1368.49,3039.82L1368.49,3110C1358.27,3112.97 1347.65,3115.11 1336.61,3116.43C1325.57,3117.74 1313.63,3118.4 1300.78,3118.4C1283.14,3118.4 1267.91,3116.48 1255.09,3112.64L1255.09,2853.13C1255.09,2799.45 1234.74,2759.87 1194.03,2734.39Z"/>
            </g>
            <g transform="matrix(3.64244,0,0,3.64244,-2885.43,-9021.22)">
                <path d="M1237.77,3082.78L1237.77,3118.58C1237.77,3123.79 1238.85,3127.99 1240.99,3131.15C1243.13,3134.32 1247.65,3135.9 1254.54,3135.9C1256.78,3135.9 1259.29,3135.76 1262.09,3135.48C1264.88,3135.2 1267.87,3134.78 1271.03,3134.23L1271.03,3171.4C1263.21,3173.63 1257.25,3175.03 1253.15,3175.59C1249.05,3176.15 1243.46,3176.43 1236.38,3176.43C1219.05,3176.43 1206.47,3170.28 1198.65,3157.98C1194.55,3151.46 1191.66,3142.24 1189.98,3130.31C1179.74,3143.73 1165.02,3155.37 1145.83,3165.25C1126.63,3175.12 1105.49,3180.06 1082.38,3180.06C1054.62,3180.06 1031.94,3171.63 1014.33,3154.77C996.721,3137.91 987.918,3116.81 987.918,3091.47C987.918,3063.7 996.581,3042.18 1013.91,3026.91C1031.24,3011.63 1053.97,3002.22 1082.1,2998.68L1162.31,2988.62C1173.87,2987.13 1181.6,2982.28 1185.51,2974.08C1187.75,2969.61 1188.87,2963.18 1188.87,2954.8C1188.87,2937.66 1182.76,2925.22 1170.56,2917.49C1158.36,2909.76 1140.89,2905.89 1118.16,2905.89C1091.88,2905.89 1073.25,2912.97 1062.26,2927.13C1056.11,2934.96 1052.11,2946.6 1050.24,2962.07L1003.29,2962.07C1004.22,2925.17 1016.19,2899.51 1039.2,2885.07C1062.21,2870.63 1088.9,2863.41 1119.27,2863.41C1154.49,2863.41 1183.09,2870.12 1205.08,2883.53L1205.21,2883.62L1205.21,3025.44C1205.21,3043.31 1209.16,3057.84 1217.07,3069.03C1221.62,3075.46 1228.52,3080.05 1237.77,3082.78Z"/>
            </g>
            <g transform="matrix(3.64244,0,0,3.64244,-2885.43,-9021.22)">
                <path d="M1040.46,3090.35C1040.46,3104.88 1045.77,3116.34 1056.39,3124.72C1067.01,3133.11 1079.59,3137.3 1094.12,3137.3C1111.82,3137.3 1128.96,3133.2 1145.55,3125C1173.49,3111.4 1187.47,3089.14 1187.47,3058.21L1187.47,3017.68C1181.32,3021.6 1173.4,3024.86 1163.71,3027.46C1154.02,3030.07 1144.52,3031.94 1135.2,3033.05L1104.74,3036.97C1086.48,3039.39 1072.79,3043.21 1063.66,3048.43C1048.19,3057.18 1040.46,3071.16 1040.46,3090.35Z" style="fill:white;"/>
            </g>
            <g transform="matrix(3.64244,0,0,3.64244,-2885.43,-9021.22)">
                <path d="M1205.21,2883.62C1226.92,2897.03 1237.77,2917.87 1237.77,2946.14L1237.77,3082.78C1228.52,3080.05 1221.62,3075.46 1217.07,3069.03C1209.16,3057.84 1205.21,3043.31 1205.21,3025.44L1205.21,2883.62Z" style="fill:white;fill-opacity:0.5;"/>
            </g>
        </g>
    </g>
</svg>
