<svg clip-rule="evenodd" fill-rule="evenodd" stroke-linejoin="round" stroke-miterlimit="2" viewBox="0 0 1383 2028" xmlns="http://www.w3.org/2000/svg"><path d="m1194.03 2734.39v-81.04h-71.66v-72.65h71.66v-147.77h89.95v147.77h84.51v72.65h-84.51v345.45c0 18.45 6.26 30.81 18.78 37.07 6.91 3.62 18.45 5.43 34.59 5.43 4.28 0 8.9-.08 13.84-.24 4.94-.17 10.71-.58 17.3-1.24v70.18c-10.22 2.97-20.84 5.11-31.88 6.43-11.04 1.31-22.98 1.97-35.83 1.97-17.64 0-32.87-1.92-45.69-5.76v-259.51c0-53.68-20.35-93.26-61.06-118.74z" fill="#004066" transform="matrix(2.37598 0 0 2.3458 -1868.914 -5707.163)"/><g transform="matrix(4.45512 0 0 4.45512 -4401.294 -12139.663)"><path d="m1237.77 3082.78v35.8c0 5.21 1.08 9.41 3.22 12.57 2.14 3.17 6.66 4.75 13.55 4.75 2.24 0 4.75-.14 7.55-.42 2.79-.28 5.78-.7 8.94-1.25v37.17c-7.82 2.23-13.78 3.63-17.88 4.19s-9.69.84-16.77.84c-17.33 0-29.91-6.15-37.73-18.45-4.1-6.52-6.99-15.74-8.67-27.67-10.24 13.42-24.96 25.06-44.15 34.94-19.2 9.87-40.34 14.81-63.45 14.81-27.76 0-50.44-8.43-68.05-25.29-17.609-16.86-26.412-37.96-26.412-63.3 0-27.77 8.663-49.29 25.992-64.56 17.33-15.28 40.06-24.69 68.19-28.23l80.21-10.06c11.56-1.49 19.29-6.34 23.2-14.54 2.24-4.47 3.36-10.9 3.36-19.28 0-17.14-6.11-29.58-18.31-37.31s-29.67-11.6-52.4-11.6c-26.28 0-44.91 7.08-55.9 21.24-6.15 7.83-10.15 19.47-12.02 34.94h-46.95c.93-36.9 12.9-62.56 35.91-77s49.7-21.66 80.07-21.66c35.22 0 63.82 6.71 85.81 20.12l.13.09v141.82c0 17.87 3.95 32.4 11.86 43.59 4.55 6.43 11.45 11.02 20.7 13.75z" fill="#004066"/><path d="m1040.46 3090.35c0 14.53 5.31 25.99 15.93 34.37 10.62 8.39 23.2 12.58 37.73 12.58 17.7 0 34.84-4.1 51.43-12.3 27.94-13.6 41.92-35.86 41.92-66.79v-40.53c-6.15 3.92-14.07 7.18-23.76 9.78-9.69 2.61-19.19 4.48-28.51 5.59l-30.46 3.92c-18.26 2.42-31.95 6.24-41.08 11.46-15.47 8.75-23.2 22.73-23.2 41.92z" fill="#fff"/><path d="m1205.21 2883.62c21.71 13.41 32.56 34.25 32.56 62.52v136.64c-9.25-2.73-16.15-7.32-20.7-13.75-7.91-11.19-11.86-25.72-11.86-43.59z" fill="#fff" fill-opacity=".5"/></g></svg>