<svg width="520" height="331" viewBox="0 0 520 331" fill="none" xmlns="http://www.w3.org/2000/svg">
<g clip-path="url(#clip0_12_618)">
<rect width="520" height="331" fill="#09203F"/>
<g filter="url(#filter0_f_12_618)">
<ellipse cx="495" cy="268.5" rx="134" ry="127.5" fill="#537895"/>
</g>
<g filter="url(#filter1_f_12_618)">
<ellipse cx="82" cy="89.5" rx="80" ry="78.5" fill="#537895"/>
</g>
<g filter="url(#filter2_bd_12_618)">
<rect x="24" y="24" width="472" height="283" fill="white" fill-opacity="0.2" shape-rendering="crispEdges"/>
<rect x="24.5" y="24.5" width="471" height="282" stroke="white" stroke-opacity="0.2" shape-rendering="crispEdges"/>
</g>
<path d="M57.084 88H59.8672C62.4512 88 63.8809 86.4004 63.8809 83.7754V83.7637C63.8809 81.1445 62.4453 79.5449 59.8672 79.5449H57.084V88ZM57.8867 87.2734V80.2715H59.8203C61.8828 80.2715 63.0605 81.5898 63.0605 83.7695V83.7812C63.0605 85.9609 61.8887 87.2734 59.8203 87.2734H57.8867ZM67.7502 88.1055C69.1447 88.1055 70.0647 87.3438 70.3108 86.4883L70.3283 86.4414H69.549L69.5256 86.4824C69.3205 86.9746 68.6877 87.4082 67.7678 87.4082C66.5139 87.4082 65.7053 86.5234 65.6818 85.0469H70.4221V84.7188C70.4221 82.8496 69.3791 81.584 67.6858 81.584C65.9924 81.584 64.8908 82.8848 64.8908 84.8535V84.8652C64.8908 86.8457 65.9807 88.1055 67.7502 88.1055ZM67.6858 82.2754C68.7697 82.2754 69.549 83.0137 69.6369 84.4141H65.6877C65.7873 83.0488 66.5959 82.2754 67.6858 82.2754ZM73.7992 88.1055C75.1762 88.1055 76.2367 87.3438 76.2367 86.2598V86.248C76.2367 85.3398 75.6449 84.8477 74.4262 84.5547L73.5531 84.3496C72.7153 84.1504 72.3285 83.8516 72.3285 83.3359V83.3242C72.3285 82.6973 72.9789 82.2344 73.8051 82.2344C74.643 82.2344 75.2289 82.6328 75.3695 83.2188H76.1313C75.9848 82.2227 75.0824 81.584 73.811 81.584C72.5395 81.584 71.5375 82.3398 71.5375 83.3594V83.3652C71.5375 84.25 72.0824 84.7363 73.2543 85.0117L74.1332 85.2227C75.0531 85.4395 75.4457 85.7617 75.4457 86.3066V86.3184C75.4457 86.9746 74.7485 87.4492 73.8227 87.4492C72.9086 87.4492 72.3051 87.0449 72.1352 86.418H71.3383C71.4672 87.4492 72.4223 88.1055 73.7992 88.1055ZM80.0006 88.1055C81.442 88.1055 82.3209 87.3379 82.567 86.2246L82.5787 86.1777L81.8053 86.1836L81.7936 86.2129C81.5709 86.9746 80.9264 87.4141 79.9948 87.4141C78.7467 87.4141 77.944 86.4004 77.944 84.8301V84.8184C77.944 83.2656 78.7408 82.2754 79.9948 82.2754C80.9615 82.2754 81.6178 82.8086 81.8053 83.5352L81.8112 83.5527L82.5787 83.5469V83.5234C82.3854 82.416 81.442 81.584 79.9948 81.584C78.2545 81.584 77.153 82.8496 77.153 84.8184V84.8301C77.153 86.8281 78.2604 88.1055 80.0006 88.1055ZM83.7762 88H84.5496V84.0625C84.5496 83.043 85.2762 82.3223 86.2606 82.3223C86.5008 82.3223 86.7059 82.3457 86.9344 82.4043V81.6426C86.7821 81.6074 86.5711 81.584 86.3426 81.584C85.4871 81.584 84.8719 82.0059 84.6258 82.7266H84.5496V81.6895H83.7762V88ZM88.2725 80.377C88.583 80.377 88.8409 80.125 88.8409 79.8086C88.8409 79.4922 88.583 79.2402 88.2725 79.2402C87.9561 79.2402 87.6983 79.4922 87.6983 79.8086C87.6983 80.125 87.9561 80.377 88.2725 80.377ZM87.8799 88H88.6534V81.6895H87.8799V88ZM90.261 90.0918H91.0344V86.7695H91.1106C91.4563 87.584 92.2708 88.1055 93.2258 88.1055C94.8254 88.1055 95.8977 86.8047 95.8977 84.8477V84.8359C95.8977 82.8906 94.8254 81.584 93.2258 81.584C92.259 81.584 91.4797 82.0996 91.1106 82.9434H91.0344V81.6895H90.261V90.0918ZM93.0676 87.4141C91.8254 87.4141 91.0227 86.4062 91.0227 84.8477V84.8359C91.0227 83.2832 91.8254 82.2754 93.0676 82.2754C94.3157 82.2754 95.1067 83.2773 95.1067 84.8359V84.8477C95.1067 86.4121 94.3157 87.4141 93.0676 87.4141ZM99.228 88.041C99.4155 88.041 99.5913 88.0234 99.767 87.9941V87.3262C99.6088 87.3438 99.4917 87.3496 99.3159 87.3496C98.601 87.3496 98.3256 87.0273 98.3256 86.2539V82.3398H99.767V81.6895H98.3256V80.0488H97.5229V81.6895H96.5092V82.3398H97.5229V86.4297C97.5229 87.5781 98.021 88.041 99.228 88.041ZM101.404 80.377C101.715 80.377 101.972 80.125 101.972 79.8086C101.972 79.4922 101.715 79.2402 101.404 79.2402C101.088 79.2402 100.83 79.4922 100.83 79.8086C100.83 80.125 101.088 80.377 101.404 80.377ZM101.011 88H101.785V81.6895H101.011V88ZM105.15 88H105.971L108.326 81.6895H107.5L105.596 87.1621H105.525L103.615 81.6895H102.795L105.15 88ZM111.621 88.1055C113.016 88.1055 113.936 87.3438 114.182 86.4883L114.199 86.4414H113.42L113.397 86.4824C113.191 86.9746 112.559 87.4082 111.639 87.4082C110.385 87.4082 109.576 86.5234 109.553 85.0469H114.293V84.7188C114.293 82.8496 113.25 81.584 111.557 81.584C109.863 81.584 108.762 82.8848 108.762 84.8535V84.8652C108.762 86.8457 109.852 88.1055 111.621 88.1055ZM111.557 82.2754C112.641 82.2754 113.42 83.0137 113.508 84.4141H109.559C109.658 83.0488 110.467 82.2754 111.557 82.2754ZM121.188 88.1758C123.01 88.1758 124.229 87.1855 124.229 85.6914V85.6855C124.229 84.5078 123.52 83.7988 121.762 83.4004L120.895 83.2012C119.612 82.9082 119.09 82.4336 119.09 81.6895V81.6836C119.09 80.7402 119.975 80.1133 121.141 80.1133C122.342 80.1074 123.139 80.7344 123.262 81.5488L123.268 81.6191H124.071L124.065 81.543C123.965 80.3301 122.817 79.3691 121.165 79.3691C119.477 79.3691 118.276 80.3594 118.276 81.7012V81.707C118.276 82.873 118.991 83.5938 120.69 83.9805L121.557 84.1738C122.858 84.4668 123.415 85 123.415 85.7793V85.791C123.415 86.7402 122.5 87.4316 121.229 87.4316C119.928 87.4316 118.956 86.793 118.868 85.8613L118.862 85.7969H118.059L118.065 85.8613C118.188 87.2148 119.401 88.1758 121.188 88.1758ZM127.653 88.1055C128.632 88.1055 129.341 87.6602 129.651 86.8984H129.721V88H130.495V81.6895H129.721V85.4395C129.721 86.6348 129.018 87.4141 127.841 87.4141C126.757 87.4141 126.212 86.7754 126.212 85.5977V81.6895H125.438V85.791C125.438 87.2383 126.235 88.1055 127.653 88.1055ZM135.091 88.1055C136.684 88.1055 137.745 86.7988 137.745 84.8477V84.8359C137.745 82.873 136.69 81.584 135.091 81.584C134.136 81.584 133.321 82.0996 132.976 82.9141H132.899V79.1758H132.126V88H132.899V86.7402H132.976C133.339 87.5898 134.124 88.1055 135.091 88.1055ZM134.933 87.4141C133.69 87.4141 132.888 86.4004 132.888 84.8477V84.8359C132.888 83.2832 133.69 82.2754 134.933 82.2754C136.175 82.2754 136.954 83.2656 136.954 84.8301V84.8418C136.954 86.4121 136.175 87.4141 134.933 87.4141ZM141.081 88.041C141.269 88.041 141.444 88.0234 141.62 87.9941V87.3262C141.462 87.3438 141.345 87.3496 141.169 87.3496C140.454 87.3496 140.179 87.0273 140.179 86.2539V82.3398H141.62V81.6895H140.179V80.0488H139.376V81.6895H138.362V82.3398H139.376V86.4297C139.376 87.5781 139.874 88.041 141.081 88.041ZM143.257 80.377C143.568 80.377 143.826 80.125 143.826 79.8086C143.826 79.4922 143.568 79.2402 143.257 79.2402C142.941 79.2402 142.683 79.4922 142.683 79.8086C142.683 80.125 142.941 80.377 143.257 80.377ZM142.865 88H143.638V81.6895H142.865V88ZM147.332 88.041C147.519 88.041 147.695 88.0234 147.871 87.9941V87.3262C147.712 87.3438 147.595 87.3496 147.419 87.3496C146.705 87.3496 146.429 87.0273 146.429 86.2539V82.3398H147.871V81.6895H146.429V80.0488H145.627V81.6895H144.613V82.3398H145.627V86.4297C145.627 87.5781 146.125 88.041 147.332 88.041ZM149.138 88H149.912V79.1758H149.138V88ZM154.086 88.1055C155.48 88.1055 156.4 87.3438 156.646 86.4883L156.664 86.4414H155.885L155.861 86.4824C155.656 86.9746 155.023 87.4082 154.103 87.4082C152.85 87.4082 152.041 86.5234 152.018 85.0469H156.758V84.7188C156.758 82.8496 155.715 81.584 154.021 81.584C152.328 81.584 151.227 82.8848 151.227 84.8535V84.8652C151.227 86.8457 152.316 88.1055 154.086 88.1055ZM154.021 82.2754C155.105 82.2754 155.885 83.0137 155.973 84.4141H152.023C152.123 83.0488 152.932 82.2754 154.021 82.2754Z" fill="white"/>
<path d="M62.0938 68.2812C64.6953 68.2812 66.5625 66.7734 66.8594 64.5156V64.4609H64.8828L64.875 64.5C64.5859 65.7422 63.5234 66.5391 62.0938 66.5391C60.1719 66.5391 58.9766 64.9375 58.9766 62.3672V62.3516C58.9766 59.7891 60.1719 58.1875 62.0859 58.1875C63.5078 58.1875 64.5859 59.0703 64.875 60.4062L64.8828 60.4375H66.8594V60.375C66.5938 58.0703 64.6484 56.4453 62.0859 56.4453C58.8906 56.4453 56.9141 58.7031 56.9141 62.3594V62.375C56.9141 66.0156 58.8984 68.2812 62.0938 68.2812ZM68.5764 68H70.5217V63.0234C70.5217 61.7422 71.2404 60.9297 72.3967 60.9297C73.5764 60.9297 74.1154 61.6016 74.1154 62.9297V68H76.0608V62.4766C76.0608 60.4453 75.0217 59.2969 73.1154 59.2969C71.8811 59.2969 71.0608 59.8516 70.6545 60.7656H70.5217V56.1562H68.5764V68ZM80.2778 68.1406C81.4028 68.1406 82.309 67.6562 82.7778 66.8281H82.9106V68H84.8324V62.1641C84.8324 60.3594 83.5981 59.2969 81.4028 59.2969C79.3715 59.2969 77.9965 60.25 77.809 61.6875L77.8012 61.7578H79.6371L79.6449 61.7266C79.8403 61.1641 80.4184 60.8438 81.309 60.8438C82.3559 60.8438 82.9106 61.3125 82.9106 62.1641V62.8984L80.7153 63.0312C78.6371 63.1562 77.4731 64.0469 77.4731 65.5703V65.5859C77.4731 67.1406 78.6528 68.1406 80.2778 68.1406ZM79.3949 65.4922V65.4766C79.3949 64.7734 79.9028 64.375 80.9887 64.3047L82.9106 64.1797V64.8672C82.9106 65.8828 82.0434 66.6484 80.8715 66.6484C80.0121 66.6484 79.3949 66.2188 79.3949 65.4922ZM86.7604 68H88.7057V63.0391C88.7057 61.8203 89.5573 61.0469 90.8541 61.0469C91.1901 61.0469 91.5104 61.0938 91.8229 61.1562V59.4141C91.6354 59.3594 91.3307 59.3203 91.0338 59.3203C89.9088 59.3203 89.1276 59.8594 88.8385 60.7734H88.7057V59.4609H86.7604V68ZM96.5555 68.0391C96.9305 68.0391 97.2899 68.0078 97.5711 67.9531V66.4531C97.3368 66.4766 97.1883 66.4844 96.9149 66.4844C96.1024 66.4844 95.7664 66.125 95.7664 65.2734V60.9688H97.5711V59.4609H95.7664V57.3672H93.7899V59.4609H92.4618V60.9688H93.7899V65.7344C93.7899 67.3828 94.5946 68.0391 96.5555 68.0391ZM105.966 68H107.982V58.4219H111.458V56.7266H102.497V58.4219H105.966V68ZM113.8 58.0312C114.433 58.0312 114.957 57.5234 114.957 56.8828C114.957 56.25 114.433 55.7344 113.8 55.7344C113.16 55.7344 112.636 56.25 112.636 56.8828C112.636 57.5234 113.16 58.0312 113.8 58.0312ZM112.824 68H114.769V59.4609H112.824V68ZM120.111 68.0391C120.486 68.0391 120.845 68.0078 121.127 67.9531V66.4531C120.892 66.4766 120.744 66.4844 120.47 66.4844C119.658 66.4844 119.322 66.125 119.322 65.2734V60.9688H121.127V59.4609H119.322V57.3672H117.345V59.4609H116.017V60.9688H117.345V65.7344C117.345 67.3828 118.15 68.0391 120.111 68.0391ZM122.734 68H124.68V56.1562H122.734V68ZM130.389 68.1719C132.709 68.1719 133.85 66.8359 134.123 65.7344L134.147 65.6641H132.295L132.272 65.7188C132.084 66.1094 131.482 66.6406 130.428 66.6406C129.107 66.6406 128.279 65.75 128.256 64.2188H134.225V63.5781C134.225 61 132.725 59.2969 130.295 59.2969C127.865 59.2969 126.311 61.0547 126.311 63.7422V63.75C126.311 66.4688 127.85 68.1719 130.389 68.1719ZM130.318 60.8203C131.404 60.8203 132.193 61.5156 132.326 62.9141H128.272C128.42 61.5547 129.232 60.8203 130.318 60.8203Z" fill="white"/>
<rect x="456" y="94" width="8" height="8" fill="#FFDD81"/>
<path d="M425.233 102H429.427V101.395H425.902V94.9541H425.233V102ZM431.763 102.088C432.539 102.088 433.169 101.722 433.482 101.097H433.54V102H434.19V98.4062C434.19 97.2979 433.472 96.6533 432.242 96.6533C431.153 96.6533 430.357 97.1904 430.22 98.0303L430.215 98.0498H430.865L430.87 98.04C431.006 97.5176 431.509 97.2295 432.222 97.2295C433.072 97.2295 433.54 97.6396 433.54 98.4111V98.9043L431.9 99.0117C430.684 99.0947 430.005 99.627 430.005 100.54V100.55C430.005 101.487 430.747 102.088 431.763 102.088ZM430.664 100.54V100.53C430.664 99.9346 431.094 99.5977 431.988 99.5391L433.54 99.4316V100.042C433.54 100.877 432.828 101.521 431.885 101.521C431.177 101.521 430.664 101.141 430.664 100.54ZM437.922 102.088C439.251 102.088 440.134 100.999 440.134 99.373V99.3633C440.134 97.7275 439.255 96.6533 437.922 96.6533C437.127 96.6533 436.448 97.083 436.16 97.7617H436.096V94.6465H435.452V102H436.096V100.95H436.16C436.462 101.658 437.117 102.088 437.922 102.088ZM437.791 101.512C436.755 101.512 436.087 100.667 436.087 99.373V99.3633C436.087 98.0693 436.755 97.2295 437.791 97.2295C438.826 97.2295 439.475 98.0547 439.475 99.3584V99.3682C439.475 100.677 438.826 101.512 437.791 101.512ZM443.227 102.088C444.389 102.088 445.156 101.453 445.361 100.74L445.376 100.701H444.726L444.707 100.735C444.536 101.146 444.009 101.507 443.242 101.507C442.197 101.507 441.523 100.77 441.504 99.5391H445.454V99.2656C445.454 97.708 444.585 96.6533 443.174 96.6533C441.762 96.6533 440.845 97.7373 440.845 99.3779V99.3877C440.845 101.038 441.753 102.088 443.227 102.088ZM443.174 97.2295C444.077 97.2295 444.726 97.8447 444.8 99.0117H441.509C441.592 97.874 442.265 97.2295 443.174 97.2295ZM446.481 102H447.126V94.6465H446.481V102Z" fill="white"/>
<rect x="456" y="79" width="8" height="8" fill="#60BFF4"/>
<path d="M425.233 87H429.427V86.3945H425.902V79.9541H425.233V87ZM431.763 87.0879C432.539 87.0879 433.169 86.7217 433.482 86.0967H433.54V87H434.19V83.4062C434.19 82.2979 433.472 81.6533 432.242 81.6533C431.153 81.6533 430.357 82.1904 430.22 83.0303L430.215 83.0498H430.865L430.87 83.04C431.006 82.5176 431.509 82.2295 432.222 82.2295C433.072 82.2295 433.54 82.6396 433.54 83.4111V83.9043L431.9 84.0117C430.684 84.0947 430.005 84.627 430.005 85.54V85.5498C430.005 86.4873 430.747 87.0879 431.763 87.0879ZM430.664 85.54V85.5303C430.664 84.9346 431.094 84.5977 431.988 84.5391L433.54 84.4316V85.042C433.54 85.877 432.828 86.5215 431.885 86.5215C431.177 86.5215 430.664 86.1406 430.664 85.54ZM437.922 87.0879C439.251 87.0879 440.134 85.999 440.134 84.373V84.3633C440.134 82.7275 439.255 81.6533 437.922 81.6533C437.127 81.6533 436.448 82.083 436.16 82.7617H436.096V79.6465H435.452V87H436.096V85.9502H436.16C436.462 86.6582 437.117 87.0879 437.922 87.0879ZM437.791 86.5117C436.755 86.5117 436.087 85.667 436.087 84.373V84.3633C436.087 83.0693 436.755 82.2295 437.791 82.2295C438.826 82.2295 439.475 83.0547 439.475 84.3584V84.3682C439.475 85.6768 438.826 86.5117 437.791 86.5117ZM443.227 87.0879C444.389 87.0879 445.156 86.4531 445.361 85.7402L445.376 85.7012H444.726L444.707 85.7354C444.536 86.1455 444.009 86.5068 443.242 86.5068C442.197 86.5068 441.523 85.7695 441.504 84.5391H445.454V84.2656C445.454 82.708 444.585 81.6533 443.174 81.6533C441.762 81.6533 440.845 82.7373 440.845 84.3779V84.3877C440.845 86.0381 441.753 87.0879 443.227 87.0879ZM443.174 82.2295C444.077 82.2295 444.726 82.8447 444.8 84.0117H441.509C441.592 82.874 442.265 82.2295 443.174 82.2295ZM446.481 87H447.126V79.6465H446.481V87Z" fill="white"/>
<rect x="456" y="109" width="8" height="8" fill="#FF8CA1"/>
<path d="M425.233 117H429.427V116.395H425.902V109.954H425.233V117ZM431.763 117.088C432.539 117.088 433.169 116.722 433.482 116.097H433.54V117H434.19V113.406C434.19 112.298 433.472 111.653 432.242 111.653C431.153 111.653 430.357 112.19 430.22 113.03L430.215 113.05H430.865L430.87 113.04C431.006 112.518 431.509 112.229 432.222 112.229C433.072 112.229 433.54 112.64 433.54 113.411V113.904L431.9 114.012C430.684 114.095 430.005 114.627 430.005 115.54V115.55C430.005 116.487 430.747 117.088 431.763 117.088ZM430.664 115.54V115.53C430.664 114.935 431.094 114.598 431.988 114.539L433.54 114.432V115.042C433.54 115.877 432.828 116.521 431.885 116.521C431.177 116.521 430.664 116.141 430.664 115.54ZM437.922 117.088C439.251 117.088 440.134 115.999 440.134 114.373V114.363C440.134 112.728 439.255 111.653 437.922 111.653C437.127 111.653 436.448 112.083 436.16 112.762H436.096V109.646H435.452V117H436.096V115.95H436.16C436.462 116.658 437.117 117.088 437.922 117.088ZM437.791 116.512C436.755 116.512 436.087 115.667 436.087 114.373V114.363C436.087 113.069 436.755 112.229 437.791 112.229C438.826 112.229 439.475 113.055 439.475 114.358V114.368C439.475 115.677 438.826 116.512 437.791 116.512ZM443.227 117.088C444.389 117.088 445.156 116.453 445.361 115.74L445.376 115.701H444.726L444.707 115.735C444.536 116.146 444.009 116.507 443.242 116.507C442.197 116.507 441.523 115.77 441.504 114.539H445.454V114.266C445.454 112.708 444.585 111.653 443.174 111.653C441.762 111.653 440.845 112.737 440.845 114.378V114.388C440.845 116.038 441.753 117.088 443.227 117.088ZM443.174 112.229C444.077 112.229 444.726 112.845 444.8 114.012H441.509C441.592 112.874 442.265 112.229 443.174 112.229ZM446.481 117H447.126V109.646H446.481V117Z" fill="white"/>
<path d="M391.586 67H396.619V66.2734H392.389V58.5449H391.586V67ZM399.979 67.1055C401.373 67.1055 402.293 66.3438 402.539 65.4883L402.557 65.4414H401.777L401.754 65.4824C401.549 65.9746 400.916 66.4082 399.996 66.4082C398.742 66.4082 397.934 65.5234 397.91 64.0469H402.651V63.7188C402.651 61.8496 401.608 60.584 399.914 60.584C398.221 60.584 397.119 61.8848 397.119 63.8535V63.8652C397.119 65.8457 398.209 67.1055 399.979 67.1055ZM399.914 61.2754C400.998 61.2754 401.777 62.0137 401.865 63.4141H397.916C398.016 62.0488 398.824 61.2754 399.914 61.2754ZM406.467 69.2031C408.125 69.2031 409.209 68.3008 409.209 66.9238V60.6895H408.43V61.9668H408.377C408.014 61.123 407.235 60.584 406.262 60.584C404.633 60.584 403.59 61.873 403.59 63.6777V63.6895C403.59 65.5 404.627 66.7715 406.25 66.7715C407.217 66.7715 407.991 66.291 408.366 65.459H408.442V66.8711C408.442 67.8906 407.686 68.5117 406.467 68.5117C405.506 68.5117 404.85 68.1309 404.709 67.5801L404.703 67.5742H403.901L403.895 67.5801C404.059 68.5586 405.02 69.2031 406.467 69.2031ZM406.403 66.0801C405.143 66.0801 404.381 65.1016 404.381 63.6895V63.6777C404.381 62.2656 405.143 61.2754 406.403 61.2754C407.651 61.2754 408.453 62.2773 408.453 63.6895V63.7012C408.453 65.1133 407.668 66.0801 406.403 66.0801ZM413.319 67.1055C414.713 67.1055 415.633 66.3438 415.879 65.4883L415.897 65.4414H415.118L415.094 65.4824C414.889 65.9746 414.256 66.4082 413.336 66.4082C412.083 66.4082 411.274 65.5234 411.251 64.0469H415.991V63.7188C415.991 61.8496 414.948 60.584 413.254 60.584C411.561 60.584 410.46 61.8848 410.46 63.8535V63.8652C410.46 65.8457 411.549 67.1055 413.319 67.1055ZM413.254 61.2754C414.338 61.2754 415.118 62.0137 415.206 63.4141H411.256C411.356 62.0488 412.165 61.2754 413.254 61.2754ZM417.247 67H418.02V63.25C418.02 62.0605 418.776 61.2754 419.889 61.2754C420.985 61.2754 421.53 61.8906 421.53 63.0918V67H422.303V62.8984C422.303 61.4277 421.501 60.584 420.094 60.584C419.11 60.584 418.43 61.0352 418.096 61.7969H418.02V60.6895H417.247V67ZM426.173 67.1055C427.145 67.1055 427.925 66.5898 428.294 65.7402H428.364V67H429.144V58.1758H428.364V61.9199H428.294C427.942 61.1055 427.128 60.584 426.173 60.584C424.573 60.584 423.507 61.8848 423.507 63.8418V63.8535C423.507 65.7988 424.579 67.1055 426.173 67.1055ZM426.337 66.4141C425.089 66.4141 424.298 65.4121 424.298 63.8477V63.8359C424.298 62.2773 425.089 61.2754 426.337 61.2754C427.579 61.2754 428.382 62.2832 428.382 63.8359V63.8477C428.382 65.4062 427.579 66.4141 426.337 66.4141ZM433.695 67H434.486V59.9746H434.562L439.507 67H440.281V58.5449H439.49V65.5645H439.413L434.486 58.5449H433.695V67ZM443.687 67.1055C444.619 67.1055 445.375 66.666 445.75 65.916H445.82V67H446.599V62.6875C446.599 61.3574 445.738 60.584 444.261 60.584C442.955 60.584 442 61.2285 441.836 62.2363L441.83 62.2598H442.609L442.615 62.248C442.779 61.6211 443.382 61.2754 444.238 61.2754C445.257 61.2754 445.82 61.7676 445.82 62.6934V63.2852L443.851 63.4141C442.392 63.5137 441.578 64.1523 441.578 65.248V65.2598C441.578 66.3848 442.468 67.1055 443.687 67.1055ZM442.369 65.248V65.2363C442.369 64.5215 442.884 64.1172 443.957 64.0469L445.82 63.918V64.6504C445.82 65.6523 444.964 66.4258 443.834 66.4258C442.984 66.4258 442.369 65.9688 442.369 65.248ZM448.137 67H448.91V63.127C448.91 62.0957 449.613 61.2754 450.527 61.2754C451.4 61.2754 451.974 61.8672 451.974 62.7754V67H452.748V62.998C452.748 62.0195 453.398 61.2754 454.371 61.2754C455.32 61.2754 455.818 61.8262 455.818 62.8574V67H456.597V62.6816C456.597 61.3457 455.865 60.584 454.599 60.584C453.691 60.584 452.953 61.0703 452.631 61.8262H452.554C452.285 61.0703 451.652 60.584 450.767 60.584C449.906 60.584 449.256 61.0469 448.986 61.8027H448.91V60.6895H448.137V67ZM460.654 67.1055C462.049 67.1055 462.969 66.3438 463.215 65.4883L463.232 65.4414H462.453L462.43 65.4824C462.225 65.9746 461.592 66.4082 460.672 66.4082C459.418 66.4082 458.609 65.5234 458.586 64.0469H463.326V63.7188C463.326 61.8496 462.283 60.584 460.59 60.584C458.896 60.584 457.795 61.8848 457.795 63.8535V63.8652C457.795 65.8457 458.885 67.1055 460.654 67.1055ZM460.59 61.2754C461.674 61.2754 462.453 62.0137 462.541 63.4141H458.592C458.691 62.0488 459.5 61.2754 460.59 61.2754Z" fill="white"/>
<g opacity="0.6">
<path d="M83 146.5H464" stroke="white"/>
<path d="M83 164.5H464" stroke="white"/>
<path d="M83 185.5H464" stroke="white"/>
<path d="M83 206.5H464" stroke="white"/>
<path d="M83 227.5H464" stroke="white"/>
</g>
<path d="M220.061 272H223.113C225.633 272 227.092 270.441 227.092 267.758V267.746C227.092 265.092 225.621 263.545 223.113 263.545H220.061V272ZM221.373 270.869V264.676H222.967C224.719 264.676 225.756 265.818 225.756 267.764V267.775C225.756 269.738 224.736 270.869 222.967 270.869H221.373ZM230.041 272.105C230.885 272.105 231.553 271.742 231.928 271.098H232.028V272H233.287V267.646C233.287 266.311 232.385 265.514 230.785 265.514C229.338 265.514 228.336 266.211 228.184 267.254L228.178 267.295H229.403L229.408 267.271C229.561 266.82 230.024 266.562 230.727 266.562C231.588 266.562 232.028 266.949 232.028 267.646V268.209L230.305 268.309C228.787 268.402 227.932 269.064 227.932 270.201V270.213C227.932 271.367 228.828 272.105 230.041 272.105ZM229.197 270.16V270.148C229.197 269.574 229.596 269.258 230.475 269.205L232.028 269.105V269.65C232.028 270.471 231.33 271.092 230.381 271.092C229.696 271.092 229.197 270.746 229.197 270.16ZM237.075 272.041C237.321 272.041 237.555 272.012 237.76 271.977V270.963C237.584 270.98 237.473 270.986 237.28 270.986C236.653 270.986 236.395 270.705 236.395 270.02V266.639H237.76V265.637H236.395V264.031H235.1V265.637H234.104V266.639H235.1V270.324C235.1 271.549 235.674 272.041 237.075 272.041ZM241.436 272.123C243.065 272.123 243.944 271.186 244.155 270.348L244.167 270.295L242.942 270.301L242.919 270.348C242.766 270.676 242.28 271.08 241.465 271.08C240.417 271.08 239.749 270.371 239.725 269.152H244.237V268.707C244.237 266.797 243.147 265.514 241.372 265.514C239.596 265.514 238.448 266.844 238.448 268.83V268.836C238.448 270.852 239.573 272.123 241.436 272.123ZM241.378 266.557C242.239 266.557 242.878 267.107 242.977 268.244H239.743C239.854 267.148 240.51 266.557 241.378 266.557ZM248.835 274.121H251.63V273.154H250.06V264.107H251.63V263.141H248.835V274.121ZM252.745 272H253.941V265.795H254.034L256.513 272H257.486L259.97 265.795H260.058V272H261.253V263.545H259.741L257.046 270.289H256.952L254.257 263.545H252.745V272ZM265.515 272.123C267.378 272.123 268.521 270.875 268.521 268.824V268.812C268.521 266.762 267.373 265.514 265.515 265.514C263.652 265.514 262.503 266.768 262.503 268.812V268.824C262.503 270.875 263.646 272.123 265.515 272.123ZM265.515 271.062C264.419 271.062 263.804 270.236 263.804 268.824V268.812C263.804 267.4 264.419 266.574 265.515 266.574C266.605 266.574 267.226 267.4 267.226 268.812V268.824C267.226 270.23 266.605 271.062 265.515 271.062ZM269.631 272H270.902V268.268C270.902 267.242 271.482 266.604 272.414 266.604C273.345 266.604 273.785 267.125 273.785 268.18V272H275.05V267.881C275.05 266.363 274.265 265.514 272.841 265.514C271.916 265.514 271.306 265.924 270.996 266.604H270.902V265.637H269.631V272ZM278.82 272.041C279.066 272.041 279.301 272.012 279.506 271.977V270.963C279.33 270.98 279.219 270.986 279.025 270.986C278.398 270.986 278.14 270.705 278.14 270.02V266.639H279.506V265.637H278.14V264.031H276.846V265.637H275.849V266.639H276.846V270.324C276.846 271.549 277.42 272.041 278.82 272.041ZM280.639 272H281.91V268.268C281.91 267.242 282.49 266.604 283.422 266.604C284.354 266.604 284.793 267.125 284.793 268.18V272H286.059V267.881C286.059 266.363 285.274 265.514 283.85 265.514C282.924 265.514 282.315 265.924 282.004 266.604H281.91V263.141H280.639V272ZM289.764 274.121V263.141H286.963V264.107H288.539V273.154H286.963V274.121H289.764Z" fill="white"/>
<path d="M439.501 251.403L441.141 249.763C442.664 248.24 442.564 246.455 441.017 244.908L441.01 244.902C439.467 243.358 437.678 243.262 436.159 244.781L434.519 246.421L439.501 251.403ZM439.546 250.502L435.42 246.376L436.559 245.236C437.775 244.021 439.246 244.104 440.53 245.388L440.537 245.395C441.821 246.68 441.904 248.144 440.685 249.362L439.546 250.502ZM445.8 245.228C446.622 244.406 446.715 243.415 446.356 242.766L446.339 242.728L445.88 243.187L445.89 243.225C446.059 243.636 445.942 244.265 445.4 244.807C444.661 245.546 443.663 245.501 442.779 244.645L445.572 241.851L445.379 241.658C444.278 240.557 442.917 240.425 441.919 241.423C440.922 242.421 441.039 243.837 442.199 244.997L442.206 245.004C443.373 246.171 444.758 246.271 445.8 245.228ZM442.327 241.831C442.966 241.192 443.86 241.168 444.737 241.941L442.41 244.268C441.664 243.405 441.685 242.473 442.327 241.831ZM449.558 241.47C450.408 240.621 450.473 239.65 449.962 238.849L449.942 238.815L449.489 239.274L449.5 239.298C449.817 239.878 449.696 240.517 449.147 241.066C448.412 241.801 447.342 241.677 446.416 240.752L446.409 240.745C445.495 239.83 445.381 238.777 446.119 238.038C446.689 237.468 447.39 237.396 447.929 237.713L447.942 237.72L448.391 237.265L448.377 237.251C447.611 236.712 446.565 236.778 445.712 237.631C444.687 238.656 444.783 240.051 445.943 241.211L445.95 241.218C447.128 242.395 448.533 242.495 449.558 241.47Z" fill="white"/>
<path d="M408.338 251.403L408.804 250.937L404.665 246.797L404.709 246.752L411.763 247.978L412.219 247.522L407.237 242.54L406.771 243.006L410.907 247.142L410.862 247.187L403.822 245.955L403.356 246.421L408.338 251.403ZM414.717 245.149C415.756 244.109 415.673 242.721 414.489 241.537L414.482 241.53C413.298 240.346 411.913 240.267 410.874 241.306C409.835 242.345 409.918 243.726 411.102 244.91L411.109 244.917C412.293 246.102 413.678 246.188 414.717 245.149ZM414.309 244.741C413.543 245.508 412.514 245.39 411.575 244.451L411.568 244.444C410.629 243.505 410.515 242.48 411.281 241.713C412.048 240.947 413.073 241.061 414.012 242L414.019 242.007C414.959 242.946 415.076 243.975 414.309 244.741ZM417.94 241.801L418.423 241.318L416.093 236.212L415.606 236.698L417.708 241.045L417.667 241.087L413.317 238.988L412.833 239.471L417.94 241.801Z" fill="white"/>
<path d="M379.337 249.449C380.739 248.047 380.583 246.186 378.998 244.601L378.991 244.594C377.403 243.006 375.542 242.864 374.147 244.259C372.756 245.651 372.887 247.515 374.479 249.107L374.486 249.114C376.074 250.702 377.932 250.854 379.337 249.449ZM378.898 249.01C377.797 250.112 376.278 249.939 374.969 248.63L374.962 248.624C373.647 247.308 373.498 245.785 374.586 244.698C375.673 243.61 377.196 243.759 378.512 245.074L378.518 245.081C379.827 246.39 379.989 247.919 378.898 249.01ZM383.778 244.924C384.628 244.075 384.693 243.105 384.182 242.304L384.162 242.269L383.709 242.728L383.72 242.752C384.037 243.332 383.917 243.971 383.368 244.52C382.632 245.256 381.562 245.131 380.636 244.206L380.63 244.199C379.715 243.284 379.601 242.231 380.34 241.492C380.909 240.923 381.61 240.85 382.149 241.168L382.163 241.175L382.611 240.719L382.598 240.705C381.831 240.166 380.785 240.232 379.932 241.085C378.907 242.11 379.003 243.505 380.163 244.665L380.17 244.672C381.348 245.849 382.753 245.95 383.778 244.924ZM387.195 241.432C387.305 241.322 387.398 241.208 387.485 241.087L387.091 240.693C387.008 240.797 386.943 240.869 386.839 240.973C386.418 241.394 386.066 241.366 385.61 240.911L383.303 238.604L384.153 237.755L383.77 237.372L382.92 238.221L381.953 237.254L381.48 237.727L382.447 238.694L381.85 239.291L382.233 239.675L382.83 239.077L385.24 241.487C385.917 242.164 386.483 242.143 387.195 241.432Z" fill="white"/>
<path d="M347.718 249.904C348.792 248.831 348.927 247.529 348.046 246.649L348.043 246.645C347.349 245.951 346.513 245.951 345.243 246.752L344.614 247.146C343.685 247.729 343.098 247.757 342.66 247.318L342.657 247.315C342.101 246.759 342.253 245.868 342.94 245.181C343.644 244.47 344.483 244.37 345.035 244.777L345.08 244.815L345.553 244.342L345.505 244.301C344.732 243.645 343.489 243.755 342.515 244.729C341.521 245.723 341.396 247.015 342.187 247.805L342.19 247.809C342.878 248.496 343.723 248.499 344.953 247.726L345.578 247.329C346.517 246.735 347.159 246.721 347.618 247.18L347.625 247.187C348.184 247.747 348.053 248.693 347.304 249.442C346.537 250.208 345.588 250.405 344.987 249.908L344.946 249.873L344.473 250.346L344.514 250.381C345.384 251.106 346.665 250.958 347.718 249.904ZM351.663 245.877C352.484 245.055 352.578 244.064 352.219 243.415L352.201 243.377L351.742 243.837L351.752 243.875C351.922 244.285 351.804 244.914 351.262 245.456C350.523 246.195 349.525 246.15 348.642 245.294L351.435 242.5L351.241 242.307C350.14 241.206 348.78 241.074 347.782 242.072C346.784 243.07 346.901 244.486 348.062 245.646L348.068 245.653C349.235 246.82 350.62 246.92 351.663 245.877ZM348.189 242.48C348.828 241.841 349.722 241.817 350.599 242.59L348.272 244.917C347.526 244.054 347.547 243.122 348.189 242.48ZM355.1 244.781L355.555 244.325L353.598 242.368L353.643 242.323C354.326 242.599 355.113 242.426 355.676 241.864C356.619 240.921 356.484 239.523 355.331 238.369L355.324 238.363C354.178 237.216 352.776 237.078 351.833 238.021C351.264 238.59 351.108 239.353 351.388 240.068L351.343 240.113L350.604 239.374L350.148 239.83L355.1 244.781ZM355.176 241.549C354.444 242.281 353.377 242.161 352.458 241.242L352.451 241.235C351.536 240.32 351.416 239.253 352.148 238.521C352.883 237.786 353.939 237.91 354.858 238.829L354.865 238.836C355.787 239.757 355.911 240.814 355.176 241.549Z" fill="white"/>
<path d="M314.466 251.786L314.964 251.289L313.99 249.21L316.086 247.115L318.164 248.088L318.661 247.591L311.815 244.473L311.345 244.943L314.466 251.786ZM312.177 245.347L312.219 245.305L315.53 246.856L313.728 248.658L312.177 245.347ZM320.365 246.012C320.942 245.435 321.097 244.755 320.831 244.123L320.873 244.082L321.522 244.731L321.978 244.275L318.259 240.557L317.803 241.012L320.013 243.222C320.717 243.926 320.762 244.8 320.068 245.494C319.429 246.133 318.732 246.077 318.038 245.383L315.735 243.08L315.279 243.536L317.696 245.953C318.549 246.806 319.53 246.847 320.365 246.012ZM325.663 243.186C326.64 242.209 326.747 241.038 325.936 240.227L322.262 236.553L321.803 237.013L322.556 237.765L322.525 237.796C321.813 237.513 321.036 237.655 320.463 238.228C319.503 239.188 319.649 240.562 320.712 241.625L320.719 241.632C321.786 242.699 323.146 242.837 324.102 241.881C324.672 241.311 324.845 240.572 324.575 239.861L324.62 239.816L325.452 240.648C326.053 241.249 325.974 242.06 325.256 242.779C324.689 243.345 324.078 243.507 323.671 243.265H323.664L323.191 243.738V243.745C323.864 244.225 324.81 244.039 325.663 243.186ZM323.785 241.384C323.042 242.126 322.017 241.998 321.185 241.166L321.178 241.159C320.346 240.327 320.211 239.295 320.954 238.552C321.689 237.817 322.752 237.934 323.585 238.767L323.591 238.773C324.424 239.606 324.531 240.638 323.785 241.384Z" fill="white"/>
<path d="M284.84 250.457C285.731 249.566 285.717 248.475 284.812 247.57L281.184 243.942L280.711 244.415L284.319 248.023C284.985 248.689 285.013 249.407 284.402 250.018C283.863 250.557 283.193 250.529 282.717 250.122L282.689 250.101L282.216 250.574L282.254 250.605C282.993 251.261 284.018 251.279 284.84 250.457ZM288.436 246.778C289.012 246.202 289.168 245.521 288.902 244.89L288.943 244.848L289.592 245.497L290.048 245.042L286.33 241.323L285.874 241.779L288.084 243.988C288.788 244.693 288.833 245.566 288.139 246.26C287.5 246.899 286.803 246.844 286.109 246.15L283.806 243.847L283.35 244.303L285.767 246.72C286.62 247.572 287.6 247.614 288.436 246.778ZM290.961 244.129L291.417 243.673L286.217 238.473L285.762 238.929L290.961 244.129Z" fill="white"/>
<path d="M253.677 250.457C254.568 249.566 254.554 248.475 253.65 247.57L250.021 243.942L249.548 244.415L253.156 248.023C253.822 248.689 253.85 249.407 253.239 250.018C252.7 250.557 252.03 250.529 251.554 250.122L251.526 250.101L251.053 250.574L251.091 250.605C251.83 251.261 252.855 251.279 253.677 250.457ZM257.273 246.778C257.85 246.202 258.005 245.521 257.739 244.89L257.781 244.848L258.43 245.497L258.885 245.042L255.167 241.323L254.711 241.779L256.921 243.988C257.625 244.693 257.67 245.566 256.976 246.26C256.337 246.899 255.64 246.844 254.946 246.15L252.643 243.847L252.187 244.303L254.604 246.72C255.457 247.572 256.437 247.614 257.273 246.778ZM259.764 244.163L260.22 243.707L258.01 241.498C257.309 240.797 257.292 239.889 257.948 239.233C258.593 238.587 259.277 238.628 259.985 239.336L262.288 241.639L262.744 241.183L260.327 238.767C259.46 237.9 258.49 237.876 257.661 238.704C257.081 239.284 256.946 239.951 257.199 240.596L257.154 240.641L256.501 239.989L256.045 240.445L259.764 244.163Z" fill="white"/>
<path d="M221.365 251.399L221.807 250.958L217.743 246.894L217.777 246.859L223.557 249.207L223.968 248.796L221.624 243.013L221.658 242.978L225.722 247.042L226.164 246.6L221.182 241.618L220.636 242.164L223.163 248.358L223.122 248.399L216.924 245.875L216.382 246.417L221.365 251.399ZM228.189 244.7C228.738 244.151 228.924 243.446 228.703 242.784L228.745 242.742L229.383 243.381L229.842 242.922L227.301 240.38C226.518 239.597 225.554 239.648 224.684 240.519C223.914 241.289 223.731 242.231 224.228 242.922L224.239 242.939L224.698 242.48L224.695 242.469C224.422 242.003 224.574 241.444 225.078 240.94C225.679 240.339 226.3 240.298 226.846 240.843L227.194 241.192L226.11 242.428C225.309 243.346 225.206 244.203 225.851 244.848L225.858 244.855C226.521 245.518 227.47 245.418 228.189 244.7ZM226.317 244.382L226.31 244.375C225.889 243.954 225.955 243.412 226.545 242.739L227.567 241.565L227.999 241.996C228.589 242.587 228.541 243.547 227.874 244.213C227.374 244.714 226.742 244.807 226.317 244.382ZM232.123 243.21C232.72 242.613 232.772 242.098 232.316 241.097L229.775 235.552L229.292 236.035L231.398 240.379L231.349 240.427L227.002 238.325L226.512 238.815L231.65 241.163L231.836 241.536C232.13 242.133 232.071 242.495 231.726 242.841C231.664 242.903 231.591 242.975 231.525 243.02L231.905 243.4C231.981 243.345 232.061 243.272 232.123 243.21Z" fill="white"/>
<path d="M189.815 251.786L190.312 251.289L189.339 249.21L191.434 247.115L193.513 248.088L194.01 247.591L187.163 244.473L186.694 244.943L189.815 251.786ZM187.526 245.347L187.567 245.305L190.879 246.856L189.076 248.658L187.526 245.347ZM195.797 248.27L196.252 247.814L194.295 245.856L194.34 245.812C195.023 246.088 195.81 245.915 196.373 245.352C197.316 244.41 197.181 243.011 196.028 241.858L196.021 241.851C194.875 240.705 193.473 240.567 192.53 241.509C191.961 242.079 191.805 242.842 192.085 243.557L192.04 243.602L191.301 242.863L190.846 243.319L195.797 248.27ZM195.873 245.038C195.141 245.77 194.074 245.649 193.155 244.731L193.148 244.724C192.233 243.809 192.113 242.742 192.845 242.01C193.58 241.275 194.637 241.399 195.555 242.317L195.562 242.324C196.484 243.246 196.608 244.303 195.873 245.038ZM198.571 243.031L199.026 242.575L196.706 240.255C196.105 239.654 196.109 238.801 196.689 238.221C196.831 238.079 196.965 237.972 197.134 237.872L196.685 237.423C196.575 237.493 196.437 237.603 196.302 237.738C195.798 238.242 195.684 238.853 195.964 239.423L195.919 239.467L195.308 238.856L194.852 239.312L198.571 243.031Z" fill="white"/>
<path d="M159.039 251.399L159.481 250.958L155.417 246.894L155.452 246.859L161.231 249.207L161.642 248.796L159.298 243.013L159.332 242.978L163.396 247.042L163.838 246.6L158.856 241.618L158.31 242.164L160.838 248.358L160.796 248.399L154.599 245.875L154.057 246.417L159.039 251.399ZM165.863 244.7C166.412 244.151 166.598 243.446 166.377 242.784L166.419 242.742L167.058 243.381L167.517 242.922L164.976 240.38C164.192 239.597 163.229 239.648 162.358 240.519C161.589 241.289 161.406 242.231 161.903 242.922L161.913 242.939L162.372 242.48L162.369 242.469C162.096 242.003 162.248 241.444 162.752 240.94C163.353 240.339 163.974 240.298 164.52 240.843L164.869 241.192L163.784 242.428C162.983 243.346 162.88 244.203 163.525 244.848L163.532 244.855C164.195 245.518 165.145 245.418 165.863 244.7ZM163.992 244.382L163.985 244.375C163.563 243.954 163.629 243.412 164.219 242.739L165.241 241.565L165.673 241.996C166.263 242.587 166.215 243.547 165.549 244.213C165.048 244.714 164.416 244.807 163.992 244.382ZM168.375 242.064L168.83 241.608L166.51 239.288C165.909 238.687 165.913 237.834 166.493 237.254C166.634 237.113 166.769 237.006 166.938 236.906L166.489 236.457C166.379 236.526 166.241 236.636 166.106 236.771C165.602 237.275 165.488 237.886 165.768 238.456L165.723 238.501L165.112 237.89L164.656 238.345L168.375 242.064Z" fill="white"/>
<path d="M127.873 251.403L128.346 250.93L126.084 248.668L128.366 246.386L127.945 245.965L125.663 248.247L123.792 246.376L126.274 243.893L125.846 243.465L122.89 246.421L127.873 251.403ZM133.081 246.319C133.903 245.497 133.996 244.506 133.637 243.857L133.619 243.819L133.16 244.279L133.171 244.317C133.34 244.727 133.222 245.356 132.68 245.898C131.941 246.637 130.944 246.592 130.06 245.736L132.853 242.942L132.66 242.749C131.558 241.648 130.198 241.516 129.2 242.514C128.202 243.512 128.32 244.928 129.48 246.088L129.487 246.095C130.654 247.262 132.038 247.362 133.081 246.319ZM129.607 242.922C130.246 242.283 131.14 242.259 132.017 243.032L129.69 245.359C128.945 244.496 128.965 243.564 129.607 242.922ZM137.129 242.271C138.068 241.332 137.923 239.937 136.773 238.787L136.766 238.78C135.61 237.624 134.229 237.486 133.286 238.428C132.723 238.991 132.547 239.775 132.823 240.458L132.778 240.503L130.576 238.3L130.12 238.756L135.32 243.956L135.775 243.5L135.033 242.758L135.078 242.713C135.793 243 136.559 242.841 137.129 242.271ZM136.628 241.957C135.896 242.689 134.826 242.564 133.911 241.65L133.904 241.643C132.989 240.728 132.868 239.661 133.6 238.929C134.332 238.197 135.375 238.321 136.297 239.243L136.304 239.25C137.229 240.175 137.36 241.225 136.628 241.957Z" fill="white"/>
<path d="M97.863 250.457C98.7538 249.566 98.74 248.475 97.8354 247.57L94.2066 243.942L93.7336 244.415L97.3416 248.023C98.008 248.689 98.0356 249.407 97.4245 250.018C96.8859 250.557 96.2161 250.529 95.7396 250.122L95.712 250.101L95.239 250.574L95.277 250.605C96.0158 251.261 97.0413 251.279 97.863 250.457ZM101.21 247.027C101.759 246.478 101.946 245.774 101.725 245.111L101.766 245.069L102.405 245.708L102.864 245.249L100.323 242.708C99.5391 241.924 98.5758 241.976 97.7057 242.846C96.9358 243.616 96.7528 244.558 97.25 245.249L97.2603 245.266L97.7195 244.807L97.7161 244.796C97.4433 244.33 97.5952 243.771 98.0993 243.267C98.7001 242.666 99.3216 242.625 99.8671 243.17L100.216 243.519L99.1317 244.755C98.3306 245.673 98.2271 246.53 98.8727 247.175L98.8796 247.182C99.5425 247.845 100.492 247.745 101.21 247.027ZM99.3388 246.709L99.3319 246.702C98.9107 246.281 98.9763 245.739 99.5667 245.066L100.589 243.892L101.02 244.323C101.611 244.914 101.562 245.874 100.896 246.54C100.395 247.041 99.7635 247.134 99.3388 246.709ZM103.722 244.391L104.178 243.935L101.968 241.725C101.267 241.025 101.25 240.117 101.906 239.461C102.551 238.815 103.235 238.856 103.943 239.564L106.246 241.867L106.701 241.411L104.285 238.994C103.418 238.128 102.448 238.104 101.619 238.932C101.039 239.512 100.904 240.179 101.156 240.824L101.112 240.869L100.459 240.217L100.003 240.672L103.722 244.391Z" fill="white"/>
<path d="M59.3867 130H60.6992V126.537L63.6816 121.545H62.2227L60.0957 125.23H59.9961L57.8691 121.545H56.4102L59.3867 126.537V130ZM71.227 130.205C71.7836 130.205 72.2992 130.117 72.7504 129.941L73.4653 130.914H74.8188L73.7055 129.396C74.643 128.641 75.1703 127.381 75.1703 125.775V125.764C75.1703 123.051 73.6586 121.34 71.227 121.34C68.8012 121.34 67.2778 123.045 67.2778 125.764V125.775C67.2778 128.488 68.766 130.205 71.227 130.205ZM71.227 129.045C69.5981 129.045 68.6195 127.756 68.6195 125.775V125.764C68.6195 123.766 69.6274 122.5 71.227 122.5C72.8266 122.5 73.8285 123.766 73.8285 125.764V125.775C73.8285 126.895 73.5121 127.797 72.9438 128.365L72.2699 127.451H70.9164L72.0063 128.928C71.766 129.004 71.5024 129.045 71.227 129.045ZM78.5182 130.123C79.444 130.123 80.0885 129.725 80.3932 129.039H80.4928V130H81.7584V123.637H80.4928V127.369C80.4928 128.395 79.9479 129.033 78.9283 129.033C77.9967 129.033 77.61 128.512 77.61 127.457V123.637H76.3385V127.756C76.3385 129.262 77.0826 130.123 78.5182 130.123ZM84.9305 130.105C85.7743 130.105 86.4422 129.742 86.8172 129.098H86.9168V130H88.1766V125.646C88.1766 124.311 87.2743 123.514 85.6746 123.514C84.2274 123.514 83.2254 124.211 83.0731 125.254L83.0672 125.295H84.2918L84.2977 125.271C84.45 124.82 84.9129 124.562 85.616 124.562C86.4774 124.562 86.9168 124.949 86.9168 125.646V126.209L85.1942 126.309C83.6766 126.402 82.8211 127.064 82.8211 128.201V128.213C82.8211 129.367 83.7176 130.105 84.9305 130.105ZM84.0868 128.16V128.148C84.0868 127.574 84.4852 127.258 85.3641 127.205L86.9168 127.105V127.65C86.9168 128.471 86.2196 129.092 85.2703 129.092C84.5848 129.092 84.0868 128.746 84.0868 128.16ZM89.5616 130H90.833V126.268C90.833 125.242 91.4131 124.604 92.3448 124.604C93.2764 124.604 93.7159 125.125 93.7159 126.18V130H94.9815V125.881C94.9815 124.363 94.1963 123.514 92.7725 123.514C91.8467 123.514 91.2373 123.924 90.9268 124.604H90.833V123.637H89.5616V130ZM98.7512 130.041C98.9973 130.041 99.2317 130.012 99.4368 129.977V128.963C99.261 128.98 99.1497 128.986 98.9563 128.986C98.3293 128.986 98.0715 128.705 98.0715 128.02V124.639H99.4368V123.637H98.0715V122.031H96.7766V123.637H95.7805V124.639H96.7766V128.324C96.7766 129.549 97.3508 130.041 98.7512 130.041ZM101.173 122.5C101.607 122.5 101.97 122.143 101.97 121.709C101.97 121.27 101.607 120.912 101.173 120.912C100.734 120.912 100.376 121.27 100.376 121.709C100.376 122.143 100.734 122.5 101.173 122.5ZM100.535 130H101.8V123.637H100.535V130ZM105.646 130.041C105.892 130.041 106.127 130.012 106.332 129.977V128.963C106.156 128.98 106.045 128.986 105.851 128.986C105.224 128.986 104.966 128.705 104.966 128.02V124.639H106.332V123.637H104.966V122.031H103.672V123.637H102.675V124.639H103.672V128.324C103.672 129.549 104.246 130.041 105.646 130.041ZM108.027 132.238C109.316 132.238 109.961 131.764 110.5 130.246L112.867 123.637H111.531L109.943 128.723H109.832L108.238 123.637H106.867L109.176 130.006L109.082 130.334C108.894 130.979 108.537 131.23 107.945 131.23C107.799 131.23 107.64 131.225 107.517 131.207V132.209C107.682 132.227 107.869 132.238 108.027 132.238ZM117.242 132.121H120.037V131.154H118.467V122.107H120.037V121.141H117.242V132.121ZM123.127 130.123C124.053 130.123 124.698 129.725 125.002 129.039H125.102V130H126.368V123.637H125.102V127.369C125.102 128.395 124.557 129.033 123.538 129.033C122.606 129.033 122.219 128.512 122.219 127.457V123.637H120.948V127.756C120.948 129.262 121.692 130.123 123.127 130.123ZM127.794 130H129.065V126.268C129.065 125.242 129.645 124.604 130.577 124.604C131.508 124.604 131.948 125.125 131.948 126.18V130H133.214V125.881C133.214 124.363 132.428 123.514 131.005 123.514C130.079 123.514 129.469 123.924 129.159 124.604H129.065V123.637H127.794V130ZM135.243 122.5C135.677 122.5 136.04 122.143 136.04 121.709C136.04 121.27 135.677 120.912 135.243 120.912C134.804 120.912 134.446 121.27 134.446 121.709C134.446 122.143 134.804 122.5 135.243 122.5ZM134.604 130H135.87V123.637H134.604V130ZM139.716 130.041C139.962 130.041 140.196 130.012 140.401 129.977V128.963C140.226 128.98 140.114 128.986 139.921 128.986C139.294 128.986 139.036 128.705 139.036 128.02V124.639H140.401V123.637H139.036V122.031H137.741V123.637H136.745V124.639H137.741V128.324C137.741 129.549 138.316 130.041 139.716 130.041ZM143.697 130.123C145.208 130.123 146.333 129.32 146.333 128.143V128.131C146.333 127.211 145.747 126.689 144.523 126.402L143.515 126.174C142.8 126.004 142.507 125.758 142.507 125.359V125.348C142.507 124.838 143.011 124.492 143.708 124.492C144.423 124.492 144.874 124.826 144.997 125.271V125.283H146.21V125.277C146.099 124.24 145.167 123.514 143.714 123.514C142.273 123.514 141.242 124.311 141.242 125.418V125.424C141.242 126.355 141.798 126.9 142.999 127.176L144.013 127.41C144.751 127.58 145.05 127.85 145.05 128.248V128.26C145.05 128.781 144.505 129.139 143.72 129.139C142.964 129.139 142.501 128.816 142.343 128.336L142.337 128.33H141.066V128.336C141.189 129.402 142.161 130.123 143.697 130.123ZM149.781 132.121V121.141H146.98V122.107H148.556V131.154H146.98V132.121H149.781Z" fill="white"/>
<path d="M61.0113 150H61.6607V148.408H62.7154V147.808H61.6607V142.944H60.7037C59.1656 145.083 58.3209 146.401 57.4713 147.798V148.408H61.0113V150ZM58.1695 147.812V147.769C58.8775 146.602 59.5806 145.508 60.9674 143.584H61.0113V147.812H58.1695ZM66.0135 150.146C67.5613 150.146 68.4988 148.735 68.4988 146.484V146.47C68.4988 144.219 67.5613 142.808 66.0135 142.808C64.4656 142.808 63.5379 144.219 63.5379 146.47V146.484C63.5379 148.73 64.4656 150.146 66.0135 150.146ZM66.0135 149.561C64.8807 149.561 64.2068 148.374 64.2068 146.484V146.47C64.2068 144.58 64.8807 143.398 66.0135 143.398C67.1512 143.398 67.8299 144.575 67.8299 146.47V146.484C67.8299 148.374 67.1512 149.561 66.0135 149.561ZM71.8652 150.146C73.4131 150.146 74.3506 148.735 74.3506 146.484V146.47C74.3506 144.219 73.4131 142.808 71.8652 142.808C70.3174 142.808 69.3896 144.219 69.3896 146.47V146.484C69.3896 148.73 70.3174 150.146 71.8652 150.146ZM71.8652 149.561C70.7324 149.561 70.0586 148.374 70.0586 146.484V146.47C70.0586 144.58 70.7324 143.398 71.8652 143.398C73.0029 143.398 73.6816 144.575 73.6816 146.47V146.484C73.6816 148.374 73.0029 149.561 71.8652 149.561Z" fill="white"/>
<path d="M60.2691 170.112C61.6558 170.112 62.6764 169.248 62.6764 168.081V168.071C62.6764 167.07 61.9732 166.416 60.9234 166.333V166.313C61.8219 166.133 62.4224 165.522 62.4224 164.653V164.644C62.4224 163.594 61.5387 162.842 60.2398 162.842C58.9605 162.842 58.0865 163.604 57.984 164.688L57.9791 164.736H58.6236L58.6285 164.688C58.7017 163.94 59.3316 163.428 60.2398 163.428C61.1676 163.428 61.7535 163.931 61.7535 164.722V164.731C61.7535 165.508 61.0992 166.064 60.1617 166.064H59.3414V166.636H60.1861C61.3092 166.636 61.9976 167.163 61.9976 168.086V168.096C61.9976 168.931 61.2847 169.526 60.2691 169.526C59.2437 169.526 58.5699 168.979 58.4771 168.218L58.4722 168.174H57.8277L57.8326 168.228C57.9449 169.312 58.8482 170.112 60.2691 170.112ZM66.0135 170.146C67.5613 170.146 68.4988 168.735 68.4988 166.484V166.47C68.4988 164.219 67.5613 162.808 66.0135 162.808C64.4656 162.808 63.5379 164.219 63.5379 166.47V166.484C63.5379 168.73 64.4656 170.146 66.0135 170.146ZM66.0135 169.561C64.8807 169.561 64.2068 168.374 64.2068 166.484V166.47C64.2068 164.58 64.8807 163.398 66.0135 163.398C67.1512 163.398 67.8299 164.575 67.8299 166.47V166.484C67.8299 168.374 67.1512 169.561 66.0135 169.561ZM71.8652 170.146C73.4131 170.146 74.3506 168.735 74.3506 166.484V166.47C74.3506 164.219 73.4131 162.808 71.8652 162.808C70.3174 162.808 69.3896 164.219 69.3896 166.47V166.484C69.3896 168.73 70.3174 170.146 71.8652 170.146ZM71.8652 169.561C70.7324 169.561 70.0586 168.374 70.0586 166.484V166.47C70.0586 164.58 70.7324 163.398 71.8652 163.398C73.0029 163.398 73.6816 164.575 73.6816 166.47V166.484C73.6816 168.374 73.0029 169.561 71.8652 169.561Z" fill="white"/>
<path d="M58.1256 190H62.6568V189.395H59.0582V189.336L60.9039 187.422C62.1441 186.138 62.4859 185.557 62.4859 184.771V184.761C62.4859 183.643 61.5582 182.808 60.3424 182.808C59.0387 182.808 58.1012 183.682 58.0865 184.897L58.0963 184.902H58.7359V184.897C58.7457 184.009 59.3853 183.394 60.3033 183.394C61.2066 183.394 61.8072 184.014 61.8072 184.824V184.834C61.8072 185.474 61.5289 185.884 60.5523 186.929L58.1256 189.531V190ZM66.0135 190.146C67.5613 190.146 68.4988 188.735 68.4988 186.484V186.47C68.4988 184.219 67.5613 182.808 66.0135 182.808C64.4656 182.808 63.5379 184.219 63.5379 186.47V186.484C63.5379 188.73 64.4656 190.146 66.0135 190.146ZM66.0135 189.561C64.8807 189.561 64.2068 188.374 64.2068 186.484V186.47C64.2068 184.58 64.8807 183.398 66.0135 183.398C67.1512 183.398 67.8299 184.575 67.8299 186.47V186.484C67.8299 188.374 67.1512 189.561 66.0135 189.561ZM71.8652 190.146C73.4131 190.146 74.3506 188.735 74.3506 186.484V186.47C74.3506 184.219 73.4131 182.808 71.8652 182.808C70.3174 182.808 69.3896 184.219 69.3896 186.47V186.484C69.3896 188.73 70.3174 190.146 71.8652 190.146ZM71.8652 189.561C70.7324 189.561 70.0586 188.374 70.0586 186.484V186.47C70.0586 184.58 70.7324 183.398 71.8652 183.398C73.0029 183.398 73.6816 184.575 73.6816 186.47V186.484C73.6816 188.374 73.0029 189.561 71.8652 189.561Z" fill="white"/>
<path d="M61.3531 210H62.0172V202.954H61.358L59.4732 204.258V204.966L61.2945 203.701H61.3531V210ZM66.0135 210.146C67.5613 210.146 68.4988 208.735 68.4988 206.484V206.47C68.4988 204.219 67.5613 202.808 66.0135 202.808C64.4656 202.808 63.5379 204.219 63.5379 206.47V206.484C63.5379 208.73 64.4656 210.146 66.0135 210.146ZM66.0135 209.561C64.8807 209.561 64.2068 208.374 64.2068 206.484V206.47C64.2068 204.58 64.8807 203.398 66.0135 203.398C67.1512 203.398 67.8299 204.575 67.8299 206.47V206.484C67.8299 208.374 67.1512 209.561 66.0135 209.561ZM71.8652 210.146C73.4131 210.146 74.3506 208.735 74.3506 206.484V206.47C74.3506 204.219 73.4131 202.808 71.8652 202.808C70.3174 202.808 69.3896 204.219 69.3896 206.47V206.484C69.3896 208.73 70.3174 210.146 71.8652 210.146ZM71.8652 209.561C70.7324 209.561 70.0586 208.374 70.0586 206.484V206.47C70.0586 204.58 70.7324 203.398 71.8652 203.398C73.0029 203.398 73.6816 204.575 73.6816 206.47V206.484C73.6816 208.374 73.0029 209.561 71.8652 209.561Z" fill="white"/>
<path d="M68.8652 230.146C70.4131 230.146 71.3506 228.735 71.3506 226.484V226.47C71.3506 224.219 70.4131 222.808 68.8652 222.808C67.3174 222.808 66.3896 224.219 66.3896 226.47V226.484C66.3896 228.73 67.3174 230.146 68.8652 230.146ZM68.8652 229.561C67.7324 229.561 67.0586 228.374 67.0586 226.484V226.47C67.0586 224.58 67.7324 223.398 68.8652 223.398C70.0029 223.398 70.6816 224.575 70.6816 226.47V226.484C70.6816 228.374 70.0029 229.561 68.8652 229.561Z" fill="white"/>
<rect x="93" y="206" width="16" height="22" fill="#FF8CA1"/>
<rect x="93" y="182" width="16" height="24" fill="#FFDD81"/>
<rect x="93" y="172" width="16" height="10" fill="#60BFF4"/>
<rect x="124" y="188" width="16" height="6" fill="#FFDD81"/>
<rect x="124" y="152" width="16" height="36" fill="#60BFF4"/>
<rect x="124" y="194" width="16" height="34" fill="#FF8CA1"/>
<rect x="155" y="202" width="16" height="16" fill="#FFDD81"/>
<rect x="155" y="169" width="16" height="33" fill="#60BFF4"/>
<rect x="155" y="218" width="16" height="10" fill="#FF8CA1"/>
<rect x="186" y="211" width="16" height="7" fill="#FFDD81"/>
<rect x="186" y="157" width="16" height="54" fill="#60BFF4"/>
<rect x="186" y="218" width="16" height="10" fill="#FF8CA1"/>
<rect x="217" y="194" width="16" height="24" fill="#FFDD81"/>
<rect x="217" y="190" width="16" height="4" fill="#60BFF4"/>
<rect x="217" y="218" width="16" height="10" fill="#FF8CA1"/>
<rect x="248" y="181" width="16" height="21" fill="#FFDD81"/>
<rect x="248" y="151" width="16" height="30" fill="#60BFF4"/>
<rect x="248" y="202" width="16" height="26" fill="#FF8CA1"/>
<rect x="279" y="187" width="16" height="7" fill="#FFDD81"/>
<rect x="279" y="172" width="16" height="15" fill="#60BFF4"/>
<rect x="279" y="194" width="16" height="34" fill="#FF8CA1"/>
<rect x="310" y="162" width="16" height="20" fill="#FFDD81"/>
<rect x="310" y="152" width="16" height="10" fill="#60BFF4"/>
<rect x="310" y="182" width="16" height="46" fill="#FF8CA1"/>
<rect x="341" y="171" width="16" height="5" fill="#FFDD81"/>
<rect x="341" y="145" width="16" height="26" fill="#60BFF4"/>
<rect x="341" y="176" width="16" height="52" fill="#FF8CA1"/>
<rect x="372" y="188" width="16" height="6" fill="#FFDD81"/>
<rect x="372" y="162" width="16" height="26" fill="#60BFF4"/>
<rect x="372" y="194" width="16" height="34" fill="#FF8CA1"/>
<rect x="403" y="193" width="16" height="18" fill="#FFDD81"/>
<rect x="403" y="167" width="16" height="26" fill="#60BFF4"/>
<rect x="403" y="211" width="16" height="17" fill="#FF8CA1"/>
<rect x="434" y="196" width="16" height="7" fill="#FFDD81"/>
<rect x="434" y="170" width="16" height="26" fill="#60BFF4"/>
<rect x="434" y="203" width="16" height="25" fill="#FF8CA1"/>
</g>
<defs>
<filter id="filter0_f_12_618" x="161" y="-59" width="668" height="655" filterUnits="userSpaceOnUse" color-interpolation-filters="sRGB">
<feFlood flood-opacity="0" result="BackgroundImageFix"/>
<feBlend mode="normal" in="SourceGraphic" in2="BackgroundImageFix" result="shape"/>
<feGaussianBlur stdDeviation="100" result="effect1_foregroundBlur_12_618"/>
</filter>
<filter id="filter1_f_12_618" x="-198" y="-189" width="560" height="557" filterUnits="userSpaceOnUse" color-interpolation-filters="sRGB">
<feFlood flood-opacity="0" result="BackgroundImageFix"/>
<feBlend mode="normal" in="SourceGraphic" in2="BackgroundImageFix" result="shape"/>
<feGaussianBlur stdDeviation="100" result="effect1_foregroundBlur_12_618"/>
</filter>
<filter id="filter2_bd_12_618" x="-36" y="-36" width="592" height="403" filterUnits="userSpaceOnUse" color-interpolation-filters="sRGB">
<feFlood flood-opacity="0" result="BackgroundImageFix"/>
<feGaussianBlur in="BackgroundImage" stdDeviation="30"/>
<feComposite in2="SourceAlpha" operator="in" result="effect1_backgroundBlur_12_618"/>
<feColorMatrix in="SourceAlpha" type="matrix" values="0 0 0 0 0 0 0 0 0 0 0 0 0 0 0 0 0 0 127 0" result="hardAlpha"/>
<feOffset dy="-10"/>
<feGaussianBlur stdDeviation="10"/>
<feComposite in2="hardAlpha" operator="out"/>
<feColorMatrix type="matrix" values="0 0 0 0 0.160784 0 0 0 0 0.152941 0 0 0 0 0.509804 0 0 0 0.15 0"/>
<feBlend mode="normal" in2="effect1_backgroundBlur_12_618" result="effect2_dropShadow_12_618"/>
<feBlend mode="normal" in="SourceGraphic" in2="effect2_dropShadow_12_618" result="shape"/>
</filter>
<clipPath id="clip0_12_618">
<rect width="520" height="331" fill="white"/>
</clipPath>
</defs>
</svg>
