<svg width="314" height="334" viewBox="0 0 314 334" fill="none" xmlns="http://www.w3.org/2000/svg">
<g clip-path="url(#clip0_19_1858)">
<rect width="314" height="334" fill="#09203F"/>
<g filter="url(#filter0_f_19_1858)">
<ellipse cx="95" cy="352.5" rx="134" ry="127.5" fill="#537895"/>
</g>
<g filter="url(#filter1_f_19_1858)">
<ellipse cx="393.5" rx="95.5" ry="95" fill="#537895"/>
</g>
<g filter="url(#filter2_bd_19_1858)">
<rect x="24" y="24" width="266" height="286" fill="white" fill-opacity="0.2" shape-rendering="crispEdges"/>
<rect x="24.5" y="24.5" width="265" height="285" stroke="white" stroke-opacity="0.2" shape-rendering="crispEdges"/>
</g>
<path d="M200.79 160.21C210.981 170.401 217.725 183.527 220.076 197.746C222.427 211.965 220.266 226.563 213.897 239.492C207.528 252.42 197.271 263.03 184.565 269.832C171.859 276.634 157.342 279.286 143.052 277.417L146.614 250.18C155.216 251.305 163.953 249.709 171.601 245.614C179.249 241.52 185.422 235.134 189.256 227.353C193.089 219.571 194.39 210.785 192.975 202.226C191.56 193.668 187.501 185.767 181.367 179.633L200.79 160.21Z" fill="#FF8CA1"/>
<path d="M172.489 274.888C155.852 280.061 137.873 278.75 122.163 271.215C106.453 263.681 94.1747 250.483 87.7938 234.27C81.4129 218.057 81.4017 200.03 87.7626 183.81C94.1234 167.589 106.385 154.375 122.086 146.822L133.957 171.497C124.487 176.053 117.092 184.023 113.255 193.806C109.418 203.59 109.425 214.463 113.274 224.242C117.122 234.02 124.528 241.981 134.004 246.525C143.479 251.07 154.323 251.861 164.358 248.74L172.489 274.888Z" fill="#FFDD81"/>
<path d="M200.79 160.21C190.566 149.985 177.389 143.232 163.118 140.902C148.848 138.572 134.207 140.784 121.262 147.225C108.317 153.666 97.7221 164.011 90.9744 176.799C84.2267 189.588 81.6668 204.172 83.6563 218.494L111.026 214.692C109.833 206.106 111.368 197.362 115.413 189.695C119.459 182.028 125.81 175.826 133.571 171.964C141.332 168.102 150.11 166.776 158.666 168.173C167.221 169.57 175.122 173.619 181.251 179.748L200.79 160.21Z" fill="#60BFF4"/>
<path d="M57.084 88H59.8672C62.4512 88 63.8809 86.4004 63.8809 83.7754V83.7637C63.8809 81.1445 62.4453 79.5449 59.8672 79.5449H57.084V88ZM57.8867 87.2734V80.2715H59.8203C61.8828 80.2715 63.0605 81.5898 63.0605 83.7695V83.7812C63.0605 85.9609 61.8887 87.2734 59.8203 87.2734H57.8867ZM67.7502 88.1055C69.1447 88.1055 70.0647 87.3438 70.3108 86.4883L70.3283 86.4414H69.549L69.5256 86.4824C69.3205 86.9746 68.6877 87.4082 67.7678 87.4082C66.5139 87.4082 65.7053 86.5234 65.6818 85.0469H70.4221V84.7188C70.4221 82.8496 69.3791 81.584 67.6858 81.584C65.9924 81.584 64.8908 82.8848 64.8908 84.8535V84.8652C64.8908 86.8457 65.9807 88.1055 67.7502 88.1055ZM67.6858 82.2754C68.7697 82.2754 69.549 83.0137 69.6369 84.4141H65.6877C65.7873 83.0488 66.5959 82.2754 67.6858 82.2754ZM73.7992 88.1055C75.1762 88.1055 76.2367 87.3438 76.2367 86.2598V86.248C76.2367 85.3398 75.6449 84.8477 74.4262 84.5547L73.5531 84.3496C72.7153 84.1504 72.3285 83.8516 72.3285 83.3359V83.3242C72.3285 82.6973 72.9789 82.2344 73.8051 82.2344C74.643 82.2344 75.2289 82.6328 75.3695 83.2188H76.1313C75.9848 82.2227 75.0824 81.584 73.811 81.584C72.5395 81.584 71.5375 82.3398 71.5375 83.3594V83.3652C71.5375 84.25 72.0824 84.7363 73.2543 85.0117L74.1332 85.2227C75.0531 85.4395 75.4457 85.7617 75.4457 86.3066V86.3184C75.4457 86.9746 74.7485 87.4492 73.8227 87.4492C72.9086 87.4492 72.3051 87.0449 72.1352 86.418H71.3383C71.4672 87.4492 72.4223 88.1055 73.7992 88.1055ZM80.0006 88.1055C81.442 88.1055 82.3209 87.3379 82.567 86.2246L82.5787 86.1777L81.8053 86.1836L81.7936 86.2129C81.5709 86.9746 80.9264 87.4141 79.9948 87.4141C78.7467 87.4141 77.944 86.4004 77.944 84.8301V84.8184C77.944 83.2656 78.7408 82.2754 79.9948 82.2754C80.9615 82.2754 81.6178 82.8086 81.8053 83.5352L81.8112 83.5527L82.5787 83.5469V83.5234C82.3854 82.416 81.442 81.584 79.9948 81.584C78.2545 81.584 77.153 82.8496 77.153 84.8184V84.8301C77.153 86.8281 78.2604 88.1055 80.0006 88.1055ZM83.7762 88H84.5496V84.0625C84.5496 83.043 85.2762 82.3223 86.2606 82.3223C86.5008 82.3223 86.7059 82.3457 86.9344 82.4043V81.6426C86.7821 81.6074 86.5711 81.584 86.3426 81.584C85.4871 81.584 84.8719 82.0059 84.6258 82.7266H84.5496V81.6895H83.7762V88ZM88.2725 80.377C88.583 80.377 88.8409 80.125 88.8409 79.8086C88.8409 79.4922 88.583 79.2402 88.2725 79.2402C87.9561 79.2402 87.6983 79.4922 87.6983 79.8086C87.6983 80.125 87.9561 80.377 88.2725 80.377ZM87.8799 88H88.6534V81.6895H87.8799V88ZM90.261 90.0918H91.0344V86.7695H91.1106C91.4563 87.584 92.2708 88.1055 93.2258 88.1055C94.8254 88.1055 95.8977 86.8047 95.8977 84.8477V84.8359C95.8977 82.8906 94.8254 81.584 93.2258 81.584C92.259 81.584 91.4797 82.0996 91.1106 82.9434H91.0344V81.6895H90.261V90.0918ZM93.0676 87.4141C91.8254 87.4141 91.0227 86.4062 91.0227 84.8477V84.8359C91.0227 83.2832 91.8254 82.2754 93.0676 82.2754C94.3157 82.2754 95.1067 83.2773 95.1067 84.8359V84.8477C95.1067 86.4121 94.3157 87.4141 93.0676 87.4141ZM99.228 88.041C99.4155 88.041 99.5913 88.0234 99.767 87.9941V87.3262C99.6088 87.3438 99.4917 87.3496 99.3159 87.3496C98.601 87.3496 98.3256 87.0273 98.3256 86.2539V82.3398H99.767V81.6895H98.3256V80.0488H97.5229V81.6895H96.5092V82.3398H97.5229V86.4297C97.5229 87.5781 98.021 88.041 99.228 88.041ZM101.404 80.377C101.715 80.377 101.972 80.125 101.972 79.8086C101.972 79.4922 101.715 79.2402 101.404 79.2402C101.088 79.2402 100.83 79.4922 100.83 79.8086C100.83 80.125 101.088 80.377 101.404 80.377ZM101.011 88H101.785V81.6895H101.011V88ZM105.15 88H105.971L108.326 81.6895H107.5L105.596 87.1621H105.525L103.615 81.6895H102.795L105.15 88ZM111.621 88.1055C113.016 88.1055 113.936 87.3438 114.182 86.4883L114.199 86.4414H113.42L113.397 86.4824C113.191 86.9746 112.559 87.4082 111.639 87.4082C110.385 87.4082 109.576 86.5234 109.553 85.0469H114.293V84.7188C114.293 82.8496 113.25 81.584 111.557 81.584C109.863 81.584 108.762 82.8848 108.762 84.8535V84.8652C108.762 86.8457 109.852 88.1055 111.621 88.1055ZM111.557 82.2754C112.641 82.2754 113.42 83.0137 113.508 84.4141H109.559C109.658 83.0488 110.467 82.2754 111.557 82.2754ZM121.188 88.1758C123.01 88.1758 124.229 87.1855 124.229 85.6914V85.6855C124.229 84.5078 123.52 83.7988 121.762 83.4004L120.895 83.2012C119.612 82.9082 119.09 82.4336 119.09 81.6895V81.6836C119.09 80.7402 119.975 80.1133 121.141 80.1133C122.342 80.1074 123.139 80.7344 123.262 81.5488L123.268 81.6191H124.071L124.065 81.543C123.965 80.3301 122.817 79.3691 121.165 79.3691C119.477 79.3691 118.276 80.3594 118.276 81.7012V81.707C118.276 82.873 118.991 83.5938 120.69 83.9805L121.557 84.1738C122.858 84.4668 123.415 85 123.415 85.7793V85.791C123.415 86.7402 122.5 87.4316 121.229 87.4316C119.928 87.4316 118.956 86.793 118.868 85.8613L118.862 85.7969H118.059L118.065 85.8613C118.188 87.2148 119.401 88.1758 121.188 88.1758ZM127.653 88.1055C128.632 88.1055 129.341 87.6602 129.651 86.8984H129.721V88H130.495V81.6895H129.721V85.4395C129.721 86.6348 129.018 87.4141 127.841 87.4141C126.757 87.4141 126.212 86.7754 126.212 85.5977V81.6895H125.438V85.791C125.438 87.2383 126.235 88.1055 127.653 88.1055ZM135.091 88.1055C136.684 88.1055 137.745 86.7988 137.745 84.8477V84.8359C137.745 82.873 136.69 81.584 135.091 81.584C134.136 81.584 133.321 82.0996 132.976 82.9141H132.899V79.1758H132.126V88H132.899V86.7402H132.976C133.339 87.5898 134.124 88.1055 135.091 88.1055ZM134.933 87.4141C133.69 87.4141 132.888 86.4004 132.888 84.8477V84.8359C132.888 83.2832 133.69 82.2754 134.933 82.2754C136.175 82.2754 136.954 83.2656 136.954 84.8301V84.8418C136.954 86.4121 136.175 87.4141 134.933 87.4141ZM141.081 88.041C141.269 88.041 141.444 88.0234 141.62 87.9941V87.3262C141.462 87.3438 141.345 87.3496 141.169 87.3496C140.454 87.3496 140.179 87.0273 140.179 86.2539V82.3398H141.62V81.6895H140.179V80.0488H139.376V81.6895H138.362V82.3398H139.376V86.4297C139.376 87.5781 139.874 88.041 141.081 88.041ZM143.257 80.377C143.568 80.377 143.826 80.125 143.826 79.8086C143.826 79.4922 143.568 79.2402 143.257 79.2402C142.941 79.2402 142.683 79.4922 142.683 79.8086C142.683 80.125 142.941 80.377 143.257 80.377ZM142.865 88H143.638V81.6895H142.865V88ZM147.332 88.041C147.519 88.041 147.695 88.0234 147.871 87.9941V87.3262C147.712 87.3438 147.595 87.3496 147.419 87.3496C146.705 87.3496 146.429 87.0273 146.429 86.2539V82.3398H147.871V81.6895H146.429V80.0488H145.627V81.6895H144.613V82.3398H145.627V86.4297C145.627 87.5781 146.125 88.041 147.332 88.041ZM149.138 88H149.912V79.1758H149.138V88ZM154.086 88.1055C155.48 88.1055 156.4 87.3438 156.646 86.4883L156.664 86.4414H155.885L155.861 86.4824C155.656 86.9746 155.023 87.4082 154.103 87.4082C152.85 87.4082 152.041 86.5234 152.018 85.0469H156.758V84.7188C156.758 82.8496 155.715 81.584 154.021 81.584C152.328 81.584 151.227 82.8848 151.227 84.8535V84.8652C151.227 86.8457 152.316 88.1055 154.086 88.1055ZM154.021 82.2754C155.105 82.2754 155.885 83.0137 155.973 84.4141H152.023C152.123 83.0488 152.932 82.2754 154.021 82.2754Z" fill="white"/>
<path d="M62.0938 68.2812C64.6953 68.2812 66.5625 66.7734 66.8594 64.5156V64.4609H64.8828L64.875 64.5C64.5859 65.7422 63.5234 66.5391 62.0938 66.5391C60.1719 66.5391 58.9766 64.9375 58.9766 62.3672V62.3516C58.9766 59.7891 60.1719 58.1875 62.0859 58.1875C63.5078 58.1875 64.5859 59.0703 64.875 60.4062L64.8828 60.4375H66.8594V60.375C66.5938 58.0703 64.6484 56.4453 62.0859 56.4453C58.8906 56.4453 56.9141 58.7031 56.9141 62.3594V62.375C56.9141 66.0156 58.8984 68.2812 62.0938 68.2812ZM68.5764 68H70.5217V63.0234C70.5217 61.7422 71.2404 60.9297 72.3967 60.9297C73.5764 60.9297 74.1154 61.6016 74.1154 62.9297V68H76.0608V62.4766C76.0608 60.4453 75.0217 59.2969 73.1154 59.2969C71.8811 59.2969 71.0608 59.8516 70.6545 60.7656H70.5217V56.1562H68.5764V68ZM80.2778 68.1406C81.4028 68.1406 82.309 67.6562 82.7778 66.8281H82.9106V68H84.8324V62.1641C84.8324 60.3594 83.5981 59.2969 81.4028 59.2969C79.3715 59.2969 77.9965 60.25 77.809 61.6875L77.8012 61.7578H79.6371L79.6449 61.7266C79.8403 61.1641 80.4184 60.8438 81.309 60.8438C82.3559 60.8438 82.9106 61.3125 82.9106 62.1641V62.8984L80.7153 63.0312C78.6371 63.1562 77.4731 64.0469 77.4731 65.5703V65.5859C77.4731 67.1406 78.6528 68.1406 80.2778 68.1406ZM79.3949 65.4922V65.4766C79.3949 64.7734 79.9028 64.375 80.9887 64.3047L82.9106 64.1797V64.8672C82.9106 65.8828 82.0434 66.6484 80.8715 66.6484C80.0121 66.6484 79.3949 66.2188 79.3949 65.4922ZM86.7604 68H88.7057V63.0391C88.7057 61.8203 89.5573 61.0469 90.8541 61.0469C91.1901 61.0469 91.5104 61.0938 91.8229 61.1562V59.4141C91.6354 59.3594 91.3307 59.3203 91.0338 59.3203C89.9088 59.3203 89.1276 59.8594 88.8385 60.7734H88.7057V59.4609H86.7604V68ZM96.5555 68.0391C96.9305 68.0391 97.2899 68.0078 97.5711 67.9531V66.4531C97.3368 66.4766 97.1883 66.4844 96.9149 66.4844C96.1024 66.4844 95.7664 66.125 95.7664 65.2734V60.9688H97.5711V59.4609H95.7664V57.3672H93.7899V59.4609H92.4618V60.9688H93.7899V65.7344C93.7899 67.3828 94.5946 68.0391 96.5555 68.0391ZM105.966 68H107.982V58.4219H111.458V56.7266H102.497V58.4219H105.966V68ZM113.8 58.0312C114.433 58.0312 114.957 57.5234 114.957 56.8828C114.957 56.25 114.433 55.7344 113.8 55.7344C113.16 55.7344 112.636 56.25 112.636 56.8828C112.636 57.5234 113.16 58.0312 113.8 58.0312ZM112.824 68H114.769V59.4609H112.824V68ZM120.111 68.0391C120.486 68.0391 120.845 68.0078 121.127 67.9531V66.4531C120.892 66.4766 120.744 66.4844 120.47 66.4844C119.658 66.4844 119.322 66.125 119.322 65.2734V60.9688H121.127V59.4609H119.322V57.3672H117.345V59.4609H116.017V60.9688H117.345V65.7344C117.345 67.3828 118.15 68.0391 120.111 68.0391ZM122.734 68H124.68V56.1562H122.734V68ZM130.389 68.1719C132.709 68.1719 133.85 66.8359 134.123 65.7344L134.147 65.6641H132.295L132.272 65.7188C132.084 66.1094 131.482 66.6406 130.428 66.6406C129.107 66.6406 128.279 65.75 128.256 64.2188H134.225V63.5781C134.225 61 132.725 59.2969 130.295 59.2969C127.865 59.2969 126.311 61.0547 126.311 63.7422V63.75C126.311 66.4688 127.85 68.1719 130.389 68.1719ZM130.318 60.8203C131.404 60.8203 132.193 61.5156 132.326 62.9141H128.272C128.42 61.5547 129.232 60.8203 130.318 60.8203Z" fill="white"/>
<rect x="250" y="90" width="8" height="8" fill="#FFDD81"/>
<path d="M219.233 98H223.427V97.3945H219.902V90.9541H219.233V98ZM225.763 98.0879C226.539 98.0879 227.169 97.7217 227.482 97.0967H227.54V98H228.19V94.4062C228.19 93.2979 227.472 92.6533 226.242 92.6533C225.153 92.6533 224.357 93.1904 224.22 94.0303L224.215 94.0498H224.865L224.87 94.04C225.006 93.5176 225.509 93.2295 226.222 93.2295C227.072 93.2295 227.54 93.6396 227.54 94.4111V94.9043L225.9 95.0117C224.684 95.0947 224.005 95.627 224.005 96.54V96.5498C224.005 97.4873 224.747 98.0879 225.763 98.0879ZM224.664 96.54V96.5303C224.664 95.9346 225.094 95.5977 225.988 95.5391L227.54 95.4316V96.042C227.54 96.877 226.828 97.5215 225.885 97.5215C225.177 97.5215 224.664 97.1406 224.664 96.54ZM231.922 98.0879C233.251 98.0879 234.134 96.999 234.134 95.373V95.3633C234.134 93.7275 233.255 92.6533 231.922 92.6533C231.127 92.6533 230.448 93.083 230.16 93.7617H230.096V90.6465H229.452V98H230.096V96.9502H230.16C230.462 97.6582 231.117 98.0879 231.922 98.0879ZM231.791 97.5117C230.755 97.5117 230.087 96.667 230.087 95.373V95.3633C230.087 94.0693 230.755 93.2295 231.791 93.2295C232.826 93.2295 233.475 94.0547 233.475 95.3584V95.3682C233.475 96.6768 232.826 97.5117 231.791 97.5117ZM237.227 98.0879C238.389 98.0879 239.156 97.4531 239.361 96.7402L239.376 96.7012H238.726L238.707 96.7354C238.536 97.1455 238.009 97.5068 237.242 97.5068C236.197 97.5068 235.523 96.7695 235.504 95.5391H239.454V95.2656C239.454 93.708 238.585 92.6533 237.174 92.6533C235.762 92.6533 234.845 93.7373 234.845 95.3779V95.3877C234.845 97.0381 235.753 98.0879 237.227 98.0879ZM237.174 93.2295C238.077 93.2295 238.726 93.8447 238.8 95.0117H235.509C235.592 93.874 236.265 93.2295 237.174 93.2295ZM240.481 98H241.126V90.6465H240.481V98Z" fill="white"/>
<rect x="250" y="75" width="8" height="8" fill="#60BFF4"/>
<path d="M219.233 83H223.427V82.3945H219.902V75.9541H219.233V83ZM225.763 83.0879C226.539 83.0879 227.169 82.7217 227.482 82.0967H227.54V83H228.19V79.4062C228.19 78.2979 227.472 77.6533 226.242 77.6533C225.153 77.6533 224.357 78.1904 224.22 79.0303L224.215 79.0498H224.865L224.87 79.04C225.006 78.5176 225.509 78.2295 226.222 78.2295C227.072 78.2295 227.54 78.6396 227.54 79.4111V79.9043L225.9 80.0117C224.684 80.0947 224.005 80.627 224.005 81.54V81.5498C224.005 82.4873 224.747 83.0879 225.763 83.0879ZM224.664 81.54V81.5303C224.664 80.9346 225.094 80.5977 225.988 80.5391L227.54 80.4316V81.042C227.54 81.877 226.828 82.5215 225.885 82.5215C225.177 82.5215 224.664 82.1406 224.664 81.54ZM231.922 83.0879C233.251 83.0879 234.134 81.999 234.134 80.373V80.3633C234.134 78.7275 233.255 77.6533 231.922 77.6533C231.127 77.6533 230.448 78.083 230.16 78.7617H230.096V75.6465H229.452V83H230.096V81.9502H230.16C230.462 82.6582 231.117 83.0879 231.922 83.0879ZM231.791 82.5117C230.755 82.5117 230.087 81.667 230.087 80.373V80.3633C230.087 79.0693 230.755 78.2295 231.791 78.2295C232.826 78.2295 233.475 79.0547 233.475 80.3584V80.3682C233.475 81.6768 232.826 82.5117 231.791 82.5117ZM237.227 83.0879C238.389 83.0879 239.156 82.4531 239.361 81.7402L239.376 81.7012H238.726L238.707 81.7354C238.536 82.1455 238.009 82.5068 237.242 82.5068C236.197 82.5068 235.523 81.7695 235.504 80.5391H239.454V80.2656C239.454 78.708 238.585 77.6533 237.174 77.6533C235.762 77.6533 234.845 78.7373 234.845 80.3779V80.3877C234.845 82.0381 235.753 83.0879 237.227 83.0879ZM237.174 78.2295C238.077 78.2295 238.726 78.8447 238.8 80.0117H235.509C235.592 78.874 236.265 78.2295 237.174 78.2295ZM240.481 83H241.126V75.6465H240.481V83Z" fill="white"/>
<rect x="250" y="105" width="8" height="8" fill="#FF8CA1"/>
<path d="M219.233 113H223.427V112.395H219.902V105.954H219.233V113ZM225.763 113.088C226.539 113.088 227.169 112.722 227.482 112.097H227.54V113H228.19V109.406C228.19 108.298 227.472 107.653 226.242 107.653C225.153 107.653 224.357 108.19 224.22 109.03L224.215 109.05H224.865L224.87 109.04C225.006 108.518 225.509 108.229 226.222 108.229C227.072 108.229 227.54 108.64 227.54 109.411V109.904L225.9 110.012C224.684 110.095 224.005 110.627 224.005 111.54V111.55C224.005 112.487 224.747 113.088 225.763 113.088ZM224.664 111.54V111.53C224.664 110.935 225.094 110.598 225.988 110.539L227.54 110.432V111.042C227.54 111.877 226.828 112.521 225.885 112.521C225.177 112.521 224.664 112.141 224.664 111.54ZM231.922 113.088C233.251 113.088 234.134 111.999 234.134 110.373V110.363C234.134 108.728 233.255 107.653 231.922 107.653C231.127 107.653 230.448 108.083 230.16 108.762H230.096V105.646H229.452V113H230.096V111.95H230.16C230.462 112.658 231.117 113.088 231.922 113.088ZM231.791 112.512C230.755 112.512 230.087 111.667 230.087 110.373V110.363C230.087 109.069 230.755 108.229 231.791 108.229C232.826 108.229 233.475 109.055 233.475 110.358V110.368C233.475 111.677 232.826 112.512 231.791 112.512ZM237.227 113.088C238.389 113.088 239.156 112.453 239.361 111.74L239.376 111.701H238.726L238.707 111.735C238.536 112.146 238.009 112.507 237.242 112.507C236.197 112.507 235.523 111.77 235.504 110.539H239.454V110.266C239.454 108.708 238.585 107.653 237.174 107.653C235.762 107.653 234.845 108.737 234.845 110.378V110.388C234.845 112.038 235.753 113.088 237.227 113.088ZM237.174 108.229C238.077 108.229 238.726 108.845 238.8 110.012H235.509C235.592 108.874 236.265 108.229 237.174 108.229ZM240.481 113H241.126V105.646H240.481V113Z" fill="white"/>
<path d="M185.586 63H190.619V62.2734H186.389V54.5449H185.586V63ZM193.979 63.1055C195.373 63.1055 196.293 62.3438 196.539 61.4883L196.557 61.4414H195.777L195.754 61.4824C195.549 61.9746 194.916 62.4082 193.996 62.4082C192.742 62.4082 191.934 61.5234 191.91 60.0469H196.651V59.7188C196.651 57.8496 195.608 56.584 193.914 56.584C192.221 56.584 191.119 57.8848 191.119 59.8535V59.8652C191.119 61.8457 192.209 63.1055 193.979 63.1055ZM193.914 57.2754C194.998 57.2754 195.777 58.0137 195.865 59.4141H191.916C192.016 58.0488 192.824 57.2754 193.914 57.2754ZM200.467 65.2031C202.125 65.2031 203.209 64.3008 203.209 62.9238V56.6895H202.43V57.9668H202.377C202.014 57.123 201.235 56.584 200.262 56.584C198.633 56.584 197.59 57.873 197.59 59.6777V59.6895C197.59 61.5 198.627 62.7715 200.25 62.7715C201.217 62.7715 201.991 62.291 202.366 61.459H202.442V62.8711C202.442 63.8906 201.686 64.5117 200.467 64.5117C199.506 64.5117 198.85 64.1309 198.709 63.5801L198.703 63.5742H197.901L197.895 63.5801C198.059 64.5586 199.02 65.2031 200.467 65.2031ZM200.403 62.0801C199.143 62.0801 198.381 61.1016 198.381 59.6895V59.6777C198.381 58.2656 199.143 57.2754 200.403 57.2754C201.651 57.2754 202.453 58.2773 202.453 59.6895V59.7012C202.453 61.1133 201.668 62.0801 200.403 62.0801ZM207.319 63.1055C208.713 63.1055 209.633 62.3438 209.879 61.4883L209.897 61.4414H209.118L209.094 61.4824C208.889 61.9746 208.256 62.4082 207.336 62.4082C206.083 62.4082 205.274 61.5234 205.251 60.0469H209.991V59.7188C209.991 57.8496 208.948 56.584 207.254 56.584C205.561 56.584 204.46 57.8848 204.46 59.8535V59.8652C204.46 61.8457 205.549 63.1055 207.319 63.1055ZM207.254 57.2754C208.338 57.2754 209.118 58.0137 209.206 59.4141H205.256C205.356 58.0488 206.165 57.2754 207.254 57.2754ZM211.247 63H212.02V59.25C212.02 58.0605 212.776 57.2754 213.889 57.2754C214.985 57.2754 215.53 57.8906 215.53 59.0918V63H216.303V58.8984C216.303 57.4277 215.501 56.584 214.094 56.584C213.11 56.584 212.43 57.0352 212.096 57.7969H212.02V56.6895H211.247V63ZM220.173 63.1055C221.145 63.1055 221.925 62.5898 222.294 61.7402H222.364V63H223.144V54.1758H222.364V57.9199H222.294C221.942 57.1055 221.128 56.584 220.173 56.584C218.573 56.584 217.507 57.8848 217.507 59.8418V59.8535C217.507 61.7988 218.579 63.1055 220.173 63.1055ZM220.337 62.4141C219.089 62.4141 218.298 61.4121 218.298 59.8477V59.8359C218.298 58.2773 219.089 57.2754 220.337 57.2754C221.579 57.2754 222.382 58.2832 222.382 59.8359V59.8477C222.382 61.4062 221.579 62.4141 220.337 62.4141ZM227.695 63H228.486V55.9746H228.562L233.507 63H234.281V54.5449H233.49V61.5645H233.413L228.486 54.5449H227.695V63ZM237.687 63.1055C238.619 63.1055 239.375 62.666 239.75 61.916H239.82V63H240.599V58.6875C240.599 57.3574 239.738 56.584 238.261 56.584C236.955 56.584 236 57.2285 235.836 58.2363L235.83 58.2598H236.609L236.615 58.248C236.779 57.6211 237.382 57.2754 238.238 57.2754C239.257 57.2754 239.82 57.7676 239.82 58.6934V59.2852L237.851 59.4141C236.392 59.5137 235.578 60.1523 235.578 61.248V61.2598C235.578 62.3848 236.468 63.1055 237.687 63.1055ZM236.369 61.248V61.2363C236.369 60.5215 236.884 60.1172 237.957 60.0469L239.82 59.918V60.6504C239.82 61.6523 238.964 62.4258 237.834 62.4258C236.984 62.4258 236.369 61.9688 236.369 61.248ZM242.137 63H242.91V59.127C242.91 58.0957 243.613 57.2754 244.527 57.2754C245.4 57.2754 245.974 57.8672 245.974 58.7754V63H246.748V58.998C246.748 58.0195 247.398 57.2754 248.371 57.2754C249.32 57.2754 249.818 57.8262 249.818 58.8574V63H250.597V58.6816C250.597 57.3457 249.865 56.584 248.599 56.584C247.691 56.584 246.953 57.0703 246.631 57.8262H246.554C246.285 57.0703 245.652 56.584 244.767 56.584C243.906 56.584 243.256 57.0469 242.986 57.8027H242.91V56.6895H242.137V63ZM254.654 63.1055C256.049 63.1055 256.969 62.3438 257.215 61.4883L257.232 61.4414H256.453L256.43 61.4824C256.225 61.9746 255.592 62.4082 254.672 62.4082C253.418 62.4082 252.609 61.5234 252.586 60.0469H257.326V59.7188C257.326 57.8496 256.283 56.584 254.59 56.584C252.896 56.584 251.795 57.8848 251.795 59.8535V59.8652C251.795 61.8457 252.885 63.1055 254.654 63.1055ZM254.59 57.2754C255.674 57.2754 256.453 58.0137 256.541 59.4141H252.592C252.691 58.0488 253.5 57.2754 254.59 57.2754Z" fill="white"/>
</g>
<defs>
<filter id="filter0_f_19_1858" x="-239" y="25" width="668" height="655" filterUnits="userSpaceOnUse" color-interpolation-filters="sRGB">
<feFlood flood-opacity="0" result="BackgroundImageFix"/>
<feBlend mode="normal" in="SourceGraphic" in2="BackgroundImageFix" result="shape"/>
<feGaussianBlur stdDeviation="100" result="effect1_foregroundBlur_19_1858"/>
</filter>
<filter id="filter1_f_19_1858" x="98" y="-295" width="591" height="590" filterUnits="userSpaceOnUse" color-interpolation-filters="sRGB">
<feFlood flood-opacity="0" result="BackgroundImageFix"/>
<feBlend mode="normal" in="SourceGraphic" in2="BackgroundImageFix" result="shape"/>
<feGaussianBlur stdDeviation="100" result="effect1_foregroundBlur_19_1858"/>
</filter>
<filter id="filter2_bd_19_1858" x="-36" y="-36" width="386" height="406" filterUnits="userSpaceOnUse" color-interpolation-filters="sRGB">
<feFlood flood-opacity="0" result="BackgroundImageFix"/>
<feGaussianBlur in="BackgroundImage" stdDeviation="30"/>
<feComposite in2="SourceAlpha" operator="in" result="effect1_backgroundBlur_19_1858"/>
<feColorMatrix in="SourceAlpha" type="matrix" values="0 0 0 0 0 0 0 0 0 0 0 0 0 0 0 0 0 0 127 0" result="hardAlpha"/>
<feOffset dy="-10"/>
<feGaussianBlur stdDeviation="10"/>
<feComposite in2="hardAlpha" operator="out"/>
<feColorMatrix type="matrix" values="0 0 0 0 0.160784 0 0 0 0 0.152941 0 0 0 0 0.509804 0 0 0 0.15 0"/>
<feBlend mode="normal" in2="effect1_backgroundBlur_19_1858" result="effect2_dropShadow_19_1858"/>
<feBlend mode="normal" in="SourceGraphic" in2="effect2_dropShadow_19_1858" result="shape"/>
</filter>
<clipPath id="clip0_19_1858">
<rect width="314" height="334" fill="white"/>
</clipPath>
</defs>
</svg>
