<svg width="1016" height="331" viewBox="0 0 1016 331" fill="none" xmlns="http://www.w3.org/2000/svg">
<g clip-path="url(#clip0_13_1450)">
<rect width="1016" height="331" fill="#09203F"/>
<g filter="url(#filter0_f_13_1450)">
<ellipse cx="235" cy="352.5" rx="134" ry="127.5" fill="#537895"/>
</g>
<g filter="url(#filter1_f_13_1450)">
<ellipse cx="985.5" cy="334" rx="126.5" ry="123" fill="#537895"/>
</g>
<g filter="url(#filter2_f_13_1450)">
<ellipse cx="610.5" cy="22" rx="95.5" ry="95" fill="#537895"/>
</g>
<g filter="url(#filter3_bd_13_1450)">
<rect x="24" y="24" width="968" height="283" fill="white" fill-opacity="0.2" shape-rendering="crispEdges"/>
<rect x="24.5" y="24.5" width="967" height="282" stroke="white" stroke-opacity="0.2" shape-rendering="crispEdges"/>
</g>
<path d="M57.084 88H59.8672C62.4512 88 63.8809 86.4004 63.8809 83.7754V83.7637C63.8809 81.1445 62.4453 79.5449 59.8672 79.5449H57.084V88ZM57.8867 87.2734V80.2715H59.8203C61.8828 80.2715 63.0605 81.5898 63.0605 83.7695V83.7812C63.0605 85.9609 61.8887 87.2734 59.8203 87.2734H57.8867ZM67.7502 88.1055C69.1447 88.1055 70.0647 87.3438 70.3108 86.4883L70.3283 86.4414H69.549L69.5256 86.4824C69.3205 86.9746 68.6877 87.4082 67.7678 87.4082C66.5139 87.4082 65.7053 86.5234 65.6818 85.0469H70.4221V84.7188C70.4221 82.8496 69.3791 81.584 67.6858 81.584C65.9924 81.584 64.8908 82.8848 64.8908 84.8535V84.8652C64.8908 86.8457 65.9807 88.1055 67.7502 88.1055ZM67.6858 82.2754C68.7697 82.2754 69.549 83.0137 69.6369 84.4141H65.6877C65.7873 83.0488 66.5959 82.2754 67.6858 82.2754ZM73.7992 88.1055C75.1762 88.1055 76.2367 87.3438 76.2367 86.2598V86.248C76.2367 85.3398 75.6449 84.8477 74.4262 84.5547L73.5531 84.3496C72.7153 84.1504 72.3285 83.8516 72.3285 83.3359V83.3242C72.3285 82.6973 72.9789 82.2344 73.8051 82.2344C74.643 82.2344 75.2289 82.6328 75.3695 83.2188H76.1313C75.9848 82.2227 75.0824 81.584 73.811 81.584C72.5395 81.584 71.5375 82.3398 71.5375 83.3594V83.3652C71.5375 84.25 72.0824 84.7363 73.2543 85.0117L74.1332 85.2227C75.0531 85.4395 75.4457 85.7617 75.4457 86.3066V86.3184C75.4457 86.9746 74.7485 87.4492 73.8227 87.4492C72.9086 87.4492 72.3051 87.0449 72.1352 86.418H71.3383C71.4672 87.4492 72.4223 88.1055 73.7992 88.1055ZM80.0006 88.1055C81.442 88.1055 82.3209 87.3379 82.567 86.2246L82.5787 86.1777L81.8053 86.1836L81.7936 86.2129C81.5709 86.9746 80.9264 87.4141 79.9948 87.4141C78.7467 87.4141 77.944 86.4004 77.944 84.8301V84.8184C77.944 83.2656 78.7408 82.2754 79.9948 82.2754C80.9615 82.2754 81.6178 82.8086 81.8053 83.5352L81.8112 83.5527L82.5787 83.5469V83.5234C82.3854 82.416 81.442 81.584 79.9948 81.584C78.2545 81.584 77.153 82.8496 77.153 84.8184V84.8301C77.153 86.8281 78.2604 88.1055 80.0006 88.1055ZM83.7762 88H84.5496V84.0625C84.5496 83.043 85.2762 82.3223 86.2606 82.3223C86.5008 82.3223 86.7059 82.3457 86.9344 82.4043V81.6426C86.7821 81.6074 86.5711 81.584 86.3426 81.584C85.4871 81.584 84.8719 82.0059 84.6258 82.7266H84.5496V81.6895H83.7762V88ZM88.2725 80.377C88.583 80.377 88.8409 80.125 88.8409 79.8086C88.8409 79.4922 88.583 79.2402 88.2725 79.2402C87.9561 79.2402 87.6983 79.4922 87.6983 79.8086C87.6983 80.125 87.9561 80.377 88.2725 80.377ZM87.8799 88H88.6534V81.6895H87.8799V88ZM90.261 90.0918H91.0344V86.7695H91.1106C91.4563 87.584 92.2708 88.1055 93.2258 88.1055C94.8254 88.1055 95.8977 86.8047 95.8977 84.8477V84.8359C95.8977 82.8906 94.8254 81.584 93.2258 81.584C92.259 81.584 91.4797 82.0996 91.1106 82.9434H91.0344V81.6895H90.261V90.0918ZM93.0676 87.4141C91.8254 87.4141 91.0227 86.4062 91.0227 84.8477V84.8359C91.0227 83.2832 91.8254 82.2754 93.0676 82.2754C94.3157 82.2754 95.1067 83.2773 95.1067 84.8359V84.8477C95.1067 86.4121 94.3157 87.4141 93.0676 87.4141ZM99.228 88.041C99.4155 88.041 99.5913 88.0234 99.767 87.9941V87.3262C99.6088 87.3438 99.4917 87.3496 99.3159 87.3496C98.601 87.3496 98.3256 87.0273 98.3256 86.2539V82.3398H99.767V81.6895H98.3256V80.0488H97.5229V81.6895H96.5092V82.3398H97.5229V86.4297C97.5229 87.5781 98.021 88.041 99.228 88.041ZM101.404 80.377C101.715 80.377 101.972 80.125 101.972 79.8086C101.972 79.4922 101.715 79.2402 101.404 79.2402C101.088 79.2402 100.83 79.4922 100.83 79.8086C100.83 80.125 101.088 80.377 101.404 80.377ZM101.011 88H101.785V81.6895H101.011V88ZM105.15 88H105.971L108.326 81.6895H107.5L105.596 87.1621H105.525L103.615 81.6895H102.795L105.15 88ZM111.621 88.1055C113.016 88.1055 113.936 87.3438 114.182 86.4883L114.199 86.4414H113.42L113.397 86.4824C113.191 86.9746 112.559 87.4082 111.639 87.4082C110.385 87.4082 109.576 86.5234 109.553 85.0469H114.293V84.7188C114.293 82.8496 113.25 81.584 111.557 81.584C109.863 81.584 108.762 82.8848 108.762 84.8535V84.8652C108.762 86.8457 109.852 88.1055 111.621 88.1055ZM111.557 82.2754C112.641 82.2754 113.42 83.0137 113.508 84.4141H109.559C109.658 83.0488 110.467 82.2754 111.557 82.2754ZM121.188 88.1758C123.01 88.1758 124.229 87.1855 124.229 85.6914V85.6855C124.229 84.5078 123.52 83.7988 121.762 83.4004L120.895 83.2012C119.612 82.9082 119.09 82.4336 119.09 81.6895V81.6836C119.09 80.7402 119.975 80.1133 121.141 80.1133C122.342 80.1074 123.139 80.7344 123.262 81.5488L123.268 81.6191H124.071L124.065 81.543C123.965 80.3301 122.817 79.3691 121.165 79.3691C119.477 79.3691 118.276 80.3594 118.276 81.7012V81.707C118.276 82.873 118.991 83.5938 120.69 83.9805L121.557 84.1738C122.858 84.4668 123.415 85 123.415 85.7793V85.791C123.415 86.7402 122.5 87.4316 121.229 87.4316C119.928 87.4316 118.956 86.793 118.868 85.8613L118.862 85.7969H118.059L118.065 85.8613C118.188 87.2148 119.401 88.1758 121.188 88.1758ZM127.653 88.1055C128.632 88.1055 129.341 87.6602 129.651 86.8984H129.721V88H130.495V81.6895H129.721V85.4395C129.721 86.6348 129.018 87.4141 127.841 87.4141C126.757 87.4141 126.212 86.7754 126.212 85.5977V81.6895H125.438V85.791C125.438 87.2383 126.235 88.1055 127.653 88.1055ZM135.091 88.1055C136.684 88.1055 137.745 86.7988 137.745 84.8477V84.8359C137.745 82.873 136.69 81.584 135.091 81.584C134.136 81.584 133.321 82.0996 132.976 82.9141H132.899V79.1758H132.126V88H132.899V86.7402H132.976C133.339 87.5898 134.124 88.1055 135.091 88.1055ZM134.933 87.4141C133.69 87.4141 132.888 86.4004 132.888 84.8477V84.8359C132.888 83.2832 133.69 82.2754 134.933 82.2754C136.175 82.2754 136.954 83.2656 136.954 84.8301V84.8418C136.954 86.4121 136.175 87.4141 134.933 87.4141ZM141.081 88.041C141.269 88.041 141.444 88.0234 141.62 87.9941V87.3262C141.462 87.3438 141.345 87.3496 141.169 87.3496C140.454 87.3496 140.179 87.0273 140.179 86.2539V82.3398H141.62V81.6895H140.179V80.0488H139.376V81.6895H138.362V82.3398H139.376V86.4297C139.376 87.5781 139.874 88.041 141.081 88.041ZM143.257 80.377C143.568 80.377 143.826 80.125 143.826 79.8086C143.826 79.4922 143.568 79.2402 143.257 79.2402C142.941 79.2402 142.683 79.4922 142.683 79.8086C142.683 80.125 142.941 80.377 143.257 80.377ZM142.865 88H143.638V81.6895H142.865V88ZM147.332 88.041C147.519 88.041 147.695 88.0234 147.871 87.9941V87.3262C147.712 87.3438 147.595 87.3496 147.419 87.3496C146.705 87.3496 146.429 87.0273 146.429 86.2539V82.3398H147.871V81.6895H146.429V80.0488H145.627V81.6895H144.613V82.3398H145.627V86.4297C145.627 87.5781 146.125 88.041 147.332 88.041ZM149.138 88H149.912V79.1758H149.138V88ZM154.086 88.1055C155.48 88.1055 156.4 87.3438 156.646 86.4883L156.664 86.4414H155.885L155.861 86.4824C155.656 86.9746 155.023 87.4082 154.103 87.4082C152.85 87.4082 152.041 86.5234 152.018 85.0469H156.758V84.7188C156.758 82.8496 155.715 81.584 154.021 81.584C152.328 81.584 151.227 82.8848 151.227 84.8535V84.8652C151.227 86.8457 152.316 88.1055 154.086 88.1055ZM154.021 82.2754C155.105 82.2754 155.885 83.0137 155.973 84.4141H152.023C152.123 83.0488 152.932 82.2754 154.021 82.2754Z" fill="white"/>
<path d="M62.0938 68.2812C64.6953 68.2812 66.5625 66.7734 66.8594 64.5156V64.4609H64.8828L64.875 64.5C64.5859 65.7422 63.5234 66.5391 62.0938 66.5391C60.1719 66.5391 58.9766 64.9375 58.9766 62.3672V62.3516C58.9766 59.7891 60.1719 58.1875 62.0859 58.1875C63.5078 58.1875 64.5859 59.0703 64.875 60.4062L64.8828 60.4375H66.8594V60.375C66.5938 58.0703 64.6484 56.4453 62.0859 56.4453C58.8906 56.4453 56.9141 58.7031 56.9141 62.3594V62.375C56.9141 66.0156 58.8984 68.2812 62.0938 68.2812ZM68.5764 68H70.5217V63.0234C70.5217 61.7422 71.2404 60.9297 72.3967 60.9297C73.5764 60.9297 74.1154 61.6016 74.1154 62.9297V68H76.0608V62.4766C76.0608 60.4453 75.0217 59.2969 73.1154 59.2969C71.8811 59.2969 71.0608 59.8516 70.6545 60.7656H70.5217V56.1562H68.5764V68ZM80.2778 68.1406C81.4028 68.1406 82.309 67.6562 82.7778 66.8281H82.9106V68H84.8324V62.1641C84.8324 60.3594 83.5981 59.2969 81.4028 59.2969C79.3715 59.2969 77.9965 60.25 77.809 61.6875L77.8012 61.7578H79.6371L79.6449 61.7266C79.8403 61.1641 80.4184 60.8438 81.309 60.8438C82.3559 60.8438 82.9106 61.3125 82.9106 62.1641V62.8984L80.7153 63.0312C78.6371 63.1562 77.4731 64.0469 77.4731 65.5703V65.5859C77.4731 67.1406 78.6528 68.1406 80.2778 68.1406ZM79.3949 65.4922V65.4766C79.3949 64.7734 79.9028 64.375 80.9887 64.3047L82.9106 64.1797V64.8672C82.9106 65.8828 82.0434 66.6484 80.8715 66.6484C80.0121 66.6484 79.3949 66.2188 79.3949 65.4922ZM86.7604 68H88.7057V63.0391C88.7057 61.8203 89.5573 61.0469 90.8541 61.0469C91.1901 61.0469 91.5104 61.0938 91.8229 61.1562V59.4141C91.6354 59.3594 91.3307 59.3203 91.0338 59.3203C89.9088 59.3203 89.1276 59.8594 88.8385 60.7734H88.7057V59.4609H86.7604V68ZM96.5555 68.0391C96.9305 68.0391 97.2899 68.0078 97.5711 67.9531V66.4531C97.3368 66.4766 97.1883 66.4844 96.9149 66.4844C96.1024 66.4844 95.7664 66.125 95.7664 65.2734V60.9688H97.5711V59.4609H95.7664V57.3672H93.7899V59.4609H92.4618V60.9688H93.7899V65.7344C93.7899 67.3828 94.5946 68.0391 96.5555 68.0391ZM105.966 68H107.982V58.4219H111.458V56.7266H102.497V58.4219H105.966V68ZM113.8 58.0312C114.433 58.0312 114.957 57.5234 114.957 56.8828C114.957 56.25 114.433 55.7344 113.8 55.7344C113.16 55.7344 112.636 56.25 112.636 56.8828C112.636 57.5234 113.16 58.0312 113.8 58.0312ZM112.824 68H114.769V59.4609H112.824V68ZM120.111 68.0391C120.486 68.0391 120.845 68.0078 121.127 67.9531V66.4531C120.892 66.4766 120.744 66.4844 120.47 66.4844C119.658 66.4844 119.322 66.125 119.322 65.2734V60.9688H121.127V59.4609H119.322V57.3672H117.345V59.4609H116.017V60.9688H117.345V65.7344C117.345 67.3828 118.15 68.0391 120.111 68.0391ZM122.734 68H124.68V56.1562H122.734V68ZM130.389 68.1719C132.709 68.1719 133.85 66.8359 134.123 65.7344L134.147 65.6641H132.295L132.272 65.7188C132.084 66.1094 131.482 66.6406 130.428 66.6406C129.107 66.6406 128.279 65.75 128.256 64.2188H134.225V63.5781C134.225 61 132.725 59.2969 130.295 59.2969C127.865 59.2969 126.311 61.0547 126.311 63.7422V63.75C126.311 66.4688 127.85 68.1719 130.389 68.1719ZM130.318 60.8203C131.404 60.8203 132.193 61.5156 132.326 62.9141H128.272C128.42 61.5547 129.232 60.8203 130.318 60.8203Z" fill="white"/>
<rect x="370" y="79" width="8" height="8" fill="#FFDD81"/>
<path d="M339.233 87H343.427V86.3945H339.902V79.9541H339.233V87ZM345.763 87.0879C346.539 87.0879 347.169 86.7217 347.482 86.0967H347.54V87H348.19V83.4062C348.19 82.2979 347.472 81.6533 346.242 81.6533C345.153 81.6533 344.357 82.1904 344.22 83.0303L344.215 83.0498H344.865L344.87 83.04C345.006 82.5176 345.509 82.2295 346.222 82.2295C347.072 82.2295 347.54 82.6396 347.54 83.4111V83.9043L345.9 84.0117C344.684 84.0947 344.005 84.627 344.005 85.54V85.5498C344.005 86.4873 344.747 87.0879 345.763 87.0879ZM344.664 85.54V85.5303C344.664 84.9346 345.094 84.5977 345.988 84.5391L347.54 84.4316V85.042C347.54 85.877 346.828 86.5215 345.885 86.5215C345.177 86.5215 344.664 86.1406 344.664 85.54ZM351.922 87.0879C353.251 87.0879 354.134 85.999 354.134 84.373V84.3633C354.134 82.7275 353.255 81.6533 351.922 81.6533C351.127 81.6533 350.448 82.083 350.16 82.7617H350.096V79.6465H349.452V87H350.096V85.9502H350.16C350.462 86.6582 351.117 87.0879 351.922 87.0879ZM351.791 86.5117C350.755 86.5117 350.087 85.667 350.087 84.373V84.3633C350.087 83.0693 350.755 82.2295 351.791 82.2295C352.826 82.2295 353.475 83.0547 353.475 84.3584V84.3682C353.475 85.6768 352.826 86.5117 351.791 86.5117ZM357.227 87.0879C358.389 87.0879 359.156 86.4531 359.361 85.7402L359.376 85.7012H358.726L358.707 85.7354C358.536 86.1455 358.009 86.5068 357.242 86.5068C356.197 86.5068 355.523 85.7695 355.504 84.5391H359.454V84.2656C359.454 82.708 358.585 81.6533 357.174 81.6533C355.762 81.6533 354.845 82.7373 354.845 84.3779V84.3877C354.845 86.0381 355.753 87.0879 357.227 87.0879ZM357.174 82.2295C358.077 82.2295 358.726 82.8447 358.8 84.0117H355.509C355.592 82.874 356.265 82.2295 357.174 82.2295ZM360.481 87H361.126V79.6465H360.481V87Z" fill="white"/>
<rect x="304" y="79" width="8" height="8" fill="#60BFF4"/>
<path d="M273.233 87H277.427V86.3945H273.902V79.9541H273.233V87ZM279.763 87.0879C280.539 87.0879 281.169 86.7217 281.482 86.0967H281.54V87H282.19V83.4062C282.19 82.2979 281.472 81.6533 280.242 81.6533C279.153 81.6533 278.357 82.1904 278.22 83.0303L278.215 83.0498H278.865L278.87 83.04C279.006 82.5176 279.509 82.2295 280.222 82.2295C281.072 82.2295 281.54 82.6396 281.54 83.4111V83.9043L279.9 84.0117C278.684 84.0947 278.005 84.627 278.005 85.54V85.5498C278.005 86.4873 278.747 87.0879 279.763 87.0879ZM278.664 85.54V85.5303C278.664 84.9346 279.094 84.5977 279.988 84.5391L281.54 84.4316V85.042C281.54 85.877 280.828 86.5215 279.885 86.5215C279.177 86.5215 278.664 86.1406 278.664 85.54ZM285.922 87.0879C287.251 87.0879 288.134 85.999 288.134 84.373V84.3633C288.134 82.7275 287.255 81.6533 285.922 81.6533C285.127 81.6533 284.448 82.083 284.16 82.7617H284.096V79.6465H283.452V87H284.096V85.9502H284.16C284.462 86.6582 285.117 87.0879 285.922 87.0879ZM285.791 86.5117C284.755 86.5117 284.087 85.667 284.087 84.373V84.3633C284.087 83.0693 284.755 82.2295 285.791 82.2295C286.826 82.2295 287.475 83.0547 287.475 84.3584V84.3682C287.475 85.6768 286.826 86.5117 285.791 86.5117ZM291.227 87.0879C292.389 87.0879 293.156 86.4531 293.361 85.7402L293.376 85.7012H292.726L292.707 85.7354C292.536 86.1455 292.009 86.5068 291.242 86.5068C290.197 86.5068 289.523 85.7695 289.504 84.5391H293.454V84.2656C293.454 82.708 292.585 81.6533 291.174 81.6533C289.762 81.6533 288.845 82.7373 288.845 84.3779V84.3877C288.845 86.0381 289.753 87.0879 291.227 87.0879ZM291.174 82.2295C292.077 82.2295 292.726 82.8447 292.8 84.0117H289.509C289.592 82.874 290.265 82.2295 291.174 82.2295ZM294.481 87H295.126V79.6465H294.481V87Z" fill="white"/>
<rect x="436" y="78" width="8" height="8" fill="#FF8CA1"/>
<path d="M405.233 86H409.427V85.3945H405.902V78.9541H405.233V86ZM411.763 86.0879C412.539 86.0879 413.169 85.7217 413.482 85.0967H413.54V86H414.19V82.4062C414.19 81.2979 413.472 80.6533 412.242 80.6533C411.153 80.6533 410.357 81.1904 410.22 82.0303L410.215 82.0498H410.865L410.87 82.04C411.006 81.5176 411.509 81.2295 412.222 81.2295C413.072 81.2295 413.54 81.6396 413.54 82.4111V82.9043L411.9 83.0117C410.684 83.0947 410.005 83.627 410.005 84.54V84.5498C410.005 85.4873 410.747 86.0879 411.763 86.0879ZM410.664 84.54V84.5303C410.664 83.9346 411.094 83.5977 411.988 83.5391L413.54 83.4316V84.042C413.54 84.877 412.828 85.5215 411.885 85.5215C411.177 85.5215 410.664 85.1406 410.664 84.54ZM417.922 86.0879C419.251 86.0879 420.134 84.999 420.134 83.373V83.3633C420.134 81.7275 419.255 80.6533 417.922 80.6533C417.127 80.6533 416.448 81.083 416.16 81.7617H416.096V78.6465H415.452V86H416.096V84.9502H416.16C416.462 85.6582 417.117 86.0879 417.922 86.0879ZM417.791 85.5117C416.755 85.5117 416.087 84.667 416.087 83.373V83.3633C416.087 82.0693 416.755 81.2295 417.791 81.2295C418.826 81.2295 419.475 82.0547 419.475 83.3584V83.3682C419.475 84.6768 418.826 85.5117 417.791 85.5117ZM423.227 86.0879C424.389 86.0879 425.156 85.4531 425.361 84.7402L425.376 84.7012H424.726L424.707 84.7354C424.536 85.1455 424.009 85.5068 423.242 85.5068C422.197 85.5068 421.523 84.7695 421.504 83.5391H425.454V83.2656C425.454 81.708 424.585 80.6533 423.174 80.6533C421.762 80.6533 420.845 81.7373 420.845 83.3779V83.3877C420.845 85.0381 421.753 86.0879 423.227 86.0879ZM423.174 81.2295C424.077 81.2295 424.726 81.8447 424.8 83.0117H421.509C421.592 81.874 422.265 81.2295 423.174 81.2295ZM426.481 86H427.126V78.6465H426.481V86Z" fill="white"/>
<path d="M272.835 67H277.869V66.2734H273.638V58.5449H272.835V67ZM281.228 67.1055C282.623 67.1055 283.543 66.3438 283.789 65.4883L283.806 65.4414H283.027L283.004 65.4824C282.799 65.9746 282.166 66.4082 281.246 66.4082C279.992 66.4082 279.183 65.5234 279.16 64.0469H283.9V63.7188C283.9 61.8496 282.857 60.584 281.164 60.584C279.47 60.584 278.369 61.8848 278.369 63.8535V63.8652C278.369 65.8457 279.459 67.1055 281.228 67.1055ZM281.164 61.2754C282.248 61.2754 283.027 62.0137 283.115 63.4141H279.166C279.265 62.0488 280.074 61.2754 281.164 61.2754ZM287.717 69.2031C289.375 69.2031 290.459 68.3008 290.459 66.9238V60.6895H289.68V61.9668H289.627C289.264 61.123 288.484 60.584 287.512 60.584C285.883 60.584 284.84 61.873 284.84 63.6777V63.6895C284.84 65.5 285.877 66.7715 287.5 66.7715C288.467 66.7715 289.24 66.291 289.615 65.459H289.691V66.8711C289.691 67.8906 288.935 68.5117 287.717 68.5117C286.756 68.5117 286.1 68.1309 285.959 67.5801L285.953 67.5742H285.15L285.144 67.5801C285.309 68.5586 286.269 69.2031 287.717 69.2031ZM287.652 66.0801C286.392 66.0801 285.631 65.1016 285.631 63.6895V63.6777C285.631 62.2656 286.392 61.2754 287.652 61.2754C288.9 61.2754 289.703 62.2773 289.703 63.6895V63.7012C289.703 65.1133 288.918 66.0801 287.652 66.0801ZM294.568 67.1055C295.963 67.1055 296.883 66.3438 297.129 65.4883L297.147 65.4414H296.367L296.344 65.4824C296.139 65.9746 295.506 66.4082 294.586 66.4082C293.332 66.4082 292.524 65.5234 292.5 64.0469H297.24V63.7188C297.24 61.8496 296.197 60.584 294.504 60.584C292.811 60.584 291.709 61.8848 291.709 63.8535V63.8652C291.709 65.8457 292.799 67.1055 294.568 67.1055ZM294.504 61.2754C295.588 61.2754 296.367 62.0137 296.455 63.4141H292.506C292.606 62.0488 293.414 61.2754 294.504 61.2754ZM298.496 67H299.27V63.25C299.27 62.0605 300.026 61.2754 301.139 61.2754C302.235 61.2754 302.78 61.8906 302.78 63.0918V67H303.553V62.8984C303.553 61.4277 302.75 60.584 301.344 60.584C300.36 60.584 299.68 61.0352 299.346 61.7969H299.27V60.6895H298.496V67ZM307.422 67.1055C308.395 67.1055 309.174 66.5898 309.543 65.7402H309.614V67H310.393V58.1758H309.614V61.9199H309.543C309.192 61.1055 308.377 60.584 307.422 60.584C305.823 60.584 304.756 61.8848 304.756 63.8418V63.8535C304.756 65.7988 305.829 67.1055 307.422 67.1055ZM307.586 66.4141C306.338 66.4141 305.547 65.4121 305.547 63.8477V63.8359C305.547 62.2773 306.338 61.2754 307.586 61.2754C308.829 61.2754 309.631 62.2832 309.631 63.8359V63.8477C309.631 65.4062 308.829 66.4141 307.586 66.4141ZM316.86 67H317.657V58.5449H316.866L314.604 60.1094V60.959L316.79 59.4414H316.86V67ZM322.695 67H323.486V59.9746H323.562L328.507 67H329.281V58.5449H328.49V65.5645H328.413L323.486 58.5449H322.695V67ZM332.687 67.1055C333.619 67.1055 334.375 66.666 334.75 65.916H334.82V67H335.599V62.6875C335.599 61.3574 334.738 60.584 333.261 60.584C331.955 60.584 331 61.2285 330.836 62.2363L330.83 62.2598H331.609L331.615 62.248C331.779 61.6211 332.382 61.2754 333.238 61.2754C334.257 61.2754 334.82 61.7676 334.82 62.6934V63.2852L332.851 63.4141C331.392 63.5137 330.578 64.1523 330.578 65.248V65.2598C330.578 66.3848 331.468 67.1055 332.687 67.1055ZM331.369 65.248V65.2363C331.369 64.5215 331.884 64.1172 332.957 64.0469L334.82 63.918V64.6504C334.82 65.6523 333.964 66.4258 332.834 66.4258C331.984 66.4258 331.369 65.9688 331.369 65.248ZM337.137 67H337.91V63.127C337.91 62.0957 338.613 61.2754 339.527 61.2754C340.4 61.2754 340.974 61.8672 340.974 62.7754V67H341.748V62.998C341.748 62.0195 342.398 61.2754 343.371 61.2754C344.32 61.2754 344.818 61.8262 344.818 62.8574V67H345.597V62.6816C345.597 61.3457 344.865 60.584 343.599 60.584C342.691 60.584 341.953 61.0703 341.631 61.8262H341.554C341.285 61.0703 340.652 60.584 339.767 60.584C338.906 60.584 338.256 61.0469 337.986 61.8027H337.91V60.6895H337.137V67ZM349.654 67.1055C351.049 67.1055 351.969 66.3438 352.215 65.4883L352.232 65.4414H351.453L351.43 65.4824C351.225 65.9746 350.592 66.4082 349.672 66.4082C348.418 66.4082 347.609 65.5234 347.586 64.0469H352.326V63.7188C352.326 61.8496 351.283 60.584 349.59 60.584C347.896 60.584 346.795 61.8848 346.795 63.8535V63.8652C346.795 65.8457 347.885 67.1055 349.654 67.1055ZM349.59 61.2754C350.674 61.2754 351.453 62.0137 351.541 63.4141H347.592C347.691 62.0488 348.5 61.2754 349.59 61.2754Z" fill="white"/>
<rect x="949" y="79" width="8" height="8" fill="#8DFDEF"/>
<path d="M918.233 87H922.427V86.3945H918.902V79.9541H918.233V87ZM924.763 87.0879C925.539 87.0879 926.169 86.7217 926.482 86.0967H926.54V87H927.19V83.4062C927.19 82.2979 926.472 81.6533 925.242 81.6533C924.153 81.6533 923.357 82.1904 923.22 83.0303L923.215 83.0498H923.865L923.87 83.04C924.006 82.5176 924.509 82.2295 925.222 82.2295C926.072 82.2295 926.54 82.6396 926.54 83.4111V83.9043L924.9 84.0117C923.684 84.0947 923.005 84.627 923.005 85.54V85.5498C923.005 86.4873 923.747 87.0879 924.763 87.0879ZM923.664 85.54V85.5303C923.664 84.9346 924.094 84.5977 924.988 84.5391L926.54 84.4316V85.042C926.54 85.877 925.828 86.5215 924.885 86.5215C924.177 86.5215 923.664 86.1406 923.664 85.54ZM930.922 87.0879C932.251 87.0879 933.134 85.999 933.134 84.373V84.3633C933.134 82.7275 932.255 81.6533 930.922 81.6533C930.127 81.6533 929.448 82.083 929.16 82.7617H929.096V79.6465H928.452V87H929.096V85.9502H929.16C929.462 86.6582 930.117 87.0879 930.922 87.0879ZM930.791 86.5117C929.755 86.5117 929.087 85.667 929.087 84.373V84.3633C929.087 83.0693 929.755 82.2295 930.791 82.2295C931.826 82.2295 932.475 83.0547 932.475 84.3584V84.3682C932.475 85.6768 931.826 86.5117 930.791 86.5117ZM936.227 87.0879C937.389 87.0879 938.156 86.4531 938.361 85.7402L938.376 85.7012H937.726L937.707 85.7354C937.536 86.1455 937.009 86.5068 936.242 86.5068C935.197 86.5068 934.523 85.7695 934.504 84.5391H938.454V84.2656C938.454 82.708 937.585 81.6533 936.174 81.6533C934.762 81.6533 933.845 82.7373 933.845 84.3779V84.3877C933.845 86.0381 934.753 87.0879 936.227 87.0879ZM936.174 82.2295C937.077 82.2295 937.726 82.8447 937.8 84.0117H934.509C934.592 82.874 935.265 82.2295 936.174 82.2295ZM939.481 87H940.126V79.6465H939.481V87Z" fill="white"/>
<path d="M875.007 67H880.041V66.2734H875.81V58.5449H875.007V67ZM883.4 67.1055C884.795 67.1055 885.715 66.3438 885.961 65.4883L885.978 65.4414H885.199L885.175 65.4824C884.97 65.9746 884.338 66.4082 883.418 66.4082C882.164 66.4082 881.355 65.5234 881.332 64.0469H886.072V63.7188C886.072 61.8496 885.029 60.584 883.336 60.584C881.642 60.584 880.541 61.8848 880.541 63.8535V63.8652C880.541 65.8457 881.631 67.1055 883.4 67.1055ZM883.336 61.2754C884.42 61.2754 885.199 62.0137 885.287 63.4141H881.338C881.437 62.0488 882.246 61.2754 883.336 61.2754ZM889.889 69.2031C891.547 69.2031 892.631 68.3008 892.631 66.9238V60.6895H891.851V61.9668H891.799C891.435 61.123 890.656 60.584 889.684 60.584C888.055 60.584 887.012 61.873 887.012 63.6777V63.6895C887.012 65.5 888.049 66.7715 889.672 66.7715C890.639 66.7715 891.412 66.291 891.787 65.459H891.863V66.8711C891.863 67.8906 891.107 68.5117 889.889 68.5117C888.928 68.5117 888.271 68.1309 888.131 67.5801L888.125 67.5742H887.322L887.316 67.5801C887.48 68.5586 888.441 69.2031 889.889 69.2031ZM889.824 66.0801C888.564 66.0801 887.803 65.1016 887.803 63.6895V63.6777C887.803 62.2656 888.564 61.2754 889.824 61.2754C891.072 61.2754 891.875 62.2773 891.875 63.6895V63.7012C891.875 65.1133 891.09 66.0801 889.824 66.0801ZM896.74 67.1055C898.135 67.1055 899.055 66.3438 899.301 65.4883L899.318 65.4414H898.539L898.516 65.4824C898.311 65.9746 897.678 66.4082 896.758 66.4082C895.504 66.4082 894.695 65.5234 894.672 64.0469H899.412V63.7188C899.412 61.8496 898.369 60.584 896.676 60.584C894.983 60.584 893.881 61.8848 893.881 63.8535V63.8652C893.881 65.8457 894.971 67.1055 896.74 67.1055ZM896.676 61.2754C897.76 61.2754 898.539 62.0137 898.627 63.4141H894.678C894.777 62.0488 895.586 61.2754 896.676 61.2754ZM900.668 67H901.442V63.25C901.442 62.0605 902.198 61.2754 903.311 61.2754C904.407 61.2754 904.951 61.8906 904.951 63.0918V67H905.725V62.8984C905.725 61.4277 904.922 60.584 903.516 60.584C902.532 60.584 901.852 61.0352 901.518 61.7969H901.442V60.6895H900.668V67ZM909.594 67.1055C910.567 67.1055 911.346 66.5898 911.715 65.7402H911.786V67H912.565V58.1758H911.786V61.9199H911.715C911.364 61.1055 910.549 60.584 909.594 60.584C907.995 60.584 906.928 61.8848 906.928 63.8418V63.8535C906.928 65.7988 908.001 67.1055 909.594 67.1055ZM909.758 66.4141C908.51 66.4141 907.719 65.4121 907.719 63.8477V63.8359C907.719 62.2773 908.51 61.2754 909.758 61.2754C911.001 61.2754 911.803 62.2832 911.803 63.8359V63.8477C911.803 65.4062 911.001 66.4141 909.758 66.4141ZM916.952 67H922.39V66.2734H918.071V66.2031L920.286 63.9062C921.774 62.3652 922.185 61.668 922.185 60.7246V60.7129C922.185 59.3711 921.071 58.3691 919.612 58.3691C918.048 58.3691 916.923 59.418 916.905 60.877L916.917 60.8828H917.685V60.877C917.696 59.8105 918.464 59.0723 919.565 59.0723C920.649 59.0723 921.37 59.8164 921.37 60.7891V60.8008C921.37 61.5684 921.036 62.0605 919.864 63.3145L916.952 66.4375V67ZM926.695 67H927.486V59.9746H927.562L932.507 67H933.281V58.5449H932.49V65.5645H932.413L927.486 58.5449H926.695V67ZM936.687 67.1055C937.619 67.1055 938.375 66.666 938.75 65.916H938.82V67H939.599V62.6875C939.599 61.3574 938.738 60.584 937.261 60.584C935.955 60.584 935 61.2285 934.836 62.2363L934.83 62.2598H935.609L935.615 62.248C935.779 61.6211 936.382 61.2754 937.238 61.2754C938.257 61.2754 938.82 61.7676 938.82 62.6934V63.2852L936.851 63.4141C935.392 63.5137 934.578 64.1523 934.578 65.248V65.2598C934.578 66.3848 935.468 67.1055 936.687 67.1055ZM935.369 65.248V65.2363C935.369 64.5215 935.884 64.1172 936.957 64.0469L938.82 63.918V64.6504C938.82 65.6523 937.964 66.4258 936.834 66.4258C935.984 66.4258 935.369 65.9688 935.369 65.248ZM941.137 67H941.91V63.127C941.91 62.0957 942.613 61.2754 943.527 61.2754C944.4 61.2754 944.974 61.8672 944.974 62.7754V67H945.748V62.998C945.748 62.0195 946.398 61.2754 947.371 61.2754C948.32 61.2754 948.818 61.8262 948.818 62.8574V67H949.597V62.6816C949.597 61.3457 948.865 60.584 947.599 60.584C946.691 60.584 945.953 61.0703 945.631 61.8262H945.554C945.285 61.0703 944.652 60.584 943.767 60.584C942.906 60.584 942.256 61.0469 941.986 61.8027H941.91V60.6895H941.137V67ZM953.654 67.1055C955.049 67.1055 955.969 66.3438 956.215 65.4883L956.232 65.4414H955.453L955.43 65.4824C955.225 65.9746 954.592 66.4082 953.672 66.4082C952.418 66.4082 951.609 65.5234 951.586 64.0469H956.326V63.7188C956.326 61.8496 955.283 60.584 953.59 60.584C951.896 60.584 950.795 61.8848 950.795 63.8535V63.8652C950.795 65.8457 951.885 67.1055 953.654 67.1055ZM953.59 61.2754C954.674 61.2754 955.453 62.0137 955.541 63.4141H951.592C951.691 62.0488 952.5 61.2754 953.59 61.2754Z" fill="white"/>
<g opacity="0.6">
<path d="M83 146.5H936" stroke="white"/>
<path d="M83 164.5H936" stroke="white"/>
<path d="M83 185.5H936" stroke="white"/>
<path d="M83 206.5H936" stroke="white"/>
<path d="M83 227.5H936" stroke="white"/>
</g>
<path d="M482.061 272H485.113C487.633 272 489.092 270.441 489.092 267.758V267.746C489.092 265.092 487.621 263.545 485.113 263.545H482.061V272ZM483.373 270.869V264.676H484.967C486.719 264.676 487.756 265.818 487.756 267.764V267.775C487.756 269.738 486.736 270.869 484.967 270.869H483.373ZM492.041 272.105C492.885 272.105 493.553 271.742 493.928 271.098H494.028V272H495.287V267.646C495.287 266.311 494.385 265.514 492.785 265.514C491.338 265.514 490.336 266.211 490.184 267.254L490.178 267.295H491.403L491.408 267.271C491.561 266.82 492.024 266.562 492.727 266.562C493.588 266.562 494.028 266.949 494.028 267.646V268.209L492.305 268.309C490.787 268.402 489.932 269.064 489.932 270.201V270.213C489.932 271.367 490.828 272.105 492.041 272.105ZM491.197 270.16V270.148C491.197 269.574 491.596 269.258 492.475 269.205L494.028 269.105V269.65C494.028 270.471 493.33 271.092 492.381 271.092C491.696 271.092 491.197 270.746 491.197 270.16ZM499.075 272.041C499.321 272.041 499.555 272.012 499.76 271.977V270.963C499.584 270.98 499.473 270.986 499.28 270.986C498.653 270.986 498.395 270.705 498.395 270.02V266.639H499.76V265.637H498.395V264.031H497.1V265.637H496.104V266.639H497.1V270.324C497.1 271.549 497.674 272.041 499.075 272.041ZM503.436 272.123C505.065 272.123 505.944 271.186 506.155 270.348L506.167 270.295L504.942 270.301L504.919 270.348C504.766 270.676 504.28 271.08 503.465 271.08C502.417 271.08 501.749 270.371 501.725 269.152H506.237V268.707C506.237 266.797 505.147 265.514 503.372 265.514C501.596 265.514 500.448 266.844 500.448 268.83V268.836C500.448 270.852 501.573 272.123 503.436 272.123ZM503.378 266.557C504.239 266.557 504.878 267.107 504.977 268.244H501.743C501.854 267.148 502.51 266.557 503.378 266.557ZM510.835 274.121H513.63V273.154H512.06V264.107H513.63V263.141H510.835V274.121ZM514.745 272H515.941V265.795H516.034L518.513 272H519.486L521.97 265.795H522.058V272H523.253V263.545H521.741L519.046 270.289H518.952L516.257 263.545H514.745V272ZM527.515 272.123C529.378 272.123 530.521 270.875 530.521 268.824V268.812C530.521 266.762 529.373 265.514 527.515 265.514C525.652 265.514 524.503 266.768 524.503 268.812V268.824C524.503 270.875 525.646 272.123 527.515 272.123ZM527.515 271.062C526.419 271.062 525.804 270.236 525.804 268.824V268.812C525.804 267.4 526.419 266.574 527.515 266.574C528.605 266.574 529.226 267.4 529.226 268.812V268.824C529.226 270.23 528.605 271.062 527.515 271.062ZM531.631 272H532.902V268.268C532.902 267.242 533.482 266.604 534.414 266.604C535.345 266.604 535.785 267.125 535.785 268.18V272H537.05V267.881C537.05 266.363 536.265 265.514 534.841 265.514C533.916 265.514 533.306 265.924 532.996 266.604H532.902V265.637H531.631V272ZM540.82 272.041C541.066 272.041 541.301 272.012 541.506 271.977V270.963C541.33 270.98 541.219 270.986 541.025 270.986C540.398 270.986 540.14 270.705 540.14 270.02V266.639H541.506V265.637H540.14V264.031H538.846V265.637H537.849V266.639H538.846V270.324C538.846 271.549 539.42 272.041 540.82 272.041ZM542.639 272H543.91V268.268C543.91 267.242 544.49 266.604 545.422 266.604C546.354 266.604 546.793 267.125 546.793 268.18V272H548.059V267.881C548.059 266.363 547.274 265.514 545.85 265.514C544.924 265.514 544.315 265.924 544.004 266.604H543.91V263.141H542.639V272ZM551.764 274.121V263.141H548.963V264.107H550.539V273.154H548.963V274.121H551.764Z" fill="white"/>
<path d="M895.501 251.403L897.141 249.763C898.663 248.24 898.563 246.455 897.017 244.908L897.01 244.902C895.466 243.358 893.678 243.262 892.159 244.781L890.519 246.421L895.501 251.403ZM895.546 250.502L891.42 246.376L892.559 245.236C893.774 244.021 895.245 244.104 896.53 245.388L896.537 245.395C897.821 246.68 897.904 248.144 896.685 249.362L895.546 250.502ZM901.8 245.228C902.622 244.406 902.715 243.415 902.356 242.766L902.339 242.728L901.879 243.187L901.89 243.225C902.059 243.636 901.942 244.265 901.4 244.807C900.661 245.546 899.663 245.501 898.779 244.645L901.572 241.851L901.379 241.658C900.277 240.557 898.917 240.425 897.919 241.423C896.921 242.421 897.039 243.837 898.199 244.997L898.206 245.004C899.373 246.171 900.757 246.271 901.8 245.228ZM898.327 241.831C898.965 241.192 899.86 241.168 900.737 241.941L898.409 244.268C897.664 243.405 897.684 242.473 898.327 241.831ZM905.558 241.47C906.407 240.621 906.473 239.65 905.962 238.849L905.941 238.815L905.489 239.274L905.499 239.298C905.817 239.878 905.696 240.517 905.147 241.066C904.412 241.801 903.341 241.677 902.416 240.752L902.409 240.745C901.494 239.83 901.38 238.777 902.119 238.038C902.689 237.468 903.39 237.396 903.928 237.713L903.942 237.72L904.391 237.265L904.377 237.251C903.611 236.712 902.565 236.778 901.712 237.631C900.686 238.656 900.783 240.051 901.943 241.211L901.95 241.218C903.127 242.395 904.533 242.495 905.558 241.47Z" fill="white"/>
<path d="M824.338 251.403L824.804 250.937L820.665 246.797L820.709 246.752L827.763 247.978L828.219 247.522L823.237 242.54L822.771 243.006L826.907 247.142L826.862 247.187L819.822 245.955L819.356 246.421L824.338 251.403ZM830.717 245.149C831.756 244.109 831.673 242.721 830.489 241.537L830.482 241.53C829.298 240.346 827.913 240.267 826.874 241.306C825.835 242.345 825.918 243.726 827.102 244.91L827.109 244.917C828.293 246.102 829.678 246.188 830.717 245.149ZM830.309 244.741C829.543 245.508 828.514 245.39 827.575 244.451L827.568 244.444C826.629 243.505 826.515 242.48 827.281 241.713C828.048 240.947 829.073 241.061 830.012 242L830.019 242.007C830.959 242.946 831.076 243.975 830.309 244.741ZM833.94 241.801L834.423 241.318L832.093 236.212L831.606 236.698L833.708 241.045L833.667 241.087L829.317 238.988L828.833 239.471L833.94 241.801Z" fill="white"/>
<path d="M755.337 249.449C756.739 248.047 756.583 246.186 754.999 244.601L754.992 244.594C753.404 243.006 751.543 242.864 750.148 244.259C748.756 245.651 748.887 247.515 750.479 249.107L750.486 249.114C752.074 250.702 753.932 250.854 755.337 249.449ZM754.899 249.01C753.797 250.112 752.278 249.939 750.969 248.63L750.962 248.624C749.647 247.308 749.499 245.785 750.586 244.698C751.674 243.61 753.196 243.759 754.512 245.074L754.519 245.081C755.827 246.39 755.99 247.919 754.899 249.01ZM759.779 244.924C760.628 244.075 760.694 243.105 760.183 242.304L760.162 242.269L759.71 242.728L759.72 242.752C760.038 243.332 759.917 243.971 759.368 244.52C758.632 245.256 757.562 245.131 756.637 244.206L756.63 244.199C755.715 243.284 755.601 242.231 756.34 241.492C756.909 240.923 757.61 240.85 758.149 241.168L758.163 241.175L758.612 240.719L758.598 240.705C757.831 240.166 756.785 240.232 755.932 241.085C754.907 242.11 755.004 243.505 756.164 244.665L756.171 244.672C757.348 245.849 758.753 245.95 759.779 244.924ZM763.195 241.432C763.305 241.322 763.399 241.208 763.485 241.087L763.091 240.693C763.008 240.797 762.943 240.869 762.839 240.973C762.418 241.394 762.066 241.366 761.61 240.911L759.304 238.604L760.153 237.755L759.77 237.372L758.92 238.221L757.954 237.254L757.481 237.727L758.447 238.694L757.85 239.291L758.233 239.675L758.831 239.077L761.241 241.487C761.917 242.164 762.484 242.143 763.195 241.432Z" fill="white"/>
<path d="M683.718 249.904C684.792 248.831 684.927 247.529 684.046 246.649L684.043 246.645C683.349 245.951 682.513 245.951 681.243 246.752L680.614 247.146C679.685 247.729 679.098 247.757 678.66 247.318L678.657 247.315C678.101 246.759 678.253 245.868 678.94 245.181C679.644 244.47 680.483 244.37 681.035 244.777L681.08 244.815L681.553 244.342L681.505 244.301C680.732 243.645 679.489 243.755 678.515 244.729C677.521 245.723 677.396 247.015 678.187 247.805L678.19 247.809C678.878 248.496 679.723 248.499 680.953 247.726L681.578 247.329C682.517 246.735 683.159 246.721 683.618 247.18L683.625 247.187C684.184 247.747 684.053 248.693 683.304 249.442C682.537 250.208 681.588 250.405 680.987 249.908L680.946 249.873L680.473 250.346L680.514 250.381C681.384 251.106 682.665 250.958 683.718 249.904ZM687.663 245.877C688.484 245.055 688.578 244.064 688.219 243.415L688.201 243.377L687.742 243.837L687.752 243.875C687.922 244.285 687.804 244.914 687.262 245.456C686.523 246.195 685.525 246.15 684.642 245.294L687.435 242.5L687.241 242.307C686.14 241.206 684.78 241.074 683.782 242.072C682.784 243.07 682.901 244.486 684.062 245.646L684.068 245.653C685.235 246.82 686.62 246.92 687.663 245.877ZM684.189 242.48C684.828 241.841 685.722 241.817 686.599 242.59L684.272 244.917C683.526 244.054 683.547 243.122 684.189 242.48ZM691.1 244.781L691.555 244.325L689.598 242.368L689.643 242.323C690.326 242.599 691.113 242.426 691.676 241.864C692.619 240.921 692.484 239.523 691.331 238.369L691.324 238.363C690.178 237.216 688.776 237.078 687.833 238.021C687.264 238.59 687.108 239.353 687.388 240.068L687.343 240.113L686.604 239.374L686.148 239.83L691.1 244.781ZM691.176 241.549C690.444 242.281 689.377 242.161 688.458 241.242L688.451 241.235C687.536 240.32 687.416 239.253 688.148 238.521C688.883 237.786 689.939 237.91 690.858 238.829L690.865 238.836C691.787 239.757 691.911 240.814 691.176 241.549Z" fill="white"/>
<path d="M610.466 251.786L610.963 251.289L609.99 249.21L612.086 247.115L614.164 248.088L614.661 247.591L607.815 244.473L607.345 244.943L610.466 251.786ZM608.177 245.347L608.219 245.305L611.53 246.856L609.727 248.658L608.177 245.347ZM616.365 246.012C616.941 245.435 617.097 244.755 616.831 244.123L616.872 244.082L617.522 244.731L617.977 244.275L614.259 240.557L613.803 241.012L616.013 243.222C616.717 243.926 616.762 244.8 616.068 245.494C615.429 246.133 614.732 246.077 614.038 245.383L611.735 243.08L611.279 243.536L613.696 245.953C614.549 246.806 615.529 246.847 616.365 246.012ZM621.663 243.186C622.64 242.209 622.747 241.038 621.936 240.227L618.262 236.553L617.803 237.013L618.555 237.765L618.524 237.796C617.813 237.513 617.036 237.655 616.463 238.228C615.503 239.188 615.648 240.562 616.712 241.625L616.719 241.632C617.785 242.699 619.146 242.837 620.102 241.881C620.672 241.311 620.845 240.572 620.575 239.861L620.62 239.816L621.452 240.648C622.053 241.249 621.974 242.06 621.255 242.779C620.689 243.345 620.078 243.507 619.671 243.265H619.664L619.191 243.738V243.745C619.864 244.225 620.81 244.039 621.663 243.186ZM619.785 241.384C619.042 242.126 618.017 241.998 617.185 241.166L617.178 241.159C616.346 240.327 616.211 239.295 616.953 238.552C617.689 237.817 618.752 237.934 619.584 238.767L619.591 238.773C620.423 239.606 620.53 240.638 619.785 241.384Z" fill="white"/>
<path d="M540.84 250.457C541.731 249.566 541.717 248.475 540.812 247.57L537.184 243.942L536.711 244.415L540.319 248.023C540.985 248.689 541.013 249.407 540.402 250.018C539.863 250.557 539.193 250.529 538.717 250.122L538.689 250.101L538.216 250.574L538.254 250.605C538.993 251.261 540.018 251.279 540.84 250.457ZM544.436 246.778C545.012 246.202 545.168 245.521 544.902 244.89L544.943 244.848L545.592 245.497L546.048 245.042L542.33 241.323L541.874 241.779L544.084 243.988C544.788 244.693 544.833 245.566 544.139 246.26C543.5 246.899 542.803 246.844 542.109 246.15L539.806 243.847L539.35 244.303L541.767 246.72C542.62 247.572 543.6 247.614 544.436 246.778ZM546.961 244.129L547.417 243.673L542.217 238.473L541.762 238.929L546.961 244.129Z" fill="white"/>
<path d="M469.677 250.457C470.568 249.566 470.554 248.475 469.65 247.57L466.021 243.942L465.548 244.415L469.156 248.023C469.822 248.689 469.85 249.407 469.239 250.018C468.7 250.557 468.031 250.529 467.554 250.122L467.526 250.101L467.053 250.574L467.091 250.605C467.83 251.261 468.856 251.279 469.677 250.457ZM473.273 246.778C473.85 246.202 474.005 245.521 473.739 244.89L473.781 244.848L474.43 245.497L474.886 245.042L471.167 241.323L470.711 241.779L472.921 243.988C473.625 244.693 473.67 245.566 472.976 246.26C472.338 246.899 471.64 246.844 470.946 246.15L468.643 243.847L468.187 244.303L470.604 246.72C471.457 247.572 472.438 247.614 473.273 246.778ZM475.764 244.163L476.22 243.707L474.01 241.498C473.309 240.797 473.292 239.889 473.948 239.233C474.594 238.587 475.277 238.628 475.985 239.336L478.288 241.639L478.744 241.183L476.327 238.767C475.46 237.9 474.49 237.876 473.661 238.704C473.081 239.284 472.947 239.951 473.199 240.596L473.154 240.641L472.501 239.989L472.046 240.445L475.764 244.163Z" fill="white"/>
<path d="M397.365 251.399L397.807 250.958L393.743 246.894L393.777 246.859L399.557 249.207L399.968 248.796L397.624 243.013L397.658 242.978L401.722 247.042L402.164 246.6L397.182 241.618L396.636 242.164L399.163 248.358L399.122 248.399L392.924 245.875L392.382 246.417L397.365 251.399ZM404.189 244.7C404.738 244.151 404.924 243.446 404.703 242.784L404.745 242.742L405.383 243.381L405.842 242.922L403.301 240.38C402.518 239.597 401.554 239.648 400.684 240.519C399.914 241.289 399.731 242.231 400.228 242.922L400.239 242.939L400.698 242.48L400.695 242.469C400.422 242.003 400.574 241.444 401.078 240.94C401.679 240.339 402.3 240.298 402.846 240.843L403.194 241.192L402.11 242.428C401.309 243.346 401.206 244.203 401.851 244.848L401.858 244.855C402.521 245.518 403.47 245.418 404.189 244.7ZM402.317 244.382L402.31 244.375C401.889 243.954 401.955 243.412 402.545 242.739L403.567 241.565L403.999 241.996C404.589 242.587 404.541 243.547 403.874 244.213C403.374 244.714 402.742 244.807 402.317 244.382ZM408.123 243.21C408.72 242.613 408.772 242.098 408.316 241.097L405.775 235.552L405.292 236.035L407.398 240.379L407.349 240.427L403.002 238.325L402.512 238.815L407.65 241.163L407.836 241.536C408.13 242.133 408.071 242.495 407.726 242.841C407.664 242.903 407.591 242.975 407.525 243.02L407.905 243.4C407.981 243.345 408.061 243.272 408.123 243.21Z" fill="white"/>
<path d="M325.815 251.786L326.312 251.289L325.338 249.21L327.434 247.115L329.513 248.088L330.01 247.591L323.163 244.473L322.694 244.943L325.815 251.786ZM323.526 245.347L323.567 245.305L326.878 246.856L325.076 248.658L323.526 245.347ZM331.796 248.27L332.252 247.814L330.294 245.856L330.339 245.812C331.023 246.088 331.81 245.915 332.373 245.352C333.316 244.41 333.181 243.011 332.028 241.858L332.021 241.851C330.875 240.705 329.473 240.567 328.53 241.509C327.96 242.079 327.805 242.842 328.085 243.557L328.04 243.602L327.301 242.863L326.845 243.319L331.796 248.27ZM331.872 245.038C331.14 245.77 330.074 245.649 329.155 244.731L329.148 244.724C328.233 243.809 328.112 242.742 328.844 242.01C329.58 241.275 330.636 241.399 331.555 242.317L331.562 242.324C332.483 243.246 332.608 244.303 331.872 245.038ZM334.57 243.031L335.026 242.575L332.706 240.255C332.105 239.654 332.109 238.801 332.689 238.221C332.83 238.079 332.965 237.972 333.134 237.872L332.685 237.423C332.575 237.493 332.437 237.603 332.302 237.738C331.798 238.242 331.684 238.853 331.964 239.423L331.919 239.467L331.308 238.856L330.852 239.312L334.57 243.031Z" fill="white"/>
<path d="M255.039 251.399L255.481 250.958L251.417 246.894L251.452 246.859L257.231 249.207L257.642 248.796L255.298 243.013L255.332 242.978L259.396 247.042L259.838 246.6L254.856 241.618L254.31 242.164L256.838 248.358L256.796 248.399L250.599 245.875L250.057 246.417L255.039 251.399ZM261.863 244.7C262.412 244.151 262.598 243.446 262.377 242.784L262.419 242.742L263.058 243.381L263.517 242.922L260.976 240.38C260.192 239.597 259.229 239.648 258.358 240.519C257.589 241.289 257.406 242.231 257.903 242.922L257.913 242.939L258.372 242.48L258.369 242.469C258.096 242.003 258.248 241.444 258.752 240.94C259.353 240.339 259.974 240.298 260.52 240.843L260.869 241.192L259.784 242.428C258.983 243.346 258.88 244.203 259.525 244.848L259.532 244.855C260.195 245.518 261.145 245.418 261.863 244.7ZM259.992 244.382L259.985 244.375C259.563 243.954 259.629 243.412 260.219 242.739L261.241 241.565L261.673 241.996C262.263 242.587 262.215 243.547 261.549 244.213C261.048 244.714 260.416 244.807 259.992 244.382ZM264.375 242.064L264.83 241.608L262.51 239.288C261.909 238.687 261.913 237.834 262.493 237.254C262.634 237.113 262.769 237.006 262.938 236.906L262.489 236.457C262.379 236.526 262.241 236.636 262.106 236.771C261.602 237.275 261.488 237.886 261.768 238.456L261.723 238.501L261.112 237.89L260.656 238.345L264.375 242.064Z" fill="white"/>
<path d="M183.873 251.403L184.346 250.93L182.084 248.668L184.367 246.386L183.945 245.965L181.663 248.247L179.792 246.376L182.274 243.893L181.846 243.465L178.891 246.421L183.873 251.403ZM189.081 246.319C189.903 245.497 189.996 244.506 189.637 243.857L189.62 243.819L189.16 244.279L189.171 244.317C189.34 244.727 189.223 245.356 188.681 245.898C187.942 246.637 186.944 246.592 186.06 245.736L188.853 242.942L188.66 242.749C187.558 241.648 186.198 241.516 185.2 242.514C184.202 243.512 184.32 244.928 185.48 246.088L185.487 246.095C186.654 247.262 188.038 247.362 189.081 246.319ZM185.608 242.922C186.246 242.283 187.141 242.259 188.018 243.032L185.691 245.359C184.945 244.496 184.965 243.564 185.608 242.922ZM193.129 242.271C194.068 241.332 193.923 239.937 192.773 238.787L192.767 238.78C191.61 237.624 190.229 237.486 189.286 238.428C188.723 238.991 188.547 239.775 188.824 240.458L188.779 240.503L186.576 238.3L186.12 238.756L191.32 243.956L191.776 243.5L191.033 242.758L191.078 242.713C191.793 243 192.559 242.841 193.129 242.271ZM192.628 241.957C191.896 242.689 190.826 242.564 189.911 241.65L189.904 241.643C188.989 240.728 188.869 239.661 189.6 238.929C190.332 238.197 191.375 238.321 192.297 239.243L192.304 239.25C193.229 240.175 193.36 241.225 192.628 241.957Z" fill="white"/>
<path d="M113.863 250.457C114.754 249.566 114.74 248.475 113.835 247.57L110.207 243.942L109.734 244.415L113.342 248.023C114.008 248.689 114.036 249.407 113.425 250.018C112.886 250.557 112.216 250.529 111.74 250.122L111.712 250.101L111.239 250.574L111.277 250.605C112.016 251.261 113.041 251.279 113.863 250.457ZM117.21 247.027C117.759 246.478 117.946 245.773 117.725 245.111L117.766 245.069L118.405 245.708L118.864 245.249L116.323 242.708C115.539 241.924 114.576 241.976 113.706 242.846C112.936 243.616 112.753 244.558 113.25 245.249L113.26 245.266L113.72 244.807L113.716 244.796C113.443 244.33 113.595 243.771 114.099 243.267C114.7 242.666 115.322 242.625 115.867 243.17L116.216 243.519L115.132 244.755C114.331 245.673 114.227 246.53 114.873 247.175L114.88 247.182C115.543 247.845 116.492 247.745 117.21 247.027ZM115.339 246.709L115.332 246.702C114.911 246.281 114.976 245.739 115.567 245.066L116.589 243.892L117.02 244.323C117.611 244.914 117.562 245.874 116.896 246.54C116.395 247.041 115.763 247.134 115.339 246.709ZM119.722 244.391L120.178 243.935L117.968 241.725C117.267 241.025 117.25 240.117 117.906 239.46C118.551 238.815 119.235 238.856 119.943 239.564L122.246 241.867L122.701 241.411L120.285 238.994C119.418 238.128 118.448 238.104 117.619 238.932C117.039 239.512 116.904 240.179 117.156 240.824L117.112 240.869L116.459 240.217L116.003 240.672L119.722 244.391Z" fill="white"/>
<path d="M59.3867 130H60.6992V126.537L63.6816 121.545H62.2227L60.0957 125.23H59.9961L57.8691 121.545H56.4102L59.3867 126.537V130ZM66.6135 130H67.926V121.545H66.6135L64.3869 123.127V124.416L66.5139 122.898H66.6135V130ZM76.5377 130.205C77.0944 130.205 77.61 130.117 78.0612 129.941L78.776 130.914H80.1295L79.0162 129.396C79.9537 128.641 80.4811 127.381 80.4811 125.775V125.764C80.4811 123.051 78.9694 121.34 76.5377 121.34C74.1119 121.34 72.5885 123.045 72.5885 125.764V125.775C72.5885 128.488 74.0768 130.205 76.5377 130.205ZM76.5377 129.045C74.9088 129.045 73.9303 127.756 73.9303 125.775V125.764C73.9303 123.766 74.9381 122.5 76.5377 122.5C78.1373 122.5 79.1393 123.766 79.1393 125.764V125.775C79.1393 126.895 78.8229 127.797 78.2545 128.365L77.5807 127.451H76.2272L77.317 128.928C77.0768 129.004 76.8131 129.045 76.5377 129.045ZM83.8289 130.123C84.7547 130.123 85.3993 129.725 85.7039 129.039H85.8035V130H87.0692V123.637H85.8035V127.369C85.8035 128.395 85.2586 129.033 84.2391 129.033C83.3075 129.033 82.9207 128.512 82.9207 127.457V123.637H81.6493V127.756C81.6493 129.262 82.3934 130.123 83.8289 130.123ZM90.2412 130.105C91.085 130.105 91.753 129.742 92.128 129.098H92.2276V130H93.4873V125.646C93.4873 124.311 92.585 123.514 90.9854 123.514C89.5381 123.514 88.5362 124.211 88.3838 125.254L88.378 125.295H89.6026L89.6084 125.271C89.7608 124.82 90.2237 124.562 90.9268 124.562C91.7881 124.562 92.2276 124.949 92.2276 125.646V126.209L90.5049 126.309C88.9873 126.402 88.1319 127.064 88.1319 128.201V128.213C88.1319 129.367 89.0284 130.105 90.2412 130.105ZM89.3975 128.16V128.148C89.3975 127.574 89.7959 127.258 90.6748 127.205L92.2276 127.105V127.65C92.2276 128.471 91.5303 129.092 90.5811 129.092C89.8955 129.092 89.3975 128.746 89.3975 128.16ZM94.8723 130H96.1438V126.268C96.1438 125.242 96.7239 124.604 97.6555 124.604C98.5872 124.604 99.0266 125.125 99.0266 126.18V130H100.292V125.881C100.292 124.363 99.5071 123.514 98.0833 123.514C97.1575 123.514 96.5481 123.924 96.2375 124.604H96.1438V123.637H94.8723V130ZM104.062 130.041C104.308 130.041 104.542 130.012 104.748 129.977V128.963C104.572 128.98 104.46 128.986 104.267 128.986C103.64 128.986 103.382 128.705 103.382 128.02V124.639H104.748V123.637H103.382V122.031H102.087V123.637H101.091V124.639H102.087V128.324C102.087 129.549 102.662 130.041 104.062 130.041ZM106.484 122.5C106.918 122.5 107.281 122.143 107.281 121.709C107.281 121.27 106.918 120.912 106.484 120.912C106.045 120.912 105.687 121.27 105.687 121.709C105.687 122.143 106.045 122.5 106.484 122.5ZM105.845 130H107.111V123.637H105.845V130ZM110.957 130.041C111.203 130.041 111.437 130.012 111.642 129.977V128.963C111.467 128.98 111.355 128.986 111.162 128.986C110.535 128.986 110.277 128.705 110.277 128.02V124.639H111.642V123.637H110.277V122.031H108.982V123.637H107.986V124.639H108.982V128.324C108.982 129.549 109.557 130.041 110.957 130.041ZM113.338 132.238C114.627 132.238 115.272 131.764 115.811 130.246L118.178 123.637H116.842L115.254 128.723H115.143L113.549 123.637H112.178L114.486 130.006L114.393 130.334C114.205 130.979 113.848 131.23 113.256 131.23C113.109 131.23 112.951 131.225 112.828 131.207V132.209C112.992 132.227 113.18 132.238 113.338 132.238ZM122.553 132.121H125.348V131.154H123.778V122.107H125.348V121.141H122.553V132.121ZM128.438 130.123C129.364 130.123 130.008 129.725 130.313 129.039H130.413V130H131.678V123.637H130.413V127.369C130.413 128.395 129.868 129.033 128.848 129.033C127.917 129.033 127.53 128.512 127.53 127.457V123.637H126.258V127.756C126.258 129.262 127.003 130.123 128.438 130.123ZM133.104 130H134.376V126.268C134.376 125.242 134.956 124.604 135.888 124.604C136.819 124.604 137.259 125.125 137.259 126.18V130H138.524V125.881C138.524 124.363 137.739 123.514 136.315 123.514C135.39 123.514 134.78 123.924 134.47 124.604H134.376V123.637H133.104V130ZM140.554 122.5C140.987 122.5 141.351 122.143 141.351 121.709C141.351 121.27 140.987 120.912 140.554 120.912C140.114 120.912 139.757 121.27 139.757 121.709C139.757 122.143 140.114 122.5 140.554 122.5ZM139.915 130H141.181V123.637H139.915V130ZM145.027 130.041C145.273 130.041 145.507 130.012 145.712 129.977V128.963C145.536 128.98 145.425 128.986 145.232 128.986C144.605 128.986 144.347 128.705 144.347 128.02V124.639H145.712V123.637H144.347V122.031H143.052V123.637H142.056V124.639H143.052V128.324C143.052 129.549 143.626 130.041 145.027 130.041ZM149.007 130.123C150.519 130.123 151.644 129.32 151.644 128.143V128.131C151.644 127.211 151.058 126.689 149.834 126.402L148.826 126.174C148.111 126.004 147.818 125.758 147.818 125.359V125.348C147.818 124.838 148.322 124.492 149.019 124.492C149.734 124.492 150.185 124.826 150.308 125.271V125.283H151.521V125.277C151.41 124.24 150.478 123.514 149.025 123.514C147.584 123.514 146.552 124.311 146.552 125.418V125.424C146.552 126.355 147.109 126.9 148.31 127.176L149.324 127.41C150.062 127.58 150.361 127.85 150.361 128.248V128.26C150.361 128.781 149.816 129.139 149.031 129.139C148.275 129.139 147.812 128.816 147.654 128.336L147.648 128.33H146.377V128.336C146.5 129.402 147.472 130.123 149.007 130.123ZM155.092 132.121V121.141H152.291V122.107H153.867V131.154H152.291V132.121H155.092Z" fill="white"/>
<path d="M61.0113 150H61.6607V148.408H62.7154V147.808H61.6607V142.944H60.7037C59.1656 145.083 58.3209 146.401 57.4713 147.798V148.408H61.0113V150ZM58.1695 147.812V147.769C58.8775 146.602 59.5806 145.508 60.9674 143.584H61.0113V147.812H58.1695ZM66.0135 150.146C67.5613 150.146 68.4988 148.735 68.4988 146.484V146.47C68.4988 144.219 67.5613 142.808 66.0135 142.808C64.4656 142.808 63.5379 144.219 63.5379 146.47V146.484C63.5379 148.73 64.4656 150.146 66.0135 150.146ZM66.0135 149.561C64.8807 149.561 64.2068 148.374 64.2068 146.484V146.47C64.2068 144.58 64.8807 143.398 66.0135 143.398C67.1512 143.398 67.8299 144.575 67.8299 146.47V146.484C67.8299 148.374 67.1512 149.561 66.0135 149.561ZM71.8652 150.146C73.4131 150.146 74.3506 148.735 74.3506 146.484V146.47C74.3506 144.219 73.4131 142.808 71.8652 142.808C70.3174 142.808 69.3896 144.219 69.3896 146.47V146.484C69.3896 148.73 70.3174 150.146 71.8652 150.146ZM71.8652 149.561C70.7324 149.561 70.0586 148.374 70.0586 146.484V146.47C70.0586 144.58 70.7324 143.398 71.8652 143.398C73.0029 143.398 73.6816 144.575 73.6816 146.47V146.484C73.6816 148.374 73.0029 149.561 71.8652 149.561Z" fill="white"/>
<path d="M60.2691 170.112C61.6558 170.112 62.6764 169.248 62.6764 168.081V168.071C62.6764 167.07 61.9732 166.416 60.9234 166.333V166.313C61.8219 166.133 62.4224 165.522 62.4224 164.653V164.644C62.4224 163.594 61.5387 162.842 60.2398 162.842C58.9605 162.842 58.0865 163.604 57.984 164.688L57.9791 164.736H58.6236L58.6285 164.688C58.7017 163.94 59.3316 163.428 60.2398 163.428C61.1676 163.428 61.7535 163.931 61.7535 164.722V164.731C61.7535 165.508 61.0992 166.064 60.1617 166.064H59.3414V166.636H60.1861C61.3092 166.636 61.9976 167.163 61.9976 168.086V168.096C61.9976 168.931 61.2847 169.526 60.2691 169.526C59.2437 169.526 58.5699 168.979 58.4771 168.218L58.4722 168.174H57.8277L57.8326 168.228C57.9449 169.312 58.8482 170.112 60.2691 170.112ZM66.0135 170.146C67.5613 170.146 68.4988 168.735 68.4988 166.484V166.47C68.4988 164.219 67.5613 162.808 66.0135 162.808C64.4656 162.808 63.5379 164.219 63.5379 166.47V166.484C63.5379 168.73 64.4656 170.146 66.0135 170.146ZM66.0135 169.561C64.8807 169.561 64.2068 168.374 64.2068 166.484V166.47C64.2068 164.58 64.8807 163.398 66.0135 163.398C67.1512 163.398 67.8299 164.575 67.8299 166.47V166.484C67.8299 168.374 67.1512 169.561 66.0135 169.561ZM71.8652 170.146C73.4131 170.146 74.3506 168.735 74.3506 166.484V166.47C74.3506 164.219 73.4131 162.808 71.8652 162.808C70.3174 162.808 69.3896 164.219 69.3896 166.47V166.484C69.3896 168.73 70.3174 170.146 71.8652 170.146ZM71.8652 169.561C70.7324 169.561 70.0586 168.374 70.0586 166.484V166.47C70.0586 164.58 70.7324 163.398 71.8652 163.398C73.0029 163.398 73.6816 164.575 73.6816 166.47V166.484C73.6816 168.374 73.0029 169.561 71.8652 169.561Z" fill="white"/>
<path d="M58.1256 190H62.6568V189.395H59.0582V189.336L60.9039 187.422C62.1441 186.138 62.4859 185.557 62.4859 184.771V184.761C62.4859 183.643 61.5582 182.808 60.3424 182.808C59.0387 182.808 58.1012 183.682 58.0865 184.897L58.0963 184.902H58.7359V184.897C58.7457 184.009 59.3853 183.394 60.3033 183.394C61.2066 183.394 61.8072 184.014 61.8072 184.824V184.834C61.8072 185.474 61.5289 185.884 60.5523 186.929L58.1256 189.531V190ZM66.0135 190.146C67.5613 190.146 68.4988 188.735 68.4988 186.484V186.47C68.4988 184.219 67.5613 182.808 66.0135 182.808C64.4656 182.808 63.5379 184.219 63.5379 186.47V186.484C63.5379 188.73 64.4656 190.146 66.0135 190.146ZM66.0135 189.561C64.8807 189.561 64.2068 188.374 64.2068 186.484V186.47C64.2068 184.58 64.8807 183.398 66.0135 183.398C67.1512 183.398 67.8299 184.575 67.8299 186.47V186.484C67.8299 188.374 67.1512 189.561 66.0135 189.561ZM71.8652 190.146C73.4131 190.146 74.3506 188.735 74.3506 186.484V186.47C74.3506 184.219 73.4131 182.808 71.8652 182.808C70.3174 182.808 69.3896 184.219 69.3896 186.47V186.484C69.3896 188.73 70.3174 190.146 71.8652 190.146ZM71.8652 189.561C70.7324 189.561 70.0586 188.374 70.0586 186.484V186.47C70.0586 184.58 70.7324 183.398 71.8652 183.398C73.0029 183.398 73.6816 184.575 73.6816 186.47V186.484C73.6816 188.374 73.0029 189.561 71.8652 189.561Z" fill="white"/>
<path d="M61.3531 210H62.0172V202.954H61.358L59.4732 204.258V204.966L61.2945 203.701H61.3531V210ZM66.0135 210.146C67.5613 210.146 68.4988 208.735 68.4988 206.484V206.47C68.4988 204.219 67.5613 202.808 66.0135 202.808C64.4656 202.808 63.5379 204.219 63.5379 206.47V206.484C63.5379 208.73 64.4656 210.146 66.0135 210.146ZM66.0135 209.561C64.8807 209.561 64.2068 208.374 64.2068 206.484V206.47C64.2068 204.58 64.8807 203.398 66.0135 203.398C67.1512 203.398 67.8299 204.575 67.8299 206.47V206.484C67.8299 208.374 67.1512 209.561 66.0135 209.561ZM71.8652 210.146C73.4131 210.146 74.3506 208.735 74.3506 206.484V206.47C74.3506 204.219 73.4131 202.808 71.8652 202.808C70.3174 202.808 69.3896 204.219 69.3896 206.47V206.484C69.3896 208.73 70.3174 210.146 71.8652 210.146ZM71.8652 209.561C70.7324 209.561 70.0586 208.374 70.0586 206.484V206.47C70.0586 204.58 70.7324 203.398 71.8652 203.398C73.0029 203.398 73.6816 204.575 73.6816 206.47V206.484C73.6816 208.374 73.0029 209.561 71.8652 209.561Z" fill="white"/>
<path d="M68.8652 230.146C70.4131 230.146 71.3506 228.735 71.3506 226.484V226.47C71.3506 224.219 70.4131 222.808 68.8652 222.808C67.3174 222.808 66.3896 224.219 66.3896 226.47V226.484C66.3896 228.73 67.3174 230.146 68.8652 230.146ZM68.8652 229.561C67.7324 229.561 67.0586 228.374 67.0586 226.484V226.47C67.0586 224.58 67.7324 223.398 68.8652 223.398C70.0029 223.398 70.6816 224.575 70.6816 226.47V226.484C70.6816 228.374 70.0029 229.561 68.8652 229.561Z" fill="white"/>
<path d="M861.196 130H862.508V126.537L865.49 121.545H864.032L861.905 125.23H861.805L859.678 121.545H858.219L861.196 126.537V130ZM866.272 130H871.967V128.881H868.059V128.764L869.852 126.977C871.387 125.453 871.832 124.715 871.832 123.754V123.736C871.832 122.342 870.672 121.34 869.096 121.34C867.397 121.34 866.202 122.43 866.196 123.977L866.207 123.988H867.438L867.444 123.971C867.444 123.045 868.077 122.424 869.026 122.424C869.952 122.424 870.52 123.033 870.52 123.859V123.877C870.52 124.562 870.198 124.996 869.079 126.162L866.272 129.109V130ZM879.905 130.205C880.462 130.205 880.977 130.117 881.429 129.941L882.143 130.914H883.497L882.384 129.396C883.321 128.641 883.849 127.381 883.849 125.775V125.764C883.849 123.051 882.337 121.34 879.905 121.34C877.479 121.34 875.956 123.045 875.956 125.764V125.775C875.956 128.488 877.444 130.205 879.905 130.205ZM879.905 129.045C878.276 129.045 877.298 127.756 877.298 125.775V125.764C877.298 123.766 878.306 122.5 879.905 122.5C881.505 122.5 882.507 123.766 882.507 125.764V125.775C882.507 126.895 882.19 127.797 881.622 128.365L880.948 127.451H879.595L880.684 128.928C880.444 129.004 880.181 129.045 879.905 129.045ZM887.196 130.123C888.122 130.123 888.767 129.725 889.071 129.039H889.171V130H890.437V123.637H889.171V127.369C889.171 128.395 888.626 129.033 887.607 129.033C886.675 129.033 886.288 128.512 886.288 127.457V123.637H885.017V127.756C885.017 129.262 885.761 130.123 887.196 130.123ZM893.609 130.105C894.452 130.105 895.12 129.742 895.495 129.098H895.595V130H896.855V125.646C896.855 124.311 895.952 123.514 894.353 123.514C892.906 123.514 891.904 124.211 891.751 125.254L891.745 125.295H892.97L892.976 125.271C893.128 124.82 893.591 124.562 894.294 124.562C895.156 124.562 895.595 124.949 895.595 125.646V126.209L893.872 126.309C892.355 126.402 891.499 127.064 891.499 128.201V128.213C891.499 129.367 892.396 130.105 893.609 130.105ZM892.765 128.16V128.148C892.765 127.574 893.163 127.258 894.042 127.205L895.595 127.105V127.65C895.595 128.471 894.898 129.092 893.949 129.092C893.263 129.092 892.765 128.746 892.765 128.16ZM898.24 130H899.511V126.268C899.511 125.242 900.091 124.604 901.023 124.604C901.955 124.604 902.394 125.125 902.394 126.18V130H903.66V125.881C903.66 124.363 902.875 123.514 901.451 123.514C900.525 123.514 899.916 123.924 899.605 124.604H899.511V123.637H898.24V130ZM907.429 130.041C907.676 130.041 907.91 130.012 908.115 129.977V128.963C907.939 128.98 907.828 128.986 907.634 128.986C907.008 128.986 906.75 128.705 906.75 128.02V124.639H908.115V123.637H906.75V122.031H905.455V123.637H904.459V124.639H905.455V128.324C905.455 129.549 906.029 130.041 907.429 130.041ZM909.851 122.5C910.285 122.5 910.648 122.143 910.648 121.709C910.648 121.27 910.285 120.912 909.851 120.912C909.412 120.912 909.055 121.27 909.055 121.709C909.055 122.143 909.412 122.5 909.851 122.5ZM909.213 130H910.478V123.637H909.213V130ZM914.324 130.041C914.57 130.041 914.805 130.012 915.01 129.977V128.963C914.834 128.98 914.723 128.986 914.529 128.986C913.902 128.986 913.645 128.705 913.645 128.02V124.639H915.01V123.637H913.645V122.031H912.35V123.637H911.354V124.639H912.35V128.324C912.35 129.549 912.924 130.041 914.324 130.041ZM916.705 132.238C917.994 132.238 918.639 131.764 919.178 130.246L921.545 123.637H920.209L918.621 128.723H918.51L916.916 123.637H915.545L917.854 130.006L917.76 130.334C917.573 130.979 917.215 131.23 916.623 131.23C916.477 131.23 916.319 131.225 916.196 131.207V132.209C916.36 132.227 916.547 132.238 916.705 132.238ZM925.921 132.121H928.716V131.154H927.145V122.107H928.716V121.141H925.921V132.121ZM931.806 130.123C932.731 130.123 933.376 129.725 933.681 129.039H933.78V130H935.046V123.637H933.78V127.369C933.78 128.395 933.235 129.033 932.216 129.033C931.284 129.033 930.897 128.512 930.897 127.457V123.637H929.626V127.756C929.626 129.262 930.37 130.123 931.806 130.123ZM936.472 130H937.743V126.268C937.743 125.242 938.323 124.604 939.255 124.604C940.187 124.604 940.626 125.125 940.626 126.18V130H941.892V125.881C941.892 124.363 941.107 123.514 939.683 123.514C938.757 123.514 938.148 123.924 937.837 124.604H937.743V123.637H936.472V130ZM943.921 122.5C944.355 122.5 944.718 122.143 944.718 121.709C944.718 121.27 944.355 120.912 943.921 120.912C943.482 120.912 943.124 121.27 943.124 121.709C943.124 122.143 943.482 122.5 943.921 122.5ZM943.283 130H944.548V123.637H943.283V130ZM948.394 130.041C948.64 130.041 948.875 130.012 949.08 129.977V128.963C948.904 128.98 948.793 128.986 948.599 128.986C947.972 128.986 947.714 128.705 947.714 128.02V124.639H949.08V123.637H947.714V122.031H946.42V123.637H945.423V124.639H946.42V128.324C946.42 129.549 946.994 130.041 948.394 130.041ZM952.375 130.123C953.887 130.123 955.012 129.32 955.012 128.143V128.131C955.012 127.211 954.426 126.689 953.201 126.402L952.193 126.174C951.478 126.004 951.185 125.758 951.185 125.359V125.348C951.185 124.838 951.689 124.492 952.387 124.492C953.101 124.492 953.553 124.826 953.676 125.271V125.283H954.888V125.277C954.777 124.24 953.846 123.514 952.392 123.514C950.951 123.514 949.92 124.311 949.92 125.418V125.424C949.92 126.355 950.476 126.9 951.678 127.176L952.691 127.41C953.429 127.58 953.728 127.85 953.728 128.248V128.26C953.728 128.781 953.183 129.139 952.398 129.139C951.642 129.139 951.179 128.816 951.021 128.336L951.015 128.33H949.744V128.336C949.867 129.402 950.84 130.123 952.375 130.123ZM958.459 132.121V121.141H955.658V122.107H957.234V131.154H955.658V132.121H958.459Z" fill="white"/>
<path d="M946.011 149H946.661V147.408H947.715V146.808H946.661V141.944H945.704C944.166 144.083 943.321 145.401 942.471 146.798V147.408H946.011V149ZM943.17 146.812V146.769C943.878 145.602 944.581 144.508 945.967 142.584H946.011V146.812H943.17ZM951.013 149.146C952.561 149.146 953.499 147.735 953.499 145.484V145.47C953.499 143.219 952.561 141.808 951.013 141.808C949.466 141.808 948.538 143.219 948.538 145.47V145.484C948.538 147.73 949.466 149.146 951.013 149.146ZM951.013 148.561C949.881 148.561 949.207 147.374 949.207 145.484V145.47C949.207 143.58 949.881 142.398 951.013 142.398C952.151 142.398 952.83 143.575 952.83 145.47V145.484C952.83 147.374 952.151 148.561 951.013 148.561ZM956.865 149.146C958.413 149.146 959.351 147.735 959.351 145.484V145.47C959.351 143.219 958.413 141.808 956.865 141.808C955.317 141.808 954.39 143.219 954.39 145.47V145.484C954.39 147.73 955.317 149.146 956.865 149.146ZM956.865 148.561C955.732 148.561 955.059 147.374 955.059 145.484V145.47C955.059 143.58 955.732 142.398 956.865 142.398C958.003 142.398 958.682 143.575 958.682 145.47V145.484C958.682 147.374 958.003 148.561 956.865 148.561Z" fill="white"/>
<path d="M945.269 169.112C946.656 169.112 947.676 168.248 947.676 167.081V167.071C947.676 166.07 946.973 165.416 945.923 165.333V165.313C946.822 165.133 947.422 164.522 947.422 163.653V163.644C947.422 162.594 946.539 161.842 945.24 161.842C943.961 161.842 943.087 162.604 942.984 163.688L942.979 163.736H943.624L943.628 163.688C943.702 162.94 944.332 162.428 945.24 162.428C946.168 162.428 946.753 162.931 946.753 163.722V163.731C946.753 164.508 946.099 165.064 945.162 165.064H944.341V165.636H945.186C946.309 165.636 946.998 166.163 946.998 167.086V167.096C946.998 167.931 946.285 168.526 945.269 168.526C944.244 168.526 943.57 167.979 943.477 167.218L943.472 167.174H942.828L942.833 167.228C942.945 168.312 943.848 169.112 945.269 169.112ZM951.013 169.146C952.561 169.146 953.499 167.735 953.499 165.484V165.47C953.499 163.219 952.561 161.808 951.013 161.808C949.466 161.808 948.538 163.219 948.538 165.47V165.484C948.538 167.73 949.466 169.146 951.013 169.146ZM951.013 168.561C949.881 168.561 949.207 167.374 949.207 165.484V165.47C949.207 163.58 949.881 162.398 951.013 162.398C952.151 162.398 952.83 163.575 952.83 165.47V165.484C952.83 167.374 952.151 168.561 951.013 168.561ZM956.865 169.146C958.413 169.146 959.351 167.735 959.351 165.484V165.47C959.351 163.219 958.413 161.808 956.865 161.808C955.317 161.808 954.39 163.219 954.39 165.47V165.484C954.39 167.73 955.317 169.146 956.865 169.146ZM956.865 168.561C955.732 168.561 955.059 167.374 955.059 165.484V165.47C955.059 163.58 955.732 162.398 956.865 162.398C958.003 162.398 958.682 163.575 958.682 165.47V165.484C958.682 167.374 958.003 168.561 956.865 168.561Z" fill="white"/>
<path d="M943.126 189H947.657V188.395H944.058V188.336L945.904 186.422C947.144 185.138 947.486 184.557 947.486 183.771V183.761C947.486 182.643 946.558 181.808 945.342 181.808C944.039 181.808 943.101 182.682 943.087 183.897L943.096 183.902H943.736V183.897C943.746 183.009 944.385 182.394 945.303 182.394C946.207 182.394 946.807 183.014 946.807 183.824V183.834C946.807 184.474 946.529 184.884 945.552 185.929L943.126 188.531V189ZM951.013 189.146C952.561 189.146 953.499 187.735 953.499 185.484V185.47C953.499 183.219 952.561 181.808 951.013 181.808C949.466 181.808 948.538 183.219 948.538 185.47V185.484C948.538 187.73 949.466 189.146 951.013 189.146ZM951.013 188.561C949.881 188.561 949.207 187.374 949.207 185.484V185.47C949.207 183.58 949.881 182.398 951.013 182.398C952.151 182.398 952.83 183.575 952.83 185.47V185.484C952.83 187.374 952.151 188.561 951.013 188.561ZM956.865 189.146C958.413 189.146 959.351 187.735 959.351 185.484V185.47C959.351 183.219 958.413 181.808 956.865 181.808C955.317 181.808 954.39 183.219 954.39 185.47V185.484C954.39 187.73 955.317 189.146 956.865 189.146ZM956.865 188.561C955.732 188.561 955.059 187.374 955.059 185.484V185.47C955.059 183.58 955.732 182.398 956.865 182.398C958.003 182.398 958.682 183.575 958.682 185.47V185.484C958.682 187.374 958.003 188.561 956.865 188.561Z" fill="white"/>
<path d="M946.353 209H947.017V201.954H946.358L944.473 203.258V203.966L946.295 202.701H946.353V209ZM951.013 209.146C952.561 209.146 953.499 207.735 953.499 205.484V205.47C953.499 203.219 952.561 201.808 951.013 201.808C949.466 201.808 948.538 203.219 948.538 205.47V205.484C948.538 207.73 949.466 209.146 951.013 209.146ZM951.013 208.561C949.881 208.561 949.207 207.374 949.207 205.484V205.47C949.207 203.58 949.881 202.398 951.013 202.398C952.151 202.398 952.83 203.575 952.83 205.47V205.484C952.83 207.374 952.151 208.561 951.013 208.561ZM956.865 209.146C958.413 209.146 959.351 207.735 959.351 205.484V205.47C959.351 203.219 958.413 201.808 956.865 201.808C955.317 201.808 954.39 203.219 954.39 205.47V205.484C954.39 207.73 955.317 209.146 956.865 209.146ZM956.865 208.561C955.732 208.561 955.059 207.374 955.059 205.484V205.47C955.059 203.58 955.732 202.398 956.865 202.398C958.003 202.398 958.682 203.575 958.682 205.47V205.484C958.682 207.374 958.003 208.561 956.865 208.561Z" fill="white"/>
<path d="M953.865 229.146C955.413 229.146 956.351 227.735 956.351 225.484V225.47C956.351 223.219 955.413 221.808 953.865 221.808C952.317 221.808 951.39 223.219 951.39 225.47V225.484C951.39 227.73 952.317 229.146 953.865 229.146ZM953.865 228.561C952.732 228.561 952.059 227.374 952.059 225.484V225.47C952.059 223.58 952.732 222.398 953.865 222.398C955.003 222.398 955.682 223.575 955.682 225.47V225.484C955.682 227.374 955.003 228.561 953.865 228.561Z" fill="white"/>
<rect x="103" y="156" width="12" height="72" fill="#FF8CA1"/>
<rect x="120" y="170" width="12" height="58" fill="#FFDD81"/>
<rect x="137" y="199" width="12" height="29" fill="#60BFF4"/>
<rect x="173" y="195" width="12" height="33" fill="#FF8CA1"/>
<rect x="190" y="208.355" width="12" height="19.6452" fill="#FFDD81"/>
<rect x="207" y="177" width="12" height="51" fill="#60BFF4"/>
<rect x="243" y="220" width="12" height="8" fill="#FF8CA1"/>
<rect x="260" y="207" width="12" height="21" fill="#FFDD81"/>
<rect x="277" y="180" width="12" height="48" fill="#60BFF4"/>
<rect x="313" y="153" width="12" height="75" fill="#FF8CA1"/>
<rect x="330" y="177" width="12" height="51" fill="#FFDD81"/>
<rect x="347" y="160" width="12" height="68" fill="#60BFF4"/>
<rect x="383" y="177" width="12" height="51" fill="#FF8CA1"/>
<rect x="400" y="199" width="12" height="29" fill="#FFDD81"/>
<rect x="417" y="220" width="12" height="8" fill="#60BFF4"/>
<rect x="453" y="200" width="12" height="28" fill="#FF8CA1"/>
<rect x="470" y="150" width="12" height="78" fill="#FFDD81"/>
<rect x="487" y="180" width="12" height="48" fill="#60BFF4"/>
<rect x="523" y="186" width="12" height="42" fill="#FF8CA1"/>
<rect x="540" y="177" width="12" height="51" fill="#FFDD81"/>
<rect x="557" y="195" width="12" height="33" fill="#60BFF4"/>
<rect x="593" y="199" width="12" height="29" fill="#FF8CA1"/>
<rect x="610" y="190" width="12" height="38" fill="#FFDD81"/>
<rect x="627" y="160" width="12" height="68" fill="#60BFF4"/>
<rect x="663" y="150" width="12" height="78" fill="#FF8CA1"/>
<rect x="680" y="210" width="12" height="18" fill="#FFDD81"/>
<rect x="697" y="213" width="12" height="15" fill="#60BFF4"/>
<rect x="733" y="156" width="12" height="72" fill="#FF8CA1"/>
<rect x="750" y="173" width="12" height="55" fill="#FFDD81"/>
<rect x="767" y="180" width="12" height="48" fill="#60BFF4"/>
<rect x="803" y="204" width="12" height="24" fill="#FF8CA1"/>
<rect x="820" y="199" width="12" height="29" fill="#FFDD81"/>
<rect x="837" y="157" width="12" height="71" fill="#60BFF4"/>
<rect x="873" y="192" width="12" height="36" fill="#FF8CA1"/>
<rect x="890" y="173" width="12" height="55" fill="#FFDD81"/>
<rect x="907" y="215" width="12" height="13" fill="#60BFF4"/>
<path d="M126 182L196 199" stroke="#8DFDEF" stroke-width="2" stroke-linecap="round"/>
<path d="M826 172L896 181" stroke="#8DFDEF" stroke-width="2" stroke-linecap="round"/>
<path d="M756 198L826 172" stroke="#8DFDEF" stroke-width="2" stroke-linecap="round"/>
<path d="M686 184L756 198" stroke="#8DFDEF" stroke-width="2" stroke-linecap="round"/>
<path d="M616 152L686 184" stroke="#8DFDEF" stroke-width="2" stroke-linecap="round"/>
<path d="M546 165L616 152" stroke="#8DFDEF" stroke-width="2" stroke-linecap="round"/>
<path d="M476 160L546 165" stroke="#8DFDEF" stroke-width="2" stroke-linecap="round"/>
<path d="M406 182L476 160" stroke="#8DFDEF" stroke-width="2" stroke-linecap="round"/>
<path d="M336 208L406 182" stroke="#8DFDEF" stroke-width="2" stroke-linecap="round"/>
<path d="M266 170L336 208" stroke="#8DFDEF" stroke-width="2" stroke-linecap="round"/>
<path d="M196 199L266 170" stroke="#8DFDEF" stroke-width="2" stroke-linecap="round"/>
<circle cx="126" cy="182" r="3.5" fill="#8DFDEF" stroke="#8DFDEF"/>
<circle cx="196" cy="199" r="3.5" fill="#8DFDEF" stroke="#8DFDEF"/>
<circle cx="266" cy="170" r="3.5" fill="#8DFDEF" stroke="#8DFDEF"/>
<circle cx="336" cy="208" r="3.5" fill="#8DFDEF" stroke="#8DFDEF"/>
<circle cx="406" cy="182" r="3.5" fill="#8DFDEF" stroke="#8DFDEF"/>
<circle cx="476" cy="160" r="3.5" fill="#8DFDEF" stroke="#8DFDEF"/>
<circle cx="546" cy="165" r="3.5" fill="#8DFDEF" stroke="#8DFDEF"/>
<circle cx="616" cy="152" r="3.5" fill="#8DFDEF" stroke="#8DFDEF"/>
<circle cx="686" cy="184" r="3.5" fill="#8DFDEF" stroke="#8DFDEF"/>
<circle cx="756" cy="198" r="3.5" fill="#8DFDEF" stroke="#8DFDEF"/>
<circle cx="826" cy="172" r="3.5" fill="#8DFDEF" stroke="#8DFDEF"/>
<circle cx="896" cy="181" r="3.5" fill="#8DFDEF" stroke="#8DFDEF"/>
</g>
<defs>
<filter id="filter0_f_13_1450" x="-99" y="25" width="668" height="655" filterUnits="userSpaceOnUse" color-interpolation-filters="sRGB">
<feFlood flood-opacity="0" result="BackgroundImageFix"/>
<feBlend mode="normal" in="SourceGraphic" in2="BackgroundImageFix" result="shape"/>
<feGaussianBlur stdDeviation="100" result="effect1_foregroundBlur_13_1450"/>
</filter>
<filter id="filter1_f_13_1450" x="659" y="11" width="653" height="646" filterUnits="userSpaceOnUse" color-interpolation-filters="sRGB">
<feFlood flood-opacity="0" result="BackgroundImageFix"/>
<feBlend mode="normal" in="SourceGraphic" in2="BackgroundImageFix" result="shape"/>
<feGaussianBlur stdDeviation="100" result="effect1_foregroundBlur_13_1450"/>
</filter>
<filter id="filter2_f_13_1450" x="315" y="-273" width="591" height="590" filterUnits="userSpaceOnUse" color-interpolation-filters="sRGB">
<feFlood flood-opacity="0" result="BackgroundImageFix"/>
<feBlend mode="normal" in="SourceGraphic" in2="BackgroundImageFix" result="shape"/>
<feGaussianBlur stdDeviation="100" result="effect1_foregroundBlur_13_1450"/>
</filter>
<filter id="filter3_bd_13_1450" x="-36" y="-36" width="1088" height="403" filterUnits="userSpaceOnUse" color-interpolation-filters="sRGB">
<feFlood flood-opacity="0" result="BackgroundImageFix"/>
<feGaussianBlur in="BackgroundImage" stdDeviation="30"/>
<feComposite in2="SourceAlpha" operator="in" result="effect1_backgroundBlur_13_1450"/>
<feColorMatrix in="SourceAlpha" type="matrix" values="0 0 0 0 0 0 0 0 0 0 0 0 0 0 0 0 0 0 127 0" result="hardAlpha"/>
<feOffset dy="-10"/>
<feGaussianBlur stdDeviation="10"/>
<feComposite in2="hardAlpha" operator="out"/>
<feColorMatrix type="matrix" values="0 0 0 0 0.160784 0 0 0 0 0.152941 0 0 0 0 0.509804 0 0 0 0.15 0"/>
<feBlend mode="normal" in2="effect1_backgroundBlur_13_1450" result="effect2_dropShadow_13_1450"/>
<feBlend mode="normal" in="SourceGraphic" in2="effect2_dropShadow_13_1450" result="shape"/>
</filter>
<clipPath id="clip0_13_1450">
<rect width="1016" height="331" fill="white"/>
</clipPath>
</defs>
</svg>
