<svg width="724" height="334" viewBox="0 0 724 334" fill="none" xmlns="http://www.w3.org/2000/svg">
<g clip-path="url(#clip0_26_2460)">
<rect width="724" height="334" fill="#09203F"/>
<g filter="url(#filter0_f_26_2460)">
<ellipse cx="235" cy="352.5" rx="134" ry="127.5" fill="#537895"/>
</g>
<g filter="url(#filter1_f_26_2460)">
<ellipse cx="985.5" cy="334" rx="126.5" ry="123" fill="#537895"/>
</g>
<g filter="url(#filter2_f_26_2460)">
<ellipse cx="610.5" cy="22" rx="95.5" ry="95" fill="#537895"/>
</g>
<g filter="url(#filter3_bd_26_2460)">
<rect x="24" y="24" width="676" height="286" fill="white" fill-opacity="0.2" shape-rendering="crispEdges"/>
<rect x="24.5" y="24.5" width="675" height="285" stroke="white" stroke-opacity="0.2" shape-rendering="crispEdges"/>
</g>
<path d="M57.084 88H59.8672C62.4512 88 63.8809 86.4004 63.8809 83.7754V83.7637C63.8809 81.1445 62.4453 79.5449 59.8672 79.5449H57.084V88ZM57.8867 87.2734V80.2715H59.8203C61.8828 80.2715 63.0605 81.5898 63.0605 83.7695V83.7812C63.0605 85.9609 61.8887 87.2734 59.8203 87.2734H57.8867ZM67.7502 88.1055C69.1447 88.1055 70.0647 87.3438 70.3108 86.4883L70.3283 86.4414H69.549L69.5256 86.4824C69.3205 86.9746 68.6877 87.4082 67.7678 87.4082C66.5139 87.4082 65.7053 86.5234 65.6818 85.0469H70.4221V84.7188C70.4221 82.8496 69.3791 81.584 67.6858 81.584C65.9924 81.584 64.8908 82.8848 64.8908 84.8535V84.8652C64.8908 86.8457 65.9807 88.1055 67.7502 88.1055ZM67.6858 82.2754C68.7697 82.2754 69.549 83.0137 69.6369 84.4141H65.6877C65.7873 83.0488 66.5959 82.2754 67.6858 82.2754ZM73.7992 88.1055C75.1762 88.1055 76.2367 87.3438 76.2367 86.2598V86.248C76.2367 85.3398 75.6449 84.8477 74.4262 84.5547L73.5531 84.3496C72.7153 84.1504 72.3285 83.8516 72.3285 83.3359V83.3242C72.3285 82.6973 72.9789 82.2344 73.8051 82.2344C74.643 82.2344 75.2289 82.6328 75.3695 83.2188H76.1313C75.9848 82.2227 75.0824 81.584 73.811 81.584C72.5395 81.584 71.5375 82.3398 71.5375 83.3594V83.3652C71.5375 84.25 72.0824 84.7363 73.2543 85.0117L74.1332 85.2227C75.0531 85.4395 75.4457 85.7617 75.4457 86.3066V86.3184C75.4457 86.9746 74.7485 87.4492 73.8227 87.4492C72.9086 87.4492 72.3051 87.0449 72.1352 86.418H71.3383C71.4672 87.4492 72.4223 88.1055 73.7992 88.1055ZM80.0006 88.1055C81.442 88.1055 82.3209 87.3379 82.567 86.2246L82.5787 86.1777L81.8053 86.1836L81.7936 86.2129C81.5709 86.9746 80.9264 87.4141 79.9948 87.4141C78.7467 87.4141 77.944 86.4004 77.944 84.8301V84.8184C77.944 83.2656 78.7408 82.2754 79.9948 82.2754C80.9615 82.2754 81.6178 82.8086 81.8053 83.5352L81.8112 83.5527L82.5787 83.5469V83.5234C82.3854 82.416 81.442 81.584 79.9948 81.584C78.2545 81.584 77.153 82.8496 77.153 84.8184V84.8301C77.153 86.8281 78.2604 88.1055 80.0006 88.1055ZM83.7762 88H84.5496V84.0625C84.5496 83.043 85.2762 82.3223 86.2606 82.3223C86.5008 82.3223 86.7059 82.3457 86.9344 82.4043V81.6426C86.7821 81.6074 86.5711 81.584 86.3426 81.584C85.4871 81.584 84.8719 82.0059 84.6258 82.7266H84.5496V81.6895H83.7762V88ZM88.2725 80.377C88.583 80.377 88.8409 80.125 88.8409 79.8086C88.8409 79.4922 88.583 79.2402 88.2725 79.2402C87.9561 79.2402 87.6983 79.4922 87.6983 79.8086C87.6983 80.125 87.9561 80.377 88.2725 80.377ZM87.8799 88H88.6534V81.6895H87.8799V88ZM90.261 90.0918H91.0344V86.7695H91.1106C91.4563 87.584 92.2708 88.1055 93.2258 88.1055C94.8254 88.1055 95.8977 86.8047 95.8977 84.8477V84.8359C95.8977 82.8906 94.8254 81.584 93.2258 81.584C92.259 81.584 91.4797 82.0996 91.1106 82.9434H91.0344V81.6895H90.261V90.0918ZM93.0676 87.4141C91.8254 87.4141 91.0227 86.4062 91.0227 84.8477V84.8359C91.0227 83.2832 91.8254 82.2754 93.0676 82.2754C94.3157 82.2754 95.1067 83.2773 95.1067 84.8359V84.8477C95.1067 86.4121 94.3157 87.4141 93.0676 87.4141ZM99.228 88.041C99.4155 88.041 99.5913 88.0234 99.767 87.9941V87.3262C99.6088 87.3438 99.4917 87.3496 99.3159 87.3496C98.601 87.3496 98.3256 87.0273 98.3256 86.2539V82.3398H99.767V81.6895H98.3256V80.0488H97.5229V81.6895H96.5092V82.3398H97.5229V86.4297C97.5229 87.5781 98.021 88.041 99.228 88.041ZM101.404 80.377C101.715 80.377 101.972 80.125 101.972 79.8086C101.972 79.4922 101.715 79.2402 101.404 79.2402C101.088 79.2402 100.83 79.4922 100.83 79.8086C100.83 80.125 101.088 80.377 101.404 80.377ZM101.011 88H101.785V81.6895H101.011V88ZM105.15 88H105.971L108.326 81.6895H107.5L105.596 87.1621H105.525L103.615 81.6895H102.795L105.15 88ZM111.621 88.1055C113.016 88.1055 113.936 87.3438 114.182 86.4883L114.199 86.4414H113.42L113.397 86.4824C113.191 86.9746 112.559 87.4082 111.639 87.4082C110.385 87.4082 109.576 86.5234 109.553 85.0469H114.293V84.7188C114.293 82.8496 113.25 81.584 111.557 81.584C109.863 81.584 108.762 82.8848 108.762 84.8535V84.8652C108.762 86.8457 109.852 88.1055 111.621 88.1055ZM111.557 82.2754C112.641 82.2754 113.42 83.0137 113.508 84.4141H109.559C109.658 83.0488 110.467 82.2754 111.557 82.2754ZM121.188 88.1758C123.01 88.1758 124.229 87.1855 124.229 85.6914V85.6855C124.229 84.5078 123.52 83.7988 121.762 83.4004L120.895 83.2012C119.612 82.9082 119.09 82.4336 119.09 81.6895V81.6836C119.09 80.7402 119.975 80.1133 121.141 80.1133C122.342 80.1074 123.139 80.7344 123.262 81.5488L123.268 81.6191H124.071L124.065 81.543C123.965 80.3301 122.817 79.3691 121.165 79.3691C119.477 79.3691 118.276 80.3594 118.276 81.7012V81.707C118.276 82.873 118.991 83.5938 120.69 83.9805L121.557 84.1738C122.858 84.4668 123.415 85 123.415 85.7793V85.791C123.415 86.7402 122.5 87.4316 121.229 87.4316C119.928 87.4316 118.956 86.793 118.868 85.8613L118.862 85.7969H118.059L118.065 85.8613C118.188 87.2148 119.401 88.1758 121.188 88.1758ZM127.653 88.1055C128.632 88.1055 129.341 87.6602 129.651 86.8984H129.721V88H130.495V81.6895H129.721V85.4395C129.721 86.6348 129.018 87.4141 127.841 87.4141C126.757 87.4141 126.212 86.7754 126.212 85.5977V81.6895H125.438V85.791C125.438 87.2383 126.235 88.1055 127.653 88.1055ZM135.091 88.1055C136.684 88.1055 137.745 86.7988 137.745 84.8477V84.8359C137.745 82.873 136.69 81.584 135.091 81.584C134.136 81.584 133.321 82.0996 132.976 82.9141H132.899V79.1758H132.126V88H132.899V86.7402H132.976C133.339 87.5898 134.124 88.1055 135.091 88.1055ZM134.933 87.4141C133.69 87.4141 132.888 86.4004 132.888 84.8477V84.8359C132.888 83.2832 133.69 82.2754 134.933 82.2754C136.175 82.2754 136.954 83.2656 136.954 84.8301V84.8418C136.954 86.4121 136.175 87.4141 134.933 87.4141ZM141.081 88.041C141.269 88.041 141.444 88.0234 141.62 87.9941V87.3262C141.462 87.3438 141.345 87.3496 141.169 87.3496C140.454 87.3496 140.179 87.0273 140.179 86.2539V82.3398H141.62V81.6895H140.179V80.0488H139.376V81.6895H138.362V82.3398H139.376V86.4297C139.376 87.5781 139.874 88.041 141.081 88.041ZM143.257 80.377C143.568 80.377 143.826 80.125 143.826 79.8086C143.826 79.4922 143.568 79.2402 143.257 79.2402C142.941 79.2402 142.683 79.4922 142.683 79.8086C142.683 80.125 142.941 80.377 143.257 80.377ZM142.865 88H143.638V81.6895H142.865V88ZM147.332 88.041C147.519 88.041 147.695 88.0234 147.871 87.9941V87.3262C147.712 87.3438 147.595 87.3496 147.419 87.3496C146.705 87.3496 146.429 87.0273 146.429 86.2539V82.3398H147.871V81.6895H146.429V80.0488H145.627V81.6895H144.613V82.3398H145.627V86.4297C145.627 87.5781 146.125 88.041 147.332 88.041ZM149.138 88H149.912V79.1758H149.138V88ZM154.086 88.1055C155.48 88.1055 156.4 87.3438 156.646 86.4883L156.664 86.4414H155.885L155.861 86.4824C155.656 86.9746 155.023 87.4082 154.103 87.4082C152.85 87.4082 152.041 86.5234 152.018 85.0469H156.758V84.7188C156.758 82.8496 155.715 81.584 154.021 81.584C152.328 81.584 151.227 82.8848 151.227 84.8535V84.8652C151.227 86.8457 152.316 88.1055 154.086 88.1055ZM154.021 82.2754C155.105 82.2754 155.885 83.0137 155.973 84.4141H152.023C152.123 83.0488 152.932 82.2754 154.021 82.2754Z" fill="white"/>
<path d="M62.0938 68.2812C64.6953 68.2812 66.5625 66.7734 66.8594 64.5156V64.4609H64.8828L64.875 64.5C64.5859 65.7422 63.5234 66.5391 62.0938 66.5391C60.1719 66.5391 58.9766 64.9375 58.9766 62.3672V62.3516C58.9766 59.7891 60.1719 58.1875 62.0859 58.1875C63.5078 58.1875 64.5859 59.0703 64.875 60.4062L64.8828 60.4375H66.8594V60.375C66.5938 58.0703 64.6484 56.4453 62.0859 56.4453C58.8906 56.4453 56.9141 58.7031 56.9141 62.3594V62.375C56.9141 66.0156 58.8984 68.2812 62.0938 68.2812ZM68.5764 68H70.5217V63.0234C70.5217 61.7422 71.2404 60.9297 72.3967 60.9297C73.5764 60.9297 74.1154 61.6016 74.1154 62.9297V68H76.0608V62.4766C76.0608 60.4453 75.0217 59.2969 73.1154 59.2969C71.8811 59.2969 71.0608 59.8516 70.6545 60.7656H70.5217V56.1562H68.5764V68ZM80.2778 68.1406C81.4028 68.1406 82.309 67.6562 82.7778 66.8281H82.9106V68H84.8324V62.1641C84.8324 60.3594 83.5981 59.2969 81.4028 59.2969C79.3715 59.2969 77.9965 60.25 77.809 61.6875L77.8012 61.7578H79.6371L79.6449 61.7266C79.8403 61.1641 80.4184 60.8438 81.309 60.8438C82.3559 60.8438 82.9106 61.3125 82.9106 62.1641V62.8984L80.7153 63.0312C78.6371 63.1562 77.4731 64.0469 77.4731 65.5703V65.5859C77.4731 67.1406 78.6528 68.1406 80.2778 68.1406ZM79.3949 65.4922V65.4766C79.3949 64.7734 79.9028 64.375 80.9887 64.3047L82.9106 64.1797V64.8672C82.9106 65.8828 82.0434 66.6484 80.8715 66.6484C80.0121 66.6484 79.3949 66.2188 79.3949 65.4922ZM86.7604 68H88.7057V63.0391C88.7057 61.8203 89.5573 61.0469 90.8541 61.0469C91.1901 61.0469 91.5104 61.0938 91.8229 61.1562V59.4141C91.6354 59.3594 91.3307 59.3203 91.0338 59.3203C89.9088 59.3203 89.1276 59.8594 88.8385 60.7734H88.7057V59.4609H86.7604V68ZM96.5555 68.0391C96.9305 68.0391 97.2899 68.0078 97.5711 67.9531V66.4531C97.3368 66.4766 97.1883 66.4844 96.9149 66.4844C96.1024 66.4844 95.7664 66.125 95.7664 65.2734V60.9688H97.5711V59.4609H95.7664V57.3672H93.7899V59.4609H92.4618V60.9688H93.7899V65.7344C93.7899 67.3828 94.5946 68.0391 96.5555 68.0391ZM105.966 68H107.982V58.4219H111.458V56.7266H102.497V58.4219H105.966V68ZM113.8 58.0312C114.433 58.0312 114.957 57.5234 114.957 56.8828C114.957 56.25 114.433 55.7344 113.8 55.7344C113.16 55.7344 112.636 56.25 112.636 56.8828C112.636 57.5234 113.16 58.0312 113.8 58.0312ZM112.824 68H114.769V59.4609H112.824V68ZM120.111 68.0391C120.486 68.0391 120.845 68.0078 121.127 67.9531V66.4531C120.892 66.4766 120.744 66.4844 120.47 66.4844C119.658 66.4844 119.322 66.125 119.322 65.2734V60.9688H121.127V59.4609H119.322V57.3672H117.345V59.4609H116.017V60.9688H117.345V65.7344C117.345 67.3828 118.15 68.0391 120.111 68.0391ZM122.734 68H124.68V56.1562H122.734V68ZM130.389 68.1719C132.709 68.1719 133.85 66.8359 134.123 65.7344L134.147 65.6641H132.295L132.272 65.7188C132.084 66.1094 131.482 66.6406 130.428 66.6406C129.107 66.6406 128.279 65.75 128.256 64.2188H134.225V63.5781C134.225 61 132.725 59.2969 130.295 59.2969C127.865 59.2969 126.311 61.0547 126.311 63.7422V63.75C126.311 66.4688 127.85 68.1719 130.389 68.1719ZM130.318 60.8203C131.404 60.8203 132.193 61.5156 132.326 62.9141H128.272C128.42 61.5547 129.232 60.8203 130.318 60.8203Z" fill="white"/>
<rect x="661" y="94" width="8" height="8" fill="#FFDD81"/>
<path d="M630.233 102H634.427V101.395H630.902V94.9541H630.233V102ZM636.763 102.088C637.539 102.088 638.169 101.722 638.482 101.097H638.54V102H639.19V98.4062C639.19 97.2979 638.472 96.6533 637.242 96.6533C636.153 96.6533 635.357 97.1904 635.22 98.0303L635.215 98.0498H635.865L635.87 98.04C636.006 97.5176 636.509 97.2295 637.222 97.2295C638.072 97.2295 638.54 97.6396 638.54 98.4111V98.9043L636.9 99.0117C635.684 99.0947 635.005 99.627 635.005 100.54V100.55C635.005 101.487 635.747 102.088 636.763 102.088ZM635.664 100.54V100.53C635.664 99.9346 636.094 99.5977 636.988 99.5391L638.54 99.4316V100.042C638.54 100.877 637.828 101.521 636.885 101.521C636.177 101.521 635.664 101.141 635.664 100.54ZM642.922 102.088C644.251 102.088 645.134 100.999 645.134 99.373V99.3633C645.134 97.7275 644.255 96.6533 642.922 96.6533C642.127 96.6533 641.448 97.083 641.16 97.7617H641.096V94.6465H640.452V102H641.096V100.95H641.16C641.462 101.658 642.117 102.088 642.922 102.088ZM642.791 101.512C641.755 101.512 641.087 100.667 641.087 99.373V99.3633C641.087 98.0693 641.755 97.2295 642.791 97.2295C643.826 97.2295 644.475 98.0547 644.475 99.3584V99.3682C644.475 100.677 643.826 101.512 642.791 101.512ZM648.227 102.088C649.389 102.088 650.156 101.453 650.361 100.74L650.376 100.701H649.726L649.707 100.735C649.536 101.146 649.009 101.507 648.242 101.507C647.197 101.507 646.523 100.77 646.504 99.5391H650.454V99.2656C650.454 97.708 649.585 96.6533 648.174 96.6533C646.762 96.6533 645.845 97.7373 645.845 99.3779V99.3877C645.845 101.038 646.753 102.088 648.227 102.088ZM648.174 97.2295C649.077 97.2295 649.726 97.8447 649.8 99.0117H646.509C646.592 97.874 647.265 97.2295 648.174 97.2295ZM651.481 102H652.126V94.6465H651.481V102Z" fill="white"/>
<rect x="661" y="79" width="8" height="8" fill="#60BFF4"/>
<path d="M630.233 87H634.427V86.3945H630.902V79.9541H630.233V87ZM636.763 87.0879C637.539 87.0879 638.169 86.7217 638.482 86.0967H638.54V87H639.19V83.4062C639.19 82.2979 638.472 81.6533 637.242 81.6533C636.153 81.6533 635.357 82.1904 635.22 83.0303L635.215 83.0498H635.865L635.87 83.04C636.006 82.5176 636.509 82.2295 637.222 82.2295C638.072 82.2295 638.54 82.6396 638.54 83.4111V83.9043L636.9 84.0117C635.684 84.0947 635.005 84.627 635.005 85.54V85.5498C635.005 86.4873 635.747 87.0879 636.763 87.0879ZM635.664 85.54V85.5303C635.664 84.9346 636.094 84.5977 636.988 84.5391L638.54 84.4316V85.042C638.54 85.877 637.828 86.5215 636.885 86.5215C636.177 86.5215 635.664 86.1406 635.664 85.54ZM642.922 87.0879C644.251 87.0879 645.134 85.999 645.134 84.373V84.3633C645.134 82.7275 644.255 81.6533 642.922 81.6533C642.127 81.6533 641.448 82.083 641.16 82.7617H641.096V79.6465H640.452V87H641.096V85.9502H641.16C641.462 86.6582 642.117 87.0879 642.922 87.0879ZM642.791 86.5117C641.755 86.5117 641.087 85.667 641.087 84.373V84.3633C641.087 83.0693 641.755 82.2295 642.791 82.2295C643.826 82.2295 644.475 83.0547 644.475 84.3584V84.3682C644.475 85.6768 643.826 86.5117 642.791 86.5117ZM648.227 87.0879C649.389 87.0879 650.156 86.4531 650.361 85.7402L650.376 85.7012H649.726L649.707 85.7354C649.536 86.1455 649.009 86.5068 648.242 86.5068C647.197 86.5068 646.523 85.7695 646.504 84.5391H650.454V84.2656C650.454 82.708 649.585 81.6533 648.174 81.6533C646.762 81.6533 645.845 82.7373 645.845 84.3779V84.3877C645.845 86.0381 646.753 87.0879 648.227 87.0879ZM648.174 82.2295C649.077 82.2295 649.726 82.8447 649.8 84.0117H646.509C646.592 82.874 647.265 82.2295 648.174 82.2295ZM651.481 87H652.126V79.6465H651.481V87Z" fill="white"/>
<rect x="661" y="109" width="8" height="8" fill="#FF8CA1"/>
<path d="M630.233 117H634.427V116.395H630.902V109.954H630.233V117ZM636.763 117.088C637.539 117.088 638.169 116.722 638.482 116.097H638.54V117H639.19V113.406C639.19 112.298 638.472 111.653 637.242 111.653C636.153 111.653 635.357 112.19 635.22 113.03L635.215 113.05H635.865L635.87 113.04C636.006 112.518 636.509 112.229 637.222 112.229C638.072 112.229 638.54 112.64 638.54 113.411V113.904L636.9 114.012C635.684 114.095 635.005 114.627 635.005 115.54V115.55C635.005 116.487 635.747 117.088 636.763 117.088ZM635.664 115.54V115.53C635.664 114.935 636.094 114.598 636.988 114.539L638.54 114.432V115.042C638.54 115.877 637.828 116.521 636.885 116.521C636.177 116.521 635.664 116.141 635.664 115.54ZM642.922 117.088C644.251 117.088 645.134 115.999 645.134 114.373V114.363C645.134 112.728 644.255 111.653 642.922 111.653C642.127 111.653 641.448 112.083 641.16 112.762H641.096V109.646H640.452V117H641.096V115.95H641.16C641.462 116.658 642.117 117.088 642.922 117.088ZM642.791 116.512C641.755 116.512 641.087 115.667 641.087 114.373V114.363C641.087 113.069 641.755 112.229 642.791 112.229C643.826 112.229 644.475 113.055 644.475 114.358V114.368C644.475 115.677 643.826 116.512 642.791 116.512ZM648.227 117.088C649.389 117.088 650.156 116.453 650.361 115.74L650.376 115.701H649.726L649.707 115.735C649.536 116.146 649.009 116.507 648.242 116.507C647.197 116.507 646.523 115.77 646.504 114.539H650.454V114.266C650.454 112.708 649.585 111.653 648.174 111.653C646.762 111.653 645.845 112.737 645.845 114.378V114.388C645.845 116.038 646.753 117.088 648.227 117.088ZM648.174 112.229C649.077 112.229 649.726 112.845 649.8 114.012H646.509C646.592 112.874 647.265 112.229 648.174 112.229ZM651.481 117H652.126V109.646H651.481V117Z" fill="white"/>
<path d="M596.586 67H601.619V66.2734H597.389V58.5449H596.586V67ZM604.979 67.1055C606.373 67.1055 607.293 66.3438 607.539 65.4883L607.557 65.4414H606.777L606.754 65.4824C606.549 65.9746 605.916 66.4082 604.996 66.4082C603.742 66.4082 602.934 65.5234 602.91 64.0469H607.651V63.7188C607.651 61.8496 606.608 60.584 604.914 60.584C603.221 60.584 602.119 61.8848 602.119 63.8535V63.8652C602.119 65.8457 603.209 67.1055 604.979 67.1055ZM604.914 61.2754C605.998 61.2754 606.777 62.0137 606.865 63.4141H602.916C603.016 62.0488 603.824 61.2754 604.914 61.2754ZM611.467 69.2031C613.125 69.2031 614.209 68.3008 614.209 66.9238V60.6895H613.43V61.9668H613.377C613.014 61.123 612.235 60.584 611.262 60.584C609.633 60.584 608.59 61.873 608.59 63.6777V63.6895C608.59 65.5 609.627 66.7715 611.25 66.7715C612.217 66.7715 612.991 66.291 613.366 65.459H613.442V66.8711C613.442 67.8906 612.686 68.5117 611.467 68.5117C610.506 68.5117 609.85 68.1309 609.709 67.5801L609.703 67.5742H608.901L608.895 67.5801C609.059 68.5586 610.02 69.2031 611.467 69.2031ZM611.403 66.0801C610.143 66.0801 609.381 65.1016 609.381 63.6895V63.6777C609.381 62.2656 610.143 61.2754 611.403 61.2754C612.651 61.2754 613.453 62.2773 613.453 63.6895V63.7012C613.453 65.1133 612.668 66.0801 611.403 66.0801ZM618.319 67.1055C619.713 67.1055 620.633 66.3438 620.879 65.4883L620.897 65.4414H620.118L620.094 65.4824C619.889 65.9746 619.256 66.4082 618.336 66.4082C617.083 66.4082 616.274 65.5234 616.251 64.0469H620.991V63.7188C620.991 61.8496 619.948 60.584 618.254 60.584C616.561 60.584 615.46 61.8848 615.46 63.8535V63.8652C615.46 65.8457 616.549 67.1055 618.319 67.1055ZM618.254 61.2754C619.338 61.2754 620.118 62.0137 620.206 63.4141H616.256C616.356 62.0488 617.165 61.2754 618.254 61.2754ZM622.247 67H623.02V63.25C623.02 62.0605 623.776 61.2754 624.889 61.2754C625.985 61.2754 626.53 61.8906 626.53 63.0918V67H627.303V62.8984C627.303 61.4277 626.501 60.584 625.094 60.584C624.11 60.584 623.43 61.0352 623.096 61.7969H623.02V60.6895H622.247V67ZM631.173 67.1055C632.145 67.1055 632.925 66.5898 633.294 65.7402H633.364V67H634.144V58.1758H633.364V61.9199H633.294C632.942 61.1055 632.128 60.584 631.173 60.584C629.573 60.584 628.507 61.8848 628.507 63.8418V63.8535C628.507 65.7988 629.579 67.1055 631.173 67.1055ZM631.337 66.4141C630.089 66.4141 629.298 65.4121 629.298 63.8477V63.8359C629.298 62.2773 630.089 61.2754 631.337 61.2754C632.579 61.2754 633.382 62.2832 633.382 63.8359V63.8477C633.382 65.4062 632.579 66.4141 631.337 66.4141ZM638.695 67H639.486V59.9746H639.562L644.507 67H645.281V58.5449H644.49V65.5645H644.413L639.486 58.5449H638.695V67ZM648.687 67.1055C649.619 67.1055 650.375 66.666 650.75 65.916H650.82V67H651.599V62.6875C651.599 61.3574 650.738 60.584 649.261 60.584C647.955 60.584 647 61.2285 646.836 62.2363L646.83 62.2598H647.609L647.615 62.248C647.779 61.6211 648.382 61.2754 649.238 61.2754C650.257 61.2754 650.82 61.7676 650.82 62.6934V63.2852L648.851 63.4141C647.392 63.5137 646.578 64.1523 646.578 65.248V65.2598C646.578 66.3848 647.468 67.1055 648.687 67.1055ZM647.369 65.248V65.2363C647.369 64.5215 647.884 64.1172 648.957 64.0469L650.82 63.918V64.6504C650.82 65.6523 649.964 66.4258 648.834 66.4258C647.984 66.4258 647.369 65.9688 647.369 65.248ZM653.137 67H653.91V63.127C653.91 62.0957 654.613 61.2754 655.527 61.2754C656.4 61.2754 656.974 61.8672 656.974 62.7754V67H657.748V62.998C657.748 62.0195 658.398 61.2754 659.371 61.2754C660.32 61.2754 660.818 61.8262 660.818 62.8574V67H661.597V62.6816C661.597 61.3457 660.865 60.584 659.599 60.584C658.691 60.584 657.953 61.0703 657.631 61.8262H657.554C657.285 61.0703 656.652 60.584 655.767 60.584C654.906 60.584 654.256 61.0469 653.986 61.8027H653.91V60.6895H653.137V67ZM665.654 67.1055C667.049 67.1055 667.969 66.3438 668.215 65.4883L668.232 65.4414H667.453L667.43 65.4824C667.225 65.9746 666.592 66.4082 665.672 66.4082C664.418 66.4082 663.609 65.5234 663.586 64.0469H668.326V63.7188C668.326 61.8496 667.283 60.584 665.59 60.584C663.896 60.584 662.795 61.8848 662.795 63.8535V63.8652C662.795 65.8457 663.885 67.1055 665.654 67.1055ZM665.59 61.2754C666.674 61.2754 667.453 62.0137 667.541 63.4141H663.592C663.691 62.0488 664.5 61.2754 665.59 61.2754Z" fill="white"/>
<g opacity="0.6">
<path d="M89 144.5H669" stroke="white"/>
<path d="M89 162.5H669" stroke="white"/>
<path d="M89 183.5H669" stroke="white"/>
<path d="M89 204.5H669" stroke="white"/>
<path d="M89 225.5H669" stroke="white"/>
</g>
<path d="M338.061 271H341.113C343.633 271 345.092 269.441 345.092 266.758V266.746C345.092 264.092 343.621 262.545 341.113 262.545H338.061V271ZM339.373 269.869V263.676H340.967C342.719 263.676 343.756 264.818 343.756 266.764V266.775C343.756 268.738 342.736 269.869 340.967 269.869H339.373ZM348.041 271.105C348.885 271.105 349.553 270.742 349.928 270.098H350.028V271H351.287V266.646C351.287 265.311 350.385 264.514 348.785 264.514C347.338 264.514 346.336 265.211 346.184 266.254L346.178 266.295H347.403L347.408 266.271C347.561 265.82 348.024 265.562 348.727 265.562C349.588 265.562 350.028 265.949 350.028 266.646V267.209L348.305 267.309C346.787 267.402 345.932 268.064 345.932 269.201V269.213C345.932 270.367 346.828 271.105 348.041 271.105ZM347.197 269.16V269.148C347.197 268.574 347.596 268.258 348.475 268.205L350.028 268.105V268.65C350.028 269.471 349.33 270.092 348.381 270.092C347.696 270.092 347.197 269.746 347.197 269.16ZM355.075 271.041C355.321 271.041 355.555 271.012 355.76 270.977V269.963C355.584 269.98 355.473 269.986 355.28 269.986C354.653 269.986 354.395 269.705 354.395 269.02V265.639H355.76V264.637H354.395V263.031H353.1V264.637H352.104V265.639H353.1V269.324C353.1 270.549 353.674 271.041 355.075 271.041ZM359.436 271.123C361.065 271.123 361.944 270.186 362.155 269.348L362.167 269.295L360.942 269.301L360.919 269.348C360.766 269.676 360.28 270.08 359.465 270.08C358.417 270.08 357.749 269.371 357.725 268.152H362.237V267.707C362.237 265.797 361.147 264.514 359.372 264.514C357.596 264.514 356.448 265.844 356.448 267.83V267.836C356.448 269.852 357.573 271.123 359.436 271.123ZM359.378 265.557C360.239 265.557 360.878 266.107 360.977 267.244H357.743C357.854 266.148 358.51 265.557 359.378 265.557ZM366.835 273.121H369.63V272.154H368.06V263.107H369.63V262.141H366.835V273.121ZM370.745 271H371.941V264.795H372.034L374.513 271H375.486L377.97 264.795H378.058V271H379.253V262.545H377.741L375.046 269.289H374.952L372.257 262.545H370.745V271ZM383.515 271.123C385.378 271.123 386.521 269.875 386.521 267.824V267.812C386.521 265.762 385.373 264.514 383.515 264.514C381.652 264.514 380.503 265.768 380.503 267.812V267.824C380.503 269.875 381.646 271.123 383.515 271.123ZM383.515 270.062C382.419 270.062 381.804 269.236 381.804 267.824V267.812C381.804 266.4 382.419 265.574 383.515 265.574C384.605 265.574 385.226 266.4 385.226 267.812V267.824C385.226 269.23 384.605 270.062 383.515 270.062ZM387.631 271H388.902V267.268C388.902 266.242 389.482 265.604 390.414 265.604C391.345 265.604 391.785 266.125 391.785 267.18V271H393.05V266.881C393.05 265.363 392.265 264.514 390.841 264.514C389.916 264.514 389.306 264.924 388.996 265.604H388.902V264.637H387.631V271ZM396.82 271.041C397.066 271.041 397.301 271.012 397.506 270.977V269.963C397.33 269.98 397.219 269.986 397.025 269.986C396.398 269.986 396.14 269.705 396.14 269.02V265.639H397.506V264.637H396.14V263.031H394.846V264.637H393.849V265.639H394.846V269.324C394.846 270.549 395.42 271.041 396.82 271.041ZM398.639 271H399.91V267.268C399.91 266.242 400.49 265.604 401.422 265.604C402.354 265.604 402.793 266.125 402.793 267.18V271H404.059V266.881C404.059 265.363 403.274 264.514 401.85 264.514C400.924 264.514 400.315 264.924 400.004 265.604H399.91V262.141H398.639V271ZM407.764 273.121V262.141H404.963V263.107H406.539V272.154H404.963V273.121H407.764Z" fill="white"/>
<path d="M524.71 249.403L526.35 247.763C527.872 246.24 527.772 244.455 526.226 242.908L526.219 242.902C524.675 241.358 522.887 241.261 521.368 242.781L519.728 244.421L524.71 249.403ZM524.755 248.502L520.629 244.376L521.768 243.236C522.983 242.021 524.454 242.104 525.739 243.388L525.746 243.395C527.03 244.68 527.113 246.144 525.894 247.362L524.755 248.502ZM531.009 243.228C531.831 242.406 531.924 241.415 531.565 240.766L531.548 240.728L531.088 241.187L531.099 241.225C531.268 241.636 531.151 242.265 530.608 242.807C529.87 243.546 528.872 243.501 527.988 242.644L530.781 239.851L530.588 239.658C529.486 238.557 528.126 238.425 527.128 239.423C526.13 240.421 526.248 241.837 527.408 242.997L527.415 243.004C528.582 244.171 529.966 244.271 531.009 243.228ZM527.536 239.831C528.174 239.192 529.069 239.168 529.946 239.941L527.618 242.268C526.873 241.405 526.893 240.473 527.536 239.831ZM534.767 239.47C535.616 238.621 535.682 237.65 535.171 236.849L535.15 236.815L534.698 237.274L534.708 237.298C535.026 237.878 534.905 238.517 534.356 239.066C533.621 239.801 532.55 239.677 531.625 238.752L531.618 238.745C530.703 237.83 530.589 236.777 531.328 236.038C531.898 235.468 532.599 235.396 533.137 235.713L533.151 235.72L533.6 235.265L533.586 235.251C532.82 234.712 531.774 234.778 530.921 235.631C529.895 236.656 529.992 238.051 531.152 239.211L531.159 239.218C532.336 240.395 533.742 240.495 534.767 239.47Z" fill="white"/>
<path d="M563.863 248.457C564.754 247.566 564.74 246.475 563.835 245.57L560.207 241.942L559.734 242.415L563.342 246.023C564.008 246.689 564.036 247.407 563.425 248.018C562.886 248.557 562.216 248.529 561.74 248.122L561.712 248.101L561.239 248.574L561.277 248.605C562.016 249.261 563.041 249.279 563.863 248.457ZM567.21 245.027C567.759 244.478 567.946 243.774 567.725 243.111L567.766 243.069L568.405 243.708L568.864 243.249L566.323 240.708C565.539 239.924 564.576 239.976 563.706 240.846C562.936 241.616 562.753 242.558 563.25 243.249L563.26 243.266L563.72 242.807L563.716 242.796C563.443 242.33 563.595 241.771 564.099 241.267C564.7 240.666 565.322 240.625 565.867 241.17L566.216 241.519L565.132 242.755C564.331 243.673 564.227 244.53 564.873 245.175L564.88 245.182C565.543 245.845 566.492 245.745 567.21 245.027ZM565.339 244.709L565.332 244.702C564.911 244.281 564.976 243.739 565.567 243.066L566.589 241.892L567.02 242.323C567.611 242.914 567.562 243.874 566.896 244.54C566.395 245.041 565.763 245.134 565.339 244.709ZM569.722 242.391L570.178 241.935L567.968 239.725C567.267 239.025 567.25 238.117 567.906 237.461C568.551 236.815 569.235 236.856 569.943 237.564L572.246 239.867L572.701 239.411L570.285 236.994C569.418 236.128 568.448 236.104 567.619 236.932C567.039 237.512 566.904 238.179 567.156 238.824L567.112 238.869L566.459 238.217L566.003 238.672L569.722 242.391Z" fill="white"/>
<path d="M600.713 249.399L601.155 248.957L597.091 244.894L597.126 244.859L602.906 247.207L603.317 246.796L600.972 241.013L601.007 240.978L605.071 245.042L605.512 244.6L600.53 239.618L599.985 240.164L602.512 246.358L602.471 246.399L596.273 243.875L595.731 244.417L600.713 249.399ZM607.537 242.7C608.086 242.151 608.273 241.446 608.052 240.784L608.093 240.742L608.732 241.381L609.191 240.922L606.65 238.38C605.866 237.597 604.903 237.648 604.033 238.519C603.263 239.288 603.08 240.231 603.577 240.922L603.587 240.939L604.047 240.48L604.043 240.469C603.77 240.003 603.922 239.444 604.426 238.94C605.027 238.339 605.649 238.298 606.194 238.843L606.543 239.192L605.459 240.428C604.658 241.346 604.554 242.203 605.2 242.848L605.207 242.855C605.87 243.518 606.819 243.418 607.537 242.7ZM605.666 242.382L605.659 242.375C605.238 241.954 605.303 241.412 605.894 240.739L606.916 239.565L607.347 239.996C607.938 240.587 607.889 241.547 607.223 242.213C606.722 242.714 606.091 242.807 605.666 242.382ZM610.049 240.064L610.505 239.608L608.184 237.288C607.584 236.687 607.587 235.834 608.167 235.254C608.309 235.113 608.443 235.006 608.613 234.906L608.164 234.457C608.053 234.526 607.915 234.636 607.78 234.771C607.276 235.275 607.162 235.886 607.442 236.456L607.397 236.501L606.786 235.89L606.33 236.345L610.049 240.064Z" fill="white"/>
<path d="M638.327 251.786L638.824 251.289L637.85 249.21L639.946 247.115L642.024 248.088L642.522 247.591L635.675 244.473L635.205 244.943L638.327 251.786ZM636.037 245.347L636.079 245.305L639.39 246.856L637.588 248.658L636.037 245.347ZM644.308 248.27L644.764 247.814L642.806 245.856L642.851 245.811C643.535 246.088 644.322 245.915 644.885 245.352C645.827 244.41 645.693 243.011 644.539 241.858L644.533 241.851C643.386 240.705 641.984 240.567 641.042 241.509C640.472 242.079 640.317 242.842 640.596 243.557L640.552 243.602L639.813 242.863L639.357 243.319L644.308 248.27ZM644.384 245.038C643.652 245.77 642.585 245.649 641.667 244.731L641.66 244.724C640.745 243.809 640.624 242.742 641.356 242.01C642.091 241.275 643.148 241.399 644.066 242.317L644.073 242.324C644.995 243.246 645.119 244.303 644.384 245.038ZM647.082 243.031L647.538 242.575L645.218 240.255C644.617 239.654 644.62 238.801 645.2 238.221C645.342 238.079 645.477 237.972 645.646 237.872L645.197 237.423C645.086 237.492 644.948 237.603 644.814 237.738C644.31 238.242 644.196 238.853 644.475 239.423L644.43 239.467L643.819 238.856L643.364 239.312L647.082 243.031Z" fill="white"/>
<path d="M486.71 249.403L487.176 248.937L483.036 244.797L483.081 244.752L490.135 245.978L490.591 245.522L485.608 240.54L485.142 241.006L489.279 245.142L489.234 245.187L482.194 243.955L481.728 244.421L486.71 249.403ZM493.088 243.149C494.128 242.109 494.045 240.721 492.861 239.537L492.854 239.53C491.669 238.346 490.285 238.267 489.246 239.306C488.206 240.345 488.289 241.726 489.473 242.91L489.48 242.917C490.665 244.102 492.049 244.188 493.088 243.149ZM492.681 242.741C491.915 243.508 490.886 243.39 489.946 242.451L489.94 242.444C489 241.505 488.887 240.48 489.653 239.713C490.42 238.947 491.445 239.061 492.384 240L492.391 240.007C493.33 240.946 493.447 241.975 492.681 242.741ZM496.311 239.801L496.795 239.318L494.464 234.212L493.977 234.698L496.08 239.045L496.039 239.087L491.688 236.987L491.205 237.471L496.311 239.801Z" fill="white"/>
<path d="M450.871 247.449C452.273 246.047 452.118 244.186 450.533 242.601L450.526 242.594C448.938 241.006 447.077 240.864 445.682 242.259C444.29 243.651 444.422 245.515 446.013 247.107L446.02 247.114C447.608 248.702 449.466 248.854 450.871 247.449ZM450.433 247.01C449.331 248.112 447.812 247.939 446.504 246.63L446.497 246.623C445.181 245.308 445.033 243.785 446.12 242.698C447.208 241.61 448.731 241.759 450.046 243.074L450.053 243.081C451.361 244.39 451.524 245.919 450.433 247.01ZM455.313 242.924C456.162 242.075 456.228 241.105 455.717 240.304L455.696 240.269L455.244 240.728L455.254 240.752C455.572 241.332 455.451 241.971 454.902 242.52C454.167 243.256 453.096 243.131 452.171 242.206L452.164 242.199C451.249 241.284 451.135 240.231 451.874 239.492C452.444 238.923 453.145 238.85 453.683 239.168L453.697 239.175L454.146 238.719L454.132 238.705C453.366 238.166 452.319 238.232 451.467 239.085C450.441 240.11 450.538 241.505 451.698 242.665L451.705 242.672C452.882 243.849 454.287 243.95 455.313 242.924ZM458.729 239.432C458.84 239.321 458.933 239.208 459.019 239.087L458.625 238.693C458.543 238.797 458.477 238.869 458.373 238.973C457.952 239.394 457.6 239.366 457.144 238.911L454.838 236.604L455.687 235.755L455.304 235.372L454.455 236.221L453.488 235.254L453.015 235.727L453.982 236.694L453.384 237.291L453.768 237.675L454.365 237.077L456.775 239.487C457.452 240.164 458.018 240.143 458.729 239.432Z" fill="white"/>
<path d="M412.415 247.904C413.489 246.831 413.624 245.529 412.743 244.649L412.74 244.645C412.046 243.951 411.21 243.951 409.94 244.752L409.311 245.146C408.383 245.729 407.796 245.757 407.357 245.318L407.354 245.315C406.798 244.759 406.95 243.868 407.637 243.181C408.341 242.47 409.18 242.37 409.733 242.777L409.778 242.815L410.251 242.342L410.202 242.301C409.429 241.645 408.186 241.755 407.212 242.729C406.218 243.723 406.094 245.015 406.884 245.805L406.888 245.809C407.575 246.496 408.421 246.499 409.65 245.726L410.275 245.329C411.214 244.735 411.856 244.721 412.315 245.18L412.322 245.187C412.882 245.747 412.75 246.693 412.001 247.442C411.235 248.208 410.285 248.405 409.684 247.908L409.643 247.873L409.17 248.346L409.211 248.381C410.081 249.106 411.362 248.957 412.415 247.904ZM416.36 243.877C417.182 243.055 417.275 242.064 416.916 241.415L416.899 241.377L416.439 241.837L416.45 241.875C416.619 242.285 416.501 242.914 415.959 243.456C415.221 244.195 414.223 244.15 413.339 243.294L416.132 240.5L415.939 240.307C414.837 239.206 413.477 239.074 412.479 240.072C411.481 241.07 411.599 242.486 412.759 243.646L412.766 243.653C413.933 244.82 415.317 244.92 416.36 243.877ZM412.887 240.48C413.525 239.841 414.42 239.817 415.296 240.59L412.969 242.917C412.224 242.054 412.244 241.122 412.887 240.48ZM419.797 242.781L420.253 242.325L418.295 240.368L418.34 240.323C419.023 240.599 419.811 240.426 420.373 239.864C421.316 238.921 421.181 237.523 420.028 236.369L420.021 236.363C418.875 235.216 417.473 235.078 416.531 236.021C415.961 236.59 415.806 237.353 416.085 238.068L416.04 238.113L415.301 237.374L414.846 237.83L419.797 242.781ZM419.873 239.549C419.141 240.281 418.074 240.16 417.156 239.242L417.149 239.235C416.234 238.32 416.113 237.253 416.845 236.521C417.58 235.786 418.637 235.91 419.555 236.829L419.562 236.836C420.484 237.757 420.608 238.814 419.873 239.549Z" fill="white"/>
<path d="M372.327 249.786L372.824 249.289L371.85 247.21L373.946 245.115L376.024 246.088L376.522 245.591L369.675 242.473L369.205 242.943L372.327 249.786ZM370.037 243.347L370.079 243.305L373.39 244.856L371.588 246.658L370.037 243.347ZM378.225 244.012C378.802 243.435 378.957 242.755 378.691 242.123L378.733 242.082L379.382 242.731L379.838 242.275L376.119 238.557L375.663 239.012L377.873 241.222C378.577 241.926 378.622 242.8 377.928 243.494C377.29 244.133 376.592 244.077 375.898 243.383L373.595 241.08L373.139 241.536L375.556 243.953C376.409 244.806 377.39 244.847 378.225 244.012ZM383.523 241.186C384.5 240.209 384.607 239.038 383.796 238.227L380.122 234.553L379.663 235.013L380.416 235.765L380.385 235.796C379.673 235.513 378.897 235.655 378.323 236.228C377.364 237.188 377.509 238.562 378.572 239.625L378.579 239.632C379.646 240.699 381.006 240.837 381.963 239.881C382.532 239.311 382.705 238.572 382.436 237.861L382.48 237.816L383.313 238.648C383.913 239.249 383.834 240.06 383.116 240.779C382.55 241.345 381.938 241.507 381.531 241.265H381.524L381.051 241.738V241.745C381.724 242.225 382.67 242.039 383.523 241.186ZM381.645 239.384C380.903 240.126 379.877 239.998 379.045 239.166L379.038 239.159C378.206 238.327 378.071 237.295 378.814 236.552C379.549 235.817 380.613 235.934 381.445 236.767L381.452 236.773C382.284 237.606 382.391 238.638 381.645 239.384Z" fill="white"/>
<path d="M335.863 248.457C336.754 247.566 336.74 246.475 335.835 245.57L332.207 241.942L331.734 242.415L335.342 246.023C336.008 246.689 336.036 247.407 335.425 248.018C334.886 248.557 334.216 248.529 333.74 248.122L333.712 248.101L333.239 248.574L333.277 248.605C334.016 249.261 335.041 249.279 335.863 248.457ZM339.459 244.778C340.035 244.202 340.191 243.521 339.925 242.89L339.966 242.848L340.615 243.497L341.071 243.042L337.353 239.323L336.897 239.779L339.107 241.988C339.811 242.693 339.856 243.566 339.162 244.26C338.523 244.899 337.826 244.844 337.132 244.15L334.829 241.847L334.373 242.303L336.79 244.72C337.643 245.572 338.623 245.614 339.459 244.778ZM341.984 242.129L342.44 241.673L337.24 236.473L336.784 236.929L341.984 242.129Z" fill="white"/>
<path d="M297.863 248.457C298.754 247.566 298.74 246.475 297.835 245.57L294.207 241.942L293.734 242.415L297.342 246.023C298.008 246.689 298.036 247.407 297.425 248.018C296.886 248.557 296.216 248.529 295.74 248.122L295.712 248.101L295.239 248.574L295.277 248.605C296.016 249.261 297.041 249.279 297.863 248.457ZM301.459 244.778C302.035 244.202 302.191 243.521 301.925 242.89L301.966 242.848L302.615 243.497L303.071 243.042L299.353 239.323L298.897 239.779L301.107 241.988C301.811 242.693 301.856 243.566 301.162 244.26C300.523 244.899 299.826 244.844 299.132 244.15L296.829 241.847L296.373 242.303L298.79 244.72C299.643 245.572 300.623 245.614 301.459 244.778ZM303.95 242.163L304.405 241.707L302.196 239.498C301.495 238.797 301.478 237.889 302.134 237.233C302.779 236.587 303.463 236.628 304.171 237.336L306.474 239.639L306.929 239.183L304.512 236.767C303.646 235.9 302.676 235.876 301.847 236.704C301.267 237.284 301.132 237.951 301.384 238.596L301.339 238.641L300.687 237.989L300.231 238.445L303.95 242.163Z" fill="white"/>
<path d="M258.713 249.399L259.155 248.957L255.091 244.894L255.126 244.859L260.906 247.207L261.317 246.796L258.972 241.013L259.007 240.978L263.071 245.042L263.512 244.6L258.53 239.618L257.985 240.164L260.512 246.358L260.471 246.399L254.273 243.875L253.731 244.417L258.713 249.399ZM265.537 242.7C266.086 242.151 266.273 241.446 266.052 240.784L266.093 240.742L266.732 241.381L267.191 240.922L264.65 238.38C263.866 237.597 262.903 237.648 262.033 238.519C261.263 239.288 261.08 240.231 261.577 240.922L261.587 240.939L262.047 240.48L262.043 240.469C261.77 240.003 261.922 239.444 262.426 238.94C263.027 238.339 263.649 238.298 264.194 238.843L264.543 239.192L263.459 240.428C262.658 241.346 262.554 242.203 263.2 242.848L263.207 242.855C263.87 243.518 264.819 243.418 265.537 242.7ZM263.666 242.382L263.659 242.375C263.238 241.954 263.303 241.412 263.894 240.739L264.916 239.565L265.347 239.996C265.938 240.587 265.889 241.547 265.223 242.213C264.722 242.714 264.091 242.807 263.666 242.382ZM269.471 241.21C270.069 240.613 270.12 240.098 269.665 239.097L267.124 233.552L266.64 234.035L268.746 238.379L268.698 238.427L264.351 236.325L263.861 236.815L268.998 239.163L269.185 239.536C269.478 240.133 269.42 240.495 269.074 240.841C269.012 240.903 268.94 240.975 268.874 241.02L269.254 241.4C269.33 241.345 269.409 241.272 269.471 241.21Z" fill="white"/>
<path d="M220.327 249.786L220.824 249.289L219.85 247.21L221.946 245.115L224.024 246.088L224.522 245.591L217.675 242.473L217.205 242.943L220.327 249.786ZM218.037 243.347L218.079 243.305L221.39 244.856L219.588 246.658L218.037 243.347ZM226.308 246.27L226.764 245.814L224.806 243.856L224.851 243.811C225.535 244.088 226.322 243.915 226.885 243.352C227.827 242.41 227.693 241.011 226.539 239.858L226.533 239.851C225.386 238.705 223.984 238.567 223.042 239.509C222.472 240.079 222.317 240.842 222.596 241.557L222.552 241.602L221.813 240.863L221.357 241.319L226.308 246.27ZM226.384 243.038C225.652 243.77 224.585 243.649 223.667 242.731L223.66 242.724C222.745 241.809 222.624 240.742 223.356 240.01C224.091 239.275 225.148 239.399 226.066 240.317L226.073 240.324C226.995 241.246 227.119 242.303 226.384 243.038ZM229.082 241.031L229.538 240.575L227.218 238.255C226.617 237.654 226.62 236.801 227.2 236.221C227.342 236.079 227.477 235.972 227.646 235.872L227.197 235.423C227.086 235.492 226.948 235.603 226.814 235.738C226.31 236.242 226.196 236.853 226.475 237.423L226.43 237.467L225.819 236.856L225.364 237.312L229.082 241.031Z" fill="white"/>
<path d="M182.713 249.399L183.155 248.957L179.091 244.894L179.126 244.859L184.906 247.207L185.317 246.796L182.972 241.013L183.007 240.978L187.071 245.042L187.512 244.6L182.53 239.618L181.985 240.164L184.512 246.358L184.471 246.399L178.273 243.875L177.731 244.417L182.713 249.399ZM189.537 242.7C190.086 242.151 190.273 241.446 190.052 240.784L190.093 240.742L190.732 241.381L191.191 240.922L188.65 238.38C187.866 237.597 186.903 237.648 186.033 238.519C185.263 239.288 185.08 240.231 185.577 240.922L185.587 240.939L186.047 240.48L186.043 240.469C185.77 240.003 185.922 239.444 186.426 238.94C187.027 238.339 187.649 238.298 188.194 238.843L188.543 239.192L187.459 240.428C186.658 241.346 186.554 242.203 187.2 242.848L187.207 242.855C187.87 243.518 188.819 243.418 189.537 242.7ZM187.666 242.382L187.659 242.375C187.238 241.954 187.303 241.412 187.894 240.739L188.916 239.565L189.347 239.996C189.938 240.587 189.889 241.547 189.223 242.213C188.722 242.714 188.091 242.807 187.666 242.382ZM192.049 240.064L192.505 239.608L190.184 237.288C189.584 236.687 189.587 235.834 190.167 235.254C190.309 235.113 190.443 235.006 190.613 234.906L190.164 234.457C190.053 234.526 189.915 234.636 189.78 234.771C189.276 235.275 189.162 235.886 189.442 236.456L189.397 236.501L188.786 235.89L188.33 236.345L192.049 240.064Z" fill="white"/>
<path d="M144.71 249.403L145.183 248.93L142.921 246.668L145.204 244.386L144.782 243.965L142.5 246.247L140.629 244.376L143.111 241.893L142.683 241.465L139.728 244.421L144.71 249.403ZM149.918 244.319C150.74 243.497 150.833 242.506 150.474 241.857L150.457 241.819L149.997 242.279L150.008 242.316C150.177 242.727 150.06 243.356 149.517 243.898C148.779 244.637 147.781 244.592 146.897 243.736L149.69 240.942L149.497 240.749C148.395 239.648 147.035 239.516 146.037 240.514C145.039 241.512 145.157 242.928 146.317 244.088L146.324 244.095C147.491 245.262 148.875 245.362 149.918 244.319ZM146.445 240.922C147.083 240.283 147.978 240.259 148.855 241.032L146.527 243.359C145.782 242.496 145.802 241.564 146.445 240.922ZM153.966 240.271C154.905 239.332 154.76 237.937 153.61 236.787L153.603 236.78C152.447 235.624 151.066 235.486 150.123 236.428C149.56 236.991 149.384 237.775 149.661 238.458L149.616 238.503L147.413 236.3L146.957 236.756L152.157 241.956L152.613 241.5L151.87 240.758L151.915 240.713C152.63 240.999 153.396 240.841 153.966 240.271ZM153.465 239.957C152.733 240.689 151.663 240.564 150.748 239.65L150.741 239.643C149.826 238.728 149.705 237.661 150.437 236.929C151.169 236.197 152.212 236.321 153.134 237.243L153.141 237.25C154.066 238.175 154.197 239.225 153.465 239.957Z" fill="white"/>
<path d="M107.863 248.457C108.754 247.566 108.74 246.475 107.835 245.57L104.207 241.942L103.734 242.415L107.342 246.023C108.008 246.689 108.036 247.407 107.425 248.018C106.886 248.557 106.216 248.529 105.74 248.122L105.712 248.101L105.239 248.574L105.277 248.605C106.016 249.261 107.041 249.279 107.863 248.457ZM111.21 245.027C111.759 244.478 111.946 243.774 111.725 243.111L111.766 243.069L112.405 243.708L112.864 243.249L110.323 240.708C109.539 239.924 108.576 239.976 107.706 240.846C106.936 241.616 106.753 242.558 107.25 243.249L107.26 243.266L107.72 242.807L107.716 242.796C107.443 242.33 107.595 241.771 108.099 241.267C108.7 240.666 109.322 240.625 109.867 241.17L110.216 241.519L109.132 242.755C108.331 243.673 108.227 244.53 108.873 245.175L108.88 245.182C109.543 245.845 110.492 245.745 111.21 245.027ZM109.339 244.709L109.332 244.702C108.911 244.281 108.976 243.739 109.567 243.066L110.589 241.892L111.02 242.323C111.611 242.914 111.562 243.874 110.896 244.54C110.395 245.041 109.763 245.134 109.339 244.709ZM113.722 242.391L114.178 241.935L111.968 239.725C111.267 239.025 111.25 238.117 111.906 237.461C112.551 236.815 113.235 236.856 113.943 237.564L116.246 239.867L116.701 239.411L114.285 236.994C113.418 236.128 112.448 236.104 111.619 236.932C111.039 237.512 110.904 238.179 111.156 238.824L111.112 238.869L110.459 238.217L110.003 238.672L113.722 242.391Z" fill="white"/>
<path d="M65.3867 128H66.6992V124.537L69.6816 119.545H68.2227L66.0957 123.23H65.9961L63.8691 119.545H62.4102L65.3867 124.537V128ZM72.6135 128H73.926V119.545H72.6135L70.3869 121.127V122.416L72.5139 120.898H72.6135V128ZM82.5377 128.205C83.0944 128.205 83.61 128.117 84.0612 127.941L84.776 128.914H86.1295L85.0162 127.396C85.9537 126.641 86.4811 125.381 86.4811 123.775V123.764C86.4811 121.051 84.9694 119.34 82.5377 119.34C80.1119 119.34 78.5885 121.045 78.5885 123.764V123.775C78.5885 126.488 80.0768 128.205 82.5377 128.205ZM82.5377 127.045C80.9088 127.045 79.9303 125.756 79.9303 123.775V123.764C79.9303 121.766 80.9381 120.5 82.5377 120.5C84.1373 120.5 85.1393 121.766 85.1393 123.764V123.775C85.1393 124.895 84.8229 125.797 84.2545 126.365L83.5807 125.451H82.2272L83.317 126.928C83.0768 127.004 82.8131 127.045 82.5377 127.045ZM89.8289 128.123C90.7547 128.123 91.3993 127.725 91.7039 127.039H91.8035V128H93.0692V121.637H91.8035V125.369C91.8035 126.395 91.2586 127.033 90.2391 127.033C89.3075 127.033 88.9207 126.512 88.9207 125.457V121.637H87.6493V125.756C87.6493 127.262 88.3934 128.123 89.8289 128.123ZM96.2412 128.105C97.085 128.105 97.753 127.742 98.128 127.098H98.2276V128H99.4873V123.646C99.4873 122.311 98.585 121.514 96.9854 121.514C95.5381 121.514 94.5362 122.211 94.3838 123.254L94.378 123.295H95.6026L95.6084 123.271C95.7608 122.82 96.2237 122.562 96.9268 122.562C97.7881 122.562 98.2276 122.949 98.2276 123.646V124.209L96.5049 124.309C94.9873 124.402 94.1319 125.064 94.1319 126.201V126.213C94.1319 127.367 95.0284 128.105 96.2412 128.105ZM95.3975 126.16V126.148C95.3975 125.574 95.7959 125.258 96.6748 125.205L98.2276 125.105V125.65C98.2276 126.471 97.5303 127.092 96.5811 127.092C95.8955 127.092 95.3975 126.746 95.3975 126.16ZM100.872 128H102.144V124.268C102.144 123.242 102.724 122.604 103.656 122.604C104.587 122.604 105.027 123.125 105.027 124.18V128H106.292V123.881C106.292 122.363 105.507 121.514 104.083 121.514C103.157 121.514 102.548 121.924 102.238 122.604H102.144V121.637H100.872V128ZM110.062 128.041C110.308 128.041 110.542 128.012 110.748 127.977V126.963C110.572 126.98 110.46 126.986 110.267 126.986C109.64 126.986 109.382 126.705 109.382 126.02V122.639H110.748V121.637H109.382V120.031H108.087V121.637H107.091V122.639H108.087V126.324C108.087 127.549 108.662 128.041 110.062 128.041ZM112.484 120.5C112.918 120.5 113.281 120.143 113.281 119.709C113.281 119.27 112.918 118.912 112.484 118.912C112.045 118.912 111.687 119.27 111.687 119.709C111.687 120.143 112.045 120.5 112.484 120.5ZM111.845 128H113.111V121.637H111.845V128ZM116.957 128.041C117.203 128.041 117.437 128.012 117.642 127.977V126.963C117.467 126.98 117.355 126.986 117.162 126.986C116.535 126.986 116.277 126.705 116.277 126.02V122.639H117.642V121.637H116.277V120.031H114.982V121.637H113.986V122.639H114.982V126.324C114.982 127.549 115.557 128.041 116.957 128.041ZM119.338 130.238C120.627 130.238 121.272 129.764 121.811 128.246L124.178 121.637H122.842L121.254 126.723H121.143L119.549 121.637H118.178L120.486 128.006L120.393 128.334C120.205 128.979 119.848 129.23 119.256 129.23C119.109 129.23 118.951 129.225 118.828 129.207V130.209C118.992 130.227 119.18 130.238 119.338 130.238ZM128.553 130.121H131.348V129.154H129.778V120.107H131.348V119.141H128.553V130.121ZM134.438 128.123C135.364 128.123 136.008 127.725 136.313 127.039H136.413V128H137.678V121.637H136.413V125.369C136.413 126.395 135.868 127.033 134.848 127.033C133.917 127.033 133.53 126.512 133.53 125.457V121.637H132.258V125.756C132.258 127.262 133.003 128.123 134.438 128.123ZM139.104 128H140.376V124.268C140.376 123.242 140.956 122.604 141.888 122.604C142.819 122.604 143.259 123.125 143.259 124.18V128H144.524V123.881C144.524 122.363 143.739 121.514 142.315 121.514C141.39 121.514 140.78 121.924 140.47 122.604H140.376V121.637H139.104V128ZM146.554 120.5C146.987 120.5 147.351 120.143 147.351 119.709C147.351 119.27 146.987 118.912 146.554 118.912C146.114 118.912 145.757 119.27 145.757 119.709C145.757 120.143 146.114 120.5 146.554 120.5ZM145.915 128H147.181V121.637H145.915V128ZM151.027 128.041C151.273 128.041 151.507 128.012 151.712 127.977V126.963C151.536 126.98 151.425 126.986 151.232 126.986C150.605 126.986 150.347 126.705 150.347 126.02V122.639H151.712V121.637H150.347V120.031H149.052V121.637H148.056V122.639H149.052V126.324C149.052 127.549 149.626 128.041 151.027 128.041ZM155.007 128.123C156.519 128.123 157.644 127.32 157.644 126.143V126.131C157.644 125.211 157.058 124.689 155.834 124.402L154.826 124.174C154.111 124.004 153.818 123.758 153.818 123.359V123.348C153.818 122.838 154.322 122.492 155.019 122.492C155.734 122.492 156.185 122.826 156.308 123.271V123.283H157.521V123.277C157.41 122.24 156.478 121.514 155.025 121.514C153.584 121.514 152.552 122.311 152.552 123.418V123.424C152.552 124.355 153.109 124.9 154.31 125.176L155.324 125.41C156.062 125.58 156.361 125.85 156.361 126.248V126.26C156.361 126.781 155.816 127.139 155.031 127.139C154.275 127.139 153.812 126.816 153.654 126.336L153.648 126.33H152.377V126.336C152.5 127.402 153.472 128.123 155.007 128.123ZM161.092 130.121V119.141H158.291V120.107H159.867V129.154H158.291V130.121H161.092Z" fill="white"/>
<path d="M67.0113 148H67.6607V146.408H68.7154V145.808H67.6607V140.944H66.7037C65.1656 143.083 64.3209 144.401 63.4713 145.798V146.408H67.0113V148ZM64.1695 145.812V145.769C64.8775 144.602 65.5806 143.508 66.9674 141.584H67.0113V145.812H64.1695ZM72.0135 148.146C73.5613 148.146 74.4988 146.735 74.4988 144.484V144.47C74.4988 142.219 73.5613 140.808 72.0135 140.808C70.4656 140.808 69.5379 142.219 69.5379 144.47V144.484C69.5379 146.73 70.4656 148.146 72.0135 148.146ZM72.0135 147.561C70.8807 147.561 70.2068 146.374 70.2068 144.484V144.47C70.2068 142.58 70.8807 141.398 72.0135 141.398C73.1512 141.398 73.8299 142.575 73.8299 144.47V144.484C73.8299 146.374 73.1512 147.561 72.0135 147.561ZM77.8652 148.146C79.4131 148.146 80.3506 146.735 80.3506 144.484V144.47C80.3506 142.219 79.4131 140.808 77.8652 140.808C76.3174 140.808 75.3896 142.219 75.3896 144.47V144.484C75.3896 146.73 76.3174 148.146 77.8652 148.146ZM77.8652 147.561C76.7324 147.561 76.0586 146.374 76.0586 144.484V144.47C76.0586 142.58 76.7324 141.398 77.8652 141.398C79.0029 141.398 79.6816 142.575 79.6816 144.47V144.484C79.6816 146.374 79.0029 147.561 77.8652 147.561Z" fill="white"/>
<path d="M66.2691 168.112C67.6558 168.112 68.6764 167.248 68.6764 166.081V166.071C68.6764 165.07 67.9732 164.416 66.9234 164.333V164.313C67.8219 164.133 68.4224 163.522 68.4224 162.653V162.644C68.4224 161.594 67.5387 160.842 66.2398 160.842C64.9605 160.842 64.0865 161.604 63.984 162.688L63.9791 162.736H64.6236L64.6285 162.688C64.7017 161.94 65.3316 161.428 66.2398 161.428C67.1676 161.428 67.7535 161.931 67.7535 162.722V162.731C67.7535 163.508 67.0992 164.064 66.1617 164.064H65.3414V164.636H66.1861C67.3092 164.636 67.9976 165.163 67.9976 166.086V166.096C67.9976 166.931 67.2847 167.526 66.2691 167.526C65.2437 167.526 64.5699 166.979 64.4771 166.218L64.4722 166.174H63.8277L63.8326 166.228C63.9449 167.312 64.8482 168.112 66.2691 168.112ZM72.0135 168.146C73.5613 168.146 74.4988 166.735 74.4988 164.484V164.47C74.4988 162.219 73.5613 160.808 72.0135 160.808C70.4656 160.808 69.5379 162.219 69.5379 164.47V164.484C69.5379 166.73 70.4656 168.146 72.0135 168.146ZM72.0135 167.561C70.8807 167.561 70.2068 166.374 70.2068 164.484V164.47C70.2068 162.58 70.8807 161.398 72.0135 161.398C73.1512 161.398 73.8299 162.575 73.8299 164.47V164.484C73.8299 166.374 73.1512 167.561 72.0135 167.561ZM77.8652 168.146C79.4131 168.146 80.3506 166.735 80.3506 164.484V164.47C80.3506 162.219 79.4131 160.808 77.8652 160.808C76.3174 160.808 75.3896 162.219 75.3896 164.47V164.484C75.3896 166.73 76.3174 168.146 77.8652 168.146ZM77.8652 167.561C76.7324 167.561 76.0586 166.374 76.0586 164.484V164.47C76.0586 162.58 76.7324 161.398 77.8652 161.398C79.0029 161.398 79.6816 162.575 79.6816 164.47V164.484C79.6816 166.374 79.0029 167.561 77.8652 167.561Z" fill="white"/>
<path d="M64.1256 188H68.6568V187.395H65.0582V187.336L66.9039 185.422C68.1441 184.138 68.4859 183.557 68.4859 182.771V182.761C68.4859 181.643 67.5582 180.808 66.3424 180.808C65.0387 180.808 64.1012 181.682 64.0865 182.897L64.0963 182.902H64.7359V182.897C64.7457 182.009 65.3853 181.394 66.3033 181.394C67.2066 181.394 67.8072 182.014 67.8072 182.824V182.834C67.8072 183.474 67.5289 183.884 66.5523 184.929L64.1256 187.531V188ZM72.0135 188.146C73.5613 188.146 74.4988 186.735 74.4988 184.484V184.47C74.4988 182.219 73.5613 180.808 72.0135 180.808C70.4656 180.808 69.5379 182.219 69.5379 184.47V184.484C69.5379 186.73 70.4656 188.146 72.0135 188.146ZM72.0135 187.561C70.8807 187.561 70.2068 186.374 70.2068 184.484V184.47C70.2068 182.58 70.8807 181.398 72.0135 181.398C73.1512 181.398 73.8299 182.575 73.8299 184.47V184.484C73.8299 186.374 73.1512 187.561 72.0135 187.561ZM77.8652 188.146C79.4131 188.146 80.3506 186.735 80.3506 184.484V184.47C80.3506 182.219 79.4131 180.808 77.8652 180.808C76.3174 180.808 75.3896 182.219 75.3896 184.47V184.484C75.3896 186.73 76.3174 188.146 77.8652 188.146ZM77.8652 187.561C76.7324 187.561 76.0586 186.374 76.0586 184.484V184.47C76.0586 182.58 76.7324 181.398 77.8652 181.398C79.0029 181.398 79.6816 182.575 79.6816 184.47V184.484C79.6816 186.374 79.0029 187.561 77.8652 187.561Z" fill="white"/>
<path d="M67.3531 208H68.0172V200.954H67.358L65.4732 202.258V202.966L67.2945 201.701H67.3531V208ZM72.0135 208.146C73.5613 208.146 74.4988 206.735 74.4988 204.484V204.47C74.4988 202.219 73.5613 200.808 72.0135 200.808C70.4656 200.808 69.5379 202.219 69.5379 204.47V204.484C69.5379 206.73 70.4656 208.146 72.0135 208.146ZM72.0135 207.561C70.8807 207.561 70.2068 206.374 70.2068 204.484V204.47C70.2068 202.58 70.8807 201.398 72.0135 201.398C73.1512 201.398 73.8299 202.575 73.8299 204.47V204.484C73.8299 206.374 73.1512 207.561 72.0135 207.561ZM77.8652 208.146C79.4131 208.146 80.3506 206.735 80.3506 204.484V204.47C80.3506 202.219 79.4131 200.808 77.8652 200.808C76.3174 200.808 75.3896 202.219 75.3896 204.47V204.484C75.3896 206.73 76.3174 208.146 77.8652 208.146ZM77.8652 207.561C76.7324 207.561 76.0586 206.374 76.0586 204.484V204.47C76.0586 202.58 76.7324 201.398 77.8652 201.398C79.0029 201.398 79.6816 202.575 79.6816 204.47V204.484C79.6816 206.374 79.0029 207.561 77.8652 207.561Z" fill="white"/>
<path d="M74.8652 228.146C76.4131 228.146 77.3506 226.735 77.3506 224.484V224.47C77.3506 222.219 76.4131 220.808 74.8652 220.808C73.3174 220.808 72.3896 222.219 72.3896 224.47V224.484C72.3896 226.73 73.3174 228.146 74.8652 228.146ZM74.8652 227.561C73.7324 227.561 73.0586 226.374 73.0586 224.484V224.47C73.0586 222.58 73.7324 221.398 74.8652 221.398C76.0029 221.398 76.6816 222.575 76.6816 224.47V224.484C76.6816 226.374 76.0029 227.561 74.8652 227.561Z" fill="white"/>
<path d="M186.422 215C186.422 215 186.769 208.142 188.536 205.09C190.303 202.037 199 201.258 199 198.487C199 195.716 190.945 195.483 188.887 192.798C186.829 190.114 187.981 186.058 187.57 182.659C187.158 179.261 185.536 168.527 186.068 169.016C186.601 169.505 185.668 178.761 185.174 182.659C184.679 186.558 185.892 189.788 183.755 192.798C181.617 195.809 171.597 195.514 172.013 198.487C172.429 201.46 181.965 202.588 184.227 205.09C186.489 207.591 186.422 215 186.422 215Z" fill="#FF8CA1"/>
<path d="M457.359 226L458.838 213.895C458.809 212.164 459.338 210.47 460.345 209.07C462.116 206.201 465.41 204.873 465.923 202.425C466.436 199.977 464.47 201.016 463.401 198.001C462.333 194.986 460.691 192.9 459.285 190.111C457.879 187.323 457.363 167 457.363 167C457.363 167 457.213 187.601 456.073 189.769C454.933 191.936 453.235 194.386 451.598 198C449.961 201.614 448.405 200.411 449.239 202.945C450.073 205.478 452.533 205.913 454.318 208.649C455.371 210.227 456.073 212.016 456.379 213.894L457.359 226Z" fill="#FF8CA1"/>
<path d="M143.817 203C143.963 200.927 144.483 198.899 145.353 197.016C146.938 193.089 150.034 190.446 150 187.126C149.965 183.805 149.222 184.209 148.869 182.617C148.516 181.025 149.676 179.657 149.446 178.285C149.216 176.914 145.659 174.157 144.791 170.578C143.924 166.999 143.819 147 143.819 147C143.819 147 142.608 167.125 142.113 170.578C141.619 174.031 137.794 176.294 137.623 178.285C137.452 180.277 138.35 180.028 138.263 182.17C138.177 184.312 136.414 184.515 137.202 188.51C137.99 192.505 140.57 193.84 142.313 197.769C144.056 201.698 143.817 203 143.817 203Z" fill="#FFDD81"/>
<path d="M258.468 221C258.468 221 258.838 212.004 259.279 207.497C259.719 202.991 260.098 203.487 260.535 198.787C260.972 194.088 259.467 192.24 261.164 187.022C262.862 181.803 267.085 182.556 266.908 178.704C266.731 174.852 260.55 173.855 259.629 170.632C258.708 167.409 258.468 159 258.468 159C258.23 162.899 257.783 166.782 257.129 170.632C256.283 174.532 250.425 174.439 249.95 178.542C249.475 182.644 253.732 182.406 255.17 187.623C256.608 192.841 255.429 194.084 255.903 198.787C256.377 203.491 256.61 203.183 257.172 207.377C257.735 211.57 258.468 221 258.468 221Z" fill="#60BFF4"/>
<path d="M297.309 208C297.849 204.906 298.612 201.856 299.592 198.872C300.956 195.093 305.743 192.563 305.909 187.785C306.075 183.006 300.987 181.054 299.592 176.913C298.196 172.772 297.309 159 297.309 159C297.309 159 296.473 172.037 295.41 176.105C294.348 180.173 288.975 183.195 288.914 187.785C288.853 192.375 293.453 195.259 295.41 198.872C297.368 202.485 297.309 208 297.309 208Z" fill="#FFDD81"/>
<path d="M109.425 227C109.425 227 108.894 211.702 108.225 206.622C107.556 201.541 104.115 197.366 104.003 192.053C103.891 186.741 107.167 182.319 108.225 176.77C109.283 171.221 109.425 157 109.425 157C109.425 157 110.491 170.986 111.044 176.77C111.597 182.554 115.085 185.568 114.998 191.203C114.912 196.837 111.952 201.472 111.044 206.622C110.136 211.772 109.425 227 109.425 227Z" fill="#FF8CA1"/>
<path d="M384.996 227.952C384.996 227.952 385.664 216.486 386.01 206.616C386.356 196.746 385.145 192.241 386.128 188.048C387.111 183.854 396.347 183.654 395.845 177.873C395.342 172.092 384.886 171.343 385.099 165.315C385.313 159.287 384.831 145.359 384.831 145.359C384.831 145.359 383.643 158.519 383.324 165.088C383.004 171.656 373.556 172.053 373.435 177.674C373.314 183.295 381.721 183.648 383.24 188.366C384.759 193.083 383.106 196.632 383.522 206.531C383.939 216.43 384.996 227.952 384.996 227.952Z" fill="#60BFF4"/>
<path d="M339.325 205.651C339.325 205.651 338.833 204.607 338.109 203.084C337.384 201.562 331.981 197.04 329.181 192.841C326.381 188.641 335.689 184.967 337.439 181.798C339.189 178.629 339.515 176.707 339.817 147.151C339.817 147.151 339.895 177.611 342 181.72C344.106 185.83 350.319 188.294 349.335 191.446C348.351 194.598 341.178 201.773 340.479 203.04C340.031 203.881 339.645 204.753 339.325 205.651Z" fill="#FFDD81"/>
<path d="M422.87 215C422.87 215 426.634 199.132 426.97 185.012C427.306 170.891 425.254 169.408 424.228 159.406C423.201 149.404 422.87 145 422.87 145C422.87 145 422.838 149.402 421.878 159.406C420.917 169.41 418.778 171.113 419.027 185.012C419.275 198.91 422.87 215 422.87 215Z" fill="#60BFF4"/>
<path d="M539.168 203.803C538.449 201.798 537.875 199.745 537.452 197.657C536.958 194.871 530.68 192.869 530.59 187.607C530.501 182.345 535.742 180.479 537.094 176.61C538.447 172.741 539.197 153.137 539.197 153.137C539.197 153.137 539.867 173.399 541.501 176.535C543.134 179.67 548.147 181.754 547.794 187.074C547.442 192.395 541.945 193.809 540.796 198.138C539.647 202.468 539.168 203.803 539.168 203.803Z" fill="#60BFF4"/>
<path d="M223.838 227.357C224.004 226.725 223.639 220.625 222.897 211.436C222.155 202.246 221.589 195.537 221.947 189.963C222.305 184.39 223.027 171.152 223.847 160.088C224.667 149.023 225.866 145.011 225.866 145.011C225.866 145.011 226.63 152.375 226.769 160.038C226.909 167.701 226.471 183.718 226.642 190.699C226.814 197.679 226.251 202.303 225.311 211.399C224.372 220.495 223.838 227.357 223.838 227.357Z" fill="#FFDD81"/>
<path d="M646.061 221C646.061 221 647.994 197.478 649.2 194.914C650.406 192.35 653.994 189.763 654.103 186.166C654.212 182.569 649.304 180.334 648.071 175.281C646.839 170.227 646.061 153 646.061 153C646.061 153 645.373 170.003 644.585 175.114C643.798 180.225 638.198 182.649 638.106 185.861C638.014 189.073 641.652 192.349 642.92 194.913C644.187 197.477 646.061 221 646.061 221Z" fill="#FFDD81"/>
<path d="M577.084 198C577.419 194.931 577.957 191.887 578.693 188.887C579.725 185.162 584.379 183.296 584.092 180.786C583.805 178.276 582.906 178.463 582.906 176.174C582.906 173.885 584.003 173.864 582.906 170.575C581.808 167.287 580.081 168.555 578.69 163.63C577.3 158.704 576.825 148 576.825 148C576.825 148 575.887 158.793 575.003 163.63C574.119 168.466 571.858 167.592 571.162 170.882C570.465 174.171 571.404 173.544 571.162 176.17C570.919 178.795 569.982 177.715 570.118 180.782C570.253 183.849 574.134 185.553 575.41 189.044C576.298 191.96 576.859 194.963 577.084 198Z" fill="#60BFF4"/>
<path d="M498.314 225C498.314 225 498.347 201.582 499.732 194.96C501.116 188.337 508.007 187.923 508.007 183.536C508.007 179.149 501.795 178.439 500.066 175.584C498.336 172.729 497.715 167 497.715 167C497.314 169.911 496.657 172.783 495.75 175.584C494.482 179.025 488.007 179.151 488.007 183.536C488.007 187.922 494.237 188.744 495.75 194.66C497.263 200.576 498.314 225 498.314 225Z" fill="#FFDD81"/>
<path d="M610.908 222C610.908 222 615.78 201.701 616.057 195.556C616.52 187.469 613.465 188.66 612.738 175.84C612.011 163.02 612.001 145 612.001 145C612.001 145 611.556 161.447 609.871 175.84C608.764 185.319 606.058 188.235 606.105 195.153C606.351 202.066 610.908 222 610.908 222Z" fill="#FF8CA1"/>
</g>
<defs>
<filter id="filter0_f_26_2460" x="-99" y="25" width="668" height="655" filterUnits="userSpaceOnUse" color-interpolation-filters="sRGB">
<feFlood flood-opacity="0" result="BackgroundImageFix"/>
<feBlend mode="normal" in="SourceGraphic" in2="BackgroundImageFix" result="shape"/>
<feGaussianBlur stdDeviation="100" result="effect1_foregroundBlur_26_2460"/>
</filter>
<filter id="filter1_f_26_2460" x="659" y="11" width="653" height="646" filterUnits="userSpaceOnUse" color-interpolation-filters="sRGB">
<feFlood flood-opacity="0" result="BackgroundImageFix"/>
<feBlend mode="normal" in="SourceGraphic" in2="BackgroundImageFix" result="shape"/>
<feGaussianBlur stdDeviation="100" result="effect1_foregroundBlur_26_2460"/>
</filter>
<filter id="filter2_f_26_2460" x="315" y="-273" width="591" height="590" filterUnits="userSpaceOnUse" color-interpolation-filters="sRGB">
<feFlood flood-opacity="0" result="BackgroundImageFix"/>
<feBlend mode="normal" in="SourceGraphic" in2="BackgroundImageFix" result="shape"/>
<feGaussianBlur stdDeviation="100" result="effect1_foregroundBlur_26_2460"/>
</filter>
<filter id="filter3_bd_26_2460" x="-36" y="-36" width="796" height="406" filterUnits="userSpaceOnUse" color-interpolation-filters="sRGB">
<feFlood flood-opacity="0" result="BackgroundImageFix"/>
<feGaussianBlur in="BackgroundImage" stdDeviation="30"/>
<feComposite in2="SourceAlpha" operator="in" result="effect1_backgroundBlur_26_2460"/>
<feColorMatrix in="SourceAlpha" type="matrix" values="0 0 0 0 0 0 0 0 0 0 0 0 0 0 0 0 0 0 127 0" result="hardAlpha"/>
<feOffset dy="-10"/>
<feGaussianBlur stdDeviation="10"/>
<feComposite in2="hardAlpha" operator="out"/>
<feColorMatrix type="matrix" values="0 0 0 0 0.160784 0 0 0 0 0.152941 0 0 0 0 0.509804 0 0 0 0.15 0"/>
<feBlend mode="normal" in2="effect1_backgroundBlur_26_2460" result="effect2_dropShadow_26_2460"/>
<feBlend mode="normal" in="SourceGraphic" in2="effect2_dropShadow_26_2460" result="shape"/>
</filter>
<clipPath id="clip0_26_2460">
<rect width="724" height="334" fill="white"/>
</clipPath>
</defs>
</svg>
