<svg width="726" height="334" viewBox="0 0 726 334" fill="none" xmlns="http://www.w3.org/2000/svg">
<g clip-path="url(#clip0_19_1993)">
<rect width="726" height="334" fill="#09203F"/>
<g filter="url(#filter0_f_19_1993)">
<ellipse cx="235" cy="352.5" rx="134" ry="127.5" fill="#537895"/>
</g>
<g filter="url(#filter1_f_19_1993)">
<ellipse cx="985.5" cy="334" rx="126.5" ry="123" fill="#537895"/>
</g>
<g filter="url(#filter2_f_19_1993)">
<ellipse cx="610.5" cy="22" rx="95.5" ry="95" fill="#537895"/>
</g>
<g filter="url(#filter3_bd_19_1993)">
<rect x="24" y="24" width="678" height="286" fill="white" fill-opacity="0.2" shape-rendering="crispEdges"/>
<rect x="24.5" y="24.5" width="677" height="285" stroke="white" stroke-opacity="0.2" shape-rendering="crispEdges"/>
</g>
<path d="M57.084 88H59.8672C62.4512 88 63.8809 86.4004 63.8809 83.7754V83.7637C63.8809 81.1445 62.4453 79.5449 59.8672 79.5449H57.084V88ZM57.8867 87.2734V80.2715H59.8203C61.8828 80.2715 63.0605 81.5898 63.0605 83.7695V83.7812C63.0605 85.9609 61.8887 87.2734 59.8203 87.2734H57.8867ZM67.7502 88.1055C69.1447 88.1055 70.0647 87.3438 70.3108 86.4883L70.3283 86.4414H69.549L69.5256 86.4824C69.3205 86.9746 68.6877 87.4082 67.7678 87.4082C66.5139 87.4082 65.7053 86.5234 65.6818 85.0469H70.4221V84.7188C70.4221 82.8496 69.3791 81.584 67.6858 81.584C65.9924 81.584 64.8908 82.8848 64.8908 84.8535V84.8652C64.8908 86.8457 65.9807 88.1055 67.7502 88.1055ZM67.6858 82.2754C68.7697 82.2754 69.549 83.0137 69.6369 84.4141H65.6877C65.7873 83.0488 66.5959 82.2754 67.6858 82.2754ZM73.7992 88.1055C75.1762 88.1055 76.2367 87.3438 76.2367 86.2598V86.248C76.2367 85.3398 75.6449 84.8477 74.4262 84.5547L73.5531 84.3496C72.7153 84.1504 72.3285 83.8516 72.3285 83.3359V83.3242C72.3285 82.6973 72.9789 82.2344 73.8051 82.2344C74.643 82.2344 75.2289 82.6328 75.3695 83.2188H76.1313C75.9848 82.2227 75.0824 81.584 73.811 81.584C72.5395 81.584 71.5375 82.3398 71.5375 83.3594V83.3652C71.5375 84.25 72.0824 84.7363 73.2543 85.0117L74.1332 85.2227C75.0531 85.4395 75.4457 85.7617 75.4457 86.3066V86.3184C75.4457 86.9746 74.7485 87.4492 73.8227 87.4492C72.9086 87.4492 72.3051 87.0449 72.1352 86.418H71.3383C71.4672 87.4492 72.4223 88.1055 73.7992 88.1055ZM80.0006 88.1055C81.442 88.1055 82.3209 87.3379 82.567 86.2246L82.5787 86.1777L81.8053 86.1836L81.7936 86.2129C81.5709 86.9746 80.9264 87.4141 79.9948 87.4141C78.7467 87.4141 77.944 86.4004 77.944 84.8301V84.8184C77.944 83.2656 78.7408 82.2754 79.9948 82.2754C80.9615 82.2754 81.6178 82.8086 81.8053 83.5352L81.8112 83.5527L82.5787 83.5469V83.5234C82.3854 82.416 81.442 81.584 79.9948 81.584C78.2545 81.584 77.153 82.8496 77.153 84.8184V84.8301C77.153 86.8281 78.2604 88.1055 80.0006 88.1055ZM83.7762 88H84.5496V84.0625C84.5496 83.043 85.2762 82.3223 86.2606 82.3223C86.5008 82.3223 86.7059 82.3457 86.9344 82.4043V81.6426C86.7821 81.6074 86.5711 81.584 86.3426 81.584C85.4871 81.584 84.8719 82.0059 84.6258 82.7266H84.5496V81.6895H83.7762V88ZM88.2725 80.377C88.583 80.377 88.8409 80.125 88.8409 79.8086C88.8409 79.4922 88.583 79.2402 88.2725 79.2402C87.9561 79.2402 87.6983 79.4922 87.6983 79.8086C87.6983 80.125 87.9561 80.377 88.2725 80.377ZM87.8799 88H88.6534V81.6895H87.8799V88ZM90.261 90.0918H91.0344V86.7695H91.1106C91.4563 87.584 92.2708 88.1055 93.2258 88.1055C94.8254 88.1055 95.8977 86.8047 95.8977 84.8477V84.8359C95.8977 82.8906 94.8254 81.584 93.2258 81.584C92.259 81.584 91.4797 82.0996 91.1106 82.9434H91.0344V81.6895H90.261V90.0918ZM93.0676 87.4141C91.8254 87.4141 91.0227 86.4062 91.0227 84.8477V84.8359C91.0227 83.2832 91.8254 82.2754 93.0676 82.2754C94.3157 82.2754 95.1067 83.2773 95.1067 84.8359V84.8477C95.1067 86.4121 94.3157 87.4141 93.0676 87.4141ZM99.228 88.041C99.4155 88.041 99.5913 88.0234 99.767 87.9941V87.3262C99.6088 87.3438 99.4917 87.3496 99.3159 87.3496C98.601 87.3496 98.3256 87.0273 98.3256 86.2539V82.3398H99.767V81.6895H98.3256V80.0488H97.5229V81.6895H96.5092V82.3398H97.5229V86.4297C97.5229 87.5781 98.021 88.041 99.228 88.041ZM101.404 80.377C101.715 80.377 101.972 80.125 101.972 79.8086C101.972 79.4922 101.715 79.2402 101.404 79.2402C101.088 79.2402 100.83 79.4922 100.83 79.8086C100.83 80.125 101.088 80.377 101.404 80.377ZM101.011 88H101.785V81.6895H101.011V88ZM105.15 88H105.971L108.326 81.6895H107.5L105.596 87.1621H105.525L103.615 81.6895H102.795L105.15 88ZM111.621 88.1055C113.016 88.1055 113.936 87.3438 114.182 86.4883L114.199 86.4414H113.42L113.397 86.4824C113.191 86.9746 112.559 87.4082 111.639 87.4082C110.385 87.4082 109.576 86.5234 109.553 85.0469H114.293V84.7188C114.293 82.8496 113.25 81.584 111.557 81.584C109.863 81.584 108.762 82.8848 108.762 84.8535V84.8652C108.762 86.8457 109.852 88.1055 111.621 88.1055ZM111.557 82.2754C112.641 82.2754 113.42 83.0137 113.508 84.4141H109.559C109.658 83.0488 110.467 82.2754 111.557 82.2754ZM121.188 88.1758C123.01 88.1758 124.229 87.1855 124.229 85.6914V85.6855C124.229 84.5078 123.52 83.7988 121.762 83.4004L120.895 83.2012C119.612 82.9082 119.09 82.4336 119.09 81.6895V81.6836C119.09 80.7402 119.975 80.1133 121.141 80.1133C122.342 80.1074 123.139 80.7344 123.262 81.5488L123.268 81.6191H124.071L124.065 81.543C123.965 80.3301 122.817 79.3691 121.165 79.3691C119.477 79.3691 118.276 80.3594 118.276 81.7012V81.707C118.276 82.873 118.991 83.5938 120.69 83.9805L121.557 84.1738C122.858 84.4668 123.415 85 123.415 85.7793V85.791C123.415 86.7402 122.5 87.4316 121.229 87.4316C119.928 87.4316 118.956 86.793 118.868 85.8613L118.862 85.7969H118.059L118.065 85.8613C118.188 87.2148 119.401 88.1758 121.188 88.1758ZM127.653 88.1055C128.632 88.1055 129.341 87.6602 129.651 86.8984H129.721V88H130.495V81.6895H129.721V85.4395C129.721 86.6348 129.018 87.4141 127.841 87.4141C126.757 87.4141 126.212 86.7754 126.212 85.5977V81.6895H125.438V85.791C125.438 87.2383 126.235 88.1055 127.653 88.1055ZM135.091 88.1055C136.684 88.1055 137.745 86.7988 137.745 84.8477V84.8359C137.745 82.873 136.69 81.584 135.091 81.584C134.136 81.584 133.321 82.0996 132.976 82.9141H132.899V79.1758H132.126V88H132.899V86.7402H132.976C133.339 87.5898 134.124 88.1055 135.091 88.1055ZM134.933 87.4141C133.69 87.4141 132.888 86.4004 132.888 84.8477V84.8359C132.888 83.2832 133.69 82.2754 134.933 82.2754C136.175 82.2754 136.954 83.2656 136.954 84.8301V84.8418C136.954 86.4121 136.175 87.4141 134.933 87.4141ZM141.081 88.041C141.269 88.041 141.444 88.0234 141.62 87.9941V87.3262C141.462 87.3438 141.345 87.3496 141.169 87.3496C140.454 87.3496 140.179 87.0273 140.179 86.2539V82.3398H141.62V81.6895H140.179V80.0488H139.376V81.6895H138.362V82.3398H139.376V86.4297C139.376 87.5781 139.874 88.041 141.081 88.041ZM143.257 80.377C143.568 80.377 143.826 80.125 143.826 79.8086C143.826 79.4922 143.568 79.2402 143.257 79.2402C142.941 79.2402 142.683 79.4922 142.683 79.8086C142.683 80.125 142.941 80.377 143.257 80.377ZM142.865 88H143.638V81.6895H142.865V88ZM147.332 88.041C147.519 88.041 147.695 88.0234 147.871 87.9941V87.3262C147.712 87.3438 147.595 87.3496 147.419 87.3496C146.705 87.3496 146.429 87.0273 146.429 86.2539V82.3398H147.871V81.6895H146.429V80.0488H145.627V81.6895H144.613V82.3398H145.627V86.4297C145.627 87.5781 146.125 88.041 147.332 88.041ZM149.138 88H149.912V79.1758H149.138V88ZM154.086 88.1055C155.48 88.1055 156.4 87.3438 156.646 86.4883L156.664 86.4414H155.885L155.861 86.4824C155.656 86.9746 155.023 87.4082 154.103 87.4082C152.85 87.4082 152.041 86.5234 152.018 85.0469H156.758V84.7188C156.758 82.8496 155.715 81.584 154.021 81.584C152.328 81.584 151.227 82.8848 151.227 84.8535V84.8652C151.227 86.8457 152.316 88.1055 154.086 88.1055ZM154.021 82.2754C155.105 82.2754 155.885 83.0137 155.973 84.4141H152.023C152.123 83.0488 152.932 82.2754 154.021 82.2754Z" fill="white"/>
<path d="M62.0938 68.2812C64.6953 68.2812 66.5625 66.7734 66.8594 64.5156V64.4609H64.8828L64.875 64.5C64.5859 65.7422 63.5234 66.5391 62.0938 66.5391C60.1719 66.5391 58.9766 64.9375 58.9766 62.3672V62.3516C58.9766 59.7891 60.1719 58.1875 62.0859 58.1875C63.5078 58.1875 64.5859 59.0703 64.875 60.4062L64.8828 60.4375H66.8594V60.375C66.5938 58.0703 64.6484 56.4453 62.0859 56.4453C58.8906 56.4453 56.9141 58.7031 56.9141 62.3594V62.375C56.9141 66.0156 58.8984 68.2812 62.0938 68.2812ZM68.5764 68H70.5217V63.0234C70.5217 61.7422 71.2404 60.9297 72.3967 60.9297C73.5764 60.9297 74.1154 61.6016 74.1154 62.9297V68H76.0608V62.4766C76.0608 60.4453 75.0217 59.2969 73.1154 59.2969C71.8811 59.2969 71.0608 59.8516 70.6545 60.7656H70.5217V56.1562H68.5764V68ZM80.2778 68.1406C81.4028 68.1406 82.309 67.6562 82.7778 66.8281H82.9106V68H84.8324V62.1641C84.8324 60.3594 83.5981 59.2969 81.4028 59.2969C79.3715 59.2969 77.9965 60.25 77.809 61.6875L77.8012 61.7578H79.6371L79.6449 61.7266C79.8403 61.1641 80.4184 60.8438 81.309 60.8438C82.3559 60.8438 82.9106 61.3125 82.9106 62.1641V62.8984L80.7153 63.0312C78.6371 63.1562 77.4731 64.0469 77.4731 65.5703V65.5859C77.4731 67.1406 78.6528 68.1406 80.2778 68.1406ZM79.3949 65.4922V65.4766C79.3949 64.7734 79.9028 64.375 80.9887 64.3047L82.9106 64.1797V64.8672C82.9106 65.8828 82.0434 66.6484 80.8715 66.6484C80.0121 66.6484 79.3949 66.2188 79.3949 65.4922ZM86.7604 68H88.7057V63.0391C88.7057 61.8203 89.5573 61.0469 90.8541 61.0469C91.1901 61.0469 91.5104 61.0938 91.8229 61.1562V59.4141C91.6354 59.3594 91.3307 59.3203 91.0338 59.3203C89.9088 59.3203 89.1276 59.8594 88.8385 60.7734H88.7057V59.4609H86.7604V68ZM96.5555 68.0391C96.9305 68.0391 97.2899 68.0078 97.5711 67.9531V66.4531C97.3368 66.4766 97.1883 66.4844 96.9149 66.4844C96.1024 66.4844 95.7664 66.125 95.7664 65.2734V60.9688H97.5711V59.4609H95.7664V57.3672H93.7899V59.4609H92.4618V60.9688H93.7899V65.7344C93.7899 67.3828 94.5946 68.0391 96.5555 68.0391ZM105.966 68H107.982V58.4219H111.458V56.7266H102.497V58.4219H105.966V68ZM113.8 58.0312C114.433 58.0312 114.957 57.5234 114.957 56.8828C114.957 56.25 114.433 55.7344 113.8 55.7344C113.16 55.7344 112.636 56.25 112.636 56.8828C112.636 57.5234 113.16 58.0312 113.8 58.0312ZM112.824 68H114.769V59.4609H112.824V68ZM120.111 68.0391C120.486 68.0391 120.845 68.0078 121.127 67.9531V66.4531C120.892 66.4766 120.744 66.4844 120.47 66.4844C119.658 66.4844 119.322 66.125 119.322 65.2734V60.9688H121.127V59.4609H119.322V57.3672H117.345V59.4609H116.017V60.9688H117.345V65.7344C117.345 67.3828 118.15 68.0391 120.111 68.0391ZM122.734 68H124.68V56.1562H122.734V68ZM130.389 68.1719C132.709 68.1719 133.85 66.8359 134.123 65.7344L134.147 65.6641H132.295L132.272 65.7188C132.084 66.1094 131.482 66.6406 130.428 66.6406C129.107 66.6406 128.279 65.75 128.256 64.2188H134.225V63.5781C134.225 61 132.725 59.2969 130.295 59.2969C127.865 59.2969 126.311 61.0547 126.311 63.7422V63.75C126.311 66.4688 127.85 68.1719 130.389 68.1719ZM130.318 60.8203C131.404 60.8203 132.193 61.5156 132.326 62.9141H128.272C128.42 61.5547 129.232 60.8203 130.318 60.8203Z" fill="white"/>
<rect x="380" y="267" width="8" height="8" fill="#FFDD81"/>
<path d="M349.233 275H353.427V274.395H349.902V267.954H349.233V275ZM355.763 275.088C356.539 275.088 357.169 274.722 357.482 274.097H357.54V275H358.19V271.406C358.19 270.298 357.472 269.653 356.242 269.653C355.153 269.653 354.357 270.19 354.22 271.03L354.215 271.05H354.865L354.87 271.04C355.006 270.518 355.509 270.229 356.222 270.229C357.072 270.229 357.54 270.64 357.54 271.411V271.904L355.9 272.012C354.684 272.095 354.005 272.627 354.005 273.54V273.55C354.005 274.487 354.747 275.088 355.763 275.088ZM354.664 273.54V273.53C354.664 272.935 355.094 272.598 355.988 272.539L357.54 272.432V273.042C357.54 273.877 356.828 274.521 355.885 274.521C355.177 274.521 354.664 274.141 354.664 273.54ZM361.922 275.088C363.251 275.088 364.134 273.999 364.134 272.373V272.363C364.134 270.728 363.255 269.653 361.922 269.653C361.127 269.653 360.448 270.083 360.16 270.762H360.096V267.646H359.452V275H360.096V273.95H360.16C360.462 274.658 361.117 275.088 361.922 275.088ZM361.791 274.512C360.755 274.512 360.087 273.667 360.087 272.373V272.363C360.087 271.069 360.755 270.229 361.791 270.229C362.826 270.229 363.475 271.055 363.475 272.358V272.368C363.475 273.677 362.826 274.512 361.791 274.512ZM367.227 275.088C368.389 275.088 369.156 274.453 369.361 273.74L369.376 273.701H368.726L368.707 273.735C368.536 274.146 368.009 274.507 367.242 274.507C366.197 274.507 365.523 273.77 365.504 272.539H369.454V272.266C369.454 270.708 368.585 269.653 367.174 269.653C365.762 269.653 364.845 270.737 364.845 272.378V272.388C364.845 274.038 365.753 275.088 367.227 275.088ZM367.174 270.229C368.077 270.229 368.726 270.845 368.8 272.012H365.509C365.592 270.874 366.265 270.229 367.174 270.229ZM370.481 275H371.126V267.646H370.481V275Z" fill="white"/>
<rect x="617" y="267" width="8" height="8" fill="#60BFF4"/>
<path d="M586.233 275H590.427V274.395H586.902V267.954H586.233V275ZM592.763 275.088C593.539 275.088 594.169 274.722 594.482 274.097H594.54V275H595.19V271.406C595.19 270.298 594.472 269.653 593.242 269.653C592.153 269.653 591.357 270.19 591.22 271.03L591.215 271.05H591.865L591.87 271.04C592.006 270.518 592.509 270.229 593.222 270.229C594.072 270.229 594.54 270.64 594.54 271.411V271.904L592.9 272.012C591.684 272.095 591.005 272.627 591.005 273.54V273.55C591.005 274.487 591.747 275.088 592.763 275.088ZM591.664 273.54V273.53C591.664 272.935 592.094 272.598 592.988 272.539L594.54 272.432V273.042C594.54 273.877 593.828 274.521 592.885 274.521C592.177 274.521 591.664 274.141 591.664 273.54ZM598.922 275.088C600.251 275.088 601.134 273.999 601.134 272.373V272.363C601.134 270.728 600.255 269.653 598.922 269.653C598.127 269.653 597.448 270.083 597.16 270.762H597.096V267.646H596.452V275H597.096V273.95H597.16C597.462 274.658 598.117 275.088 598.922 275.088ZM598.791 274.512C597.755 274.512 597.087 273.667 597.087 272.373V272.363C597.087 271.069 597.755 270.229 598.791 270.229C599.826 270.229 600.475 271.055 600.475 272.358V272.368C600.475 273.677 599.826 274.512 598.791 274.512ZM604.227 275.088C605.389 275.088 606.156 274.453 606.361 273.74L606.376 273.701H605.726L605.707 273.735C605.536 274.146 605.009 274.507 604.242 274.507C603.197 274.507 602.523 273.77 602.504 272.539H606.454V272.266C606.454 270.708 605.585 269.653 604.174 269.653C602.762 269.653 601.845 270.737 601.845 272.378V272.388C601.845 274.038 602.753 275.088 604.227 275.088ZM604.174 270.229C605.077 270.229 605.726 270.845 605.8 272.012H602.509C602.592 270.874 603.265 270.229 604.174 270.229ZM607.481 275H608.126V267.646H607.481V275Z" fill="white"/>
<rect x="141" y="267" width="8" height="8" fill="#FF8CA1"/>
<path d="M110.233 275H114.427V274.395H110.902V267.954H110.233V275ZM116.763 275.088C117.539 275.088 118.169 274.722 118.482 274.097H118.54V275H119.19V271.406C119.19 270.298 118.472 269.653 117.242 269.653C116.153 269.653 115.357 270.19 115.22 271.03L115.215 271.05H115.865L115.87 271.04C116.006 270.518 116.509 270.229 117.222 270.229C118.072 270.229 118.54 270.64 118.54 271.411V271.904L116.9 272.012C115.684 272.095 115.005 272.627 115.005 273.54V273.55C115.005 274.487 115.747 275.088 116.763 275.088ZM115.664 273.54V273.53C115.664 272.935 116.094 272.598 116.988 272.539L118.54 272.432V273.042C118.54 273.877 117.828 274.521 116.885 274.521C116.177 274.521 115.664 274.141 115.664 273.54ZM122.922 275.088C124.251 275.088 125.134 273.999 125.134 272.373V272.363C125.134 270.728 124.255 269.653 122.922 269.653C122.127 269.653 121.448 270.083 121.16 270.762H121.096V267.646H120.452V275H121.096V273.95H121.16C121.462 274.658 122.117 275.088 122.922 275.088ZM122.791 274.512C121.755 274.512 121.087 273.667 121.087 272.373V272.363C121.087 271.069 121.755 270.229 122.791 270.229C123.826 270.229 124.475 271.055 124.475 272.358V272.368C124.475 273.677 123.826 274.512 122.791 274.512ZM128.227 275.088C129.389 275.088 130.156 274.453 130.361 273.74L130.376 273.701H129.726L129.707 273.735C129.536 274.146 129.009 274.507 128.242 274.507C127.197 274.507 126.523 273.77 126.504 272.539H130.454V272.266C130.454 270.708 129.585 269.653 128.174 269.653C126.762 269.653 125.845 270.737 125.845 272.378V272.388C125.845 274.038 126.753 275.088 128.227 275.088ZM128.174 270.229C129.077 270.229 129.726 270.845 129.8 272.012H126.509C126.592 270.874 127.265 270.229 128.174 270.229ZM131.481 275H132.126V267.646H131.481V275Z" fill="white"/>
<path d="M196.461 180.73C196.461 164.647 190.652 149.105 180.104 136.964C169.556 124.824 154.977 116.901 139.052 114.654C123.126 112.408 106.925 115.988 93.4301 124.737C79.9349 133.486 70.0534 146.815 65.6042 162.27C61.155 177.726 62.4374 194.268 69.2155 208.853C75.9935 223.438 87.8112 235.085 102.494 241.649C117.176 248.214 133.735 249.255 149.124 244.581C164.513 239.906 177.696 229.831 186.247 216.21L165.852 203.407C160.387 212.112 151.961 218.552 142.126 221.539C132.29 224.527 121.707 223.861 112.323 219.666C102.938 215.47 95.3855 208.026 91.0534 198.705C86.7213 189.383 85.9017 178.81 88.7453 168.932C91.5889 159.054 97.9045 150.535 106.53 144.943C115.155 139.352 125.51 137.063 135.688 138.499C145.867 139.935 155.184 144.999 161.926 152.758C168.668 160.518 172.38 170.451 172.38 180.73H196.461Z" fill="#09203F"/>
<path d="M129.73 114C141.654 114 153.36 117.195 163.631 123.253C173.902 129.31 182.361 138.009 188.131 148.445C193.9 158.88 196.767 170.671 196.435 182.59C196.103 194.509 192.583 206.122 186.241 216.219L165.808 203.387C169.856 196.941 172.103 189.527 172.316 181.918C172.528 174.308 170.697 166.781 167.014 160.119C163.331 153.457 157.93 147.903 151.373 144.036C144.816 140.169 137.343 138.129 129.73 138.129L129.73 114Z" fill="#FF8CA1"/>
<path d="M670 180.73C670 197.852 663.419 214.319 651.618 226.724C639.817 239.129 623.699 246.524 606.599 247.378C589.498 248.232 572.724 242.481 559.746 231.313C546.767 220.146 538.578 204.417 536.871 187.381C535.165 170.344 540.072 153.304 550.578 139.784C561.084 126.265 576.385 117.301 593.315 114.747C610.245 112.193 627.509 116.244 641.536 126.062C655.563 135.88 665.279 150.714 668.674 167.496L645.109 172.264C642.937 161.529 636.722 152.04 627.749 145.759C618.776 139.478 607.732 136.886 596.901 138.52C586.071 140.154 576.283 145.889 569.563 154.537C562.842 163.186 559.703 174.086 560.794 184.985C561.886 195.883 567.125 205.945 575.427 213.088C583.729 220.232 594.46 223.911 605.399 223.365C616.338 222.819 626.649 218.088 634.198 210.153C641.747 202.217 645.957 191.683 645.957 180.73H670Z" fill="#09203F"/>
<path d="M560.323 129.657C548.323 139.747 540.259 153.741 537.546 169.183C534.833 184.624 537.643 200.528 545.485 214.105C553.326 227.682 565.697 238.064 580.429 243.43C595.16 248.797 611.311 248.805 626.047 243.453C640.784 238.101 653.166 227.732 661.021 214.163C668.876 200.594 671.702 184.693 669.005 169.248C666.307 153.804 658.257 139.802 646.268 129.7C634.278 119.598 619.114 114.039 603.436 114L603.376 138.13C613.385 138.155 623.065 141.703 630.72 148.153C638.374 154.602 643.513 163.541 645.235 173.4C646.957 183.26 645.153 193.412 640.138 202.074C635.123 210.736 627.219 217.356 617.811 220.773C608.403 224.189 598.092 224.184 588.688 220.758C579.284 217.332 571.386 210.704 566.38 202.037C561.374 193.37 559.579 183.216 561.312 173.358C563.044 163.5 568.191 154.567 575.852 148.125L560.323 129.657Z" fill="#60BFF4"/>
<path d="M432.736 180.73C432.736 198.213 425.875 214.998 413.629 227.474C401.383 239.951 384.729 247.124 367.249 247.449C349.77 247.775 332.86 241.228 320.157 229.216C307.455 217.205 299.973 200.687 299.322 183.217C298.67 165.746 304.901 148.718 316.674 135.794C328.447 122.869 344.822 115.081 362.277 114.104C379.733 113.127 396.874 119.04 410.016 130.57C423.157 142.1 431.249 158.327 432.551 175.761L408.447 177.561C407.617 166.442 402.456 156.093 394.074 148.739C385.693 141.385 374.76 137.615 363.628 138.238C352.495 138.861 342.052 143.828 334.543 152.071C327.034 160.314 323.061 171.174 323.476 182.316C323.891 193.459 328.663 203.993 336.765 211.654C344.866 219.315 355.651 223.49 366.799 223.282C377.947 223.075 388.568 218.5 396.379 210.543C404.189 202.585 408.565 191.881 408.565 180.73H432.736Z" fill="#09203F"/>
<path d="M372.935 247.1C389.947 245.324 405.628 237.083 416.739 224.078C427.851 211.074 433.544 194.299 432.644 177.218C431.744 160.137 424.318 144.054 411.902 132.29C399.485 120.525 383.025 113.978 365.92 114L365.951 138.13C376.871 138.116 387.379 142.295 395.306 149.806C403.233 157.316 407.973 167.584 408.548 178.488C409.122 189.393 405.488 200.102 398.394 208.404C391.301 216.706 381.29 221.967 370.429 223.101L372.935 247.1Z" fill="#FFDD81"/>
<path opacity="0.8" d="M110.641 189.281C114.027 189.281 116.512 187.195 116.512 184.371V184.348C116.512 181.945 114.836 180.41 112.375 180.199V180.152C114.484 179.707 115.961 178.277 115.961 176.191V176.168C115.961 173.602 113.84 171.809 110.617 171.809C107.453 171.809 105.273 173.648 105.004 176.402L104.992 176.52H107.02L107.031 176.402C107.207 174.691 108.625 173.637 110.617 173.637C112.68 173.637 113.84 174.656 113.84 176.426V176.449C113.84 178.137 112.434 179.379 110.418 179.379H108.391V181.16H110.512C112.879 181.16 114.367 182.32 114.367 184.395V184.418C114.367 186.211 112.855 187.453 110.641 187.453C108.391 187.453 106.855 186.305 106.691 184.641L106.68 184.523H104.652L104.664 184.664C104.887 187.336 107.148 189.281 110.641 189.281ZM119.526 189H130.471V187.102H122.455V186.914L126.299 182.941C129.358 179.789 130.19 178.383 130.19 176.449V176.426C130.19 173.695 127.928 171.691 124.975 171.691C121.74 171.691 119.42 173.848 119.408 176.848L119.432 176.859L121.447 176.871L121.459 176.848C121.459 174.855 122.807 173.531 124.834 173.531C126.826 173.531 128.033 174.867 128.033 176.648V176.672C128.033 178.148 127.401 179.027 125.244 181.359L119.526 187.547V189ZM136.754 180.984C138.911 180.984 140.223 179.227 140.223 176.426V176.414C140.223 173.613 138.911 171.867 136.754 171.867C134.598 171.867 133.297 173.613 133.297 176.414V176.426C133.297 179.227 134.598 180.984 136.754 180.984ZM138.02 189L149.528 172.09H147.629L136.122 189H138.02ZM136.754 179.59C135.594 179.59 134.926 178.406 134.926 176.426V176.414C134.926 174.434 135.594 173.262 136.754 173.262C137.914 173.262 138.594 174.434 138.594 176.414V176.426C138.594 178.406 137.914 179.59 136.754 179.59ZM148.872 189.223C151.028 189.223 152.34 187.465 152.34 184.664V184.652C152.34 181.852 151.028 180.105 148.872 180.105C146.715 180.105 145.414 181.852 145.414 184.652V184.664C145.414 187.465 146.715 189.223 148.872 189.223ZM148.872 187.828C147.711 187.828 147.043 186.645 147.043 184.664V184.652C147.043 182.672 147.711 181.5 148.872 181.5C150.032 181.5 150.711 182.672 150.711 184.652V184.664C150.711 186.645 150.032 187.828 148.872 187.828Z" fill="white"/>
<path opacity="0.8" d="M348.609 189H350.672V185.496H353.074V183.609H350.672V172.09H347.613C345.246 175.617 342.656 179.742 340.371 183.574V185.496H348.609V189ZM342.527 183.621V183.48C344.367 180.375 346.582 176.883 348.48 174.047H348.621V183.621H342.527ZM361.701 189.281C365.287 189.281 367.842 187.266 367.842 184.43V184.406C367.842 182.32 366.377 180.586 364.209 180.082V180.035C366.061 179.461 367.233 178.055 367.233 176.273V176.25C367.233 173.695 364.901 171.809 361.701 171.809C358.502 171.809 356.17 173.695 356.17 176.25V176.273C356.17 178.055 357.342 179.461 359.194 180.035V180.082C357.026 180.586 355.561 182.32 355.561 184.406V184.43C355.561 187.266 358.115 189.281 361.701 189.281ZM361.701 179.25C359.662 179.25 358.268 178.09 358.268 176.449V176.426C358.268 174.785 359.662 173.625 361.701 173.625C363.74 173.625 365.135 174.785 365.135 176.426V176.449C365.135 178.09 363.74 179.25 361.701 179.25ZM361.701 187.441C359.369 187.441 357.705 186.129 357.705 184.301V184.277C357.705 182.426 359.358 181.102 361.701 181.102C364.045 181.102 365.697 182.426 365.697 184.277V184.301C365.697 186.129 364.033 187.441 361.701 187.441ZM373.997 180.984C376.153 180.984 377.465 179.227 377.465 176.426V176.414C377.465 173.613 376.153 171.867 373.997 171.867C371.84 171.867 370.539 173.613 370.539 176.414V176.426C370.539 179.227 371.84 180.984 373.997 180.984ZM375.262 189L386.77 172.09H384.872L373.364 189H375.262ZM373.997 179.59C372.836 179.59 372.168 178.406 372.168 176.426V176.414C372.168 174.434 372.836 173.262 373.997 173.262C375.157 173.262 375.836 174.434 375.836 176.414V176.426C375.836 178.406 375.157 179.59 373.997 179.59ZM386.114 189.223C388.27 189.223 389.582 187.465 389.582 184.664V184.652C389.582 181.852 388.27 180.105 386.114 180.105C383.957 180.105 382.657 181.852 382.657 184.652V184.664C382.657 187.465 383.957 189.223 386.114 189.223ZM386.114 187.828C384.954 187.828 384.286 186.645 384.286 184.664V184.652C384.286 182.672 384.954 181.5 386.114 181.5C387.274 181.5 387.954 182.672 387.954 184.652V184.664C387.954 186.645 387.274 187.828 386.114 187.828Z" fill="white"/>
<path opacity="0.8" d="M586.664 189.281C590.25 189.281 592.805 187.266 592.805 184.43V184.406C592.805 182.32 591.34 180.586 589.172 180.082V180.035C591.023 179.461 592.195 178.055 592.195 176.273V176.25C592.195 173.695 589.863 171.809 586.664 171.809C583.465 171.809 581.133 173.695 581.133 176.25V176.273C581.133 178.055 582.305 179.461 584.156 180.035V180.082C581.988 180.586 580.523 182.32 580.523 184.406V184.43C580.523 187.266 583.078 189.281 586.664 189.281ZM586.664 179.25C584.625 179.25 583.23 178.09 583.23 176.449V176.426C583.23 174.785 584.625 173.625 586.664 173.625C588.703 173.625 590.098 174.785 590.098 176.426V176.449C590.098 178.09 588.703 179.25 586.664 179.25ZM586.664 187.441C584.332 187.441 582.668 186.129 582.668 184.301V184.277C582.668 182.426 584.32 181.102 586.664 181.102C589.008 181.102 590.66 182.426 590.66 184.277V184.301C590.66 186.129 588.996 187.441 586.664 187.441ZM601.467 189.398C605.205 189.398 607.455 185.988 607.455 180.551V180.527C607.455 175.09 605.205 171.691 601.467 171.691C597.729 171.691 595.502 175.09 595.502 180.527V180.551C595.502 185.988 597.729 189.398 601.467 189.398ZM601.467 187.559C599.041 187.559 597.623 184.863 597.623 180.551V180.527C597.623 176.215 599.041 173.543 601.467 173.543C603.893 173.543 605.334 176.215 605.334 180.527V180.551C605.334 184.863 603.893 187.559 601.467 187.559ZM613.668 180.984C615.825 180.984 617.137 179.227 617.137 176.426V176.414C617.137 173.613 615.825 171.867 613.668 171.867C611.512 171.867 610.211 173.613 610.211 176.414V176.426C610.211 179.227 611.512 180.984 613.668 180.984ZM614.934 189L626.442 172.09H624.543L613.036 189H614.934ZM613.668 179.59C612.508 179.59 611.84 178.406 611.84 176.426V176.414C611.84 174.434 612.508 173.262 613.668 173.262C614.829 173.262 615.508 174.434 615.508 176.414V176.426C615.508 178.406 614.829 179.59 613.668 179.59ZM625.786 189.223C627.942 189.223 629.254 187.465 629.254 184.664V184.652C629.254 181.852 627.942 180.105 625.786 180.105C623.629 180.105 622.329 181.852 622.329 184.652V184.664C622.329 187.465 623.629 189.223 625.786 189.223ZM625.786 187.828C624.625 187.828 623.957 186.645 623.957 184.664V184.652C623.957 182.672 624.625 181.5 625.786 181.5C626.946 181.5 627.625 182.672 627.625 184.652V184.664C627.625 186.645 626.946 187.828 625.786 187.828Z" fill="white"/>
</g>
<defs>
<filter id="filter0_f_19_1993" x="-99" y="25" width="668" height="655" filterUnits="userSpaceOnUse" color-interpolation-filters="sRGB">
<feFlood flood-opacity="0" result="BackgroundImageFix"/>
<feBlend mode="normal" in="SourceGraphic" in2="BackgroundImageFix" result="shape"/>
<feGaussianBlur stdDeviation="100" result="effect1_foregroundBlur_19_1993"/>
</filter>
<filter id="filter1_f_19_1993" x="659" y="11" width="653" height="646" filterUnits="userSpaceOnUse" color-interpolation-filters="sRGB">
<feFlood flood-opacity="0" result="BackgroundImageFix"/>
<feBlend mode="normal" in="SourceGraphic" in2="BackgroundImageFix" result="shape"/>
<feGaussianBlur stdDeviation="100" result="effect1_foregroundBlur_19_1993"/>
</filter>
<filter id="filter2_f_19_1993" x="315" y="-273" width="591" height="590" filterUnits="userSpaceOnUse" color-interpolation-filters="sRGB">
<feFlood flood-opacity="0" result="BackgroundImageFix"/>
<feBlend mode="normal" in="SourceGraphic" in2="BackgroundImageFix" result="shape"/>
<feGaussianBlur stdDeviation="100" result="effect1_foregroundBlur_19_1993"/>
</filter>
<filter id="filter3_bd_19_1993" x="-36" y="-36" width="798" height="406" filterUnits="userSpaceOnUse" color-interpolation-filters="sRGB">
<feFlood flood-opacity="0" result="BackgroundImageFix"/>
<feGaussianBlur in="BackgroundImage" stdDeviation="30"/>
<feComposite in2="SourceAlpha" operator="in" result="effect1_backgroundBlur_19_1993"/>
<feColorMatrix in="SourceAlpha" type="matrix" values="0 0 0 0 0 0 0 0 0 0 0 0 0 0 0 0 0 0 127 0" result="hardAlpha"/>
<feOffset dy="-10"/>
<feGaussianBlur stdDeviation="10"/>
<feComposite in2="hardAlpha" operator="out"/>
<feColorMatrix type="matrix" values="0 0 0 0 0.160784 0 0 0 0 0.152941 0 0 0 0 0.509804 0 0 0 0.15 0"/>
<feBlend mode="normal" in2="effect1_backgroundBlur_19_1993" result="effect2_dropShadow_19_1993"/>
<feBlend mode="normal" in="SourceGraphic" in2="effect2_dropShadow_19_1993" result="shape"/>
</filter>
<clipPath id="clip0_19_1993">
<rect width="726" height="334" fill="white"/>
</clipPath>
</defs>
</svg>
