<?xml version="1.0" encoding="UTF-8" standalone="no"?>
<!DOCTYPE svg PUBLIC "-//W3C//DTD SVG 1.1//EN" "http://www.w3.org/Graphics/SVG/1.1/DTD/svg11.dtd">
<svg width="100%" height="100%" viewBox="0 0 2481 3508" version="1.1" xmlns="http://www.w3.org/2000/svg" xmlns:xlink="http://www.w3.org/1999/xlink" xml:space="preserve" xmlns:serif="http://www.serif.com/" style="fill-rule:evenodd;clip-rule:evenodd;stroke-linecap:round;stroke-linejoin:round;stroke-miterlimit:1.5;">
    <g transform="matrix(1,0,0,1,-7.85018,147.937)">
        <g transform="matrix(4.78996,0,0,1.59914,-4959.8,321.597)">
            <path d="M1370.43,1382.87L1395.22,1382.87L1395.22,1230.09L1382.27,1230.09C1379.29,1230.09 1375.94,1230.35 1372.22,1230.87C1368.49,1231.39 1364.73,1232.84 1360.94,1235.23C1357.14,1237.61 1353.49,1241.37 1349.99,1246.51C1346.49,1251.64 1343.48,1258.76 1340.94,1267.84L1338.49,1267.84L1338.49,1226.96L1474.3,1226.96L1474.3,1267.84L1471.84,1267.84C1469.31,1258.76 1466.29,1251.64 1462.79,1246.51C1459.29,1241.37 1455.64,1237.61 1451.85,1235.23C1448.05,1232.84 1444.29,1231.39 1440.57,1230.87C1436.84,1230.35 1433.49,1230.09 1430.52,1230.09L1417.56,1230.09L1417.56,1382.87L1442.35,1382.87L1442.35,1386L1370.43,1386L1370.43,1382.87Z" style="fill-rule:nonzero;"/>
        </g>
        <g transform="matrix(1.55075,0,0,1.55075,-2.50129,-2299.61)">
            <path d="M777.926,2101.81L625.513,2505.01L930.34,2505.01L777.926,2101.81ZM255.684,3099.53L377.614,3099.53L823.65,1917.53L856.904,1917.53L1233.78,2909.6L1357.1,2909.6L1357.1,2929L930.34,2929L930.34,2909.6L1084.14,2909.6L938.653,2524.41L617.2,2524.41L399.784,3099.53L553.583,3099.53L553.583,3118.93L255.684,3118.93L255.684,3099.53Z" style="fill-rule:nonzero;"/>
        </g>
        <g transform="matrix(1.96996,-0.209607,-0.209607,1.65555,333.246,-1222.48)">
            <path d="M399.374,2176.81L608,1230" style="fill:none;stroke:black;stroke-width:0.62px;"/>
        </g>
    </g>
</svg>
