<svg width="2775" height="463" viewBox="0 0 2775 463" fill="none" xmlns="http://www.w3.org/2000/svg">
<rect x="410" y="147" width="315.625" height="157.812" fill="#333333"/>
<rect x="410" y="304.812" width="315.625" height="157.812" fill="#BB86FE"/>
<path fill-rule="evenodd" clip-rule="evenodd" d="M441.562 304.812C441.562 374.538 498.087 431.062 567.813 431.062C637.538 431.062 694.063 374.538 694.063 304.812" fill="#ABC3FE"/>
<path fill-rule="evenodd" clip-rule="evenodd" d="M694.062 304.813C694.062 235.087 637.538 178.562 567.812 178.562C498.087 178.562 441.562 235.087 441.562 304.813" fill="#ABC3FE"/>
<path d="M413.438 48H437.011V41.8601H420.885V32.9092H436.099V27.0898H420.885V18.5581H437.011V12.4182H413.438V48ZM449.488 48.4192C452.965 48.4192 455.776 46.7671 457.28 44.0547H457.428V48H464.628V29.8762C464.628 24.55 460.215 21.0239 453.384 21.0239C446.406 21.0239 442.214 24.5254 441.82 29.4077L441.795 29.7036H448.379L448.428 29.4817C448.773 27.7803 450.401 26.5227 453.088 26.5227C455.899 26.5227 457.428 27.9775 457.428 30.3201V31.9475L450.894 32.342C444.335 32.7612 440.611 35.5723 440.611 40.3806V40.4299C440.611 45.0903 444.187 48.4192 449.488 48.4192ZM447.738 40.0601V40.0107C447.738 38.1367 449.192 36.9531 451.979 36.7805L457.428 36.4353V38.334C457.428 41.0957 455.061 43.167 451.831 43.167C449.34 43.167 447.738 42.0081 447.738 40.0601ZM469.289 48H476.489V33.2051C476.489 29.3584 478.56 27.2378 482.111 27.2378C483.147 27.2378 484.133 27.3857 484.725 27.6323V21.2952C484.182 21.1472 483.443 21.0239 482.654 21.0239C479.571 21.0239 477.426 22.9226 476.637 26.1775H476.489V21.5664H469.289V48ZM499.175 48.5425C500.679 48.5425 501.838 48.3945 502.651 48.2712V42.9944C502.208 43.0437 501.739 43.1177 501.098 43.1177C498.928 43.1177 497.818 42.2793 497.818 39.8135V26.9912H502.651V21.5664H497.818V15.106H490.544V21.5664H486.87V26.9912H490.544V40.6025C490.544 46.2739 493.306 48.5425 499.175 48.5425ZM506.794 48H513.994V32.8599C513.994 29.4077 516.041 26.9912 519.222 26.9912C522.501 26.9912 524.326 29.1858 524.326 32.8845V48H531.526V31.405C531.526 25.0186 527.975 21.0239 522.255 21.0239C518.285 21.0239 515.498 22.8486 514.142 26.1282H513.994V12.4182H506.794V48ZM412.994 108H438.861V102.082H422.734V101.786L430.181 94.9805C436.321 89.3337 438.367 86.5227 438.367 82.2075V82.1582C438.367 76.0923 433.189 71.8018 425.668 71.8018C418.148 71.8018 412.575 76.5115 412.575 83.2185V83.4158H419.479L419.504 83.1938C419.603 79.9883 422.068 77.5964 425.718 77.5964C428.874 77.5964 431.093 79.6677 431.118 82.5774V82.6267C431.118 85.0925 430.156 86.8433 425.57 91.1338L412.994 102.896V108ZM443.472 108H469.338V102.082H453.212V101.786L460.658 94.9805C466.798 89.3337 468.845 86.5227 468.845 82.2075V82.1582C468.845 76.0923 463.667 71.8018 456.146 71.8018C448.625 71.8018 443.052 76.5115 443.052 83.2185V83.4158H449.957L449.981 83.1938C450.08 79.9883 452.546 77.5964 456.195 77.5964C459.352 77.5964 461.571 79.6677 461.595 82.5774V82.6267C461.595 85.0925 460.634 86.8433 456.047 91.1338L443.472 102.896V108ZM487.191 108.616C495.5 108.616 501.024 104.326 501.024 97.9641V97.9148C501.024 93.0818 497.572 90.0242 492.295 89.531V89.3831C496.462 88.52 499.717 85.635 499.717 81.1965V81.1472C499.717 75.5498 494.785 71.8018 487.117 71.8018C479.645 71.8018 474.64 75.8457 474.146 82.0103L474.122 82.3062H480.952L480.977 82.0842C481.273 79.3225 483.64 77.5225 487.117 77.5225C490.618 77.5225 492.665 79.2485 492.665 82.1335V82.1829C492.665 85.0679 490.248 87.0405 486.525 87.0405H482.555V92.342H486.624C490.914 92.342 493.454 94.2161 493.454 97.6189V97.6682C493.454 100.578 490.988 102.625 487.166 102.625C483.319 102.625 480.804 100.726 480.484 98.186L480.434 97.9148H473.333L473.357 98.2354C473.851 104.375 479.127 108.616 487.191 108.616ZM503.81 115.422H508.791L512.416 101.786H505.61L503.81 115.422ZM538.159 71.8018C530.244 71.8018 524.449 76.9553 524.449 84.2295V84.2788C524.449 90.9612 529.159 95.8188 536.039 95.8188C540.847 95.8188 544.348 93.4023 545.754 90.0981H545.877C545.902 90.4927 545.877 90.9858 545.853 91.4543C545.581 97.7422 543.313 102.698 538.11 102.698C535.2 102.698 533.228 101.244 532.34 99.0984L532.266 98.9011H524.918L524.967 99.123C526.027 104.622 531.206 108.616 538.085 108.616C547.357 108.616 553.003 101.589 553.003 89.9255V89.8762C553.003 77.8184 546.74 71.8018 538.159 71.8018ZM538.184 90.3201C534.485 90.3201 531.699 87.731 531.699 84.0322V83.9829C531.699 80.4568 534.633 77.7197 538.258 77.7197C541.907 77.7197 544.768 80.4814 544.768 84.0815V84.1062C544.768 87.731 541.907 90.3201 538.184 90.3201ZM571.103 71.8018C563.187 71.8018 557.393 76.9553 557.393 84.2295V84.2788C557.393 90.9612 562.102 95.8188 568.982 95.8188C573.79 95.8188 577.292 93.4023 578.697 90.0981H578.821C578.845 90.4927 578.821 90.9858 578.796 91.4543C578.525 97.7422 576.256 102.698 571.053 102.698C568.144 102.698 566.171 101.244 565.283 99.0984L565.209 98.9011H557.861L557.91 99.123C558.971 104.622 564.149 108.616 571.029 108.616C580.3 108.616 585.947 101.589 585.947 89.9255V89.8762C585.947 77.8184 579.684 71.8018 571.103 71.8018ZM571.127 90.3201C567.428 90.3201 564.642 87.731 564.642 84.0322V83.9829C564.642 80.4568 567.576 77.7197 571.201 77.7197C574.851 77.7197 577.711 80.4814 577.711 84.0815V84.1062C577.711 87.731 574.851 90.3201 571.127 90.3201ZM587.698 115.422H592.678L596.303 101.786H589.498L587.698 115.422ZM622.367 108.616C630.849 108.616 636.693 104.4 636.693 98.2847V98.2354C636.693 93.6243 633.266 90.2214 628.507 89.2844V89.1365C632.6 88.1255 635.411 85.1418 635.411 81.3445V81.2952C635.411 75.7964 630.036 71.8018 622.367 71.8018C614.674 71.8018 609.323 75.7964 609.323 81.2952V81.3445C609.323 85.1418 612.109 88.1255 616.227 89.1365V89.2844C611.443 90.2214 608.016 93.6243 608.016 98.2354V98.2847C608.016 104.4 613.885 108.616 622.367 108.616ZM622.367 86.8926C619.013 86.8926 616.671 84.8953 616.671 82.0349V81.9856C616.671 79.1499 619.038 77.1772 622.367 77.1772C625.696 77.1772 628.038 79.1499 628.038 81.9856V82.0349C628.038 84.8953 625.72 86.8926 622.367 86.8926ZM622.367 103.192C618.471 103.192 615.734 100.923 615.734 97.7915V97.7422C615.734 94.5859 618.446 92.2927 622.367 92.2927C626.288 92.2927 628.975 94.5859 628.975 97.7422V97.7915C628.975 100.923 626.238 103.192 622.367 103.192ZM654.521 108.616C662.831 108.616 668.354 104.326 668.354 97.9641V97.9148C668.354 93.0818 664.902 90.0242 659.625 89.531V89.3831C663.793 88.52 667.048 85.635 667.048 81.1965V81.1472C667.048 75.5498 662.116 71.8018 654.447 71.8018C646.976 71.8018 641.97 75.8457 641.477 82.0103L641.452 82.3062H648.283L648.307 82.0842C648.603 79.3225 650.97 77.5225 654.447 77.5225C657.949 77.5225 659.995 79.2485 659.995 82.1335V82.1829C659.995 85.0679 657.579 87.0405 653.855 87.0405H649.885V92.342H653.954C658.245 92.342 660.784 94.2161 660.784 97.6189V97.6682C660.784 100.578 658.319 102.625 654.497 102.625C650.65 102.625 648.135 100.726 647.814 98.186L647.765 97.9148H640.663L640.688 98.2354C641.181 104.375 646.458 108.616 654.521 108.616Z" fill="#616165"/>
<rect x="0.000488281" y="146.125" width="315.625" height="157.812" fill="#333333"/>
<rect y="303.938" width="315.625" height="157.812" fill="#333333"/>
<path fill-rule="evenodd" clip-rule="evenodd" d="M284.062 303.938C284.062 373.663 227.538 430.188 157.812 430.188C88.0865 430.188 31.5625 373.663 31.5625 303.938H284.062Z" fill="#BB86FE"/>
<path fill-rule="evenodd" clip-rule="evenodd" d="M284.062 303.938C284.062 234.212 227.538 177.688 157.812 177.688C88.0865 177.688 31.5625 234.212 31.5625 303.938" fill="#BB86FE"/>
<path d="M2.95898 48H25.9651V41.8601H10.4058V12.4182H2.95898V48ZM33.5105 18.1636C35.6804 18.1636 37.3572 16.4622 37.3572 14.4155C37.3572 12.3689 35.6804 10.6675 33.5105 10.6675C31.3406 10.6675 29.6638 12.3689 29.6638 14.4155C29.6638 16.4622 31.3406 18.1636 33.5105 18.1636ZM29.9104 48H37.1106V21.5664H29.9104V48ZM41.9436 48H49.1438V32.8105C49.1438 29.3584 51.1904 26.9912 54.4207 26.9912C57.6509 26.9912 59.2783 28.9639 59.2783 32.416V48H66.4785V30.9365C66.4785 24.7473 63.1743 21.0239 57.355 21.0239C53.3604 21.0239 50.6479 22.8733 49.2917 25.9062H49.1438V21.5664H41.9436V48ZM83.0735 48.5425C90.6189 48.5425 94.2683 44.0793 95.082 40.1833L95.156 39.9121H88.5476L88.4983 40.0601C87.9805 41.5396 86.1804 43.167 83.2214 43.167C79.5474 43.167 77.2542 40.7012 77.1802 36.4846H95.3779V34.2654C95.3779 26.2761 90.5203 21.0239 82.7776 21.0239C75.0349 21.0239 70.0786 26.3994 70.0786 34.8079V34.8325C70.0786 43.2903 74.9856 48.5425 83.0735 48.5425ZM82.9009 26.3994C85.8845 26.3994 88.0298 28.2981 88.4736 31.9475H77.2542C77.7227 28.3721 79.9419 26.3994 82.9009 26.3994ZM2.51514 108H28.3816V102.082H12.2551V101.786L19.7019 94.9805C25.8418 89.3337 27.8884 86.5227 27.8884 82.2075V82.1582C27.8884 76.0923 22.7102 71.8018 15.1895 71.8018C7.6687 71.8018 2.09595 76.5115 2.09595 83.2185V83.4158H9.00024L9.0249 83.1938C9.12354 79.9883 11.5894 77.5964 15.2388 77.5964C18.395 77.5964 20.6143 79.6677 20.6389 82.5774V82.6267C20.6389 85.0925 19.6772 86.8433 15.0908 91.1338L2.51514 102.896V108ZM47.1958 108.616C55.1111 108.616 60.9058 103.438 60.9058 96.1641V96.1147C60.9058 89.457 56.196 84.5747 49.3164 84.5747C44.5081 84.5747 41.0066 86.9912 39.6011 90.2954H39.4531C39.4531 89.9255 39.4778 89.4324 39.5024 88.9392C39.7737 82.6514 42.0422 77.6951 47.2451 77.6951C50.1548 77.6951 52.1274 79.1499 53.0151 81.2952L53.0891 81.5171H60.4373L60.3879 81.2705C59.3276 75.7717 54.1494 71.8018 47.2698 71.8018C37.9983 71.8018 32.3516 78.8047 32.3516 90.468V90.5173C32.3516 102.575 38.6147 108.616 47.1958 108.616ZM40.5874 96.3367V96.2874C40.5874 92.6626 43.4478 90.0735 47.1711 90.0735C50.8699 90.0735 53.6562 92.6873 53.6562 96.386V96.4353C53.6562 99.9368 50.7219 102.698 47.0972 102.698C43.4478 102.698 40.5874 99.9121 40.5874 96.3367ZM80.1392 108.616C88.0544 108.616 93.8491 103.438 93.8491 96.1641V96.1147C93.8491 89.457 89.1394 84.5747 82.2598 84.5747C77.4514 84.5747 73.95 86.9912 72.5444 90.2954H72.3965C72.3965 89.9255 72.4211 89.4324 72.4458 88.9392C72.717 82.6514 74.9856 77.6951 80.1885 77.6951C83.0981 77.6951 85.0708 79.1499 85.9585 81.2952L86.0325 81.5171H93.3806L93.3313 81.2705C92.271 75.7717 87.0928 71.8018 80.2131 71.8018C70.9417 71.8018 65.2949 78.8047 65.2949 90.468V90.5173C65.2949 102.575 71.5581 108.616 80.1392 108.616ZM73.5308 96.3367V96.2874C73.5308 92.6626 76.3911 90.0735 80.1145 90.0735C83.8132 90.0735 86.5996 92.6873 86.5996 96.386V96.4353C86.5996 99.9368 83.6653 102.698 80.0405 102.698C76.3911 102.698 73.5308 99.9121 73.5308 96.3367ZM96.6848 115.422H101.666L105.291 101.786H98.4849L96.6848 115.422ZM131.034 71.8018C123.118 71.8018 117.324 76.9553 117.324 84.2295V84.2788C117.324 90.9612 122.033 95.8188 128.913 95.8188C133.721 95.8188 137.223 93.4023 138.628 90.0981H138.752C138.776 90.4927 138.752 90.9858 138.727 91.4543C138.456 97.7422 136.187 102.698 130.984 102.698C128.075 102.698 126.102 101.244 125.214 99.0984L125.14 98.9011H117.792L117.842 99.123C118.902 104.622 124.08 108.616 130.96 108.616C140.231 108.616 145.878 101.589 145.878 89.9255V89.8762C145.878 77.8184 139.615 71.8018 131.034 71.8018ZM131.058 90.3201C127.36 90.3201 124.573 87.731 124.573 84.0322V83.9829C124.573 80.4568 127.508 77.7197 131.132 77.7197C134.782 77.7197 137.642 80.4814 137.642 84.0815V84.1062C137.642 87.731 134.782 90.3201 131.058 90.3201ZM164.298 108.616C172.78 108.616 178.624 104.4 178.624 98.2847V98.2354C178.624 93.6243 175.197 90.2214 170.438 89.2844V89.1365C174.531 88.1255 177.342 85.1418 177.342 81.3445V81.2952C177.342 75.7964 171.966 71.8018 164.298 71.8018C156.604 71.8018 151.253 75.7964 151.253 81.2952V81.3445C151.253 85.1418 154.04 88.1255 158.158 89.1365V89.2844C153.374 90.2214 149.947 93.6243 149.947 98.2354V98.2847C149.947 104.4 155.815 108.616 164.298 108.616ZM164.298 86.8926C160.944 86.8926 158.602 84.8953 158.602 82.0349V81.9856C158.602 79.1499 160.969 77.1772 164.298 77.1772C167.626 77.1772 169.969 79.1499 169.969 81.9856V82.0349C169.969 84.8953 167.651 86.8926 164.298 86.8926ZM164.298 103.192C160.402 103.192 157.665 100.923 157.665 97.7915V97.7422C157.665 94.5859 160.377 92.2927 164.298 92.2927C168.218 92.2927 170.906 94.5859 170.906 97.7422V97.7915C170.906 100.923 168.169 103.192 164.298 103.192ZM181.262 115.422H186.243L189.868 101.786H183.062L181.262 115.422ZM203.899 108H211.715L226.56 78.4102V72.4182H201.112V78.3362H219.211V78.4841L203.899 108ZM244.905 108.616C252.821 108.616 258.615 103.438 258.615 96.1641V96.1147C258.615 89.457 253.906 84.5747 247.026 84.5747C242.218 84.5747 238.716 86.9912 237.311 90.2954H237.163C237.163 89.9255 237.187 89.4324 237.212 88.9392C237.483 82.6514 239.752 77.6951 244.955 77.6951C247.864 77.6951 249.837 79.1499 250.725 81.2952L250.799 81.5171H258.147L258.097 81.2705C257.037 75.7717 251.859 71.8018 244.979 71.8018C235.708 71.8018 230.061 78.8047 230.061 90.468V90.5173C230.061 102.575 236.324 108.616 244.905 108.616ZM238.297 96.3367V96.2874C238.297 92.6626 241.157 90.0735 244.881 90.0735C248.579 90.0735 251.366 92.6873 251.366 96.386V96.4353C251.366 99.9368 248.431 102.698 244.807 102.698C241.157 102.698 238.297 99.9121 238.297 96.3367Z" fill="#616165"/>
<rect x="819" y="147" width="315.625" height="157.812" fill="#333333"/>
<rect x="819" y="304.812" width="315.625" height="157.812" fill="#BB86FE"/>
<path fill-rule="evenodd" clip-rule="evenodd" d="M1103.06 304.812C1103.06 374.538 1046.54 431.062 976.812 431.062C907.087 431.062 850.562 374.538 850.562 304.812" fill="#FF9BAE"/>
<path fill-rule="evenodd" clip-rule="evenodd" d="M1103.06 304.813C1103.06 235.087 1046.54 178.562 976.812 178.562C907.087 178.562 850.562 235.087 850.562 304.813" fill="#FF9BAE"/>
<path d="M821.959 48H828.592V23.9336H828.789L838.406 48H843.091L852.683 23.9336H852.905V48H859.538V12.4182H850.932L840.823 37.9888H840.675L830.565 12.4182H821.959V48ZM872.163 48.4192C875.64 48.4192 878.451 46.7671 879.955 44.0547H880.103V48H887.303V29.8762C887.303 24.55 882.889 21.0239 876.059 21.0239C869.081 21.0239 864.889 24.5254 864.494 29.4077L864.47 29.7036H871.053L871.103 29.4817C871.448 27.7803 873.075 26.5227 875.763 26.5227C878.574 26.5227 880.103 27.9775 880.103 30.3201V31.9475L873.569 32.342C867.01 32.7612 863.286 35.5723 863.286 40.3806V40.4299C863.286 45.0903 866.862 48.4192 872.163 48.4192ZM870.412 40.0601V40.0107C870.412 38.1367 871.867 36.9531 874.654 36.7805L880.103 36.4353V38.334C880.103 41.0957 877.736 43.167 874.506 43.167C872.015 43.167 870.412 42.0081 870.412 40.0601ZM891.964 48H899.164V33.2051C899.164 29.3584 901.235 27.2378 904.786 27.2378C905.822 27.2378 906.808 27.3857 907.4 27.6323V21.2952C906.857 21.1472 906.117 21.0239 905.328 21.0239C902.246 21.0239 900.101 22.9226 899.312 26.1775H899.164V21.5664H891.964V48ZM921.233 48.5425C928.039 48.5425 932.798 45.1396 932.798 39.9614V39.9368C932.798 36.0408 930.529 33.8708 925.006 32.7119L920.518 31.7502C917.855 31.1831 916.942 30.2954 916.942 28.9392V28.9146C916.942 27.2131 918.496 26.1035 920.986 26.1035C923.649 26.1035 925.203 27.5337 925.449 29.4324L925.474 29.6296H932.107V29.3831C931.935 24.7473 928.014 21.0239 920.986 21.0239C914.255 21.0239 909.915 24.2788 909.915 29.3091V29.3337C909.915 33.2791 912.504 35.8435 917.633 36.9285L922.121 37.8655C924.71 38.4326 925.597 39.2463 925.597 40.6519V40.6765C925.597 42.3779 923.945 43.4382 921.233 43.4382C918.348 43.4382 916.794 42.23 916.326 40.1587L916.277 39.9368H909.249L909.274 40.1587C909.841 45.1643 913.909 48.5425 921.233 48.5425ZM834.757 108.616C843.066 108.616 848.59 104.326 848.59 97.9641V97.9148C848.59 93.0818 845.138 90.0242 839.861 89.531V89.3831C844.028 88.52 847.283 85.635 847.283 81.1965V81.1472C847.283 75.5498 842.351 71.8018 834.683 71.8018C827.211 71.8018 822.206 75.8457 821.712 82.0103L821.688 82.3062H828.518L828.543 82.0842C828.839 79.3225 831.206 77.5225 834.683 77.5225C838.184 77.5225 840.231 79.2485 840.231 82.1335V82.1829C840.231 85.0679 837.814 87.0405 834.091 87.0405H830.121V92.342H834.189C838.48 92.342 841.02 94.2161 841.02 97.6189V97.6682C841.02 100.578 838.554 102.625 834.732 102.625C830.885 102.625 828.37 100.726 828.05 98.186L828 97.9148H820.899L820.923 98.2354C821.417 104.375 826.693 108.616 834.757 108.616ZM870.289 108H877.366V101.466H882.051V95.5229H877.366V72.4182H866.862L852.584 95.2517V101.466H870.289V108ZM859.07 95.7202V95.5229L870.264 77.7937H870.437V95.7202H859.07ZM899.583 71.8018C891.668 71.8018 885.873 76.9553 885.873 84.2295V84.2788C885.873 90.9612 890.583 95.8188 897.462 95.8188C902.271 95.8188 905.772 93.4023 907.178 90.0981H907.301C907.326 90.4927 907.301 90.9858 907.276 91.4543C907.005 97.7422 904.737 102.698 899.534 102.698C896.624 102.698 894.651 101.244 893.764 99.0984L893.69 98.9011H886.342L886.391 99.123C887.451 104.622 892.629 108.616 899.509 108.616C908.781 108.616 914.427 101.589 914.427 89.9255V89.8762C914.427 77.8184 908.164 71.8018 899.583 71.8018ZM899.608 90.3201C895.909 90.3201 893.123 87.731 893.123 84.0322V83.9829C893.123 80.4568 896.057 77.7197 899.682 77.7197C903.331 77.7197 906.191 80.4814 906.191 84.0815V84.1062C906.191 87.731 903.331 90.3201 899.608 90.3201ZM916.178 115.422H921.159L924.784 101.786H917.978L916.178 115.422ZM945.866 108H953.239V72.4182H945.842L936.644 78.8047V85.4131L945.719 79.2485H945.866V108ZM975.284 108.616C984.309 108.616 989.783 101.54 989.783 90.2214V90.1721C989.783 78.854 984.309 71.8018 975.284 71.8018C966.259 71.8018 960.785 78.854 960.785 90.1721V90.2214C960.785 101.54 966.259 108.616 975.284 108.616ZM975.284 102.649C970.845 102.649 968.305 98.0381 968.305 90.2214V90.1721C968.305 82.3555 970.845 77.769 975.284 77.769C979.722 77.769 982.262 82.3555 982.262 90.1721V90.2214C982.262 98.0381 979.722 102.649 975.284 102.649ZM1008.42 108.616C1017.45 108.616 1022.92 101.54 1022.92 90.2214V90.1721C1022.92 78.854 1017.45 71.8018 1008.42 71.8018C999.399 71.8018 993.925 78.854 993.925 90.1721V90.2214C993.925 101.54 999.399 108.616 1008.42 108.616ZM1008.42 102.649C1003.99 102.649 1001.45 98.0381 1001.45 90.2214V90.1721C1001.45 82.3555 1003.99 77.769 1008.42 77.769C1012.86 77.769 1015.4 82.3555 1015.4 90.1721V90.2214C1015.4 98.0381 1012.86 102.649 1008.42 102.649ZM1024.72 115.422H1029.7L1033.33 101.786H1026.52L1024.72 115.422ZM1059.39 108.616C1067.88 108.616 1073.72 104.4 1073.72 98.2847V98.2354C1073.72 93.6243 1070.29 90.2214 1065.53 89.2844V89.1365C1069.63 88.1255 1072.44 85.1418 1072.44 81.3445V81.2952C1072.44 75.7964 1067.06 71.8018 1059.39 71.8018C1051.7 71.8018 1046.35 75.7964 1046.35 81.2952V81.3445C1046.35 85.1418 1049.14 88.1255 1053.25 89.1365V89.2844C1048.47 90.2214 1045.04 93.6243 1045.04 98.2354V98.2847C1045.04 104.4 1050.91 108.616 1059.39 108.616ZM1059.39 86.8926C1056.04 86.8926 1053.7 84.8953 1053.7 82.0349V81.9856C1053.7 79.1499 1056.06 77.1772 1059.39 77.1772C1062.72 77.1772 1065.06 79.1499 1065.06 81.9856V82.0349C1065.06 84.8953 1062.75 86.8926 1059.39 86.8926ZM1059.39 103.192C1055.5 103.192 1052.76 100.923 1052.76 97.7915V97.7422C1052.76 94.5859 1055.47 92.2927 1059.39 92.2927C1063.31 92.2927 1066 94.5859 1066 97.7422V97.7915C1066 100.923 1063.26 103.192 1059.39 103.192ZM1092.21 108.616C1101.24 108.616 1106.71 101.54 1106.71 90.2214V90.1721C1106.71 78.854 1101.24 71.8018 1092.21 71.8018C1083.19 71.8018 1077.71 78.854 1077.71 90.1721V90.2214C1077.71 101.54 1083.19 108.616 1092.21 108.616ZM1092.21 102.649C1087.77 102.649 1085.23 98.0381 1085.23 90.2214V90.1721C1085.23 82.3555 1087.77 77.769 1092.21 77.769C1096.65 77.769 1099.19 82.3555 1099.19 90.1721V90.2214C1099.19 98.0381 1096.65 102.649 1092.21 102.649Z" fill="#616165"/>
<rect x="1229" y="146" width="315.625" height="157.812" fill="#333333"/>
<rect x="1229" y="303.812" width="315.625" height="157.812" fill="#BB86FE"/>
<path fill-rule="evenodd" clip-rule="evenodd" d="M1513.06 303.812C1513.06 373.538 1456.54 430.062 1386.81 430.062C1317.09 430.062 1260.56 373.538 1260.56 303.812" fill="#FFF5A2"/>
<path fill-rule="evenodd" clip-rule="evenodd" d="M1513.06 303.813C1513.06 234.087 1456.54 177.562 1386.81 177.562C1317.09 177.562 1260.56 234.087 1260.56 303.813" fill="#FFF5A2"/>
<path d="M1244.95 48.6165C1253.93 48.6165 1259.3 44.2766 1259.3 37.4463V37.4216C1259.3 31.8242 1255.95 28.7913 1248.5 27.3118L1244.73 26.5474C1240.64 25.7336 1238.81 24.4268 1238.81 22.1829V22.1582C1238.81 19.6184 1241.11 17.8677 1244.93 17.843C1248.6 17.843 1251.17 19.5444 1251.54 22.3308L1251.56 22.6267H1258.59L1258.57 22.1582C1258.22 15.9197 1253.17 11.8018 1244.93 11.8018C1237.04 11.8018 1231.37 16.0923 1231.37 22.6021V22.6267C1231.37 27.9775 1234.92 31.3311 1241.95 32.7366L1245.69 33.4763C1250.11 34.3887 1251.86 35.5969 1251.86 38.0134V38.0381C1251.86 40.7505 1249.27 42.5505 1245.15 42.5505C1241.08 42.5505 1238.15 40.8245 1237.68 38.0627L1237.63 37.7915H1230.6L1230.63 38.186C1231.05 44.7451 1236.5 48.6165 1244.95 48.6165ZM1271.12 48.4192C1274.59 48.4192 1277.4 46.7671 1278.91 44.0547H1279.06V48H1286.26V29.8762C1286.26 24.55 1281.84 21.0239 1275.01 21.0239C1268.03 21.0239 1263.84 24.5254 1263.45 29.4077L1263.42 29.7036H1270.01L1270.06 29.4817C1270.4 27.7803 1272.03 26.5227 1274.72 26.5227C1277.53 26.5227 1279.06 27.9775 1279.06 30.3201V31.9475L1272.52 32.342C1265.96 32.7612 1262.24 35.5723 1262.24 40.3806V40.4299C1262.24 45.0903 1265.81 48.4192 1271.12 48.4192ZM1269.37 40.0601V40.0107C1269.37 38.1367 1270.82 36.9531 1273.61 36.7805L1279.06 36.4353V38.334C1279.06 41.0957 1276.69 43.167 1273.46 43.167C1270.97 43.167 1269.37 42.0081 1269.37 40.0601ZM1301.42 48.5425C1302.93 48.5425 1304.08 48.3945 1304.9 48.2712V42.9944C1304.45 43.0437 1303.99 43.1177 1303.34 43.1177C1301.17 43.1177 1300.06 42.2793 1300.06 39.8135V26.9912H1304.9V21.5664H1300.06V15.106H1292.79V21.5664H1289.12V26.9912H1292.79V40.6025C1292.79 46.2739 1295.55 48.5425 1301.42 48.5425ZM1317.87 48.5425C1321.86 48.5425 1324.58 46.6685 1325.93 43.6355H1326.08V48H1333.28V21.5664H1326.08V36.7559C1326.08 40.208 1324.03 42.5752 1320.8 42.5752C1317.57 42.5752 1315.94 40.5779 1315.94 37.1257V21.5664H1308.74V38.6299C1308.74 44.8191 1312.05 48.5425 1317.87 48.5425ZM1337.96 48H1345.16V33.2051C1345.16 29.3584 1347.24 27.2378 1350.79 27.2378C1351.82 27.2378 1352.81 27.3857 1353.4 27.6323V21.2952C1352.86 21.1472 1352.12 21.0239 1351.33 21.0239C1348.25 21.0239 1346.1 22.9226 1345.31 26.1775H1345.16V21.5664H1337.96V48ZM1356.36 48H1363.56V32.8105C1363.56 29.3584 1365.61 26.9912 1368.84 26.9912C1372.07 26.9912 1373.69 28.9639 1373.69 32.416V48H1380.89V30.9365C1380.89 24.7473 1377.59 21.0239 1371.77 21.0239C1367.78 21.0239 1365.06 22.8733 1363.71 25.9062H1363.56V21.5664H1356.36V48ZM1245.18 108.616C1253.31 108.616 1258.94 103.562 1258.94 96.1147V96.0654C1258.94 89.3584 1254.05 84.5007 1247.3 84.5007C1243.7 84.5007 1240.76 85.9556 1239.28 88.3474H1239.13L1240 78.3362H1256.79V72.4182H1234.08L1232.45 93.3037H1238.94C1239.36 92.564 1239.92 91.8735 1240.64 91.3311C1241.85 90.3694 1243.4 89.8269 1245.23 89.8269C1249.07 89.8269 1251.81 92.4653 1251.83 96.2134V96.2627C1251.83 100.06 1249.1 102.723 1245.2 102.723C1241.77 102.723 1239.28 100.652 1238.76 97.9641L1238.72 97.7915H1231.84L1231.86 98.1614C1232.3 104.104 1237.43 108.616 1245.18 108.616ZM1280.04 108H1287.12V101.466H1291.8V95.5229H1287.12V72.4182H1276.61L1262.34 95.2517V101.466H1280.04V108ZM1268.82 95.7202V95.5229L1280.02 77.7937H1280.19V95.7202H1268.82ZM1294.22 115.422H1299.2L1302.83 101.786H1296.02L1294.22 115.422ZM1328.57 71.8018C1320.65 71.8018 1314.86 76.9553 1314.86 84.2295V84.2788C1314.86 90.9612 1319.57 95.8188 1326.45 95.8188C1331.26 95.8188 1334.76 93.4023 1336.16 90.0981H1336.29C1336.31 90.4927 1336.29 90.9858 1336.26 91.4543C1335.99 97.7422 1333.72 102.698 1328.52 102.698C1325.61 102.698 1323.64 101.244 1322.75 99.0984L1322.68 98.9011H1315.33L1315.38 99.123C1316.44 104.622 1321.62 108.616 1328.5 108.616C1337.77 108.616 1343.41 101.589 1343.41 89.9255V89.8762C1343.41 77.8184 1337.15 71.8018 1328.57 71.8018ZM1328.59 90.3201C1324.9 90.3201 1322.11 87.731 1322.11 84.0322V83.9829C1322.11 80.4568 1325.04 77.7197 1328.67 77.7197C1332.32 77.7197 1335.18 80.4814 1335.18 84.0815V84.1062C1335.18 87.731 1332.32 90.3201 1328.59 90.3201ZM1361.51 71.8018C1353.6 71.8018 1347.8 76.9553 1347.8 84.2295V84.2788C1347.8 90.9612 1352.51 95.8188 1359.39 95.8188C1364.2 95.8188 1367.7 93.4023 1369.11 90.0981H1369.23C1369.26 90.4927 1369.23 90.9858 1369.21 91.4543C1368.94 97.7422 1366.67 102.698 1361.46 102.698C1358.55 102.698 1356.58 101.244 1355.69 99.0984L1355.62 98.9011H1348.27L1348.32 99.123C1349.38 104.622 1354.56 108.616 1361.44 108.616C1370.71 108.616 1376.36 101.589 1376.36 89.9255V89.8762C1376.36 77.8184 1370.09 71.8018 1361.51 71.8018ZM1361.54 90.3201C1357.84 90.3201 1355.05 87.731 1355.05 84.0322V83.9829C1355.05 80.4568 1357.99 77.7197 1361.61 77.7197C1365.26 77.7197 1368.12 80.4814 1368.12 84.0815V84.1062C1368.12 87.731 1365.26 90.3201 1361.54 90.3201ZM1378.11 115.422H1383.09L1386.71 101.786H1379.91L1378.11 115.422ZM1412.78 108.616C1421.26 108.616 1427.1 104.4 1427.1 98.2847V98.2354C1427.1 93.6243 1423.68 90.2214 1418.92 89.2844V89.1365C1423.01 88.1255 1425.82 85.1418 1425.82 81.3445V81.2952C1425.82 75.7964 1420.45 71.8018 1412.78 71.8018C1405.08 71.8018 1399.73 75.7964 1399.73 81.2952V81.3445C1399.73 85.1418 1402.52 88.1255 1406.64 89.1365V89.2844C1401.85 90.2214 1398.43 93.6243 1398.43 98.2354V98.2847C1398.43 104.4 1404.3 108.616 1412.78 108.616ZM1412.78 86.8926C1409.42 86.8926 1407.08 84.8953 1407.08 82.0349V81.9856C1407.08 79.1499 1409.45 77.1772 1412.78 77.1772C1416.11 77.1772 1418.45 79.1499 1418.45 81.9856V82.0349C1418.45 84.8953 1416.13 86.8926 1412.78 86.8926ZM1412.78 103.192C1408.88 103.192 1406.14 100.923 1406.14 97.7915V97.7422C1406.14 94.5859 1408.86 92.2927 1412.78 92.2927C1416.7 92.2927 1419.39 94.5859 1419.39 97.7422V97.7915C1419.39 100.923 1416.65 103.192 1412.78 103.192ZM1431.69 108H1457.56V102.082H1441.43V101.786L1448.88 94.9805C1455.02 89.3337 1457.06 86.5227 1457.06 82.2075V82.1582C1457.06 76.0923 1451.89 71.8018 1444.36 71.8018C1436.84 71.8018 1431.27 76.5115 1431.27 83.2185V83.4158H1438.18L1438.2 83.1938C1438.3 79.9883 1440.76 77.5964 1444.41 77.5964C1447.57 77.5964 1449.79 79.6677 1449.81 82.5774V82.6267C1449.81 85.0925 1448.85 86.8433 1444.27 91.1338L1431.69 102.896V108Z" fill="#616165"/>
<rect x="1639" y="147" width="315.625" height="157.812" fill="#333333"/>
<rect x="1639" y="304.812" width="315.625" height="157.812" fill="#BB86FE"/>
<path fill-rule="evenodd" clip-rule="evenodd" d="M1923.06 304.812C1923.06 374.538 1866.54 431.062 1796.81 431.062C1727.09 431.062 1670.56 374.538 1670.56 304.812" fill="#D8D5D6"/>
<path fill-rule="evenodd" clip-rule="evenodd" d="M1923.06 304.813C1923.06 235.087 1866.54 178.562 1796.81 178.562C1727.09 178.562 1670.56 235.087 1670.56 304.813" fill="#D8D5D6"/>
<path d="M1655.77 48.6165C1663.49 48.6165 1667.95 44.252 1667.95 36.7559V12.4182H1660.51V36.6819C1660.51 40.282 1658.83 42.1807 1655.7 42.1807C1652.76 42.1807 1651.14 40.2573 1651.01 37.4956L1650.99 37.3477H1643.76L1643.79 37.5696C1643.96 44.252 1648.42 48.6165 1655.77 48.6165ZM1682.55 48.5425C1686.55 48.5425 1689.26 46.6685 1690.61 43.6355H1690.76V48H1697.96V21.5664H1690.76V36.7559C1690.76 40.208 1688.72 42.5752 1685.49 42.5752C1682.26 42.5752 1680.63 40.5779 1680.63 37.1257V21.5664H1673.43V38.6299C1673.43 44.8191 1676.73 48.5425 1682.55 48.5425ZM1702.65 56.6304H1709.85V43.4875H1710C1711.43 46.6191 1714.41 48.5425 1718.18 48.5425C1724.79 48.5425 1728.88 43.3643 1728.88 34.7832V34.7585C1728.88 26.1528 1724.79 21.0239 1718.08 21.0239C1714.34 21.0239 1711.45 22.9719 1710.02 26.1775H1709.85V21.5664H1702.65V56.6304ZM1715.72 42.5752C1712.22 42.5752 1709.82 39.5669 1709.82 34.8079V34.7832C1709.82 29.9995 1712.22 26.9912 1715.72 26.9912C1719.29 26.9912 1721.56 29.9255 1721.56 34.7585V34.7832C1721.56 39.5916 1719.29 42.5752 1715.72 42.5752ZM1736.38 18.1636C1738.55 18.1636 1740.23 16.4622 1740.23 14.4155C1740.23 12.3689 1738.55 10.6675 1736.38 10.6675C1734.21 10.6675 1732.53 12.3689 1732.53 14.4155C1732.53 16.4622 1734.21 18.1636 1736.38 18.1636ZM1732.78 48H1739.98V21.5664H1732.78V48ZM1755.32 48.5425C1756.82 48.5425 1757.98 48.3945 1758.79 48.2712V42.9944C1758.35 43.0437 1757.88 43.1177 1757.24 43.1177C1755.07 43.1177 1753.96 42.2793 1753.96 39.8135V26.9912H1758.79V21.5664H1753.96V15.106H1746.69V21.5664H1743.01V26.9912H1746.69V40.6025C1746.69 46.2739 1749.45 48.5425 1755.32 48.5425ZM1774.4 48.5425C1781.95 48.5425 1785.6 44.0793 1786.41 40.1833L1786.49 39.9121H1779.88L1779.83 40.0601C1779.31 41.5396 1777.51 43.167 1774.55 43.167C1770.88 43.167 1768.58 40.7012 1768.51 36.4846H1786.71V34.2654C1786.71 26.2761 1781.85 21.0239 1774.11 21.0239C1766.36 21.0239 1761.41 26.3994 1761.41 34.8079V34.8325C1761.41 43.2903 1766.32 48.5425 1774.4 48.5425ZM1774.23 26.3994C1777.21 26.3994 1779.36 28.2981 1779.8 31.9475H1768.58C1769.05 28.3721 1771.27 26.3994 1774.23 26.3994ZM1790.43 48H1797.63V33.2051C1797.63 29.3584 1799.7 27.2378 1803.25 27.2378C1804.29 27.2378 1805.28 27.3857 1805.87 27.6323V21.2952C1805.32 21.1472 1804.59 21.0239 1803.8 21.0239C1800.71 21.0239 1798.57 22.9226 1797.78 26.1775H1797.63V21.5664H1790.43V48ZM1658.76 108.616C1667.07 108.616 1672.59 104.326 1672.59 97.9641V97.9148C1672.59 93.0818 1669.14 90.0242 1663.86 89.531V89.3831C1668.03 88.52 1671.28 85.635 1671.28 81.1965V81.1472C1671.28 75.5498 1666.35 71.8018 1658.68 71.8018C1651.21 71.8018 1646.21 75.8457 1645.71 82.0103L1645.69 82.3062H1652.52L1652.54 82.0842C1652.84 79.3225 1655.21 77.5225 1658.68 77.5225C1662.18 77.5225 1664.23 79.2485 1664.23 82.1335V82.1829C1664.23 85.0679 1661.81 87.0405 1658.09 87.0405H1654.12V92.342H1658.19C1662.48 92.342 1665.02 94.2161 1665.02 97.6189V97.6682C1665.02 100.578 1662.55 102.625 1658.73 102.625C1654.89 102.625 1652.37 100.726 1652.05 98.186L1652 97.9148H1644.9L1644.92 98.2354C1645.42 104.375 1650.69 108.616 1658.76 108.616ZM1694.29 108H1701.37V101.466H1706.05V95.5229H1701.37V72.4182H1690.86L1676.58 95.2517V101.466H1694.29V108ZM1683.07 95.7202V95.5229L1694.26 77.7937H1694.44V95.7202H1683.07ZM1723.68 108.616C1731.82 108.616 1737.44 103.562 1737.44 96.1147V96.0654C1737.44 89.3584 1732.56 84.5007 1725.8 84.5007C1722.2 84.5007 1719.27 85.9556 1717.79 88.3474H1717.64L1718.5 78.3362H1735.3V72.4182H1712.59L1710.96 93.3037H1717.44C1717.86 92.564 1718.43 91.8735 1719.14 91.3311C1720.35 90.3694 1721.91 89.8269 1723.73 89.8269C1727.58 89.8269 1730.31 92.4653 1730.34 96.2134V96.2627C1730.34 100.06 1727.6 102.723 1723.71 102.723C1720.28 102.723 1717.79 100.652 1717.27 97.9641L1717.22 97.7915H1710.34L1710.37 98.1614C1710.81 104.104 1715.94 108.616 1723.68 108.616ZM1739.78 115.422H1744.76L1748.39 101.786H1741.58L1739.78 115.422ZM1773.81 108.616C1782.12 108.616 1787.65 104.326 1787.65 97.9641V97.9148C1787.65 93.0818 1784.19 90.0242 1778.92 89.531V89.3831C1783.08 88.52 1786.34 85.635 1786.34 81.1965V81.1472C1786.34 75.5498 1781.41 71.8018 1773.74 71.8018C1766.27 71.8018 1761.26 75.8457 1760.77 82.0103L1760.74 82.3062H1767.57L1767.6 82.0842C1767.89 79.3225 1770.26 77.5225 1773.74 77.5225C1777.24 77.5225 1779.29 79.2485 1779.29 82.1335V82.1829C1779.29 85.0679 1776.87 87.0405 1773.15 87.0405H1769.18V92.342H1773.24C1777.54 92.342 1780.07 94.2161 1780.07 97.6189V97.6682C1780.07 100.578 1777.61 102.625 1773.79 102.625C1769.94 102.625 1767.43 100.726 1767.1 98.186L1767.06 97.9148H1759.95L1759.98 98.2354C1760.47 104.375 1765.75 108.616 1773.81 108.616ZM1790.43 115.422H1795.41L1799.04 101.786H1792.23L1790.43 115.422ZM1825.1 108.616C1833.58 108.616 1839.43 104.4 1839.43 98.2847V98.2354C1839.43 93.6243 1836 90.2214 1831.24 89.2844V89.1365C1835.33 88.1255 1838.15 85.1418 1838.15 81.3445V81.2952C1838.15 75.7964 1832.77 71.8018 1825.1 71.8018C1817.41 71.8018 1812.06 75.7964 1812.06 81.2952V81.3445C1812.06 85.1418 1814.84 88.1255 1818.96 89.1365V89.2844C1814.18 90.2214 1810.75 93.6243 1810.75 98.2354V98.2847C1810.75 104.4 1816.62 108.616 1825.1 108.616ZM1825.1 86.8926C1821.75 86.8926 1819.4 84.8953 1819.4 82.0349V81.9856C1819.4 79.1499 1821.77 77.1772 1825.1 77.1772C1828.43 77.1772 1830.77 79.1499 1830.77 81.9856V82.0349C1830.77 84.8953 1828.45 86.8926 1825.1 86.8926ZM1825.1 103.192C1821.2 103.192 1818.47 100.923 1818.47 97.7915V97.7422C1818.47 94.5859 1821.18 92.2927 1825.1 92.2927C1829.02 92.2927 1831.71 94.5859 1831.71 97.7422V97.7915C1831.71 100.923 1828.97 103.192 1825.1 103.192ZM1860.98 108H1868.06V101.466H1872.74V95.5229H1868.06V72.4182H1857.55L1843.27 95.2517V101.466H1860.98V108ZM1849.76 95.7202V95.5229L1860.95 77.7937H1861.13V95.7202H1849.76Z" fill="#616165"/>
<rect x="2459" y="147" width="315.625" height="157.812" fill="#333333"/>
<rect x="2459" y="304.812" width="315.625" height="157.812" fill="#BB86FE"/>
<path fill-rule="evenodd" clip-rule="evenodd" d="M2743.06 304.812C2743.06 374.538 2686.54 431.062 2616.81 431.062C2547.09 431.062 2490.56 374.538 2490.56 304.812" fill="#BEE2FE"/>
<path fill-rule="evenodd" clip-rule="evenodd" d="M2743.06 304.813C2743.06 235.087 2686.54 178.562 2616.81 178.562C2547.09 178.562 2490.56 235.087 2490.56 304.813" fill="#BEE2FE"/>
<path d="M2461.96 48H2469.38V24.698H2469.53L2485.66 48H2492.12V12.4182H2484.69V35.5476H2484.55L2468.47 12.4182H2461.96V48ZM2509.48 48.5425C2517.02 48.5425 2520.67 44.0793 2521.48 40.1833L2521.56 39.9121H2514.95L2514.9 40.0601C2514.38 41.5396 2512.58 43.167 2509.62 43.167C2505.95 43.167 2503.66 40.7012 2503.58 36.4846H2521.78V34.2654C2521.78 26.2761 2516.92 21.0239 2509.18 21.0239C2501.44 21.0239 2496.48 26.3994 2496.48 34.8079V34.8325C2496.48 43.2903 2501.39 48.5425 2509.48 48.5425ZM2509.3 26.3994C2512.29 26.3994 2514.43 28.2981 2514.88 31.9475H2503.66C2504.12 28.3721 2506.34 26.3994 2509.3 26.3994ZM2525.5 56.6304H2532.7V43.4875H2532.85C2534.28 46.6191 2537.27 48.5425 2541.04 48.5425C2547.65 48.5425 2551.74 43.3643 2551.74 34.7832V34.7585C2551.74 26.1528 2547.65 21.0239 2540.94 21.0239C2537.19 21.0239 2534.31 22.9719 2532.88 26.1775H2532.7V21.5664H2525.5V56.6304ZM2538.57 42.5752C2535.07 42.5752 2532.68 39.5669 2532.68 34.8079V34.7832C2532.68 29.9995 2535.07 26.9912 2538.57 26.9912C2542.15 26.9912 2544.42 29.9255 2544.42 34.7585V34.7832C2544.42 39.5916 2542.15 42.5752 2538.57 42.5752ZM2565.99 48.5425C2567.5 48.5425 2568.66 48.3945 2569.47 48.2712V42.9944C2569.02 43.0437 2568.56 43.1177 2567.92 43.1177C2565.75 43.1177 2564.64 42.2793 2564.64 39.8135V26.9912H2569.47V21.5664H2564.64V15.106H2557.36V21.5664H2553.69V26.9912H2557.36V40.6025C2557.36 46.2739 2560.12 48.5425 2565.99 48.5425ZM2582.44 48.5425C2586.43 48.5425 2589.15 46.6685 2590.5 43.6355H2590.65V48H2597.85V21.5664H2590.65V36.7559C2590.65 40.208 2588.6 42.5752 2585.37 42.5752C2582.14 42.5752 2580.52 40.5779 2580.52 37.1257V21.5664H2573.32V38.6299C2573.32 44.8191 2576.62 48.5425 2582.44 48.5425ZM2602.54 48H2609.74V32.8105C2609.74 29.3584 2611.78 26.9912 2615.01 26.9912C2618.24 26.9912 2619.87 28.9639 2619.87 32.416V48H2627.07V30.9365C2627.07 24.7473 2623.77 21.0239 2617.95 21.0239C2613.95 21.0239 2611.24 22.8733 2609.88 25.9062H2609.74V21.5664H2602.54V48ZM2643.67 48.5425C2651.21 48.5425 2654.86 44.0793 2655.67 40.1833L2655.75 39.9121H2649.14L2649.09 40.0601C2648.57 41.5396 2646.77 43.167 2643.81 43.167C2640.14 43.167 2637.85 40.7012 2637.77 36.4846H2655.97V34.2654C2655.97 26.2761 2651.11 21.0239 2643.37 21.0239C2635.63 21.0239 2630.67 26.3994 2630.67 34.8079V34.8325C2630.67 43.2903 2635.58 48.5425 2643.67 48.5425ZM2643.49 26.3994C2646.48 26.3994 2648.62 28.2981 2649.07 31.9475H2637.85C2638.31 28.3721 2640.53 26.3994 2643.49 26.3994ZM2461.52 108H2487.38V102.082H2471.26V101.786L2478.7 94.9805C2484.84 89.3337 2486.89 86.5227 2486.89 82.2075V82.1582C2486.89 76.0923 2481.71 71.8018 2474.19 71.8018C2466.67 71.8018 2461.1 76.5115 2461.1 83.2185V83.4158H2468L2468.02 83.1938C2468.12 79.9883 2470.59 77.5964 2474.24 77.5964C2477.4 77.5964 2479.61 79.6677 2479.64 82.5774V82.6267C2479.64 85.0925 2478.68 86.8433 2474.09 91.1338L2461.52 102.896V108ZM2505.9 108.616C2514.92 108.616 2520.4 101.54 2520.4 90.2214V90.1721C2520.4 78.854 2514.92 71.8018 2505.9 71.8018C2496.88 71.8018 2491.4 78.854 2491.4 90.1721V90.2214C2491.4 101.54 2496.88 108.616 2505.9 108.616ZM2505.9 102.649C2501.46 102.649 2498.92 98.0381 2498.92 90.2214V90.1721C2498.92 82.3555 2501.46 77.769 2505.9 77.769C2510.34 77.769 2512.88 82.3555 2512.88 90.1721V90.2214C2512.88 98.0381 2510.34 102.649 2505.9 102.649ZM2525.95 108H2533.76L2548.61 78.4102V72.4182H2523.16V78.3362H2541.26V78.4841L2525.95 108ZM2546.76 115.422H2551.74L2555.36 101.786H2548.56L2546.76 115.422ZM2581.11 71.8018C2573.19 71.8018 2567.4 76.9553 2567.4 84.2295V84.2788C2567.4 90.9612 2572.11 95.8188 2578.99 95.8188C2583.8 95.8188 2587.3 93.4023 2588.7 90.0981H2588.83C2588.85 90.4927 2588.83 90.9858 2588.8 91.4543C2588.53 97.7422 2586.26 102.698 2581.06 102.698C2578.15 102.698 2576.18 101.244 2575.29 99.0984L2575.21 98.9011H2567.87L2567.92 99.123C2568.98 104.622 2574.15 108.616 2581.03 108.616C2590.3 108.616 2595.95 101.589 2595.95 89.9255V89.8762C2595.95 77.8184 2589.69 71.8018 2581.11 71.8018ZM2581.13 90.3201C2577.43 90.3201 2574.65 87.731 2574.65 84.0322V83.9829C2574.65 80.4568 2577.58 77.7197 2581.21 77.7197C2584.86 77.7197 2587.72 80.4814 2587.72 84.0815V84.1062C2587.72 87.731 2584.86 90.3201 2581.13 90.3201ZM2601.45 108H2609.27L2624.11 78.4102V72.4182H2598.66V78.3362H2616.76V78.4841L2601.45 108ZM2622.26 115.422H2627.24L2630.87 101.786H2624.06L2622.26 115.422ZM2656.93 108.616C2665.41 108.616 2671.26 104.4 2671.26 98.2847V98.2354C2671.26 93.6243 2667.83 90.2214 2663.07 89.2844V89.1365C2667.16 88.1255 2669.98 85.1418 2669.98 81.3445V81.2952C2669.98 75.7964 2664.6 71.8018 2656.93 71.8018C2649.24 71.8018 2643.89 75.7964 2643.89 81.2952V81.3445C2643.89 85.1418 2646.67 88.1255 2650.79 89.1365V89.2844C2646.01 90.2214 2642.58 93.6243 2642.58 98.2354V98.2847C2642.58 104.4 2648.45 108.616 2656.93 108.616ZM2656.93 86.8926C2653.58 86.8926 2651.24 84.8953 2651.24 82.0349V81.9856C2651.24 79.1499 2653.6 77.1772 2656.93 77.1772C2660.26 77.1772 2662.6 79.1499 2662.6 81.9856V82.0349C2662.6 84.8953 2660.28 86.8926 2656.93 86.8926ZM2656.93 103.192C2653.04 103.192 2650.3 100.923 2650.3 97.7915V97.7422C2650.3 94.5859 2653.01 92.2927 2656.93 92.2927C2660.85 92.2927 2663.54 94.5859 2663.54 97.7422V97.7915C2663.54 100.923 2660.8 103.192 2656.93 103.192ZM2677.69 108H2685.51L2700.35 78.4102V72.4182H2674.91V78.3362H2693.01V78.4841L2677.69 108Z" fill="#616165"/>
<rect x="2049" y="147" width="315.625" height="157.812" fill="#333333"/>
<rect x="2049" y="304.812" width="315.625" height="157.812" fill="#BB86FE"/>
<path fill-rule="evenodd" clip-rule="evenodd" d="M2333.06 304.812C2333.06 374.538 2276.54 431.062 2206.81 431.062C2137.09 431.062 2080.56 374.538 2080.56 304.812" fill="#7EDCD9"/>
<path fill-rule="evenodd" clip-rule="evenodd" d="M2333.06 304.813C2333.06 235.087 2276.54 178.562 2206.81 178.562C2137.09 178.562 2080.56 235.087 2080.56 304.813" fill="#7EDCD9"/>
<path d="M2066.88 48.6165C2076.05 48.6165 2081.77 43.3149 2081.77 35.4243V12.4182H2074.32V34.7585C2074.32 39.3696 2071.66 42.304 2066.88 42.304C2062.09 42.304 2059.41 39.3696 2059.41 34.7585V12.4182H2051.96V35.4243C2051.96 43.3396 2057.75 48.6165 2066.88 48.6165ZM2087.1 48H2094.3V33.2051C2094.3 29.3584 2096.37 27.2378 2099.92 27.2378C2100.95 27.2378 2101.94 27.3857 2102.53 27.6323V21.2952C2101.99 21.1472 2101.25 21.0239 2100.46 21.0239C2097.38 21.0239 2095.23 22.9226 2094.45 26.1775H2094.3V21.5664H2087.1V48ZM2112.72 48.4192C2116.19 48.4192 2119 46.7671 2120.51 44.0547H2120.66V48H2127.86V29.8762C2127.86 24.55 2123.44 21.0239 2116.61 21.0239C2109.63 21.0239 2105.44 24.5254 2105.05 29.4077L2105.02 29.7036H2111.61L2111.66 29.4817C2112 27.7803 2113.63 26.5227 2116.32 26.5227C2119.13 26.5227 2120.66 27.9775 2120.66 30.3201V31.9475L2114.12 32.342C2107.56 32.7612 2103.84 35.5723 2103.84 40.3806V40.4299C2103.84 45.0903 2107.42 48.4192 2112.72 48.4192ZM2110.97 40.0601V40.0107C2110.97 38.1367 2112.42 36.9531 2115.21 36.7805L2120.66 36.4353V38.334C2120.66 41.0957 2118.29 43.167 2115.06 43.167C2112.57 43.167 2110.97 42.0081 2110.97 40.0601ZM2132.52 48H2139.72V32.8105C2139.72 29.3584 2141.76 26.9912 2144.99 26.9912C2148.22 26.9912 2149.85 28.9639 2149.85 32.416V48H2157.05V30.9365C2157.05 24.7473 2153.75 21.0239 2147.93 21.0239C2143.93 21.0239 2141.22 22.8733 2139.87 25.9062H2139.72V21.5664H2132.52V48ZM2170.61 48.5425C2174.61 48.5425 2177.32 46.6685 2178.68 43.6355H2178.83V48H2186.03V21.5664H2178.83V36.7559C2178.83 40.208 2176.78 42.5752 2173.55 42.5752C2170.32 42.5752 2168.69 40.5779 2168.69 37.1257V21.5664H2161.49V38.6299C2161.49 44.8191 2164.79 48.5425 2170.61 48.5425ZM2201.58 48.5425C2208.39 48.5425 2213.15 45.1396 2213.15 39.9614V39.9368C2213.15 36.0408 2210.88 33.8708 2205.36 32.7119L2200.87 31.7502C2198.21 31.1831 2197.29 30.2954 2197.29 28.9392V28.9146C2197.29 27.2131 2198.85 26.1035 2201.34 26.1035C2204 26.1035 2205.55 27.5337 2205.8 29.4324L2205.83 29.6296H2212.46V29.3831C2212.29 24.7473 2208.37 21.0239 2201.34 21.0239C2194.61 21.0239 2190.27 24.2788 2190.27 29.3091V29.3337C2190.27 33.2791 2192.86 35.8435 2197.98 36.9285L2202.47 37.8655C2205.06 38.4326 2205.95 39.2463 2205.95 40.6519V40.6765C2205.95 42.3779 2204.3 43.4382 2201.58 43.4382C2198.7 43.4382 2197.15 42.23 2196.68 40.1587L2196.63 39.9368H2189.6L2189.63 40.1587C2190.19 45.1643 2194.26 48.5425 2201.58 48.5425ZM2060.42 108H2067.79V72.4182H2060.39L2051.19 78.8047V85.4131L2060.27 79.2485H2060.42V108ZM2077.63 108H2085.44L2100.29 78.4102V72.4182H2074.84V78.3362H2092.94V78.4841L2077.63 108ZM2118.56 108.616C2127.04 108.616 2132.89 104.4 2132.89 98.2847V98.2354C2132.89 93.6243 2129.46 90.2214 2124.7 89.2844V89.1365C2128.79 88.1255 2131.6 85.1418 2131.6 81.3445V81.2952C2131.6 75.7964 2126.23 71.8018 2118.56 71.8018C2110.87 71.8018 2105.52 75.7964 2105.52 81.2952V81.3445C2105.52 85.1418 2108.3 88.1255 2112.42 89.1365V89.2844C2107.64 90.2214 2104.21 93.6243 2104.21 98.2354V98.2847C2104.21 104.4 2110.08 108.616 2118.56 108.616ZM2118.56 86.8926C2115.21 86.8926 2112.86 84.8953 2112.86 82.0349V81.9856C2112.86 79.1499 2115.23 77.1772 2118.56 77.1772C2121.89 77.1772 2124.23 79.1499 2124.23 81.9856V82.0349C2124.23 84.8953 2121.91 86.8926 2118.56 86.8926ZM2118.56 103.192C2114.66 103.192 2111.93 100.923 2111.93 97.7915V97.7422C2111.93 94.5859 2114.64 92.2927 2118.56 92.2927C2122.48 92.2927 2125.17 94.5859 2125.17 97.7422V97.7915C2125.17 100.923 2122.43 103.192 2118.56 103.192ZM2135.53 115.422H2140.51L2144.13 101.786H2137.33L2135.53 115.422ZM2169.97 108.616C2178.11 108.616 2183.73 103.562 2183.73 96.1147V96.0654C2183.73 89.3584 2178.85 84.5007 2172.09 84.5007C2168.49 84.5007 2165.56 85.9556 2164.08 88.3474H2163.93L2164.79 78.3362H2181.59V72.4182H2158.88L2157.25 93.3037H2163.73C2164.15 92.564 2164.72 91.8735 2165.44 91.3311C2166.64 90.3694 2168.2 89.8269 2170.02 89.8269C2173.87 89.8269 2176.61 92.4653 2176.63 96.2134V96.2627C2176.63 100.06 2173.89 102.723 2170 102.723C2166.57 102.723 2164.08 100.652 2163.56 97.9641L2163.51 97.7915H2156.63L2156.66 98.1614C2157.1 104.104 2162.23 108.616 2169.97 108.616ZM2189.72 108H2197.54L2212.39 78.4102V72.4182H2186.94V78.3362H2205.04V78.4841L2189.72 108ZM2210.54 115.422H2215.52L2219.14 101.786H2212.34L2210.54 115.422ZM2245.67 108.616C2253.59 108.616 2259.38 103.438 2259.38 96.1641V96.1147C2259.38 89.457 2254.67 84.5747 2247.79 84.5747C2242.99 84.5747 2239.48 86.9912 2238.08 90.2954H2237.93C2237.93 89.9255 2237.96 89.4324 2237.98 88.9392C2238.25 82.6514 2240.52 77.6951 2245.72 77.6951C2248.63 77.6951 2250.61 79.1499 2251.49 81.2952L2251.57 81.5171H2258.92L2258.87 81.2705C2257.81 75.7717 2252.63 71.8018 2245.75 71.8018C2236.48 71.8018 2230.83 78.8047 2230.83 90.468V90.5173C2230.83 102.575 2237.09 108.616 2245.67 108.616ZM2239.07 96.3367V96.2874C2239.07 92.6626 2241.93 90.0735 2245.65 90.0735C2249.35 90.0735 2252.13 92.6873 2252.13 96.386V96.4353C2252.13 99.9368 2249.2 102.698 2245.58 102.698C2241.93 102.698 2239.07 99.9121 2239.07 96.3367ZM2278.15 108.616C2286.63 108.616 2292.48 104.4 2292.48 98.2847V98.2354C2292.48 93.6243 2289.05 90.2214 2284.29 89.2844V89.1365C2288.38 88.1255 2291.19 85.1418 2291.19 81.3445V81.2952C2291.19 75.7964 2285.82 71.8018 2278.15 71.8018C2270.46 71.8018 2265.1 75.7964 2265.1 81.2952V81.3445C2265.1 85.1418 2267.89 88.1255 2272.01 89.1365V89.2844C2267.23 90.2214 2263.8 93.6243 2263.8 98.2354V98.2847C2263.8 104.4 2269.67 108.616 2278.15 108.616ZM2278.15 86.8926C2274.8 86.8926 2272.45 84.8953 2272.45 82.0349V81.9856C2272.45 79.1499 2274.82 77.1772 2278.15 77.1772C2281.48 77.1772 2283.82 79.1499 2283.82 81.9856V82.0349C2283.82 84.8953 2281.5 86.8926 2278.15 86.8926ZM2278.15 103.192C2274.25 103.192 2271.52 100.923 2271.52 97.7915V97.7422C2271.52 94.5859 2274.23 92.2927 2278.15 92.2927C2282.07 92.2927 2284.76 94.5859 2284.76 97.7422V97.7915C2284.76 100.923 2282.02 103.192 2278.15 103.192Z" fill="#616165"/>
</svg>
