<svg width="2775" height="463" viewBox="0 0 2775 463" fill="none" xmlns="http://www.w3.org/2000/svg">
<rect x="410" y="147" width="315.625" height="157.812" fill="#333333"/>
<rect x="410" y="304.812" width="315.625" height="157.812" fill="#BB86FE"/>
<path fill-rule="evenodd" clip-rule="evenodd" d="M441.562 304.812C441.562 374.538 498.087 431.062 567.813 431.062C637.538 431.062 694.063 374.538 694.063 304.812" fill="#667AFF"/>
<path fill-rule="evenodd" clip-rule="evenodd" d="M694.062 304.813C694.062 235.087 637.538 178.562 567.812 178.562C498.087 178.562 441.562 235.087 441.562 304.813" fill="#667AFF"/>
<path d="M413.438 48H437.011V41.8601H420.885V32.9092H436.099V27.0898H420.885V18.5581H437.011V12.4182H413.438V48ZM449.488 48.4192C452.965 48.4192 455.776 46.7671 457.28 44.0547H457.428V48H464.628V29.8762C464.628 24.55 460.215 21.0239 453.384 21.0239C446.406 21.0239 442.214 24.5254 441.82 29.4077L441.795 29.7036H448.379L448.428 29.4817C448.773 27.7803 450.401 26.5227 453.088 26.5227C455.899 26.5227 457.428 27.9775 457.428 30.3201V31.9475L450.894 32.342C444.335 32.7612 440.611 35.5723 440.611 40.3806V40.4299C440.611 45.0903 444.187 48.4192 449.488 48.4192ZM447.738 40.0601V40.0107C447.738 38.1367 449.192 36.9531 451.979 36.7805L457.428 36.4353V38.334C457.428 41.0957 455.061 43.167 451.831 43.167C449.34 43.167 447.738 42.0081 447.738 40.0601ZM469.289 48H476.489V33.2051C476.489 29.3584 478.56 27.2378 482.111 27.2378C483.147 27.2378 484.133 27.3857 484.725 27.6323V21.2952C484.182 21.1472 483.443 21.0239 482.654 21.0239C479.571 21.0239 477.426 22.9226 476.637 26.1775H476.489V21.5664H469.289V48ZM499.175 48.5425C500.679 48.5425 501.838 48.3945 502.651 48.2712V42.9944C502.208 43.0437 501.739 43.1177 501.098 43.1177C498.928 43.1177 497.818 42.2793 497.818 39.8135V26.9912H502.651V21.5664H497.818V15.106H490.544V21.5664H486.87V26.9912H490.544V40.6025C490.544 46.2739 493.306 48.5425 499.175 48.5425ZM506.794 48H513.994V32.8599C513.994 29.4077 516.041 26.9912 519.222 26.9912C522.501 26.9912 524.326 29.1858 524.326 32.8845V48H531.526V31.405C531.526 25.0186 527.975 21.0239 522.255 21.0239C518.285 21.0239 515.498 22.8486 514.142 26.1282H513.994V12.4182H506.794V48ZM412.994 108H438.861V102.082H422.734V101.786L430.181 94.9805C436.321 89.3337 438.367 86.5227 438.367 82.2075V82.1582C438.367 76.0923 433.189 71.8018 425.668 71.8018C418.148 71.8018 412.575 76.5115 412.575 83.2185V83.4158H419.479L419.504 83.1938C419.603 79.9883 422.068 77.5964 425.718 77.5964C428.874 77.5964 431.093 79.6677 431.118 82.5774V82.6267C431.118 85.0925 430.156 86.8433 425.57 91.1338L412.994 102.896V108ZM456.713 108.616C465.023 108.616 470.546 104.326 470.546 97.9641V97.9148C470.546 93.0818 467.094 90.0242 461.817 89.531V89.3831C465.985 88.52 469.24 85.635 469.24 81.1965V81.1472C469.24 75.5498 464.308 71.8018 456.639 71.8018C449.168 71.8018 444.162 75.8457 443.669 82.0103L443.644 82.3062H450.475L450.499 82.0842C450.795 79.3225 453.162 77.5225 456.639 77.5225C460.141 77.5225 462.187 79.2485 462.187 82.1335V82.1829C462.187 85.0679 459.771 87.0405 456.047 87.0405H452.077V92.342H456.146C460.437 92.342 462.976 94.2161 462.976 97.6189V97.6682C462.976 100.578 460.51 102.625 456.688 102.625C452.842 102.625 450.327 100.726 450.006 98.186L449.957 97.9148H442.855L442.88 98.2354C443.373 104.375 448.65 108.616 456.713 108.616ZM475.281 108H501.147V102.082H485.021V101.786L492.468 94.9805C498.607 89.3337 500.654 86.5227 500.654 82.2075V82.1582C500.654 76.0923 495.476 71.8018 487.955 71.8018C480.434 71.8018 474.862 76.5115 474.862 83.2185V83.4158H481.766L481.791 83.1938C481.889 79.9883 484.355 77.5964 488.004 77.5964C491.161 77.5964 493.38 79.6677 493.405 82.5774V82.6267C493.405 85.0925 492.443 86.8433 487.856 91.1338L475.281 102.896V108ZM504.205 115.422H509.186L512.811 101.786H506.005L504.205 115.422ZM533.893 108H541.266V72.4182H533.869L524.671 78.8047V85.4131L533.745 79.2485H533.893V108ZM563.311 108.616C572.335 108.616 577.81 101.54 577.81 90.2214V90.1721C577.81 78.854 572.335 71.8018 563.311 71.8018C554.286 71.8018 548.812 78.854 548.812 90.1721V90.2214C548.812 101.54 554.286 108.616 563.311 108.616ZM563.311 102.649C558.872 102.649 556.332 98.0381 556.332 90.2214V90.1721C556.332 82.3555 558.872 77.769 563.311 77.769C567.749 77.769 570.289 82.3555 570.289 90.1721V90.2214C570.289 98.0381 567.749 102.649 563.311 102.649ZM596.451 108.616C605.476 108.616 610.95 101.54 610.95 90.2214V90.1721C610.95 78.854 605.476 71.8018 596.451 71.8018C587.426 71.8018 581.952 78.854 581.952 90.1721V90.2214C581.952 101.54 587.426 108.616 596.451 108.616ZM596.451 102.649C592.013 102.649 589.473 98.0381 589.473 90.2214V90.1721C589.473 82.3555 592.013 77.769 596.451 77.769C600.89 77.769 603.429 82.3555 603.429 90.1721V90.2214C603.429 98.0381 600.89 102.649 596.451 102.649ZM612.75 115.422H617.731L621.356 101.786H614.55L612.75 115.422ZM635.386 108H643.203L658.047 78.4102V72.4182H632.6V78.3362H650.699V78.4841L635.386 108ZM676.097 108.616C685.122 108.616 690.596 101.54 690.596 90.2214V90.1721C690.596 78.854 685.122 71.8018 676.097 71.8018C667.072 71.8018 661.598 78.854 661.598 90.1721V90.2214C661.598 101.54 667.072 108.616 676.097 108.616ZM676.097 102.649C671.659 102.649 669.119 98.0381 669.119 90.2214V90.1721C669.119 82.3555 671.659 77.769 676.097 77.769C680.536 77.769 683.075 82.3555 683.075 90.1721V90.2214C683.075 98.0381 680.536 102.649 676.097 102.649Z" fill="#616165"/>
<rect x="0.000488281" y="146.125" width="315.625" height="157.812" fill="#333333"/>
<rect y="303.938" width="315.625" height="157.812" fill="#333333"/>
<path fill-rule="evenodd" clip-rule="evenodd" d="M284.062 303.938C284.062 373.663 227.538 430.188 157.812 430.188C88.0865 430.188 31.5625 373.663 31.5625 303.938H284.062Z" fill="#BB86FE"/>
<path fill-rule="evenodd" clip-rule="evenodd" d="M284.062 303.938C284.062 234.212 227.538 177.688 157.812 177.688C88.0865 177.688 31.5625 234.212 31.5625 303.938" fill="#BB86FE"/>
<path d="M2.95898 48H25.9651V41.8601H10.4058V12.4182H2.95898V48ZM33.5105 18.1636C35.6804 18.1636 37.3572 16.4622 37.3572 14.4155C37.3572 12.3689 35.6804 10.6675 33.5105 10.6675C31.3406 10.6675 29.6638 12.3689 29.6638 14.4155C29.6638 16.4622 31.3406 18.1636 33.5105 18.1636ZM29.9104 48H37.1106V21.5664H29.9104V48ZM41.9436 48H49.1438V32.8105C49.1438 29.3584 51.1904 26.9912 54.4207 26.9912C57.6509 26.9912 59.2783 28.9639 59.2783 32.416V48H66.4785V30.9365C66.4785 24.7473 63.1743 21.0239 57.355 21.0239C53.3604 21.0239 50.6479 22.8733 49.2917 25.9062H49.1438V21.5664H41.9436V48ZM83.0735 48.5425C90.6189 48.5425 94.2683 44.0793 95.082 40.1833L95.156 39.9121H88.5476L88.4983 40.0601C87.9805 41.5396 86.1804 43.167 83.2214 43.167C79.5474 43.167 77.2542 40.7012 77.1802 36.4846H95.3779V34.2654C95.3779 26.2761 90.5203 21.0239 82.7776 21.0239C75.0349 21.0239 70.0786 26.3994 70.0786 34.8079V34.8325C70.0786 43.2903 74.9856 48.5425 83.0735 48.5425ZM82.9009 26.3994C85.8845 26.3994 88.0298 28.2981 88.4736 31.9475H77.2542C77.7227 28.3721 79.9419 26.3994 82.9009 26.3994ZM2.51514 108H28.3816V102.082H12.2551V101.786L19.7019 94.9805C25.8418 89.3337 27.8884 86.5227 27.8884 82.2075V82.1582C27.8884 76.0923 22.7102 71.8018 15.1895 71.8018C7.6687 71.8018 2.09595 76.5115 2.09595 83.2185V83.4158H9.00024L9.0249 83.1938C9.12354 79.9883 11.5894 77.5964 15.2388 77.5964C18.395 77.5964 20.6143 79.6677 20.6389 82.5774V82.6267C20.6389 85.0925 19.6772 86.8433 15.0908 91.1338L2.51514 102.896V108ZM47.1958 108.616C55.1111 108.616 60.9058 103.438 60.9058 96.1641V96.1147C60.9058 89.457 56.196 84.5747 49.3164 84.5747C44.5081 84.5747 41.0066 86.9912 39.6011 90.2954H39.4531C39.4531 89.9255 39.4778 89.4324 39.5024 88.9392C39.7737 82.6514 42.0422 77.6951 47.2451 77.6951C50.1548 77.6951 52.1274 79.1499 53.0151 81.2952L53.0891 81.5171H60.4373L60.3879 81.2705C59.3276 75.7717 54.1494 71.8018 47.2698 71.8018C37.9983 71.8018 32.3516 78.8047 32.3516 90.468V90.5173C32.3516 102.575 38.6147 108.616 47.1958 108.616ZM40.5874 96.3367V96.2874C40.5874 92.6626 43.4478 90.0735 47.1711 90.0735C50.8699 90.0735 53.6562 92.6873 53.6562 96.386V96.4353C53.6562 99.9368 50.7219 102.698 47.0972 102.698C43.4478 102.698 40.5874 99.9121 40.5874 96.3367ZM80.1392 108.616C88.0544 108.616 93.8491 103.438 93.8491 96.1641V96.1147C93.8491 89.457 89.1394 84.5747 82.2598 84.5747C77.4514 84.5747 73.95 86.9912 72.5444 90.2954H72.3965C72.3965 89.9255 72.4211 89.4324 72.4458 88.9392C72.717 82.6514 74.9856 77.6951 80.1885 77.6951C83.0981 77.6951 85.0708 79.1499 85.9585 81.2952L86.0325 81.5171H93.3806L93.3313 81.2705C92.271 75.7717 87.0928 71.8018 80.2131 71.8018C70.9417 71.8018 65.2949 78.8047 65.2949 90.468V90.5173C65.2949 102.575 71.5581 108.616 80.1392 108.616ZM73.5308 96.3367V96.2874C73.5308 92.6626 76.3911 90.0735 80.1145 90.0735C83.8132 90.0735 86.5996 92.6873 86.5996 96.386V96.4353C86.5996 99.9368 83.6653 102.698 80.0405 102.698C76.3911 102.698 73.5308 99.9121 73.5308 96.3367ZM96.6848 115.422H101.666L105.291 101.786H98.4849L96.6848 115.422ZM131.034 71.8018C123.118 71.8018 117.324 76.9553 117.324 84.2295V84.2788C117.324 90.9612 122.033 95.8188 128.913 95.8188C133.721 95.8188 137.223 93.4023 138.628 90.0981H138.752C138.776 90.4927 138.752 90.9858 138.727 91.4543C138.456 97.7422 136.187 102.698 130.984 102.698C128.075 102.698 126.102 101.244 125.214 99.0984L125.14 98.9011H117.792L117.842 99.123C118.902 104.622 124.08 108.616 130.96 108.616C140.231 108.616 145.878 101.589 145.878 89.9255V89.8762C145.878 77.8184 139.615 71.8018 131.034 71.8018ZM131.058 90.3201C127.36 90.3201 124.573 87.731 124.573 84.0322V83.9829C124.573 80.4568 127.508 77.7197 131.132 77.7197C134.782 77.7197 137.642 80.4814 137.642 84.0815V84.1062C137.642 87.731 134.782 90.3201 131.058 90.3201ZM164.298 108.616C172.78 108.616 178.624 104.4 178.624 98.2847V98.2354C178.624 93.6243 175.197 90.2214 170.438 89.2844V89.1365C174.531 88.1255 177.342 85.1418 177.342 81.3445V81.2952C177.342 75.7964 171.966 71.8018 164.298 71.8018C156.604 71.8018 151.253 75.7964 151.253 81.2952V81.3445C151.253 85.1418 154.04 88.1255 158.158 89.1365V89.2844C153.374 90.2214 149.947 93.6243 149.947 98.2354V98.2847C149.947 104.4 155.815 108.616 164.298 108.616ZM164.298 86.8926C160.944 86.8926 158.602 84.8953 158.602 82.0349V81.9856C158.602 79.1499 160.969 77.1772 164.298 77.1772C167.626 77.1772 169.969 79.1499 169.969 81.9856V82.0349C169.969 84.8953 167.651 86.8926 164.298 86.8926ZM164.298 103.192C160.402 103.192 157.665 100.923 157.665 97.7915V97.7422C157.665 94.5859 160.377 92.2927 164.298 92.2927C168.218 92.2927 170.906 94.5859 170.906 97.7422V97.7915C170.906 100.923 168.169 103.192 164.298 103.192ZM181.262 115.422H186.243L189.868 101.786H183.062L181.262 115.422ZM203.899 108H211.715L226.56 78.4102V72.4182H201.112V78.3362H219.211V78.4841L203.899 108ZM244.905 108.616C252.821 108.616 258.615 103.438 258.615 96.1641V96.1147C258.615 89.457 253.906 84.5747 247.026 84.5747C242.218 84.5747 238.716 86.9912 237.311 90.2954H237.163C237.163 89.9255 237.187 89.4324 237.212 88.9392C237.483 82.6514 239.752 77.6951 244.955 77.6951C247.864 77.6951 249.837 79.1499 250.725 81.2952L250.799 81.5171H258.147L258.097 81.2705C257.037 75.7717 251.859 71.8018 244.979 71.8018C235.708 71.8018 230.061 78.8047 230.061 90.468V90.5173C230.061 102.575 236.324 108.616 244.905 108.616ZM238.297 96.3367V96.2874C238.297 92.6626 241.157 90.0735 244.881 90.0735C248.579 90.0735 251.366 92.6873 251.366 96.386V96.4353C251.366 99.9368 248.431 102.698 244.807 102.698C241.157 102.698 238.297 99.9121 238.297 96.3367Z" fill="#616165"/>
<rect x="819" y="147" width="315.625" height="157.812" fill="#333333"/>
<rect x="819" y="304.812" width="315.625" height="157.812" fill="#BB86FE"/>
<path fill-rule="evenodd" clip-rule="evenodd" d="M1103.06 304.812C1103.06 374.538 1046.54 431.062 976.812 431.062C907.087 431.062 850.562 374.538 850.562 304.812" fill="#FF5C5C"/>
<path fill-rule="evenodd" clip-rule="evenodd" d="M1103.06 304.813C1103.06 235.087 1046.54 178.562 976.812 178.562C907.087 178.562 850.562 235.087 850.562 304.813" fill="#FF5C5C"/>
<path d="M821.959 48H828.592V23.9336H828.789L838.406 48H843.091L852.683 23.9336H852.905V48H859.538V12.4182H850.932L840.823 37.9888H840.675L830.565 12.4182H821.959V48ZM872.163 48.4192C875.64 48.4192 878.451 46.7671 879.955 44.0547H880.103V48H887.303V29.8762C887.303 24.55 882.889 21.0239 876.059 21.0239C869.081 21.0239 864.889 24.5254 864.494 29.4077L864.47 29.7036H871.053L871.103 29.4817C871.448 27.7803 873.075 26.5227 875.763 26.5227C878.574 26.5227 880.103 27.9775 880.103 30.3201V31.9475L873.569 32.342C867.01 32.7612 863.286 35.5723 863.286 40.3806V40.4299C863.286 45.0903 866.862 48.4192 872.163 48.4192ZM870.412 40.0601V40.0107C870.412 38.1367 871.867 36.9531 874.654 36.7805L880.103 36.4353V38.334C880.103 41.0957 877.736 43.167 874.506 43.167C872.015 43.167 870.412 42.0081 870.412 40.0601ZM891.964 48H899.164V33.2051C899.164 29.3584 901.235 27.2378 904.786 27.2378C905.822 27.2378 906.808 27.3857 907.4 27.6323V21.2952C906.857 21.1472 906.117 21.0239 905.328 21.0239C902.246 21.0239 900.101 22.9226 899.312 26.1775H899.164V21.5664H891.964V48ZM921.233 48.5425C928.039 48.5425 932.798 45.1396 932.798 39.9614V39.9368C932.798 36.0408 930.529 33.8708 925.006 32.7119L920.518 31.7502C917.855 31.1831 916.942 30.2954 916.942 28.9392V28.9146C916.942 27.2131 918.496 26.1035 920.986 26.1035C923.649 26.1035 925.203 27.5337 925.449 29.4324L925.474 29.6296H932.107V29.3831C931.935 24.7473 928.014 21.0239 920.986 21.0239C914.255 21.0239 909.915 24.2788 909.915 29.3091V29.3337C909.915 33.2791 912.504 35.8435 917.633 36.9285L922.121 37.8655C924.71 38.4326 925.597 39.2463 925.597 40.6519V40.6765C925.597 42.3779 923.945 43.4382 921.233 43.4382C918.348 43.4382 916.794 42.23 916.326 40.1587L916.277 39.9368H909.249L909.274 40.1587C909.841 45.1643 913.909 48.5425 921.233 48.5425ZM835.57 108.616C844.595 108.616 850.069 101.54 850.069 90.2214V90.1721C850.069 78.854 844.595 71.8018 835.57 71.8018C826.545 71.8018 821.071 78.854 821.071 90.1721V90.2214C821.071 101.54 826.545 108.616 835.57 108.616ZM835.57 102.649C831.132 102.649 828.592 98.0381 828.592 90.2214V90.1721C828.592 82.3555 831.132 77.769 835.57 77.769C840.009 77.769 842.549 82.3555 842.549 90.1721V90.2214C842.549 98.0381 840.009 102.649 835.57 102.649ZM851.869 115.422H856.85L860.475 101.786H853.669L851.869 115.422ZM881.558 108H888.931V72.4182H881.533L872.336 78.8047V85.4131L881.41 79.2485H881.558V108ZM910.975 108.616C920 108.616 925.474 101.54 925.474 90.2214V90.1721C925.474 78.854 920 71.8018 910.975 71.8018C901.95 71.8018 896.476 78.854 896.476 90.1721V90.2214C896.476 101.54 901.95 108.616 910.975 108.616ZM910.975 102.649C906.537 102.649 903.997 98.0381 903.997 90.2214V90.1721C903.997 82.3555 906.537 77.769 910.975 77.769C915.414 77.769 917.953 82.3555 917.953 90.1721V90.2214C917.953 98.0381 915.414 102.649 910.975 102.649ZM944.116 108.616C953.141 108.616 958.615 101.54 958.615 90.2214V90.1721C958.615 78.854 953.141 71.8018 944.116 71.8018C935.091 71.8018 929.617 78.854 929.617 90.1721V90.2214C929.617 101.54 935.091 108.616 944.116 108.616ZM944.116 102.649C939.677 102.649 937.137 98.0381 937.137 90.2214V90.1721C937.137 82.3555 939.677 77.769 944.116 77.769C948.554 77.769 951.094 82.3555 951.094 90.1721V90.2214C951.094 98.0381 948.554 102.649 944.116 102.649ZM960.415 115.422H965.396L969.021 101.786H962.215L960.415 115.422ZM995.553 108.616C1003.47 108.616 1009.26 103.438 1009.26 96.1641V96.1147C1009.26 89.457 1004.55 84.5747 997.673 84.5747C992.865 84.5747 989.364 86.9912 987.958 90.2954H987.81C987.81 89.9255 987.835 89.4324 987.859 88.9392C988.131 82.6514 990.399 77.6951 995.602 77.6951C998.512 77.6951 1000.48 79.1499 1001.37 81.2952L1001.45 81.5171H1008.79L1008.74 81.2705C1007.68 75.7717 1002.51 71.8018 995.627 71.8018C986.355 71.8018 980.708 78.8047 980.708 90.468V90.5173C980.708 102.575 986.972 108.616 995.553 108.616ZM988.944 96.3367V96.2874C988.944 92.6626 991.805 90.0735 995.528 90.0735C999.227 90.0735 1002.01 92.6873 1002.01 96.386V96.4353C1002.01 99.9368 999.079 102.698 995.454 102.698C991.805 102.698 988.944 99.9121 988.944 96.3367ZM1028.03 108.616C1036.51 108.616 1042.35 104.4 1042.35 98.2847V98.2354C1042.35 93.6243 1038.93 90.2214 1034.17 89.2844V89.1365C1038.26 88.1255 1041.07 85.1418 1041.07 81.3445V81.2952C1041.07 75.7964 1035.7 71.8018 1028.03 71.8018C1020.33 71.8018 1014.98 75.7964 1014.98 81.2952V81.3445C1014.98 85.1418 1017.77 88.1255 1021.89 89.1365V89.2844C1017.1 90.2214 1013.68 93.6243 1013.68 98.2354V98.2847C1013.68 104.4 1019.55 108.616 1028.03 108.616ZM1028.03 86.8926C1024.67 86.8926 1022.33 84.8953 1022.33 82.0349V81.9856C1022.33 79.1499 1024.7 77.1772 1028.03 77.1772C1031.36 77.1772 1033.7 79.1499 1033.7 81.9856V82.0349C1033.7 84.8953 1031.38 86.8926 1028.03 86.8926ZM1028.03 103.192C1024.13 103.192 1021.39 100.923 1021.39 97.7915V97.7422C1021.39 94.5859 1024.11 92.2927 1028.03 92.2927C1031.95 92.2927 1034.64 94.5859 1034.64 97.7422V97.7915C1034.64 100.923 1031.9 103.192 1028.03 103.192Z" fill="#616165"/>
<rect x="1229" y="146" width="315.625" height="157.812" fill="#333333"/>
<rect x="1229" y="303.812" width="315.625" height="157.812" fill="#BB86FE"/>
<path fill-rule="evenodd" clip-rule="evenodd" d="M1513.06 303.812C1513.06 373.538 1456.54 430.062 1386.81 430.062C1317.09 430.062 1260.56 373.538 1260.56 303.812" fill="#FFF5A2"/>
<path fill-rule="evenodd" clip-rule="evenodd" d="M1513.06 303.813C1513.06 234.087 1456.54 177.562 1386.81 177.562C1317.09 177.562 1260.56 234.087 1260.56 303.813" fill="#FFF5A2"/>
<path d="M1244.95 48.6165C1253.93 48.6165 1259.3 44.2766 1259.3 37.4463V37.4216C1259.3 31.8242 1255.95 28.7913 1248.5 27.3118L1244.73 26.5474C1240.64 25.7336 1238.81 24.4268 1238.81 22.1829V22.1582C1238.81 19.6184 1241.11 17.8677 1244.93 17.843C1248.6 17.843 1251.17 19.5444 1251.54 22.3308L1251.56 22.6267H1258.59L1258.57 22.1582C1258.22 15.9197 1253.17 11.8018 1244.93 11.8018C1237.04 11.8018 1231.37 16.0923 1231.37 22.6021V22.6267C1231.37 27.9775 1234.92 31.3311 1241.95 32.7366L1245.69 33.4763C1250.11 34.3887 1251.86 35.5969 1251.86 38.0134V38.0381C1251.86 40.7505 1249.27 42.5505 1245.15 42.5505C1241.08 42.5505 1238.15 40.8245 1237.68 38.0627L1237.63 37.7915H1230.6L1230.63 38.186C1231.05 44.7451 1236.5 48.6165 1244.95 48.6165ZM1271.12 48.4192C1274.59 48.4192 1277.4 46.7671 1278.91 44.0547H1279.06V48H1286.26V29.8762C1286.26 24.55 1281.84 21.0239 1275.01 21.0239C1268.03 21.0239 1263.84 24.5254 1263.45 29.4077L1263.42 29.7036H1270.01L1270.06 29.4817C1270.4 27.7803 1272.03 26.5227 1274.72 26.5227C1277.53 26.5227 1279.06 27.9775 1279.06 30.3201V31.9475L1272.52 32.342C1265.96 32.7612 1262.24 35.5723 1262.24 40.3806V40.4299C1262.24 45.0903 1265.81 48.4192 1271.12 48.4192ZM1269.37 40.0601V40.0107C1269.37 38.1367 1270.82 36.9531 1273.61 36.7805L1279.06 36.4353V38.334C1279.06 41.0957 1276.69 43.167 1273.46 43.167C1270.97 43.167 1269.37 42.0081 1269.37 40.0601ZM1301.42 48.5425C1302.93 48.5425 1304.08 48.3945 1304.9 48.2712V42.9944C1304.45 43.0437 1303.99 43.1177 1303.34 43.1177C1301.17 43.1177 1300.06 42.2793 1300.06 39.8135V26.9912H1304.9V21.5664H1300.06V15.106H1292.79V21.5664H1289.12V26.9912H1292.79V40.6025C1292.79 46.2739 1295.55 48.5425 1301.42 48.5425ZM1317.87 48.5425C1321.86 48.5425 1324.58 46.6685 1325.93 43.6355H1326.08V48H1333.28V21.5664H1326.08V36.7559C1326.08 40.208 1324.03 42.5752 1320.8 42.5752C1317.57 42.5752 1315.94 40.5779 1315.94 37.1257V21.5664H1308.74V38.6299C1308.74 44.8191 1312.05 48.5425 1317.87 48.5425ZM1337.96 48H1345.16V33.2051C1345.16 29.3584 1347.24 27.2378 1350.79 27.2378C1351.82 27.2378 1352.81 27.3857 1353.4 27.6323V21.2952C1352.86 21.1472 1352.12 21.0239 1351.33 21.0239C1348.25 21.0239 1346.1 22.9226 1345.31 26.1775H1345.16V21.5664H1337.96V48ZM1356.36 48H1363.56V32.8105C1363.56 29.3584 1365.61 26.9912 1368.84 26.9912C1372.07 26.9912 1373.69 28.9639 1373.69 32.416V48H1380.89V30.9365C1380.89 24.7473 1377.59 21.0239 1371.77 21.0239C1367.78 21.0239 1365.06 22.8733 1363.71 25.9062H1363.56V21.5664H1356.36V48ZM1245.18 108.616C1253.31 108.616 1258.94 103.562 1258.94 96.1147V96.0654C1258.94 89.3584 1254.05 84.5007 1247.3 84.5007C1243.7 84.5007 1240.76 85.9556 1239.28 88.3474H1239.13L1240 78.3362H1256.79V72.4182H1234.08L1232.45 93.3037H1238.94C1239.36 92.564 1239.92 91.8735 1240.64 91.3311C1241.85 90.3694 1243.4 89.8269 1245.23 89.8269C1249.07 89.8269 1251.81 92.4653 1251.83 96.2134V96.2627C1251.83 100.06 1249.1 102.723 1245.2 102.723C1241.77 102.723 1239.28 100.652 1238.76 97.9641L1238.72 97.7915H1231.84L1231.86 98.1614C1232.3 104.104 1237.43 108.616 1245.18 108.616ZM1280.04 108H1287.12V101.466H1291.8V95.5229H1287.12V72.4182H1276.61L1262.34 95.2517V101.466H1280.04V108ZM1268.82 95.7202V95.5229L1280.02 77.7937H1280.19V95.7202H1268.82ZM1294.22 115.422H1299.2L1302.83 101.786H1296.02L1294.22 115.422ZM1328.57 71.8018C1320.65 71.8018 1314.86 76.9553 1314.86 84.2295V84.2788C1314.86 90.9612 1319.57 95.8188 1326.45 95.8188C1331.26 95.8188 1334.76 93.4023 1336.16 90.0981H1336.29C1336.31 90.4927 1336.29 90.9858 1336.26 91.4543C1335.99 97.7422 1333.72 102.698 1328.52 102.698C1325.61 102.698 1323.64 101.244 1322.75 99.0984L1322.68 98.9011H1315.33L1315.38 99.123C1316.44 104.622 1321.62 108.616 1328.5 108.616C1337.77 108.616 1343.41 101.589 1343.41 89.9255V89.8762C1343.41 77.8184 1337.15 71.8018 1328.57 71.8018ZM1328.59 90.3201C1324.9 90.3201 1322.11 87.731 1322.11 84.0322V83.9829C1322.11 80.4568 1325.04 77.7197 1328.67 77.7197C1332.32 77.7197 1335.18 80.4814 1335.18 84.0815V84.1062C1335.18 87.731 1332.32 90.3201 1328.59 90.3201ZM1361.51 71.8018C1353.6 71.8018 1347.8 76.9553 1347.8 84.2295V84.2788C1347.8 90.9612 1352.51 95.8188 1359.39 95.8188C1364.2 95.8188 1367.7 93.4023 1369.11 90.0981H1369.23C1369.26 90.4927 1369.23 90.9858 1369.21 91.4543C1368.94 97.7422 1366.67 102.698 1361.46 102.698C1358.55 102.698 1356.58 101.244 1355.69 99.0984L1355.62 98.9011H1348.27L1348.32 99.123C1349.38 104.622 1354.56 108.616 1361.44 108.616C1370.71 108.616 1376.36 101.589 1376.36 89.9255V89.8762C1376.36 77.8184 1370.09 71.8018 1361.51 71.8018ZM1361.54 90.3201C1357.84 90.3201 1355.05 87.731 1355.05 84.0322V83.9829C1355.05 80.4568 1357.99 77.7197 1361.61 77.7197C1365.26 77.7197 1368.12 80.4814 1368.12 84.0815V84.1062C1368.12 87.731 1365.26 90.3201 1361.54 90.3201ZM1378.11 115.422H1383.09L1386.71 101.786H1379.91L1378.11 115.422ZM1410.76 108H1418.57L1433.42 78.4102V72.4182H1407.97V78.3362H1426.07V78.4841L1410.76 108ZM1452.06 108H1459.14V101.466H1463.82V95.5229H1459.14V72.4182H1448.63L1434.35 95.2517V101.466H1452.06V108ZM1440.84 95.7202V95.5229L1452.03 77.7937H1452.21V95.7202H1440.84Z" fill="#616165"/>
<rect x="1639" y="147" width="315.625" height="157.812" fill="#333333"/>
<rect x="1639" y="304.812" width="315.625" height="157.812" fill="#BB86FE"/>
<path fill-rule="evenodd" clip-rule="evenodd" d="M1923.06 304.812C1923.06 374.538 1866.54 431.062 1796.81 431.062C1727.09 431.062 1670.56 374.538 1670.56 304.812" fill="#D8D5D6"/>
<path fill-rule="evenodd" clip-rule="evenodd" d="M1923.06 304.813C1923.06 235.087 1866.54 178.562 1796.81 178.562C1727.09 178.562 1670.56 235.087 1670.56 304.813" fill="#D8D5D6"/>
<path d="M1655.77 48.6165C1663.49 48.6165 1667.95 44.252 1667.95 36.7559V12.4182H1660.51V36.6819C1660.51 40.282 1658.83 42.1807 1655.7 42.1807C1652.76 42.1807 1651.14 40.2573 1651.01 37.4956L1650.99 37.3477H1643.76L1643.79 37.5696C1643.96 44.252 1648.42 48.6165 1655.77 48.6165ZM1682.55 48.5425C1686.55 48.5425 1689.26 46.6685 1690.61 43.6355H1690.76V48H1697.96V21.5664H1690.76V36.7559C1690.76 40.208 1688.72 42.5752 1685.49 42.5752C1682.26 42.5752 1680.63 40.5779 1680.63 37.1257V21.5664H1673.43V38.6299C1673.43 44.8191 1676.73 48.5425 1682.55 48.5425ZM1702.65 56.6304H1709.85V43.4875H1710C1711.43 46.6191 1714.41 48.5425 1718.18 48.5425C1724.79 48.5425 1728.88 43.3643 1728.88 34.7832V34.7585C1728.88 26.1528 1724.79 21.0239 1718.08 21.0239C1714.34 21.0239 1711.45 22.9719 1710.02 26.1775H1709.85V21.5664H1702.65V56.6304ZM1715.72 42.5752C1712.22 42.5752 1709.82 39.5669 1709.82 34.8079V34.7832C1709.82 29.9995 1712.22 26.9912 1715.72 26.9912C1719.29 26.9912 1721.56 29.9255 1721.56 34.7585V34.7832C1721.56 39.5916 1719.29 42.5752 1715.72 42.5752ZM1736.38 18.1636C1738.55 18.1636 1740.23 16.4622 1740.23 14.4155C1740.23 12.3689 1738.55 10.6675 1736.38 10.6675C1734.21 10.6675 1732.53 12.3689 1732.53 14.4155C1732.53 16.4622 1734.21 18.1636 1736.38 18.1636ZM1732.78 48H1739.98V21.5664H1732.78V48ZM1755.32 48.5425C1756.82 48.5425 1757.98 48.3945 1758.79 48.2712V42.9944C1758.35 43.0437 1757.88 43.1177 1757.24 43.1177C1755.07 43.1177 1753.96 42.2793 1753.96 39.8135V26.9912H1758.79V21.5664H1753.96V15.106H1746.69V21.5664H1743.01V26.9912H1746.69V40.6025C1746.69 46.2739 1749.45 48.5425 1755.32 48.5425ZM1774.4 48.5425C1781.95 48.5425 1785.6 44.0793 1786.41 40.1833L1786.49 39.9121H1779.88L1779.83 40.0601C1779.31 41.5396 1777.51 43.167 1774.55 43.167C1770.88 43.167 1768.58 40.7012 1768.51 36.4846H1786.71V34.2654C1786.71 26.2761 1781.85 21.0239 1774.11 21.0239C1766.36 21.0239 1761.41 26.3994 1761.41 34.8079V34.8325C1761.41 43.2903 1766.32 48.5425 1774.4 48.5425ZM1774.23 26.3994C1777.21 26.3994 1779.36 28.2981 1779.8 31.9475H1768.58C1769.05 28.3721 1771.27 26.3994 1774.23 26.3994ZM1790.43 48H1797.63V33.2051C1797.63 29.3584 1799.7 27.2378 1803.25 27.2378C1804.29 27.2378 1805.28 27.3857 1805.87 27.6323V21.2952C1805.32 21.1472 1804.59 21.0239 1803.8 21.0239C1800.71 21.0239 1798.57 22.9226 1797.78 26.1775H1797.63V21.5664H1790.43V48ZM1654.42 108H1661.79V72.4182H1654.39L1645.19 78.8047V85.4131L1654.27 79.2485H1654.42V108ZM1683.66 108.616C1692.14 108.616 1697.99 104.4 1697.99 98.2847V98.2354C1697.99 93.6243 1694.56 90.2214 1689.8 89.2844V89.1365C1693.89 88.1255 1696.71 85.1418 1696.71 81.3445V81.2952C1696.71 75.7964 1691.33 71.8018 1683.66 71.8018C1675.97 71.8018 1670.62 75.7964 1670.62 81.2952V81.3445C1670.62 85.1418 1673.4 88.1255 1677.52 89.1365V89.2844C1672.74 90.2214 1669.31 93.6243 1669.31 98.2354V98.2847C1669.31 104.4 1675.18 108.616 1683.66 108.616ZM1683.66 86.8926C1680.31 86.8926 1677.97 84.8953 1677.97 82.0349V81.9856C1677.97 79.1499 1680.33 77.1772 1683.66 77.1772C1686.99 77.1772 1689.33 79.1499 1689.33 81.9856V82.0349C1689.33 84.8953 1687.01 86.8926 1683.66 86.8926ZM1683.66 103.192C1679.77 103.192 1677.03 100.923 1677.03 97.7915V97.7422C1677.03 94.5859 1679.74 92.2927 1683.66 92.2927C1687.58 92.2927 1690.27 94.5859 1690.27 97.7422V97.7915C1690.27 100.923 1687.53 103.192 1683.66 103.192ZM1700.63 115.422H1705.61L1709.23 101.786H1702.43L1700.63 115.422ZM1723.26 108H1731.08L1745.92 78.4102V72.4182H1720.48V78.3362H1738.58V78.4841L1723.26 108ZM1764.56 108H1771.64V101.466H1776.33V95.5229H1771.64V72.4182H1761.14L1746.86 95.2517V101.466H1764.56V108ZM1753.35 95.7202V95.5229L1764.54 77.7937H1764.71V95.7202H1753.35ZM1778.74 115.422H1783.72L1787.35 101.786H1780.54L1778.74 115.422ZM1813.88 108.616C1821.8 108.616 1827.59 103.438 1827.59 96.1641V96.1147C1827.59 89.457 1822.88 84.5747 1816 84.5747C1811.19 84.5747 1807.69 86.9912 1806.29 90.2954H1806.14C1806.14 89.9255 1806.16 89.4324 1806.19 88.9392C1806.46 82.6514 1808.73 77.6951 1813.93 77.6951C1816.84 77.6951 1818.81 79.1499 1819.7 81.2952L1819.77 81.5171H1827.12L1827.07 81.2705C1826.01 75.7717 1820.83 71.8018 1813.96 71.8018C1804.68 71.8018 1799.04 78.8047 1799.04 90.468V90.5173C1799.04 102.575 1805.3 108.616 1813.88 108.616ZM1807.27 96.3367V96.2874C1807.27 92.6626 1810.13 90.0735 1813.86 90.0735C1817.56 90.0735 1820.34 92.6873 1820.34 96.386V96.4353C1820.34 99.9368 1817.41 102.698 1813.78 102.698C1810.13 102.698 1807.27 99.9121 1807.27 96.3367ZM1846.36 108.616C1854.84 108.616 1860.68 104.4 1860.68 98.2847V98.2354C1860.68 93.6243 1857.26 90.2214 1852.5 89.2844V89.1365C1856.59 88.1255 1859.4 85.1418 1859.4 81.3445V81.2952C1859.4 75.7964 1854.02 71.8018 1846.36 71.8018C1838.66 71.8018 1833.31 75.7964 1833.31 81.2952V81.3445C1833.31 85.1418 1836.1 88.1255 1840.22 89.1365V89.2844C1835.43 90.2214 1832.01 93.6243 1832.01 98.2354V98.2847C1832.01 104.4 1837.87 108.616 1846.36 108.616ZM1846.36 86.8926C1843 86.8926 1840.66 84.8953 1840.66 82.0349V81.9856C1840.66 79.1499 1843.03 77.1772 1846.36 77.1772C1849.69 77.1772 1852.03 79.1499 1852.03 81.9856V82.0349C1852.03 84.8953 1849.71 86.8926 1846.36 86.8926ZM1846.36 103.192C1842.46 103.192 1839.72 100.923 1839.72 97.7915V97.7422C1839.72 94.5859 1842.44 92.2927 1846.36 92.2927C1850.28 92.2927 1852.96 94.5859 1852.96 97.7422V97.7915C1852.96 100.923 1850.23 103.192 1846.36 103.192Z" fill="#616165"/>
<rect x="2459" y="147" width="315.625" height="157.812" fill="#333333"/>
<rect x="2459" y="304.812" width="315.625" height="157.812" fill="#BB86FE"/>
<path fill-rule="evenodd" clip-rule="evenodd" d="M2743.06 304.812C2743.06 374.538 2686.54 431.062 2616.81 431.062C2547.09 431.062 2490.56 374.538 2490.56 304.812" fill="#BEE2FE"/>
<path fill-rule="evenodd" clip-rule="evenodd" d="M2743.06 304.813C2743.06 235.087 2686.54 178.562 2616.81 178.562C2547.09 178.562 2490.56 235.087 2490.56 304.813" fill="#BEE2FE"/>
<path d="M2461.96 48H2469.38V24.698H2469.53L2485.66 48H2492.12V12.4182H2484.69V35.5476H2484.55L2468.47 12.4182H2461.96V48ZM2509.48 48.5425C2517.02 48.5425 2520.67 44.0793 2521.48 40.1833L2521.56 39.9121H2514.95L2514.9 40.0601C2514.38 41.5396 2512.58 43.167 2509.62 43.167C2505.95 43.167 2503.66 40.7012 2503.58 36.4846H2521.78V34.2654C2521.78 26.2761 2516.92 21.0239 2509.18 21.0239C2501.44 21.0239 2496.48 26.3994 2496.48 34.8079V34.8325C2496.48 43.2903 2501.39 48.5425 2509.48 48.5425ZM2509.3 26.3994C2512.29 26.3994 2514.43 28.2981 2514.88 31.9475H2503.66C2504.12 28.3721 2506.34 26.3994 2509.3 26.3994ZM2525.5 56.6304H2532.7V43.4875H2532.85C2534.28 46.6191 2537.27 48.5425 2541.04 48.5425C2547.65 48.5425 2551.74 43.3643 2551.74 34.7832V34.7585C2551.74 26.1528 2547.65 21.0239 2540.94 21.0239C2537.19 21.0239 2534.31 22.9719 2532.88 26.1775H2532.7V21.5664H2525.5V56.6304ZM2538.57 42.5752C2535.07 42.5752 2532.68 39.5669 2532.68 34.8079V34.7832C2532.68 29.9995 2535.07 26.9912 2538.57 26.9912C2542.15 26.9912 2544.42 29.9255 2544.42 34.7585V34.7832C2544.42 39.5916 2542.15 42.5752 2538.57 42.5752ZM2565.99 48.5425C2567.5 48.5425 2568.66 48.3945 2569.47 48.2712V42.9944C2569.02 43.0437 2568.56 43.1177 2567.92 43.1177C2565.75 43.1177 2564.64 42.2793 2564.64 39.8135V26.9912H2569.47V21.5664H2564.64V15.106H2557.36V21.5664H2553.69V26.9912H2557.36V40.6025C2557.36 46.2739 2560.12 48.5425 2565.99 48.5425ZM2582.44 48.5425C2586.43 48.5425 2589.15 46.6685 2590.5 43.6355H2590.65V48H2597.85V21.5664H2590.65V36.7559C2590.65 40.208 2588.6 42.5752 2585.37 42.5752C2582.14 42.5752 2580.52 40.5779 2580.52 37.1257V21.5664H2573.32V38.6299C2573.32 44.8191 2576.62 48.5425 2582.44 48.5425ZM2602.54 48H2609.74V32.8105C2609.74 29.3584 2611.78 26.9912 2615.01 26.9912C2618.24 26.9912 2619.87 28.9639 2619.87 32.416V48H2627.07V30.9365C2627.07 24.7473 2623.77 21.0239 2617.95 21.0239C2613.95 21.0239 2611.24 22.8733 2609.88 25.9062H2609.74V21.5664H2602.54V48ZM2643.67 48.5425C2651.21 48.5425 2654.86 44.0793 2655.67 40.1833L2655.75 39.9121H2649.14L2649.09 40.0601C2648.57 41.5396 2646.77 43.167 2643.81 43.167C2640.14 43.167 2637.85 40.7012 2637.77 36.4846H2655.97V34.2654C2655.97 26.2761 2651.11 21.0239 2643.37 21.0239C2635.63 21.0239 2630.67 26.3994 2630.67 34.8079V34.8325C2630.67 43.2903 2635.58 48.5425 2643.67 48.5425ZM2643.49 26.3994C2646.48 26.3994 2648.62 28.2981 2649.07 31.9475H2637.85C2638.31 28.3721 2640.53 26.3994 2643.49 26.3994ZM2461.52 108H2487.38V102.082H2471.26V101.786L2478.7 94.9805C2484.84 89.3337 2486.89 86.5227 2486.89 82.2075V82.1582C2486.89 76.0923 2481.71 71.8018 2474.19 71.8018C2466.67 71.8018 2461.1 76.5115 2461.1 83.2185V83.4158H2468L2468.02 83.1938C2468.12 79.9883 2470.59 77.5964 2474.24 77.5964C2477.4 77.5964 2479.61 79.6677 2479.64 82.5774V82.6267C2479.64 85.0925 2478.68 86.8433 2474.09 91.1338L2461.52 102.896V108ZM2505.9 108.616C2514.92 108.616 2520.4 101.54 2520.4 90.2214V90.1721C2520.4 78.854 2514.92 71.8018 2505.9 71.8018C2496.88 71.8018 2491.4 78.854 2491.4 90.1721V90.2214C2491.4 101.54 2496.88 108.616 2505.9 108.616ZM2505.9 102.649C2501.46 102.649 2498.92 98.0381 2498.92 90.2214V90.1721C2498.92 82.3555 2501.46 77.769 2505.9 77.769C2510.34 77.769 2512.88 82.3555 2512.88 90.1721V90.2214C2512.88 98.0381 2510.34 102.649 2505.9 102.649ZM2525.95 108H2533.76L2548.61 78.4102V72.4182H2523.16V78.3362H2541.26V78.4841L2525.95 108ZM2546.76 115.422H2551.74L2555.36 101.786H2548.56L2546.76 115.422ZM2581.11 71.8018C2573.19 71.8018 2567.4 76.9553 2567.4 84.2295V84.2788C2567.4 90.9612 2572.11 95.8188 2578.99 95.8188C2583.8 95.8188 2587.3 93.4023 2588.7 90.0981H2588.83C2588.85 90.4927 2588.83 90.9858 2588.8 91.4543C2588.53 97.7422 2586.26 102.698 2581.06 102.698C2578.15 102.698 2576.18 101.244 2575.29 99.0984L2575.21 98.9011H2567.87L2567.92 99.123C2568.98 104.622 2574.15 108.616 2581.03 108.616C2590.3 108.616 2595.95 101.589 2595.95 89.9255V89.8762C2595.95 77.8184 2589.69 71.8018 2581.11 71.8018ZM2581.13 90.3201C2577.43 90.3201 2574.65 87.731 2574.65 84.0322V83.9829C2574.65 80.4568 2577.58 77.7197 2581.21 77.7197C2584.86 77.7197 2587.72 80.4814 2587.72 84.0815V84.1062C2587.72 87.731 2584.86 90.3201 2581.13 90.3201ZM2601.45 108H2609.27L2624.11 78.4102V72.4182H2598.66V78.3362H2616.76V78.4841L2601.45 108ZM2622.26 115.422H2627.24L2630.87 101.786H2624.06L2622.26 115.422ZM2644.9 108H2652.71L2667.56 78.4102V72.4182H2642.11V78.3362H2660.21V78.4841L2644.9 108ZM2673.8 108H2681.61L2696.46 78.4102V72.4182H2671.01V78.3362H2689.11V78.4841L2673.8 108Z" fill="#616165"/>
<rect x="2049" y="147" width="315.625" height="157.812" fill="#333333"/>
<rect x="2049" y="304.812" width="315.625" height="157.812" fill="#BB86FE"/>
<path fill-rule="evenodd" clip-rule="evenodd" d="M2333.06 304.812C2333.06 374.538 2276.54 431.062 2206.81 431.062C2137.09 431.062 2080.56 374.538 2080.56 304.812" fill="#36C9C4"/>
<path fill-rule="evenodd" clip-rule="evenodd" d="M2333.06 304.813C2333.06 235.087 2276.54 178.562 2206.81 178.562C2137.09 178.562 2080.56 235.087 2080.56 304.813" fill="#36C9C4"/>
<path d="M2066.88 48.6165C2076.05 48.6165 2081.77 43.3149 2081.77 35.4243V12.4182H2074.32V34.7585C2074.32 39.3696 2071.66 42.304 2066.88 42.304C2062.09 42.304 2059.41 39.3696 2059.41 34.7585V12.4182H2051.96V35.4243C2051.96 43.3396 2057.75 48.6165 2066.88 48.6165ZM2087.1 48H2094.3V33.2051C2094.3 29.3584 2096.37 27.2378 2099.92 27.2378C2100.95 27.2378 2101.94 27.3857 2102.53 27.6323V21.2952C2101.99 21.1472 2101.25 21.0239 2100.46 21.0239C2097.38 21.0239 2095.23 22.9226 2094.45 26.1775H2094.3V21.5664H2087.1V48ZM2112.72 48.4192C2116.19 48.4192 2119 46.7671 2120.51 44.0547H2120.66V48H2127.86V29.8762C2127.86 24.55 2123.44 21.0239 2116.61 21.0239C2109.63 21.0239 2105.44 24.5254 2105.05 29.4077L2105.02 29.7036H2111.61L2111.66 29.4817C2112 27.7803 2113.63 26.5227 2116.32 26.5227C2119.13 26.5227 2120.66 27.9775 2120.66 30.3201V31.9475L2114.12 32.342C2107.56 32.7612 2103.84 35.5723 2103.84 40.3806V40.4299C2103.84 45.0903 2107.42 48.4192 2112.72 48.4192ZM2110.97 40.0601V40.0107C2110.97 38.1367 2112.42 36.9531 2115.21 36.7805L2120.66 36.4353V38.334C2120.66 41.0957 2118.29 43.167 2115.06 43.167C2112.57 43.167 2110.97 42.0081 2110.97 40.0601ZM2132.52 48H2139.72V32.8105C2139.72 29.3584 2141.76 26.9912 2144.99 26.9912C2148.22 26.9912 2149.85 28.9639 2149.85 32.416V48H2157.05V30.9365C2157.05 24.7473 2153.75 21.0239 2147.93 21.0239C2143.93 21.0239 2141.22 22.8733 2139.87 25.9062H2139.72V21.5664H2132.52V48ZM2170.61 48.5425C2174.61 48.5425 2177.32 46.6685 2178.68 43.6355H2178.83V48H2186.03V21.5664H2178.83V36.7559C2178.83 40.208 2176.78 42.5752 2173.55 42.5752C2170.32 42.5752 2168.69 40.5779 2168.69 37.1257V21.5664H2161.49V38.6299C2161.49 44.8191 2164.79 48.5425 2170.61 48.5425ZM2201.58 48.5425C2208.39 48.5425 2213.15 45.1396 2213.15 39.9614V39.9368C2213.15 36.0408 2210.88 33.8708 2205.36 32.7119L2200.87 31.7502C2198.21 31.1831 2197.29 30.2954 2197.29 28.9392V28.9146C2197.29 27.2131 2198.85 26.1035 2201.34 26.1035C2204 26.1035 2205.55 27.5337 2205.8 29.4324L2205.83 29.6296H2212.46V29.3831C2212.29 24.7473 2208.37 21.0239 2201.34 21.0239C2194.61 21.0239 2190.27 24.2788 2190.27 29.3091V29.3337C2190.27 33.2791 2192.86 35.8435 2197.98 36.9285L2202.47 37.8655C2205.06 38.4326 2205.95 39.2463 2205.95 40.6519V40.6765C2205.95 42.3779 2204.3 43.4382 2201.58 43.4382C2198.7 43.4382 2197.15 42.23 2196.68 40.1587L2196.63 39.9368H2189.6L2189.63 40.1587C2190.19 45.1643 2194.26 48.5425 2201.58 48.5425ZM2060.42 108H2067.79V72.4182H2060.39L2051.19 78.8047V85.4131L2060.27 79.2485H2060.42V108ZM2077.63 108H2085.44L2100.29 78.4102V72.4182H2074.84V78.3362H2092.94V78.4841L2077.63 108ZM2118.56 108.616C2127.04 108.616 2132.89 104.4 2132.89 98.2847V98.2354C2132.89 93.6243 2129.46 90.2214 2124.7 89.2844V89.1365C2128.79 88.1255 2131.6 85.1418 2131.6 81.3445V81.2952C2131.6 75.7964 2126.23 71.8018 2118.56 71.8018C2110.87 71.8018 2105.52 75.7964 2105.52 81.2952V81.3445C2105.52 85.1418 2108.3 88.1255 2112.42 89.1365V89.2844C2107.64 90.2214 2104.21 93.6243 2104.21 98.2354V98.2847C2104.21 104.4 2110.08 108.616 2118.56 108.616ZM2118.56 86.8926C2115.21 86.8926 2112.86 84.8953 2112.86 82.0349V81.9856C2112.86 79.1499 2115.23 77.1772 2118.56 77.1772C2121.89 77.1772 2124.23 79.1499 2124.23 81.9856V82.0349C2124.23 84.8953 2121.91 86.8926 2118.56 86.8926ZM2118.56 103.192C2114.66 103.192 2111.93 100.923 2111.93 97.7915V97.7422C2111.93 94.5859 2114.64 92.2927 2118.56 92.2927C2122.48 92.2927 2125.17 94.5859 2125.17 97.7422V97.7915C2125.17 100.923 2122.43 103.192 2118.56 103.192ZM2135.53 115.422H2140.51L2144.13 101.786H2137.33L2135.53 115.422ZM2169.97 108.616C2178.11 108.616 2183.73 103.562 2183.73 96.1147V96.0654C2183.73 89.3584 2178.85 84.5007 2172.09 84.5007C2168.49 84.5007 2165.56 85.9556 2164.08 88.3474H2163.93L2164.79 78.3362H2181.59V72.4182H2158.88L2157.25 93.3037H2163.73C2164.15 92.564 2164.72 91.8735 2165.44 91.3311C2166.64 90.3694 2168.2 89.8269 2170.02 89.8269C2173.87 89.8269 2176.61 92.4653 2176.63 96.2134V96.2627C2176.63 100.06 2173.89 102.723 2170 102.723C2166.57 102.723 2164.08 100.652 2163.56 97.9641L2163.51 97.7915H2156.63L2156.66 98.1614C2157.1 104.104 2162.23 108.616 2169.97 108.616ZM2189.72 108H2197.54L2212.39 78.4102V72.4182H2186.94V78.3362H2205.04V78.4841L2189.72 108ZM2210.54 115.422H2215.52L2219.14 101.786H2212.34L2210.54 115.422ZM2244.98 108.616C2253.12 108.616 2258.74 103.562 2258.74 96.1147V96.0654C2258.74 89.3584 2253.86 84.5007 2247.1 84.5007C2243.5 84.5007 2240.57 85.9556 2239.09 88.3474H2238.94L2239.81 78.3362H2256.6V72.4182H2233.89L2232.26 93.3037H2238.74C2239.16 92.564 2239.73 91.8735 2240.45 91.3311C2241.65 90.3694 2243.21 89.8269 2245.03 89.8269C2248.88 89.8269 2251.62 92.4653 2251.64 96.2134V96.2627C2251.64 100.06 2248.9 102.723 2245.01 102.723C2241.58 102.723 2239.09 100.652 2238.57 97.9641L2238.52 97.7915H2231.64L2231.67 98.1614C2232.11 104.104 2237.24 108.616 2244.98 108.616ZM2276.94 108.616C2285.97 108.616 2291.44 101.54 2291.44 90.2214V90.1721C2291.44 78.854 2285.97 71.8018 2276.94 71.8018C2267.92 71.8018 2262.44 78.854 2262.44 90.1721V90.2214C2262.44 101.54 2267.92 108.616 2276.94 108.616ZM2276.94 102.649C2272.5 102.649 2269.96 98.0381 2269.96 90.2214V90.1721C2269.96 82.3555 2272.5 77.769 2276.94 77.769C2281.38 77.769 2283.92 82.3555 2283.92 90.1721V90.2214C2283.92 98.0381 2281.38 102.649 2276.94 102.649Z" fill="#616165"/>
</svg>
