<?xml version="1.0" encoding="UTF-8" standalone="no"?>
<!DOCTYPE svg PUBLIC "-//W3C//DTD SVG 1.1//EN" "http://www.w3.org/Graphics/SVG/1.1/DTD/svg11.dtd">
<svg width="100%" height="100%" viewBox="0 0 1182 1182" version="1.1" xmlns="http://www.w3.org/2000/svg" xmlns:xlink="http://www.w3.org/1999/xlink" xml:space="preserve" xmlns:serif="http://www.serif.com/" style="fill-rule:evenodd;clip-rule:evenodd;stroke-linecap:round;stroke-linejoin:round;stroke-miterlimit:1.5;">
    <g transform="matrix(1,0,0,1,-4642.48,-5963.09)">
        <g transform="matrix(1,0,0,1,-7432.21,5422)">
            <g transform="matrix(0.612605,0,0,0.763479,11598.1,-3884.79)">
                <rect x="778" y="5797" width="1928" height="1547" style="fill:white;"/>
            </g>
            <g transform="matrix(1,0,0,1,3530.35,-66.6881)">
                <g transform="matrix(1,0,0,1,3717,53)">
                    <g transform="matrix(1,0,0,1,3504.5,507.268)">
                        <path d="M2031.5,992.126L2078.74,992.126L2125.98,944.882L2125.98,897.638L2173.23,850.394L2173.23,803.15" style="fill:none;stroke:rgb(166,166,166);stroke-width:41.67px;"/>
                    </g>
                    <g transform="matrix(1,0,0,1,3504.5,507.268)">
                        <path d="M1795.28,236.22L1748.03,236.22L1653.54,330.709L1653.54,377.953L1559.06,472.441L1559.06,519.685L1511.81,566.929" style="fill:none;stroke:rgb(166,166,166);stroke-width:41.67px;"/>
                    </g>
                    <g transform="matrix(1,0,0,1,3504.5,507.268)">
                        <path d="M1984.25,236.22L2031.5,188.976L2125.98,188.976L2220.47,283.465L2267.72,283.465L2314.96,330.709L2314.96,377.953C2314.96,377.953 2409.64,471.879 2409.45,472.441C2409.26,473.002 2409.45,614.173 2409.45,614.173L2362.2,661.417L2314.96,661.417" style="fill:none;stroke:rgb(166,166,166);stroke-width:41.67px;"/>
                    </g>
                    <g transform="matrix(1,0,0,1,3504.5,507.268)">
                        <path d="M1937.01,519.685L1984.25,519.685L2078.74,425.197L2125.98,425.197L2173.23,472.441L2173.23,519.685" style="fill:none;stroke:rgb(166,166,166);stroke-width:41.67px;"/>
                    </g>
                    <g transform="matrix(1,0,0,1,3504.5,507.268)">
                        <path d="M1511.81,756.448L1511.81,803.15L1559.06,803.15L1606.3,850.394L1606.3,944.882L1653.54,992.126L1748.03,992.2" style="fill:none;stroke:rgb(166,166,166);stroke-width:41.67px;"/>
                    </g>
                    <g transform="matrix(1,0,0,1,3504.5,507.268)">
                        <path d="M1559.06,519.685L1700.79,519.718L1748.03,472.441L1748.03,425.197L1795.28,377.953L1842.52,377.953L1889.76,425.197L1889.76,472.441" style="fill:none;stroke:rgb(166,166,166);stroke-width:41.67px;"/>
                    </g>
                    <g transform="matrix(1,0,0,1,3504.5,507.268)">
                        <path d="M1606.3,661.417L1653.54,661.688L1700.79,708.661L1700.79,756.448L1748.03,803.15L1937.01,803.15L2031.5,708.661" style="fill:none;stroke:rgb(166,166,166);stroke-width:41.67px;"/>
                    </g>
                    <g transform="matrix(1,0,0,1,3504.5,507.268)">
                        <path d="M1795.28,614.173L1795.28,567.471L1842.52,519.782" style="fill:none;stroke:rgb(166,166,166);stroke-width:41.67px;"/>
                    </g>
                </g>
                <g transform="matrix(0.732467,0,0,0.726832,8073.72,903.333)">
                    <ellipse cx="1416.5" cy="243" rx="64.5" ry="65" style="fill:rgb(211,78,75);stroke:rgb(211,78,75);stroke-width:22.84px;"/>
                </g>
                <g transform="matrix(0.732467,0,0,0.726832,7979.24,1045.06)">
                    <ellipse cx="1416.5" cy="243" rx="64.5" ry="65" style="fill:rgb(12,97,181);stroke:rgb(12,97,181);stroke-width:22.84px;"/>
                </g>
                <g transform="matrix(1.12486,0,0,1.13841,8124.76,514.162)">
                    <ellipse cx="1129" cy="621.5" rx="126" ry="124.5" style="fill:rgb(255,205,68);stroke:rgb(255,205,68);stroke-width:14.73px;"/>
                </g>
                <g transform="matrix(1.12486,0,0,1.13841,7841.3,844.871)">
                    <ellipse cx="1129" cy="621.5" rx="126" ry="124.5" style="fill:rgb(255,161,49);stroke:rgb(255,161,49);stroke-width:14.73px;"/>
                </g>
                <g transform="matrix(1.03266,0,0,1.07677,7226.15,130.779)">
                    <ellipse cx="1825.5" cy="618.5" rx="91.5" ry="87.5" style="fill:rgb(0,151,213);stroke:rgb(0,151,213);stroke-width:15.8px;"/>
                </g>
                <g transform="matrix(1.03266,0,0,1.07677,6848.19,555.976)">
                    <ellipse cx="1825.5" cy="618.5" rx="91.5" ry="87.5" style="fill:rgb(0,145,164);stroke:rgb(0,145,164);stroke-width:15.8px;"/>
                </g>
            </g>
        </g>
    </g>
</svg>
